# Created by FreeCAD <http://www.freecadweb.org>
v 70.000000 0.000000 13.000000
v 50.000000 0.000000 13.000000
v 50.000000 0.000000 0.000000
v 70.000000 0.000000 0.000000
v 70.000000 2.300000 13.000000
v 50.000000 2.300000 13.000000
v 70.000000 2.342623 12.621715
v 70.000000 2.468353 12.262398
v 70.000000 2.670887 11.940067
v 70.000000 2.940067 11.670886
v 70.000000 22.059933 11.670886
v 70.000000 25.000000 0.000000
v 70.000000 25.000000 13.000000
v 70.000000 22.329113 11.940067
v 70.000000 21.737602 11.468353
v 70.000000 22.531647 12.262398
v 70.000000 21.378286 11.342623
v 70.000000 22.657377 12.621715
v 70.000000 21.000000 11.300000
v 70.000000 22.700001 13.000000
v 70.000000 20.621714 11.342623
v 70.000000 20.262398 11.468353
v 70.000000 19.940067 11.670886
v 70.000000 5.059933 11.670886
v 70.000000 5.329113 11.940067
v 70.000000 19.670887 11.940067
v 70.000000 4.737602 11.468353
v 70.000000 5.531647 12.262398
v 70.000000 19.468353 12.262398
v 70.000000 4.378285 11.342623
v 70.000000 5.657377 12.621715
v 70.000000 19.342623 12.621715
v 70.000000 19.299999 13.000000
v 70.000000 4.000000 11.300000
v 70.000000 5.700000 13.000000
v 70.000000 3.621714 11.342623
v 70.000000 3.262398 11.468353
v 50.000000 25.000000 0.000000
v 50.000000 25.000000 13.000000
v 50.000000 2.342623 12.621715
v 50.000000 2.468353 12.262398
v 50.000000 2.670887 11.940067
v 50.000000 2.940067 11.670886
v 50.000000 3.262398 11.468353
v 50.000000 3.621714 11.342623
v 50.000000 4.000000 11.300000
v 50.000000 4.378285 11.342623
v 50.000000 4.737602 11.468353
v 50.000000 5.059933 11.670886
v 50.000000 5.329113 11.940067
v 50.000000 5.531647 12.262398
v 50.000000 5.657377 12.621715
v 50.000000 5.700000 13.000000
v 50.000000 22.700001 13.000000
v 50.000000 19.299999 13.000000
v 50.000000 19.342623 12.621715
v 50.000000 19.468353 12.262398
v 50.000000 19.670887 11.940067
v 50.000000 19.940067 11.670886
v 50.000000 20.262398 11.468353
v 50.000000 20.621714 11.342623
v 50.000000 21.000000 11.300000
v 50.000000 21.378286 11.342623
v 50.000000 21.737602 11.468353
v 50.000000 22.059933 11.670886
v 50.000000 22.329113 11.940067
v 50.000000 22.531647 12.262398
v 50.000000 22.657377 12.621715
v 58.765526 11.647902 13.000000
v 59.005318 11.377234 13.000000
v 59.302914 11.171816 13.000000
v 58.597477 11.968093 13.000000
v 59.641026 11.043588 13.000000
v 58.510937 12.319195 13.000000
v 60.000000 11.000000 13.000000
v 58.510937 12.680805 13.000000
v 58.597477 13.031907 13.000000
v 58.765526 13.352098 13.000000
v 59.005318 13.622766 13.000000
v 59.302914 13.828184 13.000000
v 59.641026 13.956412 13.000000
v 60.000000 14.000000 13.000000
v 60.358974 11.043588 13.000000
v 60.697086 11.171816 13.000000
v 60.994682 11.377234 13.000000
v 61.234474 11.647902 13.000000
v 61.402523 11.968093 13.000000
v 61.489063 12.319195 13.000000
v 61.489063 12.680805 13.000000
v 61.402523 13.031907 13.000000
v 61.234474 13.352098 13.000000
v 60.994682 13.622766 13.000000
v 60.697086 13.828184 13.000000
v 60.358974 13.956412 13.000000
v 61.402523 11.968093 3.000000
v 61.489063 12.319195 3.000000
v 61.489063 12.680805 3.000000
v 61.402523 13.031907 3.000000
v 60.000000 14.000000 3.000000
v 59.641026 13.956412 3.000000
v 61.234474 13.352098 3.000000
v 59.302914 13.828184 3.000000
v 60.994682 13.622766 3.000000
v 59.005318 13.622766 3.000000
v 60.697086 13.828184 3.000000
v 58.765526 13.352098 3.000000
v 60.358974 13.956412 3.000000
v 58.597477 13.031907 3.000000
v 58.510937 12.680805 3.000000
v 58.510937 12.319195 3.000000
v 58.597477 11.968093 3.000000
v 58.765526 11.647902 3.000000
v 59.005318 11.377234 3.000000
v 59.302914 11.171816 3.000000
v 59.641026 11.043588 3.000000
v 60.000000 11.000000 3.000000
v 60.358974 11.043588 3.000000
v 60.697086 11.171816 3.000000
v 60.994682 11.377234 3.000000
v 61.234474 11.647902 3.000000
vn -0.000000 -1.000000 0.000000
vn 0.000000 -1.000000 0.000000
vn 0.000000 0.000000 1.000000
vn 0.000000 0.000000 1.000000
vn 1.000000 -0.000000 0.000000
vn 1.000000 0.000000 0.000000
vn 1.000000 0.000000 0.000000
vn 1.000000 0.000000 0.000000
vn 1.000000 -0.000000 0.000000
vn 1.000000 0.000000 0.000000
vn 1.000000 -0.000000 0.000000
vn 1.000000 -0.000000 0.000000
vn 1.000000 -0.000000 0.000000
vn 1.000000 -0.000000 0.000000
vn 1.000000 -0.000000 0.000000
vn 1.000000 -0.000000 0.000000
vn 1.000000 -0.000000 0.000000
vn 1.000000 0.000000 0.000000
vn 1.000000 0.000000 0.000000
vn 1.000000 0.000000 0.000000
vn 1.000000 0.000000 0.000000
vn 1.000000 -0.000000 0.000000
vn 1.000000 -0.000000 0.000000
vn 1.000000 0.000000 0.000000
vn 1.000000 -0.000000 0.000000
vn 1.000000 -0.000000 0.000000
vn 1.000000 0.000000 0.000000
vn 1.000000 -0.000000 0.000000
vn 1.000000 0.000000 0.000000
vn 1.000000 -0.000000 0.000000
vn 1.000000 0.000000 0.000000
vn 1.000000 -0.000000 0.000000
vn 1.000000 -0.000000 0.000000
vn 1.000000 0.000000 0.000000
vn 1.000000 0.000000 0.000000
vn 1.000000 0.000000 0.000000
vn 0.000000 0.000000 -1.000000
vn 0.000000 0.000000 -1.000000
vn 0.000000 1.000000 0.000000
vn 0.000000 1.000000 0.000000
vn 0.000000 0.993712 0.111965
vn 0.000000 0.993712 0.111965
vn 0.000000 0.943883 0.330279
vn 0.000000 0.943883 0.330279
vn 0.000000 0.846724 0.532032
vn 0.000000 0.846724 0.532032
vn 0.000000 0.707107 0.707106
vn 0.000000 0.707107 0.707106
vn 0.000000 0.532031 0.846725
vn 0.000000 0.532031 0.846725
vn 0.000000 0.330279 0.943883
vn 0.000000 0.330279 0.943883
vn 0.000000 -0.111965 0.993712
vn 0.000000 0.111965 0.993712
vn 0.000000 0.111965 0.993712
vn 0.000000 -0.330279 0.943883
vn 0.000000 -0.111965 0.993712
vn 0.000000 -0.532030 0.846725
vn 0.000000 -0.330279 0.943883
vn 0.000000 -0.707107 0.707106
vn 0.000000 -0.532030 0.846725
vn 0.000000 -0.846724 0.532032
vn 0.000000 -0.707107 0.707106
vn 0.000000 -0.943884 0.330278
vn 0.000000 -0.846724 0.532032
vn 0.000000 -0.993712 0.111965
vn 0.000000 -0.943884 0.330278
vn 0.000000 -0.993712 0.111965
vn 0.000000 0.000000 1.000000
vn 0.000000 0.000000 1.000000
vn 0.000000 0.993712 0.111967
vn 0.000000 0.993712 0.111967
vn 0.000000 0.943883 0.330279
vn 0.000000 0.943883 0.330279
vn 0.000000 0.846724 0.532032
vn 0.000000 0.846724 0.532032
vn 0.000000 0.707108 0.707106
vn 0.000000 0.707108 0.707106
vn 0.000000 0.532030 0.846725
vn 0.000000 0.532030 0.846725
vn 0.000000 0.330280 0.943883
vn 0.000000 0.330280 0.943883
vn 0.000000 -0.111964 0.993712
vn 0.000000 0.111964 0.993712
vn 0.000000 0.111964 0.993712
vn 0.000000 -0.330280 0.943883
vn 0.000000 -0.111964 0.993712
vn 0.000000 -0.532030 0.846725
vn 0.000000 -0.330280 0.943883
vn 0.000000 -0.707108 0.707106
vn 0.000000 -0.532030 0.846725
vn 0.000000 -0.846724 0.532032
vn 0.000000 -0.707108 0.707106
vn 0.000000 -0.943883 0.330279
vn 0.000000 -0.846724 0.532032
vn 0.000000 -0.993712 0.111967
vn 0.000000 -0.943883 0.330279
vn 0.000000 -0.993712 0.111967
vn 0.000000 0.000000 1.000000
vn 0.000000 0.000000 1.000000
vn 0.000000 0.000000 1.000000
vn 0.000000 0.000000 1.000000
vn 0.000000 0.000000 1.000000
vn 0.000000 0.000000 1.000000
vn 0.000000 0.000000 1.000000
vn 0.000000 0.000000 1.000000
vn 0.000000 0.000000 1.000000
vn 0.000000 0.000000 1.000000
vn 0.000000 0.000000 1.000000
vn 0.000000 0.000000 1.000000
vn 0.000000 0.000000 1.000000
vn 0.000000 0.000000 1.000000
vn 0.000000 0.000000 1.000000
vn 0.000000 0.000000 1.000000
vn 0.000000 0.000000 1.000000
vn 0.000000 0.000000 1.000000
vn 0.000000 0.000000 1.000000
vn 0.000000 0.000000 1.000000
vn 0.000000 0.000000 1.000000
vn 0.000000 0.000000 1.000000
vn 0.000000 0.000000 1.000000
vn 0.000000 0.000000 1.000000
vn 0.000000 0.000000 1.000000
vn 0.000000 0.000000 1.000000
vn 0.000000 0.000000 1.000000
vn 0.000000 0.000000 1.000000
vn 0.000000 0.000000 1.000000
vn 0.000000 0.000000 1.000000
vn -0.970941 0.239319 0.000000
vn -1.000000 0.000000 0.000000
vn -1.000000 0.000000 0.000000
vn -0.970941 -0.239319 0.000000
vn 0.120537 -0.992709 0.000000
vn -0.970941 -0.239319 -0.000000
vn 0.120537 -0.992709 0.000000
vn -0.885456 -0.464723 0.000000
vn 0.354603 -0.935017 0.000000
vn -0.885456 -0.464723 -0.000000
vn 0.354603 -0.935017 0.000000
vn -0.748511 -0.663123 0.000000
vn -0.748511 -0.663123 -0.000000
vn 0.568068 -0.822981 0.000000
vn 0.568068 -0.822981 0.000000
vn -0.568068 -0.822981 0.000000
vn -0.568068 -0.822981 -0.000000
vn 0.748511 -0.663123 0.000000
vn 0.748511 -0.663123 0.000000
vn -0.354603 -0.935017 0.000000
vn -0.354603 -0.935017 -0.000000
vn 0.885456 -0.464723 0.000000
vn -0.120537 -0.992709 0.000000
vn 0.885456 -0.464723 0.000000
vn -0.120537 -0.992709 -0.000000
vn 0.970941 -0.239319 0.000000
vn 0.970941 -0.239319 0.000000
vn 1.000000 0.000000 0.000000
vn 1.000000 0.000000 0.000000
vn 0.970941 0.239319 0.000000
vn 0.970941 0.239319 0.000000
vn 0.885456 0.464723 0.000000
vn 0.885456 0.464723 0.000000
vn 0.748511 0.663123 0.000000
vn 0.748511 0.663123 0.000000
vn 0.568068 0.822981 0.000000
vn 0.568068 0.822981 0.000000
vn 0.354603 0.935017 0.000000
vn 0.354603 0.935017 0.000000
vn 0.120537 0.992709 0.000000
vn 0.120537 0.992709 0.000000
vn -0.120537 0.992709 0.000000
vn -0.120537 0.992709 0.000000
vn -0.354603 0.935017 0.000000
vn -0.354603 0.935017 0.000000
vn -0.568068 0.822981 0.000000
vn -0.568068 0.822981 0.000000
vn -0.748511 0.663123 0.000000
vn -0.748511 0.663123 0.000000
vn -0.885456 0.464723 0.000000
vn -0.885456 0.464723 0.000000
vn -0.970941 0.239319 0.000000
vn 0.000000 0.000000 1.000000
vn 0.000000 0.000000 1.000000
vn 0.000000 0.000000 1.000000
vn 0.000000 0.000000 1.000000
vn 0.000000 0.000000 1.000000
vn 0.000000 0.000000 1.000000
vn 0.000000 0.000000 1.000000
vn 0.000000 0.000000 1.000000
vn 0.000000 0.000000 1.000000
vn 0.000000 0.000000 1.000000
vn 0.000000 0.000000 1.000000
vn 0.000000 0.000000 1.000000
vn -0.000000 0.000000 1.000000
vn 0.000000 0.000000 1.000000
vn 0.000000 0.000000 1.000000
vn 0.000000 0.000000 1.000000
vn 0.000000 0.000000 1.000000
vn 0.000000 0.000000 1.000000
vn 0.000000 0.000000 1.000000
vn 0.000000 0.000000 1.000000
vn 0.000000 0.000000 1.000000
vn 0.000000 0.000000 1.000000
vn 0.000000 0.000000 1.000000
vn 0.000000 0.000000 1.000000
vn -1.000000 0.000000 0.000000
vn -1.000000 0.000000 0.000000
vn -1.000000 0.000000 0.000000
vn -1.000000 0.000000 0.000000
vn -1.000000 0.000000 0.000000
vn -1.000000 0.000000 0.000000
vn -1.000000 0.000000 0.000000
vn -1.000000 0.000000 0.000000
vn -1.000000 0.000000 0.000000
vn -1.000000 0.000000 0.000000
vn -1.000000 0.000000 0.000000
vn -1.000000 0.000000 0.000000
vn -1.000000 0.000000 0.000000
vn -1.000000 0.000000 0.000000
vn -1.000000 0.000000 0.000000
vn -1.000000 0.000000 0.000000
vn -1.000000 0.000000 0.000000
vn -1.000000 0.000000 0.000000
vn -1.000000 0.000000 0.000000
vn -1.000000 0.000000 0.000000
vn -1.000000 0.000000 0.000000
vn -1.000000 0.000000 0.000000
vn -1.000000 0.000000 0.000000
vn -1.000000 0.000000 0.000000
vn -1.000000 0.000000 0.000000
vn -1.000000 0.000000 0.000000
vn -1.000000 0.000000 0.000000
vn -1.000000 0.000000 0.000000
vn -1.000000 0.000000 0.000000
vn -1.000000 0.000000 0.000000
vn -1.000000 0.000000 0.000000
vn -1.000000 0.000000 0.000000
f 1//1 2//1 3//1
f 4//2 1//2 3//2
f 5//3 6//3 2//3
f 5//4 2//4 1//4
f 1//5 7//5 5//5
f 1//6 8//6 7//6
f 1//7 9//7 8//7
f 1//8 10//8 9//8
f 11//9 12//9 13//9
f 1//10 4//10 10//10
f 14//11 11//11 13//11
f 15//12 12//12 11//12
f 16//13 14//13 13//13
f 17//14 12//14 15//14
f 18//15 16//15 13//15
f 19//16 12//16 17//16
f 20//17 18//17 13//17
f 21//18 12//18 19//18
f 22//19 12//19 21//19
f 23//20 12//20 22//20
f 24//21 4//21 12//21
f 24//22 12//22 23//22
f 25//23 23//23 26//23
f 25//24 24//24 23//24
f 27//25 4//25 24//25
f 28//26 26//26 29//26
f 28//27 25//27 26//27
f 30//28 4//28 27//28
f 31//29 32//29 33//29
f 31//30 29//30 32//30
f 31//31 28//31 29//31
f 34//32 4//32 30//32
f 35//33 31//33 33//33
f 36//34 4//34 34//34
f 37//35 4//35 36//35
f 10//36 4//36 37//36
f 38//37 4//37 3//37
f 38//38 12//38 4//38
f 12//39 38//39 39//39
f 13//40 12//40 39//40
f 6//41 7//41 40//41
f 5//42 7//42 6//42
f 40//43 8//43 41//43
f 7//44 8//44 40//44
f 41//45 9//45 42//45
f 8//46 9//46 41//46
f 42//47 10//47 43//47
f 9//48 10//48 42//48
f 43//49 37//49 44//49
f 10//50 37//50 43//50
f 44//51 36//51 45//51
f 37//52 36//52 44//52
f 46//53 34//53 47//53
f 45//54 34//54 46//54
f 36//55 34//55 45//55
f 47//56 30//56 48//56
f 34//57 30//57 47//57
f 48//58 27//58 49//58
f 30//59 27//59 48//59
f 49//60 24//60 50//60
f 27//61 24//61 49//61
f 50//62 25//62 51//62
f 24//63 25//63 50//63
f 51//64 28//64 52//64
f 25//65 28//65 51//65
f 52//66 31//66 53//66
f 28//67 31//67 52//67
f 31//68 35//68 53//68
f 13//69 39//69 54//69
f 13//70 54//70 20//70
f 55//71 32//71 56//71
f 33//72 32//72 55//72
f 56//73 29//73 57//73
f 32//74 29//74 56//74
f 57//75 26//75 58//75
f 29//76 26//76 57//76
f 58//77 23//77 59//77
f 26//78 23//78 58//78
f 59//79 22//79 60//79
f 23//80 22//80 59//80
f 60//81 21//81 61//81
f 22//82 21//82 60//82
f 62//83 19//83 63//83
f 61//84 19//84 62//84
f 21//85 19//85 61//85
f 63//86 17//86 64//86
f 19//87 17//87 63//87
f 64//88 15//88 65//88
f 17//89 15//89 64//89
f 65//90 11//90 66//90
f 15//91 11//91 65//91
f 66//92 14//92 67//92
f 11//93 14//93 66//93
f 67//94 16//94 68//94
f 14//95 16//95 67//95
f 68//96 18//96 54//96
f 16//97 18//97 68//97
f 18//98 20//98 54//98
f 69//99 53//99 70//99
f 71//100 70//100 53//100
f 72//101 53//101 69//101
f 73//102 71//102 53//102
f 74//103 53//103 72//103
f 75//104 73//104 53//104
f 76//105 55//105 53//105
f 76//106 53//106 74//106
f 77//107 55//107 76//107
f 78//108 55//108 77//108
f 79//109 55//109 78//109
f 80//110 55//110 79//110
f 81//111 55//111 80//111
f 82//112 55//112 81//112
f 35//113 83//113 75//113
f 35//114 84//114 83//114
f 35//115 85//115 84//115
f 35//116 86//116 85//116
f 35//117 87//117 86//117
f 35//118 88//118 87//118
f 35//119 89//119 88//119
f 35//120 75//120 53//120
f 33//121 90//121 89//121
f 33//122 91//122 90//122
f 33//123 92//123 91//123
f 33//124 93//124 92//124
f 33//125 94//125 93//125
f 33//126 82//126 94//126
f 33//127 55//127 82//127
f 33//128 89//128 35//128
f 87//129 88//129 95//129
f 96//130 89//130 97//130
f 88//131 89//131 96//131
f 97//132 90//132 98//132
f 99//133 81//133 100//133
f 89//134 90//134 97//134
f 82//135 81//135 99//135
f 98//136 91//136 101//136
f 100//137 80//137 102//137
f 90//138 91//138 98//138
f 81//139 80//139 100//139
f 101//140 92//140 103//140
f 91//141 92//141 101//141
f 102//142 79//142 104//142
f 80//143 79//143 102//143
f 103//144 93//144 105//144
f 92//145 93//145 103//145
f 104//146 78//146 106//146
f 79//147 78//147 104//147
f 105//148 94//148 107//148
f 93//149 94//149 105//149
f 106//150 77//150 108//150
f 107//151 82//151 99//151
f 78//152 77//152 106//152
f 94//153 82//153 107//153
f 108//154 76//154 109//154
f 77//155 76//155 108//155
f 109//156 74//156 110//156
f 76//157 74//157 109//157
f 110//158 72//158 111//158
f 74//159 72//159 110//159
f 111//160 69//160 112//160
f 72//161 69//161 111//161
f 112//162 70//162 113//162
f 69//163 70//163 112//163
f 70//164 71//164 113//164
f 113//165 71//165 114//165
f 71//166 73//166 114//166
f 114//167 73//167 115//167
f 73//168 75//168 115//168
f 115//169 75//169 116//169
f 116//170 83//170 117//170
f 75//171 83//171 116//171
f 83//172 84//172 117//172
f 117//173 84//173 118//173
f 118//174 85//174 119//174
f 84//175 85//175 118//175
f 119//176 86//176 120//176
f 85//177 86//177 119//177
f 120//178 87//178 95//178
f 86//179 87//179 120//179
f 95//180 88//180 96//180
f 108//181 110//181 111//181
f 108//182 115//182 116//182
f 108//183 116//183 117//183
f 108//184 117//184 118//184
f 108//185 118//185 119//185
f 108//186 119//186 120//186
f 108//187 120//187 95//187
f 108//188 95//188 96//188
f 108//189 111//189 115//189
f 104//190 100//190 102//190
f 104//191 106//191 108//191
f 104//192 96//192 97//192
f 104//193 101//193 103//193
f 104//194 103//194 105//194
f 104//195 105//195 107//195
f 104//196 107//196 100//196
f 104//197 97//197 101//197
f 104//198 108//198 96//198
f 101//199 97//199 98//199
f 111//200 112//200 113//200
f 111//201 113//201 114//201
f 111//202 114//202 115//202
f 100//203 107//203 99//203
f 108//204 109//204 110//204
f 38//205 65//205 39//205
f 40//206 2//206 6//206
f 39//207 65//207 66//207
f 41//208 2//208 40//208
f 42//209 2//209 41//209
f 43//210 2//210 42//210
f 66//211 67//211 39//211
f 3//212 2//212 43//212
f 38//213 64//213 65//213
f 67//214 68//214 39//214
f 38//215 63//215 64//215
f 68//216 54//216 39//216
f 38//217 62//217 63//217
f 38//218 61//218 62//218
f 38//219 60//219 61//219
f 38//220 59//220 60//220
f 3//221 49//221 38//221
f 38//222 49//222 59//222
f 59//223 50//223 58//223
f 49//224 50//224 59//224
f 58//225 51//225 57//225
f 50//226 51//226 58//226
f 3//227 48//227 49//227
f 57//228 52//228 56//228
f 51//229 52//229 57//229
f 3//230 47//230 48//230
f 3//231 46//231 47//231
f 56//232 53//232 55//232
f 52//233 53//233 56//233
f 3//234 45//234 46//234
f 3//235 44//235 45//235
f 3//236 43//236 44//236
