# Created by FreeCAD <http://www.freecadweb.org>
v 0.000000 0.000000 0.000000
v 0.000000 1.127308 1.727532
v 0.000000 13.000000 0.000000
v 0.000000 1.399073 2.034290
v 0.000000 0.790029 1.494725
v 0.000000 1.589528 2.397172
v 0.000000 0.406837 1.349399
v 0.000000 1.687605 2.795088
v 0.000000 0.000000 1.300000
v 0.000000 1.687605 3.204912
v 0.000000 1.589528 3.602828
v 0.000000 1.399073 3.965710
v 0.000000 13.000000 18.000000
v 0.000000 0.790029 4.505275
v 0.000000 1.127308 13.727531
v 0.000000 1.127308 4.272468
v 0.000000 1.399073 14.034290
v 0.000000 0.790029 13.494725
v 0.000000 1.589528 14.397172
v 0.000000 0.406837 4.650601
v 0.000000 0.406837 13.349399
v 0.000000 1.687605 14.795088
v 0.000000 0.000000 4.700000
v 0.000000 0.000000 13.300000
v 0.000000 1.687605 15.204912
v 0.000000 1.589528 15.602828
v 0.000000 1.399073 15.965710
v 0.000000 1.127308 16.272469
v 0.000000 0.790029 16.505276
v 0.000000 0.000000 18.000000
v 0.000000 0.406837 16.650600
v 0.000000 0.000000 16.700001
v 40.000000 0.000000 1.300000
v 40.000000 0.000000 0.000000
v 40.000000 0.406837 1.349399
v 40.000000 0.790029 1.494725
v 40.000000 1.127308 1.727532
v 40.000000 1.399073 2.034290
v 40.000000 1.589528 2.397172
v 40.000000 1.687605 2.795088
v 40.000000 1.687605 3.204912
v 40.000000 1.589528 3.602828
v 40.000000 1.399073 3.965710
v 40.000000 1.127308 4.272468
v 40.000000 0.790029 4.505275
v 40.000000 0.406837 4.650601
v 40.000000 0.000000 4.700000
v 21.500000 0.000000 9.000000
v 40.000000 0.000000 13.300000
v 21.456413 0.000000 9.358974
v 21.328184 0.000000 9.697084
v 21.122766 0.000000 9.994684
v 20.852097 0.000000 10.234476
v 20.531908 0.000000 10.402524
v 20.180805 0.000000 10.489063
v 19.819195 0.000000 10.489063
v 20.180805 0.000000 7.510937
v 19.819195 0.000000 7.510937
v 19.147903 0.000000 7.765524
v 18.877234 0.000000 8.005316
v 18.671816 0.000000 8.302916
v 19.468092 0.000000 7.597476
v 18.543587 0.000000 8.641026
v 18.500000 0.000000 9.000000
v 18.543587 0.000000 9.358974
v 18.671816 0.000000 9.697084
v 18.877234 0.000000 9.994684
v 19.147903 0.000000 10.234476
v 19.468092 0.000000 10.402524
v 20.531908 0.000000 7.597476
v 20.852097 0.000000 7.765524
v 21.122766 0.000000 8.005316
v 21.328184 0.000000 8.302916
v 21.456413 0.000000 8.641026
v 40.000000 0.406837 13.349399
v 40.000000 0.790029 13.494725
v 40.000000 1.127308 13.727531
v 40.000000 1.399073 14.034290
v 40.000000 1.589528 14.397172
v 40.000000 1.687605 14.795088
v 40.000000 1.687605 15.204912
v 40.000000 1.589528 15.602828
v 40.000000 1.399073 15.965710
v 40.000000 1.127308 16.272469
v 40.000000 0.790029 16.505276
v 40.000000 0.406837 16.650600
v 40.000000 0.000000 16.700001
v 40.000000 0.000000 18.000000
v 40.000000 13.000000 18.000000
v 40.000000 13.000000 0.000000
v 19.147903 10.000000 7.765524
v 19.468092 10.000000 7.597476
v 19.819195 10.000000 7.510937
v 21.500000 10.000000 9.000000
v 21.456413 10.000000 9.358974
v 20.180805 10.000000 7.510937
v 21.328184 10.000000 9.697084
v 20.531908 10.000000 7.597476
v 21.122766 10.000000 9.994684
v 20.852097 10.000000 7.765524
v 20.852097 10.000000 10.234476
v 21.122766 10.000000 8.005316
v 20.531908 10.000000 10.402524
v 21.328184 10.000000 8.302916
v 21.456413 10.000000 8.641026
v 20.180805 10.000000 10.489063
v 19.819195 10.000000 10.489063
v 19.468092 10.000000 10.402524
v 19.147903 10.000000 10.234476
v 18.877234 10.000000 9.994684
v 18.671816 10.000000 9.697084
v 18.543587 10.000000 9.358974
v 18.500000 10.000000 9.000000
v 18.543587 10.000000 8.641026
v 18.671816 10.000000 8.302916
v 18.877234 10.000000 8.005316
vn -1.000000 0.000000 0.000000
vn -1.000000 0.000000 0.000000
vn -1.000000 0.000000 0.000000
vn -1.000000 0.000000 0.000000
vn -1.000000 0.000000 0.000000
vn -1.000000 0.000000 0.000000
vn -1.000000 0.000000 0.000000
vn -1.000000 0.000000 0.000000
vn -1.000000 0.000000 0.000000
vn -1.000000 0.000000 0.000000
vn -1.000000 0.000000 0.000000
vn -1.000000 0.000000 0.000000
vn -1.000000 0.000000 0.000000
vn -1.000000 0.000000 0.000000
vn -1.000000 0.000000 0.000000
vn -1.000000 0.000000 0.000000
vn -1.000000 0.000000 0.000000
vn -1.000000 0.000000 0.000000
vn -1.000000 0.000000 0.000000
vn -1.000000 0.000000 0.000000
vn -1.000000 0.000000 0.000000
vn -1.000000 0.000000 0.000000
vn -1.000000 0.000000 0.000000
vn -1.000000 0.000000 0.000000
vn -1.000000 0.000000 0.000000
vn -1.000000 0.000000 0.000000
vn -1.000000 0.000000 0.000000
vn -1.000000 0.000000 0.000000
vn -1.000000 0.000000 0.000000
vn -1.000000 0.000000 0.000000
vn 0.000000 -1.000000 0.000000
vn 0.000000 -1.000000 0.000000
vn 0.000000 -0.120537 0.992709
vn 0.000000 -0.354605 0.935016
vn 0.000000 -0.120537 0.992709
vn 0.000000 -0.354605 0.935016
vn 0.000000 -0.568065 0.822984
vn 0.000000 -0.568065 0.822984
vn 0.000000 -0.748511 0.663123
vn 0.000000 -0.748511 0.663123
vn 0.000000 -0.885456 0.464723
vn 0.000000 -0.885456 0.464723
vn 0.000000 -0.970942 0.239316
vn 0.000000 -0.970942 0.239316
vn 0.000000 -1.000000 0.000000
vn 0.000000 -1.000000 0.000000
vn 0.000000 -0.970942 -0.239316
vn -0.000000 -0.970942 -0.239316
vn 0.000000 -0.885456 -0.464723
vn -0.000000 -0.885456 -0.464723
vn 0.000000 -0.748510 -0.663123
vn -0.000000 -0.748510 -0.663123
vn 0.000000 -0.568065 -0.822984
vn -0.000000 -0.568065 -0.822984
vn 0.000000 -0.354604 -0.935016
vn 0.000000 -0.120537 -0.992709
vn -0.000000 -0.354604 -0.935016
vn 0.000000 -0.120537 -0.992709
vn 0.000000 -1.000000 0.000000
vn 0.000000 -1.000000 0.000000
vn 0.000000 -1.000000 0.000000
vn 0.000000 -1.000000 0.000000
vn 0.000000 -1.000000 0.000000
vn 0.000000 -1.000000 0.000000
vn 0.000000 -1.000000 -0.000000
vn -0.000000 -1.000000 0.000000
vn 0.000000 -1.000000 0.000000
vn 0.000000 -1.000000 -0.000000
vn 0.000000 -1.000000 -0.000000
vn -0.000000 -1.000000 -0.000000
vn -0.000000 -1.000000 -0.000000
vn -0.000000 -1.000000 -0.000000
vn -0.000000 -1.000000 -0.000000
vn -0.000000 -1.000000 -0.000000
vn -0.000000 -1.000000 -0.000000
vn -0.000000 -1.000000 -0.000000
vn 0.000000 -1.000000 0.000000
vn 0.000000 -1.000000 0.000000
vn 0.000000 -1.000000 0.000000
vn 0.000000 -1.000000 0.000000
vn 0.000000 -1.000000 0.000000
vn 0.000000 -1.000000 0.000000
vn 0.000000 -1.000000 -0.000000
vn 0.000000 -1.000000 -0.000000
vn 0.000000 -1.000000 -0.000000
vn 0.000000 -1.000000 -0.000000
vn 0.000000 -1.000000 -0.000000
vn 0.000000 -1.000000 -0.000000
vn 0.000000 -0.120536 0.992709
vn 0.000000 -0.354607 0.935016
vn 0.000000 -0.120536 0.992709
vn 0.000000 -0.354607 0.935016
vn 0.000000 -0.568064 0.822985
vn 0.000000 -0.568064 0.822985
vn 0.000000 -0.748512 0.663122
vn 0.000000 -0.748512 0.663122
vn 0.000000 -0.885456 0.464723
vn 0.000000 -0.885456 0.464723
vn 0.000000 -0.970942 0.239316
vn 0.000000 -0.970942 0.239316
vn 0.000000 -1.000000 0.000000
vn 0.000000 -1.000000 0.000000
vn 0.000000 -0.970942 -0.239316
vn -0.000000 -0.970942 -0.239316
vn 0.000000 -0.885456 -0.464723
vn -0.000000 -0.885456 -0.464723
vn 0.000000 -0.748512 -0.663122
vn -0.000000 -0.748512 -0.663122
vn 0.000000 -0.568065 -0.822984
vn -0.000000 -0.568065 -0.822984
vn 0.000000 -0.354602 -0.935017
vn 0.000000 -0.120540 -0.992709
vn -0.000000 -0.354602 -0.935017
vn 0.000000 -0.120540 -0.992709
vn 0.000000 -1.000000 -0.000000
vn -0.000000 -1.000000 -0.000000
vn 0.000000 0.000000 1.000000
vn 0.000000 0.000000 1.000000
vn 0.000000 1.000000 0.000000
vn 0.000000 1.000000 0.000000
vn 0.000000 0.000000 -1.000000
vn 0.000000 0.000000 -1.000000
vn 1.000000 0.000000 0.000000
vn 1.000000 0.000000 0.000000
vn 1.000000 -0.000000 0.000000
vn 1.000000 0.000000 0.000000
vn 1.000000 -0.000000 0.000000
vn 1.000000 0.000000 0.000000
vn 1.000000 -0.000000 0.000000
vn 1.000000 0.000000 0.000000
vn 1.000000 0.000000 0.000000
vn 1.000000 0.000000 0.000000
vn 1.000000 0.000000 0.000000
vn 1.000000 0.000000 0.000000
vn 1.000000 0.000000 0.000000
vn 1.000000 -0.000000 0.000000
vn 1.000000 0.000000 0.000000
vn 1.000000 -0.000000 0.000000
vn 1.000000 -0.000000 0.000000
vn 1.000000 0.000000 0.000000
vn 1.000000 -0.000000 0.000000
vn 1.000000 -0.000000 0.000000
vn 1.000000 0.000000 0.000000
vn 1.000000 -0.000000 0.000000
vn 1.000000 -0.000000 0.000000
vn 1.000000 -0.000000 0.000000
vn 1.000000 -0.000000 0.000000
vn 1.000000 -0.000000 0.000000
vn 1.000000 0.000000 0.000000
vn 1.000000 0.000000 0.000000
vn 1.000000 0.000000 0.000000
vn 1.000000 -0.000000 0.000000
vn 0.464725 0.000000 0.885455
vn 0.464725 -0.000000 0.885455
vn 0.239315 0.000000 0.970942
vn 0.239315 -0.000000 0.970942
vn -0.992709 0.000000 -0.120535
vn -0.000000 0.000000 1.000000
vn -0.992709 0.000000 -0.120535
vn 0.000000 0.000000 1.000000
vn -0.935016 0.000000 -0.354606
vn -0.239315 0.000000 0.970942
vn -0.935016 0.000000 -0.354606
vn -0.239315 0.000000 0.970942
vn -0.822985 0.000000 -0.568063
vn -0.464725 0.000000 0.885455
vn -0.822985 0.000000 -0.568063
vn -0.464725 0.000000 0.885455
vn -0.663121 0.000000 -0.748512
vn -0.663121 0.000000 0.748512
vn -0.663121 0.000000 -0.748512
vn -0.663121 0.000000 0.748512
vn -0.464723 0.000000 -0.885456
vn -0.822985 0.000000 0.568063
vn -0.464723 0.000000 -0.885456
vn -0.822985 0.000000 0.568063
vn -0.935016 0.000000 0.354606
vn -0.935016 0.000000 0.354606
vn -0.239316 0.000000 -0.970942
vn -0.992709 0.000000 0.120535
vn -0.239316 0.000000 -0.970942
vn -0.992709 0.000000 0.120535
vn -0.000000 0.000000 -1.000000
vn 0.000000 0.000000 -1.000000
vn 0.239316 0.000000 -0.970942
vn 0.239316 0.000000 -0.970942
vn 0.464723 0.000000 -0.885456
vn 0.464723 0.000000 -0.885456
vn 0.663121 0.000000 -0.748512
vn 0.663121 0.000000 -0.748512
vn 0.822985 0.000000 -0.568063
vn 0.822985 0.000000 -0.568063
vn 0.935016 0.000000 -0.354606
vn 0.935016 0.000000 -0.354606
vn 0.992709 0.000000 -0.120535
vn 0.992709 0.000000 -0.120535
vn 0.992709 0.000000 0.120535
vn 0.992709 -0.000000 0.120535
vn 0.935016 0.000000 0.354606
vn 0.935016 -0.000000 0.354606
vn 0.822985 0.000000 0.568063
vn 0.822985 -0.000000 0.568063
vn 0.663121 0.000000 0.748512
vn 0.663121 -0.000000 0.748512
vn 0.000000 -1.000000 0.000000
vn 0.000000 -1.000000 0.000000
vn 0.000000 -1.000000 0.000000
vn 0.000000 -1.000000 0.000000
vn 0.000000 -1.000000 0.000000
vn 0.000000 -1.000000 0.000000
vn 0.000000 -1.000000 0.000000
vn 0.000000 -1.000000 0.000000
vn -0.000000 -1.000000 0.000000
vn 0.000000 -1.000000 0.000000
vn 0.000000 -1.000000 0.000000
vn 0.000000 -1.000000 0.000000
vn 0.000000 -1.000000 -0.000000
vn 0.000000 -1.000000 0.000000
vn 0.000000 -1.000000 0.000000
vn 0.000000 -1.000000 0.000000
vn 0.000000 -1.000000 0.000000
vn -0.000000 -1.000000 0.000000
vn 0.000000 -1.000000 0.000000
vn 0.000000 -1.000000 0.000000
vn 0.000000 -1.000000 0.000000
vn 0.000000 -1.000000 0.000000
vn 0.000000 -1.000000 0.000000
vn 0.000000 -1.000000 0.000000
f 1//1 2//1 3//1
f 2//2 4//2 3//2
f 1//3 5//3 2//3
f 4//4 6//4 3//4
f 1//5 7//5 5//5
f 6//6 8//6 3//6
f 1//7 9//7 7//7
f 8//8 10//8 3//8
f 10//9 11//9 3//9
f 11//10 12//10 3//10
f 12//11 13//11 3//11
f 14//12 15//12 16//12
f 16//13 17//13 12//13
f 12//14 17//14 13//14
f 15//15 17//15 16//15
f 14//16 18//16 15//16
f 17//17 19//17 13//17
f 20//18 21//18 14//18
f 14//19 21//19 18//19
f 19//20 22//20 13//20
f 23//21 24//21 20//21
f 20//22 24//22 21//22
f 22//23 25//23 13//23
f 25//24 26//24 13//24
f 26//25 27//25 13//25
f 27//26 28//26 13//26
f 29//27 30//27 28//27
f 31//28 30//28 29//28
f 32//29 30//29 31//29
f 28//30 30//30 13//30
f 1//31 33//31 9//31
f 34//32 33//32 1//32
f 9//33 33//33 7//33
f 7//34 35//34 5//34
f 33//35 35//35 7//35
f 35//36 36//36 5//36
f 5//37 37//37 2//37
f 36//38 37//38 5//38
f 2//39 38//39 4//39
f 37//40 38//40 2//40
f 4//41 39//41 6//41
f 38//42 39//42 4//42
f 6//43 40//43 8//43
f 39//44 40//44 6//44
f 8//45 41//45 10//45
f 40//46 41//46 8//46
f 10//47 42//47 11//47
f 41//48 42//48 10//48
f 11//49 43//49 12//49
f 42//50 43//50 11//50
f 12//51 44//51 16//51
f 43//52 44//52 12//52
f 16//53 45//53 14//53
f 44//54 45//54 16//54
f 14//55 46//55 20//55
f 20//56 46//56 23//56
f 45//57 46//57 14//57
f 46//58 47//58 23//58
f 48//59 49//59 50//59
f 50//60 49//60 51//60
f 51//61 49//61 52//61
f 52//62 49//62 53//62
f 53//63 49//63 54//63
f 54//64 49//64 55//64
f 47//65 49//65 48//65
f 49//66 24//66 55//66
f 55//67 24//67 56//67
f 23//68 47//68 57//68
f 23//69 57//69 58//69
f 23//70 59//70 60//70
f 60//71 61//71 23//71
f 23//72 62//72 59//72
f 61//73 63//73 23//73
f 23//74 58//74 62//74
f 23//75 64//75 24//75
f 63//76 64//76 23//76
f 64//77 65//77 24//77
f 65//78 66//78 24//78
f 66//79 67//79 24//79
f 67//80 68//80 24//80
f 68//81 69//81 24//81
f 69//82 56//82 24//82
f 57//83 47//83 70//83
f 70//84 47//84 71//84
f 71//85 47//85 72//85
f 72//86 47//86 73//86
f 73//87 47//87 74//87
f 74//88 47//88 48//88
f 24//89 49//89 21//89
f 21//90 75//90 18//90
f 49//91 75//91 21//91
f 75//92 76//92 18//92
f 18//93 77//93 15//93
f 76//94 77//94 18//94
f 15//95 78//95 17//95
f 77//96 78//96 15//96
f 17//97 79//97 19//97
f 78//98 79//98 17//98
f 19//99 80//99 22//99
f 79//100 80//100 19//100
f 22//101 81//101 25//101
f 80//102 81//102 22//102
f 25//103 82//103 26//103
f 81//104 82//104 25//104
f 26//105 83//105 27//105
f 82//106 83//106 26//106
f 27//107 84//107 28//107
f 83//108 84//108 27//108
f 28//109 85//109 29//109
f 84//110 85//110 28//110
f 29//111 86//111 31//111
f 31//112 86//112 32//112
f 85//113 86//113 29//113
f 86//114 87//114 32//114
f 32//115 88//115 30//115
f 87//116 88//116 32//116
f 88//117 13//117 30//117
f 89//118 13//118 88//118
f 89//119 90//119 3//119
f 89//120 3//120 13//120
f 3//121 34//121 1//121
f 3//122 90//122 34//122
f 37//123 34//123 90//123
f 38//124 37//124 90//124
f 36//125 34//125 37//125
f 39//126 38//126 90//126
f 35//127 34//127 36//127
f 40//128 39//128 90//128
f 33//129 34//129 35//129
f 41//130 40//130 90//130
f 42//131 41//131 90//131
f 43//132 42//132 90//132
f 89//133 43//133 90//133
f 77//134 45//134 44//134
f 78//135 44//135 43//135
f 78//136 43//136 89//136
f 78//137 77//137 44//137
f 76//138 45//138 77//138
f 79//139 78//139 89//139
f 75//140 46//140 45//140
f 75//141 45//141 76//141
f 80//142 79//142 89//142
f 49//143 47//143 46//143
f 49//144 46//144 75//144
f 81//145 80//145 89//145
f 82//146 81//146 89//146
f 83//147 82//147 89//147
f 84//148 83//148 89//148
f 88//149 85//149 84//149
f 88//150 86//150 85//150
f 88//151 87//151 86//151
f 88//152 84//152 89//152
f 91//153 62//153 92//153
f 59//154 62//154 91//154
f 92//155 58//155 93//155
f 62//156 58//156 92//156
f 94//157 50//157 95//157
f 93//158 57//158 96//158
f 48//159 50//159 94//159
f 58//160 57//160 93//160
f 95//161 51//161 97//161
f 96//162 70//162 98//162
f 50//163 51//163 95//163
f 57//164 70//164 96//164
f 97//165 52//165 99//165
f 98//166 71//166 100//166
f 51//167 52//167 97//167
f 70//168 71//168 98//168
f 99//169 53//169 101//169
f 100//170 72//170 102//170
f 52//171 53//171 99//171
f 71//172 72//172 100//172
f 101//173 54//173 103//173
f 102//174 73//174 104//174
f 53//175 54//175 101//175
f 72//176 73//176 102//176
f 104//177 74//177 105//177
f 73//178 74//178 104//178
f 103//179 55//179 106//179
f 105//180 48//180 94//180
f 54//181 55//181 103//181
f 74//182 48//182 105//182
f 106//183 56//183 107//183
f 55//184 56//184 106//184
f 107//185 69//185 108//185
f 56//186 69//186 107//186
f 108//187 68//187 109//187
f 69//188 68//188 108//188
f 109//189 67//189 110//189
f 68//190 67//190 109//190
f 110//191 66//191 111//191
f 67//192 66//192 110//192
f 66//193 65//193 111//193
f 111//194 65//194 112//194
f 65//195 64//195 112//195
f 112//196 64//196 113//196
f 113//197 63//197 114//197
f 64//198 63//198 113//198
f 114//199 61//199 115//199
f 63//200 61//200 114//200
f 115//201 60//201 116//201
f 61//202 60//202 115//202
f 116//203 59//203 91//203
f 60//204 59//204 116//204
f 103//205 107//205 108//205
f 103//206 112//206 113//206
f 103//207 113//207 114//207
f 103//208 114//208 115//208
f 103//209 115//209 116//209
f 103//210 116//210 91//210
f 103//211 91//211 92//211
f 103//212 92//212 93//212
f 103//213 108//213 112//213
f 99//214 95//214 97//214
f 99//215 101//215 103//215
f 99//216 93//216 96//216
f 99//217 100//217 102//217
f 99//218 102//218 104//218
f 99//219 104//219 105//219
f 99//220 105//220 95//220
f 99//221 96//221 100//221
f 99//222 103//222 93//222
f 100//223 96//223 98//223
f 108//224 109//224 110//224
f 108//225 110//225 111//225
f 108//226 111//226 112//226
f 95//227 105//227 94//227
f 103//228 106//228 107//228
