# Created by FreeCAD <http://www.freecadweb.org>
v 0.000000 25.000000 0.000000
v 0.000000 22.059933 11.670886
v 0.000000 25.000000 13.000000
v 0.000000 2.342623 12.621715
v 0.000000 0.000000 13.000000
v -0.000000 2.300000 13.000000
v 0.000000 2.468353 12.262398
v 0.000000 2.670887 11.940067
v 0.000000 2.940067 11.670886
v 0.000000 22.329113 11.940067
v 0.000000 0.000000 0.000000
v 0.000000 21.737602 11.468353
v 0.000000 22.531647 12.262398
v 0.000000 21.378286 11.342623
v 0.000000 22.657377 12.621715
v -0.000000 22.700001 13.000000
v 0.000000 21.000000 11.300000
v 0.000000 20.621714 11.342623
v 0.000000 20.262398 11.468353
v 0.000000 19.940067 11.670886
v 0.000000 5.059933 11.670886
v 0.000000 5.329113 11.940067
v 0.000000 19.670887 11.940067
v 0.000000 4.737602 11.468353
v 0.000000 5.531647 12.262398
v 0.000000 19.468353 12.262398
v 0.000000 4.378285 11.342623
v 0.000000 19.342623 12.621715
v 0.000000 5.657377 12.621715
v -0.000000 19.299999 13.000000
v 0.000000 4.000000 11.300000
v -0.000000 5.700000 13.000000
v 0.000000 3.621714 11.342623
v 0.000000 3.262398 11.468353
v 40.000000 2.300000 13.000000
v 40.000000 0.000000 13.000000
v 19.078680 11.316289 13.000000
v 18.896414 11.484077 13.000000
v 18.744249 11.679578 13.000000
v 19.286079 11.180789 13.000000
v 18.626341 11.897457 13.000000
v 40.000000 5.700000 13.000000
v 20.246891 11.020458 13.000000
v 20.000000 11.000000 13.000000
v 19.512951 11.081274 13.000000
v 20.487049 11.081274 13.000000
v 20.713921 11.180789 13.000000
v 20.921320 11.316289 13.000000
v 21.103586 11.484077 13.000000
v 18.545900 12.131772 13.000000
v 21.255751 11.679578 13.000000
v 21.373659 11.897457 13.000000
v 21.454100 12.131772 13.000000
v 21.494877 12.376131 13.000000
v 21.494877 12.623869 13.000000
v 19.753109 11.020458 13.000000
v 18.505123 12.376131 13.000000
v 40.000000 19.299999 13.000000
v 21.454100 12.868228 13.000000
v 21.373659 13.102543 13.000000
v 21.255751 13.320422 13.000000
v 21.103586 13.515923 13.000000
v 20.921320 13.683711 13.000000
v 18.505123 12.623869 13.000000
v 20.713921 13.819211 13.000000
v 20.487049 13.918726 13.000000
v 20.246891 13.979542 13.000000
v 20.000000 14.000000 13.000000
v 19.753109 13.979542 13.000000
v 18.545900 12.868228 13.000000
v 18.626341 13.102543 13.000000
v 18.744249 13.320422 13.000000
v 18.896414 13.515923 13.000000
v 19.078680 13.683711 13.000000
v 19.286079 13.819211 13.000000
v 19.512951 13.918726 13.000000
v 40.000000 25.000000 13.000000
v 40.000000 22.700001 13.000000
v 40.000000 25.000000 0.000000
v 40.000000 0.000000 0.000000
v 40.000000 2.342623 12.621715
v 40.000000 2.468353 12.262398
v 40.000000 2.670887 11.940067
v 40.000000 2.940067 11.670886
v 40.000000 22.059933 11.670886
v 40.000000 22.329113 11.940067
v 40.000000 21.737602 11.468353
v 40.000000 22.531647 12.262398
v 40.000000 21.378286 11.342623
v 40.000000 22.657377 12.621715
v 40.000000 21.000000 11.300000
v 40.000000 20.621714 11.342623
v 40.000000 20.262398 11.468353
v 40.000000 19.940067 11.670886
v 40.000000 5.059933 11.670886
v 40.000000 5.329113 11.940067
v 40.000000 19.670887 11.940067
v 40.000000 4.737602 11.468353
v 40.000000 5.531647 12.262398
v 40.000000 19.468353 12.262398
v 40.000000 4.378285 11.342623
v 40.000000 5.657377 12.621715
v 40.000000 19.342623 12.621715
v 40.000000 4.000000 11.300000
v 40.000000 3.621714 11.342623
v 40.000000 3.262398 11.468353
v 18.896414 11.484077 3.000000
v 21.255751 13.320422 3.000000
v 21.103586 13.515923 3.000000
v 19.078680 11.316289 3.000000
v 19.286079 11.180789 3.000000
v 20.921320 13.683711 3.000000
v 19.512951 11.081274 3.000000
v 20.713921 13.819211 3.000000
v 20.000000 14.000000 3.000000
v 19.753109 13.979542 3.000000
v 19.753109 11.020458 3.000000
v 20.487049 13.918726 3.000000
v 19.512951 13.918726 3.000000
v 20.246891 13.979542 3.000000
v 20.000000 11.000000 3.000000
v 20.246891 11.020458 3.000000
v 19.286079 13.819211 3.000000
v 20.487049 11.081274 3.000000
v 19.078680 13.683711 3.000000
v 20.713921 11.180789 3.000000
v 18.896414 13.515923 3.000000
v 20.921320 11.316289 3.000000
v 18.744249 13.320422 3.000000
v 21.103586 11.484077 3.000000
v 18.626341 13.102543 3.000000
v 21.255751 11.679578 3.000000
v 18.545900 12.868228 3.000000
v 21.373659 11.897457 3.000000
v 18.505123 12.623869 3.000000
v 21.454100 12.131772 3.000000
v 18.505123 12.376131 3.000000
v 21.494877 12.376131 3.000000
v 18.545900 12.131772 3.000000
v 21.494877 12.623869 3.000000
v 18.626341 11.897457 3.000000
v 21.454100 12.868228 3.000000
v 18.744249 11.679578 3.000000
v 21.373659 13.102543 3.000000
vn -1.000000 -0.000000 0.000000
vn -1.000000 0.000000 -0.000000
vn -1.000000 0.000000 -0.000000
vn -1.000000 0.000000 -0.000000
vn -1.000000 0.000000 -0.000000
vn -1.000000 -0.000000 -0.000000
vn -1.000000 0.000000 0.000000
vn -1.000000 -0.000000 -0.000000
vn -1.000000 -0.000000 -0.000000
vn -1.000000 -0.000000 0.000000
vn -1.000000 -0.000000 -0.000000
vn -1.000000 0.000000 -0.000000
vn -1.000000 -0.000000 0.000000
vn -1.000000 0.000000 0.000000
vn -1.000000 0.000000 0.000000
vn -1.000000 0.000000 0.000000
vn -1.000000 0.000000 0.000000
vn -1.000000 0.000000 0.000000
vn -1.000000 0.000000 -0.000000
vn -1.000000 0.000000 -0.000000
vn -1.000000 -0.000000 0.000000
vn -1.000000 0.000000 -0.000000
vn -1.000000 0.000000 -0.000000
vn -1.000000 -0.000000 0.000000
vn -1.000000 -0.000000 -0.000000
vn -1.000000 0.000000 -0.000000
vn -1.000000 0.000000 -0.000000
vn -1.000000 -0.000000 0.000000
vn -1.000000 0.000000 -0.000000
vn -1.000000 0.000000 0.000000
vn -1.000000 0.000000 0.000000
vn -1.000000 0.000000 -0.000000
vn 0.000000 0.000000 1.000000
vn 0.000000 0.000000 1.000000
vn 0.000000 0.000000 1.000000
vn 0.000000 0.000000 1.000000
vn 0.000000 0.000000 1.000000
vn 0.000000 0.000000 1.000000
vn 0.000000 0.000000 1.000000
vn 0.000000 0.000000 1.000000
vn 0.000000 0.000000 1.000000
vn 0.000000 0.000000 1.000000
vn 0.000000 0.000000 1.000000
vn 0.000000 0.000000 1.000000
vn 0.000000 0.000000 1.000000
vn 0.000000 0.000000 1.000000
vn 0.000000 0.000000 1.000000
vn 0.000000 0.000000 1.000000
vn 0.000000 0.000000 1.000000
vn 0.000000 0.000000 1.000000
vn 0.000000 0.000000 1.000000
vn 0.000000 0.000000 1.000000
vn 0.000000 0.000000 1.000000
vn 0.000000 0.000000 1.000000
vn 0.000000 0.000000 1.000000
vn 0.000000 0.000000 1.000000
vn 0.000000 0.000000 1.000000
vn 0.000000 0.000000 1.000000
vn 0.000000 0.000000 1.000000
vn 0.000000 0.000000 1.000000
vn 0.000000 0.000000 1.000000
vn 0.000000 0.000000 1.000000
vn 0.000000 0.000000 1.000000
vn 0.000000 0.000000 1.000000
vn 0.000000 0.000000 1.000000
vn 0.000000 0.000000 1.000000
vn 0.000000 0.000000 1.000000
vn 0.000000 0.000000 1.000000
vn 0.000000 0.000000 1.000000
vn 0.000000 0.000000 1.000000
vn 0.000000 0.000000 1.000000
vn 0.000000 0.000000 1.000000
vn 0.000000 0.000000 1.000000
vn 0.000000 0.000000 1.000000
vn 0.000000 0.000000 1.000000
vn 0.000000 0.000000 1.000000
vn 0.000000 0.000000 1.000000
vn 0.000000 0.000000 1.000000
vn 0.000000 1.000000 0.000000
vn 0.000000 1.000000 0.000000
vn 0.000000 0.000000 -1.000000
vn 0.000000 0.000000 -1.000000
vn 0.000000 -1.000000 0.000000
vn 0.000000 -1.000000 0.000000
vn 1.000000 -0.000000 0.000000
vn 1.000000 0.000000 0.000000
vn 1.000000 0.000000 0.000000
vn 1.000000 0.000000 0.000000
vn 1.000000 0.000000 0.000000
vn 1.000000 -0.000000 0.000000
vn 1.000000 -0.000000 0.000000
vn 1.000000 -0.000000 0.000000
vn 1.000000 -0.000000 0.000000
vn 1.000000 -0.000000 0.000000
vn 1.000000 -0.000000 0.000000
vn 1.000000 -0.000000 0.000000
vn 1.000000 -0.000000 0.000000
vn 1.000000 0.000000 0.000000
vn 1.000000 0.000000 0.000000
vn 1.000000 0.000000 0.000000
vn 1.000000 0.000000 0.000000
vn 1.000000 -0.000000 0.000000
vn 1.000000 -0.000000 0.000000
vn 1.000000 0.000000 0.000000
vn 1.000000 -0.000000 0.000000
vn 1.000000 -0.000000 0.000000
vn 1.000000 0.000000 0.000000
vn 1.000000 -0.000000 0.000000
vn 1.000000 0.000000 0.000000
vn 1.000000 -0.000000 0.000000
vn 1.000000 0.000000 0.000000
vn 1.000000 -0.000000 0.000000
vn 1.000000 -0.000000 0.000000
vn 1.000000 0.000000 0.000000
vn 1.000000 0.000000 0.000000
vn 1.000000 0.000000 0.000000
vn 0.677283 0.735723 0.000000
vn -0.789140 -0.614214 -0.000000
vn -0.789140 -0.614214 0.000000
vn 0.546946 0.837168 0.000000
vn -0.677283 -0.735723 -0.000000
vn 0.546946 0.837168 0.000000
vn -0.677283 -0.735723 0.000000
vn 0.401695 0.915773 0.000000
vn 0.401695 0.915773 0.000000
vn -0.546946 -0.837168 -0.000000
vn -0.546946 -0.837168 0.000000
vn 0.082580 -0.996584 0.000000
vn 0.245484 0.969401 0.000000
vn -0.401695 -0.915773 -0.000000
vn 0.082580 -0.996584 0.000000
vn -0.401695 -0.915773 0.000000
vn 0.245484 0.969401 0.000000
vn -0.245484 -0.969401 -0.000000
vn 0.245484 -0.969401 0.000000
vn -0.245484 -0.969401 0.000000
vn 0.082580 0.996584 0.000000
vn 0.245484 -0.969401 0.000000
vn 0.082580 0.996584 0.000000
vn -0.082580 -0.996584 -0.000000
vn -0.082580 -0.996584 0.000000
vn -0.082580 0.996584 0.000000
vn 0.401695 -0.915773 0.000000
vn -0.082580 0.996584 0.000000
vn 0.401695 -0.915773 0.000000
vn -0.245484 0.969401 0.000000
vn 0.546946 -0.837168 0.000000
vn -0.245484 0.969401 0.000000
vn 0.546946 -0.837168 0.000000
vn -0.401695 0.915773 0.000000
vn 0.677283 -0.735723 0.000000
vn -0.401695 0.915773 0.000000
vn 0.677283 -0.735723 0.000000
vn -0.546946 0.837168 0.000000
vn -0.546946 0.837168 0.000000
vn 0.789140 -0.614214 0.000000
vn 0.789140 -0.614214 0.000000
vn -0.677283 0.735723 0.000000
vn -0.677283 0.735723 0.000000
vn 0.879477 -0.475941 0.000000
vn 0.879477 -0.475941 0.000000
vn -0.789140 0.614214 0.000000
vn -0.789140 0.614214 0.000000
vn 0.945817 -0.324700 0.000000
vn 0.945817 -0.324700 0.000000
vn -0.879477 0.475941 0.000000
vn -0.879477 0.475941 0.000000
vn 0.986361 -0.164598 0.000000
vn 0.986361 -0.164598 0.000000
vn -0.945817 0.324700 0.000000
vn -0.945817 0.324700 0.000000
vn 1.000000 0.000000 0.000000
vn -0.986361 0.164598 0.000000
vn 1.000000 0.000000 0.000000
vn -0.986361 0.164598 0.000000
vn 0.986361 0.164598 0.000000
vn 0.986361 0.164598 0.000000
vn -1.000000 0.000000 0.000000
vn -1.000000 0.000000 0.000000
vn 0.945817 0.324700 0.000000
vn 0.945817 0.324700 0.000000
vn -0.986361 -0.164598 0.000000
vn -0.986361 -0.164598 -0.000000
vn 0.879477 0.475941 0.000000
vn -0.945817 -0.324700 -0.000000
vn 0.879477 0.475941 0.000000
vn -0.945817 -0.324700 0.000000
vn 0.789140 0.614214 0.000000
vn -0.879477 -0.475941 -0.000000
vn 0.789140 0.614214 0.000000
vn -0.879477 -0.475941 0.000000
vn 0.677283 0.735723 0.000000
vn 0.000000 0.000000 1.000000
vn 0.000000 0.000000 1.000000
vn 0.000000 0.000000 1.000000
vn -0.000000 0.000000 1.000000
vn 0.000000 0.000000 1.000000
vn 0.000000 0.000000 1.000000
vn 0.000000 0.000000 1.000000
vn 0.000000 0.000000 1.000000
vn 0.000000 0.000000 1.000000
vn 0.000000 0.000000 1.000000
vn 0.000000 0.000000 1.000000
vn 0.000000 0.000000 1.000000
vn 0.000000 0.000000 1.000000
vn 0.000000 0.000000 1.000000
vn 0.000000 0.000000 1.000000
vn 0.000000 0.000000 1.000000
vn 0.000000 0.000000 1.000000
vn 0.000000 0.000000 1.000000
vn 0.000000 0.000000 1.000000
vn 0.000000 0.000000 1.000000
vn 0.000000 0.000000 1.000000
vn 0.000000 0.000000 1.000000
vn 0.000000 0.000000 1.000000
vn 0.000000 0.000000 1.000000
vn 0.000000 0.000000 1.000000
vn 0.000000 0.000000 1.000000
vn 0.000000 0.000000 1.000000
vn 0.000000 0.000000 1.000000
vn 0.000000 0.000000 1.000000
vn 0.000000 0.000000 1.000000
vn 0.000000 0.000000 1.000000
vn 0.000000 0.000000 1.000000
vn 0.000000 0.000000 1.000000
vn 0.000000 0.000000 1.000000
vn 0.000000 0.000000 1.000000
vn 0.000000 0.000000 1.000000
vn 0.000000 0.993712 0.111965
vn 0.000000 0.993712 0.111965
vn -0.000000 0.943883 0.330279
vn -0.000000 0.846724 0.532032
vn 0.000000 0.943883 0.330279
vn -0.000000 0.707107 0.707106
vn 0.000000 0.846724 0.532032
vn -0.000000 0.532031 0.846725
vn 0.000000 0.707107 0.707106
vn -0.000000 0.330279 0.943883
vn 0.000000 0.532031 0.846725
vn -0.000000 0.111965 0.993712
vn 0.000000 0.330279 0.943883
vn 0.000000 0.111965 0.993712
vn 0.000000 -0.111965 0.993712
vn 0.000000 -0.111965 0.993712
vn 0.000000 -0.330279 0.943883
vn 0.000000 -0.330279 0.943883
vn 0.000000 -0.532030 0.846725
vn 0.000000 -0.532030 0.846725
vn 0.000000 -0.707107 0.707106
vn 0.000000 -0.707107 0.707106
vn 0.000000 -0.846724 0.532032
vn 0.000000 -0.846724 0.532032
vn 0.000000 -0.943884 0.330278
vn 0.000000 -0.943884 0.330278
vn 0.000000 -0.993712 0.111965
vn 0.000000 -0.993712 0.111965
vn 0.000000 0.993712 0.111967
vn 0.000000 0.993712 0.111967
vn -0.000000 0.943883 0.330279
vn -0.000000 0.846724 0.532032
vn 0.000000 0.943883 0.330279
vn -0.000000 0.707108 0.707106
vn 0.000000 0.846724 0.532032
vn -0.000000 0.532030 0.846725
vn 0.000000 0.707108 0.707106
vn -0.000000 0.330280 0.943883
vn 0.000000 0.532030 0.846725
vn -0.000000 0.111964 0.993712
vn 0.000000 0.330280 0.943883
vn 0.000000 0.111964 0.993712
vn 0.000000 -0.111964 0.993712
vn 0.000000 -0.111964 0.993712
vn 0.000000 -0.330280 0.943883
vn 0.000000 -0.330280 0.943883
vn 0.000000 -0.532030 0.846725
vn 0.000000 -0.532030 0.846725
vn 0.000000 -0.707108 0.707106
vn 0.000000 -0.707108 0.707106
vn 0.000000 -0.846724 0.532032
vn 0.000000 -0.846724 0.532032
vn 0.000000 -0.943883 0.330279
vn 0.000000 -0.943883 0.330279
vn 0.000000 -0.993712 0.111967
vn 0.000000 -0.993712 0.111967
f 1//1 2//1 3//1
f 4//2 5//2 6//2
f 7//3 5//3 4//3
f 8//4 5//4 7//4
f 9//5 5//5 8//5
f 2//6 10//6 3//6
f 11//7 5//7 9//7
f 1//8 12//8 2//8
f 10//9 13//9 3//9
f 1//10 14//10 12//10
f 13//11 15//11 3//11
f 15//12 16//12 3//12
f 1//13 17//13 14//13
f 1//14 18//14 17//14
f 1//15 19//15 18//15
f 1//16 20//16 19//16
f 1//17 11//17 20//17
f 11//18 21//18 20//18
f 20//19 22//19 23//19
f 21//20 22//20 20//20
f 11//21 24//21 21//21
f 23//22 25//22 26//22
f 22//23 25//23 23//23
f 11//24 27//24 24//24
f 28//25 29//25 30//25
f 26//26 29//26 28//26
f 25//27 29//27 26//27
f 11//28 31//28 27//28
f 29//29 32//29 30//29
f 11//30 33//30 31//30
f 11//31 34//31 33//31
f 11//32 9//32 34//32
f 35//33 6//33 5//33
f 35//34 5//34 36//34
f 37//35 38//35 32//35
f 39//36 32//36 38//36
f 40//37 37//37 32//37
f 41//38 32//38 39//38
f 42//39 43//39 44//39
f 45//40 40//40 32//40
f 42//41 46//41 43//41
f 42//42 47//42 46//42
f 42//43 48//43 47//43
f 42//44 49//44 48//44
f 50//45 32//45 41//45
f 42//46 51//46 49//46
f 42//47 52//47 51//47
f 42//48 53//48 52//48
f 42//49 54//49 53//49
f 42//50 55//50 54//50
f 56//51 45//51 32//51
f 57//52 32//52 50//52
f 42//53 44//53 32//53
f 58//54 55//54 42//54
f 58//55 59//55 55//55
f 58//56 60//56 59//56
f 58//57 61//57 60//57
f 44//58 56//58 32//58
f 58//59 62//59 61//59
f 58//60 63//60 62//60
f 64//61 30//61 32//61
f 58//62 65//62 63//62
f 58//63 66//63 65//63
f 58//64 67//64 66//64
f 64//65 32//65 57//65
f 58//66 30//66 68//66
f 68//67 30//67 69//67
f 58//68 68//68 67//68
f 70//69 30//69 64//69
f 71//70 30//70 70//70
f 72//71 30//71 71//71
f 73//72 30//72 72//72
f 74//73 30//73 73//73
f 75//74 30//74 74//74
f 76//75 30//75 75//75
f 69//76 30//76 76//76
f 77//77 3//77 16//77
f 77//78 16//78 78//78
f 79//79 1//79 3//79
f 77//80 79//80 3//80
f 1//81 79//81 11//81
f 11//82 79//82 80//82
f 11//83 80//83 5//83
f 80//84 36//84 5//84
f 36//85 81//85 35//85
f 36//86 82//86 81//86
f 36//87 83//87 82//87
f 36//88 84//88 83//88
f 36//89 80//89 84//89
f 85//90 79//90 77//90
f 86//91 85//91 77//91
f 87//92 79//92 85//92
f 88//93 86//93 77//93
f 89//94 79//94 87//94
f 90//95 88//95 77//95
f 78//96 90//96 77//96
f 91//97 79//97 89//97
f 92//98 79//98 91//98
f 93//99 79//99 92//99
f 94//100 79//100 93//100
f 95//101 80//101 79//101
f 95//102 79//102 94//102
f 96//103 94//103 97//103
f 96//104 95//104 94//104
f 98//105 80//105 95//105
f 99//106 97//106 100//106
f 99//107 96//107 97//107
f 101//108 80//108 98//108
f 102//109 103//109 58//109
f 102//110 100//110 103//110
f 102//111 99//111 100//111
f 104//112 80//112 101//112
f 42//113 102//113 58//113
f 105//114 80//114 104//114
f 106//115 80//115 105//115
f 84//116 80//116 106//116
f 38//117 37//117 107//117
f 61//118 62//118 108//118
f 108//119 62//119 109//119
f 110//120 40//120 111//120
f 62//121 63//121 109//121
f 37//122 40//122 110//122
f 109//123 63//123 112//123
f 111//124 45//124 113//124
f 40//125 45//125 111//125
f 63//126 65//126 112//126
f 112//127 65//127 114//127
f 115//128 69//128 116//128
f 113//129 56//129 117//129
f 65//130 66//130 114//130
f 68//131 69//131 115//131
f 114//132 66//132 118//132
f 45//133 56//133 113//133
f 66//134 67//134 118//134
f 116//135 76//135 119//135
f 118//136 67//136 120//136
f 117//137 44//137 121//137
f 69//138 76//138 116//138
f 56//139 44//139 117//139
f 67//140 68//140 120//140
f 120//141 68//141 115//141
f 121//142 43//142 122//142
f 119//143 75//143 123//143
f 44//144 43//144 121//144
f 76//145 75//145 119//145
f 122//146 46//146 124//146
f 123//147 74//147 125//147
f 43//148 46//148 122//148
f 75//149 74//149 123//149
f 124//150 47//150 126//150
f 74//151 73//151 125//151
f 46//152 47//152 124//152
f 125//153 73//153 127//153
f 126//154 48//154 128//154
f 47//155 48//155 126//155
f 73//156 72//156 127//156
f 127//157 72//157 129//157
f 128//158 49//158 130//158
f 48//159 49//159 128//159
f 129//160 71//160 131//160
f 72//161 71//161 129//161
f 130//162 51//162 132//162
f 49//163 51//163 130//163
f 71//164 70//164 131//164
f 131//165 70//165 133//165
f 132//166 52//166 134//166
f 51//167 52//167 132//167
f 133//168 64//168 135//168
f 70//169 64//169 133//169
f 134//170 53//170 136//170
f 52//171 53//171 134//171
f 135//172 57//172 137//172
f 136//173 54//173 138//173
f 64//174 57//174 135//174
f 53//175 54//175 136//175
f 137//176 50//176 139//176
f 57//177 50//177 137//177
f 138//178 55//178 140//178
f 54//179 55//179 138//179
f 139//180 41//180 141//180
f 50//181 41//181 139//181
f 140//182 59//182 142//182
f 55//183 59//183 140//183
f 141//184 39//184 143//184
f 59//185 60//185 142//185
f 41//186 39//186 141//186
f 142//187 60//187 144//187
f 143//188 38//188 107//188
f 60//189 61//189 144//189
f 39//190 38//190 143//190
f 144//191 61//191 108//191
f 107//192 37//192 110//192
f 127//193 136//193 140//193
f 127//194 132//194 136//194
f 127//195 131//195 121//195
f 127//196 140//196 114//196
f 127//197 114//197 120//197
f 120//198 114//198 118//198
f 136//199 132//199 134//199
f 140//200 136//200 138//200
f 119//201 115//201 116//201
f 131//202 133//202 135//202
f 131//203 135//203 137//203
f 131//204 137//204 139//204
f 131//205 139//205 141//205
f 131//206 141//206 143//206
f 131//207 143//207 107//207
f 131//208 111//208 113//208
f 131//209 113//209 117//209
f 131//210 117//210 121//210
f 109//211 142//211 144//211
f 109//212 144//212 108//212
f 131//213 107//213 111//213
f 107//214 110//214 111//214
f 125//215 119//215 123//215
f 114//216 140//216 142//216
f 114//217 109//217 112//217
f 127//218 115//218 119//218
f 114//219 142//219 109//219
f 127//220 119//220 125//220
f 127//221 129//221 131//221
f 127//222 121//222 122//222
f 127//223 122//223 124//223
f 127//224 124//224 126//224
f 127//225 126//225 128//225
f 127//226 128//226 130//226
f 127//227 130//227 132//227
f 127//228 120//228 115//228
f 35//229 81//229 6//229
f 6//230 81//230 4//230
f 4//231 81//231 7//231
f 7//232 82//232 8//232
f 81//233 82//233 7//233
f 8//234 83//234 9//234
f 82//235 83//235 8//235
f 9//236 84//236 34//236
f 83//237 84//237 9//237
f 34//238 106//238 33//238
f 84//239 106//239 34//239
f 33//240 105//240 31//240
f 106//241 105//241 33//241
f 105//242 104//242 31//242
f 31//243 101//243 27//243
f 104//244 101//244 31//244
f 27//245 98//245 24//245
f 101//246 98//246 27//246
f 24//247 95//247 21//247
f 98//248 95//248 24//248
f 21//249 96//249 22//249
f 95//250 96//250 21//250
f 22//251 99//251 25//251
f 96//252 99//252 22//252
f 25//253 102//253 29//253
f 99//254 102//254 25//254
f 29//255 42//255 32//255
f 102//256 42//256 29//256
f 58//257 103//257 30//257
f 30//258 103//258 28//258
f 28//259 103//259 26//259
f 26//260 100//260 23//260
f 103//261 100//261 26//261
f 23//262 97//262 20//262
f 100//263 97//263 23//263
f 20//264 94//264 19//264
f 97//265 94//265 20//265
f 19//266 93//266 18//266
f 94//267 93//267 19//267
f 18//268 92//268 17//268
f 93//269 92//269 18//269
f 92//270 91//270 17//270
f 17//271 89//271 14//271
f 91//272 89//272 17//272
f 14//273 87//273 12//273
f 89//274 87//274 14//274
f 12//275 85//275 2//275
f 87//276 85//276 12//276
f 2//277 86//277 10//277
f 85//278 86//278 2//278
f 10//279 88//279 13//279
f 86//280 88//280 10//280
f 13//281 90//281 15//281
f 88//282 90//282 13//282
f 15//283 78//283 16//283
f 90//284 78//284 15//284
