# Created by FreeCAD <http://www.freecadweb.org>
v 40.000000 0.000000 20.000000
v 0.000000 13.000000 20.000000
v 0.000000 0.000000 20.000000
v 40.000000 13.000000 20.000000
v -0.000000 0.000000 18.700001
v 40.000000 0.000000 18.700001
v 0.000000 -0.000000 15.300000
v 40.000000 0.396627 15.346916
v 0.000000 0.396627 15.346916
v 40.000000 -0.000000 15.300000
v 40.000000 0.771362 15.485074
v 0.000000 0.771362 15.485074
v 40.000000 1.103522 15.706849
v 0.000000 1.103522 15.706849
v 40.000000 1.374773 16.000000
v 0.000000 1.374773 16.000000
v 40.000000 1.552771 16.307972
v 0.000000 1.552771 16.307972
v 40.000000 1.662785 16.646242
v 0.000000 1.662785 16.646242
v 40.000000 1.700000 17.000000
v -0.000000 1.700000 17.000000
v 40.000000 1.662785 17.353758
v -0.000000 1.662785 17.353758
v 40.000000 1.552771 17.692028
v -0.000000 1.552771 17.692028
v 40.000000 1.374773 18.000000
v -0.000000 1.374773 18.000000
v 40.000000 1.103522 18.293150
v -0.000000 1.103522 18.293150
v 40.000000 0.771362 18.514925
v -0.000000 0.771362 18.514925
v 40.000000 0.396627 18.653084
v -0.000000 0.396627 18.653084
v 0.000000 0.000000 -2.000000
v 0.000000 0.396627 -0.653084
v 0.000000 0.771362 -0.514926
v 0.000000 1.103522 -0.293151
v 0.000000 1.374773 -0.000000
v 0.000000 13.000000 -2.000000
v -0.000000 1.103522 2.293151
v -0.000000 1.374773 2.000000
v -0.000000 0.771362 2.514926
v -0.000000 1.552771 1.692028
v -0.000000 0.396627 2.653084
v -0.000000 1.662785 1.353758
v -0.000000 0.000000 2.700000
v 0.000000 1.700000 1.000000
v 0.000000 1.662785 0.646242
v 0.000000 1.552771 0.307972
v 0.000000 -0.000000 -0.700000
v 40.000000 0.396627 -0.653084
v 40.000000 -0.000000 -0.700000
v 40.000000 0.771362 -0.514926
v 40.000000 1.103522 -0.293151
v 40.000000 1.374773 -0.000000
v 40.000000 1.552771 0.307972
v 40.000000 1.662785 0.646242
v 40.000000 1.700000 1.000000
v 40.000000 1.662785 1.353758
v 40.000000 1.552771 1.692028
v 40.000000 1.374773 2.000000
v 40.000000 1.103522 2.293151
v 40.000000 0.771362 2.514926
v 40.000000 0.396627 2.653084
v 40.000000 0.000000 2.700000
v 40.000000 0.000000 -2.000000
v 40.000000 13.000000 -2.000000
v 19.147903 0.000000 7.765524
v 18.877234 0.000000 8.005316
v 18.671816 0.000000 8.302916
v 19.468092 0.000000 7.597476
v 18.543587 0.000000 8.641026
v 19.819195 0.000000 7.510937
v 18.500000 0.000000 9.000000
v 18.543587 0.000000 9.358974
v 18.671816 0.000000 9.697084
v 18.877234 0.000000 9.994684
v 19.147903 0.000000 10.234476
v 19.468092 0.000000 10.402524
v 19.819195 0.000000 10.489063
v 20.180805 0.000000 7.510937
v 20.531908 0.000000 7.597476
v 20.852097 0.000000 7.765524
v 21.122766 0.000000 8.005316
v 21.328184 0.000000 8.302916
v 21.456413 0.000000 8.641026
v 21.500000 0.000000 9.000000
v 40.000000 -0.000000 15.300000
v 21.456413 0.000000 9.358974
v 21.328184 0.000000 9.697084
v 21.122766 0.000000 9.994684
v 20.852097 0.000000 10.234476
v 20.531908 0.000000 10.402524
v 20.180805 0.000000 10.489063
v 19.147903 10.000000 7.765524
v 19.468092 10.000000 7.597476
v 21.500000 10.000000 9.000000
v 21.456413 10.000000 9.358974
v 19.819195 10.000000 7.510937
v 21.328184 10.000000 9.697084
v 20.180805 10.000000 7.510937
v 20.531908 10.000000 7.597476
v 20.852097 10.000000 7.765524
v 21.122766 10.000000 9.994684
v 20.852097 10.000000 10.234476
v 21.122766 10.000000 8.005316
v 21.328184 10.000000 8.302916
v 20.531908 10.000000 10.402524
v 21.456413 10.000000 8.641026
v 20.180805 10.000000 10.489063
v 19.819195 10.000000 10.489063
v 19.468092 10.000000 10.402524
v 19.147903 10.000000 10.234476
v 18.877234 10.000000 9.994684
v 18.671816 10.000000 9.697084
v 18.543587 10.000000 9.358974
v 18.500000 10.000000 9.000000
v 18.543587 10.000000 8.641026
v 18.671816 10.000000 8.302916
v 18.877234 10.000000 8.005316
vn 0.000000 0.000000 1.000000
vn 0.000000 0.000000 1.000000
vn 0.000000 -1.000000 -0.000000
vn -0.000000 -1.000000 -0.000000
vn 0.000000 -0.117468 0.993077
vn 0.000000 -0.117468 0.993077
vn 0.000000 -0.345920 0.938264
vn 0.000000 -0.345920 0.938264
vn 0.000000 -0.555281 0.831663
vn 0.000000 -0.555281 0.831663
vn 0.000000 -0.733992 0.679158
vn 0.000000 -0.733992 0.679158
vn 0.000000 -0.865794 0.500401
vn 0.000000 -0.865794 0.500401
vn 0.000000 -0.950971 0.309281
vn 0.000000 -0.950971 0.309281
vn 0.000000 -0.994512 0.104621
vn 0.000000 -0.994512 0.104621
vn 0.000000 -0.994512 -0.104621
vn -0.000000 -0.994512 -0.104621
vn 0.000000 -0.950971 -0.309281
vn -0.000000 -0.950971 -0.309281
vn 0.000000 -0.865794 -0.500401
vn -0.000000 -0.865794 -0.500401
vn 0.000000 -0.733991 -0.679159
vn -0.000000 -0.733991 -0.679159
vn 0.000000 -0.555281 -0.831663
vn -0.000000 -0.555281 -0.831663
vn 0.000000 -0.345922 -0.938263
vn -0.000000 -0.345922 -0.938263
vn 0.000000 -0.117471 -0.993076
vn -0.000000 -0.117471 -0.993076
vn -1.000000 -0.000000 0.000000
vn -1.000000 -0.000000 0.000000
vn -1.000000 -0.000000 0.000000
vn -1.000000 0.000000 0.000000
vn -1.000000 0.000000 0.000000
vn -1.000000 0.000000 0.000000
vn -1.000000 0.000000 0.000000
vn -1.000000 -0.000000 0.000000
vn -1.000000 0.000000 0.000000
vn -1.000000 0.000000 -0.000000
vn -1.000000 0.000000 -0.000000
vn -1.000000 -0.000000 0.000000
vn -1.000000 0.000000 -0.000000
vn -1.000000 0.000000 -0.000000
vn -1.000000 -0.000000 0.000000
vn -1.000000 -0.000000 0.000000
vn -1.000000 0.000000 0.000000
vn -1.000000 -0.000000 0.000000
vn -1.000000 -0.000000 0.000000
vn -1.000000 0.000000 0.000000
vn -1.000000 -0.000000 0.000000
vn -1.000000 0.000000 0.000000
vn -1.000000 0.000000 0.000000
vn -1.000000 0.000000 0.000000
vn -1.000000 -0.000000 -0.000000
vn -1.000000 -0.000000 0.000000
vn -1.000000 -0.000000 0.000000
vn -1.000000 -0.000000 -0.000000
vn -1.000000 -0.000000 -0.000000
vn -1.000000 -0.000000 -0.000000
vn -1.000000 0.000000 0.000000
vn -1.000000 -0.000000 0.000000
vn 0.000000 -0.117468 0.993077
vn 0.000000 -0.117468 0.993077
vn 0.000000 -0.345921 0.938263
vn 0.000000 -0.345921 0.938263
vn 0.000000 -0.555281 0.831663
vn 0.000000 -0.555281 0.831663
vn 0.000000 -0.733992 0.679158
vn 0.000000 -0.733992 0.679158
vn 0.000000 -0.865793 0.500402
vn 0.000000 -0.865793 0.500402
vn 0.000000 -0.950971 0.309281
vn 0.000000 -0.950971 0.309281
vn 0.000000 -0.994512 0.104621
vn 0.000000 -0.994512 0.104621
vn 0.000000 -0.994512 -0.104621
vn -0.000000 -0.994512 -0.104621
vn 0.000000 -0.950971 -0.309281
vn -0.000000 -0.950971 -0.309281
vn 0.000000 -0.865793 -0.500402
vn -0.000000 -0.865793 -0.500402
vn 0.000000 -0.733992 -0.679158
vn -0.000000 -0.733992 -0.679158
vn 0.000000 -0.555281 -0.831663
vn -0.000000 -0.555281 -0.831663
vn 0.000000 -0.345921 -0.938263
vn -0.000000 -0.345921 -0.938263
vn 0.000000 -0.117468 -0.993077
vn -0.000000 -0.117468 -0.993077
vn 0.000000 -1.000000 -0.000000
vn -0.000000 -1.000000 -0.000000
vn 0.000000 0.000000 -1.000000
vn 0.000000 0.000000 -1.000000
vn -0.000000 -1.000000 -0.000000
vn -0.000000 -1.000000 -0.000000
vn -0.000000 -1.000000 -0.000000
vn -0.000000 -1.000000 -0.000000
vn -0.000000 -1.000000 -0.000000
vn -0.000000 -1.000000 -0.000000
vn -0.000000 -1.000000 -0.000000
vn 0.000000 -1.000000 -0.000000
vn 0.000000 -1.000000 -0.000000
vn 0.000000 -1.000000 -0.000000
vn 0.000000 -1.000000 -0.000000
vn 0.000000 -1.000000 -0.000000
vn 0.000000 -1.000000 -0.000000
vn 0.000000 -1.000000 -0.000000
vn 0.000000 -1.000000 -0.000000
vn 0.000000 -1.000000 -0.000000
vn 0.000000 -1.000000 -0.000000
vn 0.000000 -1.000000 -0.000000
vn 0.000000 -1.000000 -0.000000
vn -0.000000 -1.000000 -0.000000
vn -0.000000 -1.000000 -0.000000
vn -0.000000 -1.000000 -0.000000
vn -0.000000 -1.000000 -0.000000
vn -0.000000 -1.000000 -0.000000
vn -0.000000 -1.000000 -0.000000
vn 0.000000 -1.000000 -0.000000
vn -0.000000 -1.000000 -0.000000
vn -0.000000 -1.000000 -0.000000
vn 0.000000 -1.000000 -0.000000
vn 0.000000 -1.000000 -0.000000
vn 0.464725 -0.000000 0.885455
vn 0.464725 0.000000 0.885455
vn 0.239315 -0.000000 0.970942
vn -0.992709 -0.000000 -0.120535
vn 0.239315 0.000000 0.970942
vn 0.000000 0.000000 1.000000
vn -0.935016 -0.000000 -0.354606
vn -0.000000 0.000000 1.000000
vn -0.992709 0.000000 -0.120535
vn -0.239315 0.000000 0.970942
vn -0.935016 0.000000 -0.354606
vn -0.239315 0.000000 0.970942
vn -0.464725 0.000000 0.885455
vn -0.822985 0.000000 -0.568063
vn -0.464725 0.000000 0.885455
vn -0.822985 0.000000 -0.568063
vn -0.663121 0.000000 0.748512
vn -0.663121 0.000000 -0.748512
vn -0.663121 0.000000 0.748512
vn -0.663121 0.000000 -0.748512
vn -0.822985 0.000000 0.568063
vn -0.464723 0.000000 -0.885456
vn -0.464723 0.000000 -0.885456
vn -0.822985 0.000000 0.568063
vn -0.935016 0.000000 0.354606
vn -0.935016 0.000000 0.354606
vn -0.239316 0.000000 -0.970942
vn -0.992709 0.000000 0.120535
vn -0.992709 0.000000 0.120535
vn -0.239316 0.000000 -0.970942
vn -0.000000 0.000000 -1.000000
vn 0.000000 0.000000 -1.000000
vn 0.239316 0.000000 -0.970942
vn 0.239316 0.000000 -0.970942
vn 0.464723 0.000000 -0.885456
vn 0.464723 0.000000 -0.885456
vn 0.663121 0.000000 -0.748512
vn 0.663121 0.000000 -0.748512
vn 0.822985 0.000000 -0.568063
vn 0.822985 0.000000 -0.568063
vn 0.935016 0.000000 -0.354606
vn 0.935016 0.000000 -0.354606
vn 0.992709 0.000000 -0.120535
vn 0.992709 0.000000 -0.120535
vn 0.992709 -0.000000 0.120535
vn 0.992709 0.000000 0.120535
vn 0.935016 -0.000000 0.354606
vn 0.935016 0.000000 0.354606
vn 0.822985 -0.000000 0.568063
vn 0.822985 0.000000 0.568063
vn 0.663121 -0.000000 0.748512
vn 0.663121 0.000000 0.748512
vn 0.000000 -1.000000 0.000000
vn 0.000000 -1.000000 0.000000
vn 0.000000 -1.000000 0.000000
vn 0.000000 -1.000000 0.000000
vn 0.000000 -1.000000 0.000000
vn 0.000000 -1.000000 0.000000
vn 0.000000 -1.000000 0.000000
vn 0.000000 -1.000000 0.000000
vn -0.000000 -1.000000 0.000000
vn 0.000000 -1.000000 0.000000
vn 0.000000 -1.000000 0.000000
vn 0.000000 -1.000000 0.000000
vn 0.000000 -1.000000 -0.000000
vn 0.000000 -1.000000 0.000000
vn 0.000000 -1.000000 0.000000
vn 0.000000 -1.000000 0.000000
vn 0.000000 -1.000000 0.000000
vn -0.000000 -1.000000 0.000000
vn 0.000000 -1.000000 0.000000
vn 0.000000 -1.000000 0.000000
vn 0.000000 -1.000000 0.000000
vn 0.000000 -1.000000 0.000000
vn 0.000000 -1.000000 0.000000
vn 0.000000 -1.000000 0.000000
vn 0.000000 1.000000 0.000000
vn 0.000000 1.000000 0.000000
vn 1.000000 0.000000 0.000000
vn 1.000000 0.000000 0.000000
vn 1.000000 -0.000000 0.000000
vn 1.000000 0.000000 0.000000
vn 1.000000 0.000000 0.000000
vn 1.000000 -0.000000 0.000000
vn 1.000000 0.000000 0.000000
vn 1.000000 -0.000000 0.000000
vn 1.000000 0.000000 0.000000
vn 1.000000 0.000000 0.000000
vn 1.000000 -0.000000 0.000000
vn 1.000000 0.000000 0.000000
vn 1.000000 0.000000 0.000000
vn 1.000000 0.000000 0.000000
vn 1.000000 0.000000 0.000000
vn 1.000000 0.000000 0.000000
vn 1.000000 0.000000 0.000000
vn 1.000000 -0.000000 0.000000
vn 1.000000 0.000000 0.000000
vn 1.000000 -0.000000 0.000000
vn 1.000000 -0.000000 0.000000
vn 1.000000 0.000000 0.000000
vn 1.000000 0.000000 0.000000
vn 1.000000 -0.000000 0.000000
vn 1.000000 -0.000000 0.000000
vn 1.000000 -0.000000 0.000000
vn 1.000000 -0.000000 0.000000
vn 1.000000 -0.000000 0.000000
vn 1.000000 -0.000000 0.000000
vn 1.000000 -0.000000 0.000000
vn 1.000000 0.000000 0.000000
vn 1.000000 0.000000 0.000000
f 1//1 2//1 3//1
f 4//2 2//2 1//2
f 5//3 1//3 3//3
f 6//4 1//4 5//4
f 7//5 8//5 9//5
f 10//6 8//6 7//6
f 9//7 11//7 12//7
f 8//8 11//8 9//8
f 12//9 13//9 14//9
f 11//10 13//10 12//10
f 14//11 15//11 16//11
f 13//12 15//12 14//12
f 16//13 17//13 18//13
f 15//14 17//14 16//14
f 18//15 19//15 20//15
f 17//16 19//16 18//16
f 20//17 21//17 22//17
f 19//18 21//18 20//18
f 22//19 23//19 24//19
f 21//20 23//20 22//20
f 24//21 25//21 26//21
f 23//22 25//22 24//22
f 26//23 27//23 28//23
f 25//24 27//24 26//24
f 28//25 29//25 30//25
f 27//26 29//26 28//26
f 30//27 31//27 32//27
f 29//28 31//28 30//28
f 32//29 33//29 34//29
f 31//30 33//30 32//30
f 34//31 6//31 5//31
f 33//32 6//32 34//32
f 35//33 36//33 37//33
f 35//34 37//34 38//34
f 35//35 38//35 39//35
f 35//36 39//36 40//36
f 28//37 3//37 2//37
f 28//38 30//38 3//38
f 32//39 3//39 30//39
f 26//40 28//40 2//40
f 34//41 3//41 32//41
f 24//42 26//42 2//42
f 22//43 24//43 2//43
f 5//44 3//44 34//44
f 20//45 22//45 2//45
f 18//46 20//46 2//46
f 16//47 18//47 2//47
f 41//48 12//48 14//48
f 42//49 2//49 40//49
f 42//50 14//50 16//50
f 42//51 16//51 2//51
f 42//52 41//52 14//52
f 43//53 9//53 12//53
f 43//54 12//54 41//54
f 44//55 42//55 40//55
f 45//56 9//56 43//56
f 46//57 44//57 40//57
f 47//58 7//58 9//58
f 47//59 9//59 45//59
f 48//60 46//60 40//60
f 49//61 48//61 40//61
f 50//62 49//62 40//62
f 39//63 50//63 40//63
f 35//64 51//64 36//64
f 51//65 52//65 36//65
f 53//66 52//66 51//66
f 36//67 54//67 37//67
f 52//68 54//68 36//68
f 37//69 55//69 38//69
f 54//70 55//70 37//70
f 38//71 56//71 39//71
f 55//72 56//72 38//72
f 39//73 57//73 50//73
f 56//74 57//74 39//74
f 50//75 58//75 49//75
f 57//76 58//76 50//76
f 49//77 59//77 48//77
f 58//78 59//78 49//78
f 48//79 60//79 46//79
f 59//80 60//80 48//80
f 46//81 61//81 44//81
f 60//82 61//82 46//82
f 44//83 62//83 42//83
f 61//84 62//84 44//84
f 42//85 63//85 41//85
f 62//86 63//86 42//86
f 41//87 64//87 43//87
f 63//88 64//88 41//88
f 43//89 65//89 45//89
f 64//90 65//90 43//90
f 45//91 66//91 47//91
f 65//92 66//92 45//92
f 35//93 53//93 51//93
f 67//94 53//94 35//94
f 40//95 67//95 35//95
f 40//96 68//96 67//96
f 47//97 69//97 70//97
f 70//98 71//98 47//98
f 47//99 72//99 69//99
f 71//100 73//100 47//100
f 47//101 74//101 72//101
f 47//102 75//102 7//102
f 73//103 75//103 47//103
f 75//104 76//104 7//104
f 76//105 77//105 7//105
f 77//106 78//106 7//106
f 78//107 79//107 7//107
f 79//108 80//108 7//108
f 80//109 81//109 7//109
f 82//110 66//110 83//110
f 83//111 66//111 84//111
f 84//112 66//112 85//112
f 85//113 66//113 86//113
f 86//114 66//114 87//114
f 87//115 66//115 88//115
f 88//116 89//116 90//116
f 90//117 89//117 91//117
f 91//118 89//118 92//118
f 92//119 89//119 93//119
f 93//120 89//120 94//120
f 94//121 89//121 95//121
f 66//122 89//122 88//122
f 89//123 7//123 95//123
f 95//124 7//124 81//124
f 47//125 66//125 74//125
f 74//126 66//126 82//126
f 69//127 72//127 96//127
f 96//128 72//128 97//128
f 72//129 74//129 97//129
f 98//130 88//130 99//130
f 97//131 74//131 100//131
f 74//132 82//132 100//132
f 99//133 90//133 101//133
f 100//134 82//134 102//134
f 88//135 90//135 99//135
f 82//136 83//136 102//136
f 90//137 91//137 101//137
f 102//138 83//138 103//138
f 103//139 83//139 104//139
f 101//140 92//140 105//140
f 83//141 84//141 104//141
f 91//142 92//142 101//142
f 84//143 85//143 104//143
f 105//144 93//144 106//144
f 104//145 85//145 107//145
f 92//146 93//146 105//146
f 107//147 86//147 108//147
f 106//148 94//148 109//148
f 93//149 94//149 106//149
f 85//150 86//150 107//150
f 108//151 87//151 110//151
f 86//152 87//152 108//152
f 109//153 95//153 111//153
f 110//154 88//154 98//154
f 87//155 88//155 110//155
f 94//156 95//156 109//156
f 111//157 81//157 112//157
f 95//158 81//158 111//158
f 112//159 80//159 113//159
f 81//160 80//160 112//160
f 113//161 79//161 114//161
f 80//162 79//162 113//162
f 114//163 78//163 115//163
f 79//164 78//164 114//164
f 115//165 77//165 116//165
f 78//166 77//166 115//166
f 77//167 76//167 116//167
f 116//168 76//168 117//168
f 76//169 75//169 117//169
f 117//170 75//170 118//170
f 75//171 73//171 118//171
f 118//172 73//172 119//172
f 73//173 71//173 119//173
f 119//174 71//174 120//174
f 71//175 70//175 120//175
f 120//176 70//176 121//176
f 70//177 69//177 121//177
f 121//178 69//178 96//178
f 109//179 112//179 113//179
f 109//180 117//180 118//180
f 109//181 118//181 119//181
f 109//182 119//182 120//182
f 109//183 120//183 121//183
f 109//184 121//184 96//184
f 109//185 96//185 97//185
f 109//186 97//186 100//186
f 109//187 113//187 117//187
f 105//188 99//188 101//188
f 105//189 106//189 109//189
f 105//190 100//190 102//190
f 105//191 104//191 107//191
f 105//192 107//192 108//192
f 105//193 108//193 110//193
f 105//194 110//194 99//194
f 105//195 102//195 104//195
f 105//196 109//196 100//196
f 104//197 102//197 103//197
f 113//198 114//198 115//198
f 113//199 115//199 116//199
f 113//200 116//200 117//200
f 99//201 110//201 98//201
f 109//202 111//202 112//202
f 4//203 68//203 40//203
f 4//204 40//204 2//204
f 1//205 33//205 31//205
f 1//206 6//206 33//206
f 1//207 27//207 4//207
f 56//208 67//208 68//208
f 56//209 55//209 67//209
f 54//210 67//210 55//210
f 57//211 56//211 68//211
f 52//212 67//212 54//212
f 58//213 57//213 68//213
f 59//214 58//214 68//214
f 53//215 67//215 52//215
f 60//216 59//216 68//216
f 61//217 60//217 68//217
f 62//218 61//218 68//218
f 4//219 62//219 68//219
f 13//220 63//220 62//220
f 15//221 13//221 62//221
f 15//222 62//222 4//222
f 11//223 64//223 63//223
f 11//224 63//224 13//224
f 17//225 15//225 4//225
f 8//226 65//226 64//226
f 8//227 66//227 65//227
f 8//228 64//228 11//228
f 19//229 17//229 4//229
f 89//230 66//230 8//230
f 21//231 19//231 4//231
f 23//232 21//232 4//232
f 25//233 23//233 4//233
f 27//234 25//234 4//234
f 1//235 29//235 27//235
f 1//236 31//236 29//236
