# Created by FreeCAD <https://www.freecad.org>
v 48.000000 0.000000 4.000000
v 50.000000 0.000000 4.000000
v 48.000000 -0.100000 4.000000
v 48.001686 -0.168695 4.000000
v 48.006741 -0.237224 4.000000
v 48.015152 -0.305423 4.000000
v 48.026901 -0.373126 4.000000
v 48.041958 -0.440172 4.000000
v 48.060284 -0.506399 4.000000
v 48.081837 -0.571646 4.000000
v 48.106567 -0.635757 4.000000
v 48.134415 -0.698577 4.000000
v 48.165310 -0.759955 4.000000
v 48.199181 -0.819744 4.000000
v 48.235943 -0.877798 4.000000
v 48.275509 -0.933979 4.000000
v 48.317787 -0.988151 4.000000
v 48.362667 -1.040183 4.000000
v 48.410049 -1.089949 4.000000
v 48.459816 -1.137332 4.000000
v 48.511848 -1.182215 4.000000
v 48.566021 -1.224491 4.000000
v 48.622200 -1.264057 4.000000
v 48.680256 -1.300820 4.000000
v 48.740044 -1.334690 4.000000
v 48.801422 -1.365585 4.000000
v 48.864243 -1.393431 4.000000
v 48.928352 -1.418162 4.000000
v 48.993603 -1.439716 4.000000
v 49.059826 -1.458044 4.000000
v 49.126873 -1.473099 4.000000
v 49.194576 -1.484847 4.000000
v 49.262775 -1.493259 4.000000
v 49.331306 -1.498314 4.000000
v 49.400002 -1.500000 4.000000
v 50.000000 -1.500000 4.000000
v 48.000000 -0.100000 18.000000
v 48.000000 0.000000 18.000000
v 50.000000 0.000000 18.000000
v 48.001686 -0.168695 18.000000
v 48.006741 -0.237224 18.000000
v 48.015152 -0.305423 18.000000
v 48.026901 -0.373126 18.000000
v 48.041958 -0.440172 18.000000
v 48.060284 -0.506399 18.000000
v 48.081837 -0.571646 18.000000
v 48.106567 -0.635757 18.000000
v 48.134415 -0.698577 18.000000
v 48.165310 -0.759955 18.000000
v 48.199181 -0.819744 18.000000
v 48.235943 -0.877798 18.000000
v 48.275509 -0.933979 18.000000
v 48.317787 -0.988151 18.000000
v 48.362667 -1.040183 18.000000
v 48.410049 -1.089949 18.000000
v 48.459816 -1.137332 18.000000
v 48.511848 -1.182215 18.000000
v 48.566021 -1.224491 18.000000
v 48.622200 -1.264057 18.000000
v 48.680256 -1.300820 18.000000
v 48.740044 -1.334690 18.000000
v 48.801422 -1.365585 18.000000
v 48.864243 -1.393431 18.000000
v 48.928352 -1.418162 18.000000
v 48.993603 -1.439716 18.000000
v 49.059826 -1.458044 18.000000
v 49.126873 -1.473099 18.000000
v 49.194576 -1.484847 18.000000
v 49.262775 -1.493259 18.000000
v 49.331306 -1.498314 18.000000
v 49.400002 -1.500000 18.000000
v 50.000000 -1.500000 18.000000
v 0.000000 0.000000 20.000000
v -1.250000 0.000000 32.000000
v -1.250000 0.000000 21.250000
v 2.000000 0.000000 18.000000
v 0.000000 0.000000 18.000000
v 0.000000 0.000000 0.000000
v 2.000000 0.000000 4.000000
v 0.000000 0.000000 4.000000
v 51.250000 0.000000 32.000000
v 50.000000 0.000000 20.000000
v 51.250000 0.000000 21.250000
v 50.000000 0.000000 0.000000
v 0.000000 -1.500000 18.000000
v 0.600000 -1.500000 18.000000
v 1.198577 -1.365585 18.000000
v 1.259955 -1.334690 18.000000
v 1.135757 -1.393431 18.000000
v 1.071646 -1.418162 18.000000
v 1.006399 -1.439716 18.000000
v 0.940172 -1.458044 18.000000
v 0.873126 -1.473099 18.000000
v 0.805423 -1.484847 18.000000
v 0.737224 -1.493259 18.000000
v 0.668695 -1.498314 18.000000
v 1.319744 -1.300820 18.000000
v 1.377798 -1.264057 18.000000
v 1.433979 -1.224491 18.000000
v 1.488151 -1.182215 18.000000
v 1.540183 -1.137332 18.000000
v 1.589949 -1.089949 18.000000
v 1.637332 -1.040183 18.000000
v 1.682215 -0.988151 18.000000
v 1.724491 -0.933979 18.000000
v 1.764057 -0.877798 18.000000
v 1.800820 -0.819744 18.000000
v 1.834690 -0.759955 18.000000
v 1.865585 -0.698577 18.000000
v 1.893431 -0.635757 18.000000
v 1.918162 -0.571646 18.000000
v 1.939716 -0.506399 18.000000
v 1.958044 -0.440172 18.000000
v 1.973099 -0.373126 18.000000
v 1.984847 -0.305423 18.000000
v 1.993259 -0.237224 18.000000
v 1.998314 -0.168695 18.000000
v 2.000000 -0.100000 18.000000
v 2.000000 -0.100000 4.000000
v 0.000000 -1.500000 4.000000
v 0.600000 -1.500000 4.000000
v 1.198577 -1.365585 4.000000
v 1.259955 -1.334690 4.000000
v 1.135757 -1.393431 4.000000
v 1.071646 -1.418162 4.000000
v 1.006399 -1.439716 4.000000
v 0.940172 -1.458044 4.000000
v 0.873126 -1.473099 4.000000
v 0.805423 -1.484847 4.000000
v 0.737224 -1.493259 4.000000
v 0.668695 -1.498314 4.000000
v 1.319744 -1.300820 4.000000
v 1.377798 -1.264057 4.000000
v 1.433979 -1.224491 4.000000
v 1.488151 -1.182215 4.000000
v 1.540183 -1.137332 4.000000
v 1.589949 -1.089949 4.000000
v 1.637332 -1.040183 4.000000
v 1.682215 -0.988151 4.000000
v 1.724491 -0.933979 4.000000
v 1.764057 -0.877798 4.000000
v 1.800820 -0.819744 4.000000
v 1.834690 -0.759955 4.000000
v 1.865585 -0.698577 4.000000
v 1.893431 -0.635757 4.000000
v 1.918162 -0.571646 4.000000
v 1.939716 -0.506399 4.000000
v 1.958044 -0.440172 4.000000
v 1.973099 -0.373126 4.000000
v 1.984847 -0.305423 4.000000
v 1.993259 -0.237224 4.000000
v 1.998314 -0.168695 4.000000
v 0.000000 1.500000 20.000000
v 0.000000 1.500000 0.000000
v -1.250000 1.500000 21.250000
v -1.250000 1.500000 32.000000
v 51.250000 1.500000 32.000000
v 50.000000 1.500000 20.000000
v 51.250000 1.500000 21.250000
v 50.000000 1.500000 0.000000
vn 0.000000 0.000000 -1.000000
vn 0.000000 0.000000 -1.000000
vn 0.000000 0.000000 -1.000000
vn 0.000000 0.000000 -1.000000
vn 0.000000 0.000000 -1.000000
vn 0.000000 0.000000 -1.000000
vn 0.000000 0.000000 -1.000000
vn 0.000000 0.000000 -1.000000
vn 0.000000 0.000000 -1.000000
vn 0.000000 0.000000 -1.000000
vn 0.000000 0.000000 -1.000000
vn 0.000000 0.000000 -1.000000
vn 0.000000 0.000000 -1.000000
vn 0.000000 0.000000 -1.000000
vn 0.000000 0.000000 -1.000000
vn 0.000000 0.000000 -1.000000
vn 0.000000 0.000000 -1.000000
vn 0.000000 0.000000 -1.000000
vn 0.000000 0.000000 -1.000000
vn 0.000000 0.000000 -1.000000
vn 0.000000 0.000000 -1.000000
vn 0.000000 0.000000 -1.000000
vn 0.000000 0.000000 -1.000000
vn 0.000000 0.000000 -1.000000
vn 0.000000 0.000000 -1.000000
vn 0.000000 0.000000 -1.000000
vn 0.000000 0.000000 -1.000000
vn 0.000000 0.000000 -1.000000
vn 0.000000 0.000000 -1.000000
vn 0.000000 0.000000 -1.000000
vn 0.000000 0.000000 -1.000000
vn 0.000000 0.000000 -1.000000
vn 0.000000 0.000000 -1.000000
vn 0.000000 0.000000 -1.000000
vn -1.000000 0.000000 0.000000
vn -1.000000 0.000000 0.000000
vn 0.000000 0.000000 1.000000
vn 0.000000 0.000000 1.000000
vn 0.000000 0.000000 1.000000
vn 0.000000 0.000000 1.000000
vn 0.000000 0.000000 1.000000
vn 0.000000 0.000000 1.000000
vn 0.000000 0.000000 1.000000
vn 0.000000 0.000000 1.000000
vn 0.000000 0.000000 1.000000
vn 0.000000 0.000000 1.000000
vn 0.000000 0.000000 1.000000
vn 0.000000 0.000000 1.000000
vn 0.000000 0.000000 1.000000
vn 0.000000 0.000000 1.000000
vn 0.000000 0.000000 1.000000
vn 0.000000 0.000000 1.000000
vn 0.000000 0.000000 1.000000
vn 0.000000 0.000000 1.000000
vn 0.000000 0.000000 1.000000
vn 0.000000 0.000000 1.000000
vn 0.000000 0.000000 1.000000
vn 0.000000 0.000000 1.000000
vn 0.000000 0.000000 1.000000
vn 0.000000 0.000000 1.000000
vn 0.000000 0.000000 1.000000
vn 0.000000 0.000000 1.000000
vn 0.000000 0.000000 1.000000
vn 0.000000 0.000000 1.000000
vn 0.000000 0.000000 1.000000
vn 0.000000 0.000000 1.000000
vn 0.000000 0.000000 1.000000
vn 0.000000 0.000000 1.000000
vn 0.000000 0.000000 1.000000
vn 0.000000 0.000000 1.000000
vn -0.999699 -0.024537 -0.000000
vn -0.999699 -0.024537 0.000000
vn -0.997291 -0.073557 -0.000000
vn -0.997291 -0.073557 0.000000
vn -0.992480 -0.122409 -0.000000
vn -0.992480 -0.122409 0.000000
vn -0.985274 -0.170984 -0.000000
vn -0.985274 -0.170984 0.000000
vn -0.975699 -0.219115 -0.000000
vn -0.975699 -0.219115 0.000000
vn -0.963782 -0.266693 -0.000000
vn -0.963782 -0.266693 0.000000
vn -0.949536 -0.313659 -0.000000
vn -0.932991 -0.359899 -0.000000
vn -0.949536 -0.313659 0.000000
vn -0.932991 -0.359899 -0.000000
vn -0.914205 -0.405253 0.000000
vn -0.914205 -0.405253 -0.000000
vn -0.893224 -0.449611 -0.000000
vn -0.893224 -0.449611 -0.000000
vn -0.870081 -0.492909 0.000000
vn -0.870081 -0.492909 -0.000000
vn -0.844856 -0.534994 -0.000000
vn -0.844856 -0.534994 -0.000000
vn -0.817591 -0.575800 -0.000000
vn -0.817591 -0.575800 0.000000
vn -0.788330 -0.615253 -0.000000
vn -0.757232 -0.653146 -0.000000
vn -0.788330 -0.615253 0.000000
vn -0.757232 -0.653146 -0.000000
vn -0.724245 -0.689543 -0.000000
vn -0.724245 -0.689543 0.000000
vn -0.689544 -0.724244 -0.000000
vn -0.689544 -0.724244 0.000000
vn -0.653169 -0.757213 -0.000000
vn -0.615225 -0.788352 -0.000000
vn -0.653169 -0.757213 0.000000
vn -0.615225 -0.788352 -0.000000
vn -0.575819 -0.817577 -0.000000
vn -0.575819 -0.817577 0.000000
vn -0.534990 -0.844859 -0.000000
vn -0.534990 -0.844859 0.000000
vn -0.492901 -0.870085 -0.000000
vn -0.449610 -0.893225 -0.000000
vn -0.492901 -0.870085 0.000000
vn -0.449610 -0.893225 -0.000000
vn -0.405241 -0.914210 -0.000000
vn -0.359902 -0.932990 -0.000000
vn -0.405241 -0.914210 0.000000
vn -0.359902 -0.932990 -0.000000
vn -0.313667 -0.949533 -0.000000
vn -0.313667 -0.949533 0.000000
vn -0.266726 -0.963773 -0.000000
vn -0.266726 -0.963773 0.000000
vn -0.219096 -0.975703 -0.000000
vn -0.170963 -0.985277 -0.000000
vn -0.219096 -0.975703 0.000000
vn -0.122410 -0.992480 -0.000000
vn -0.170963 -0.985277 -0.000000
vn -0.122410 -0.992480 -0.000000
vn -0.073563 -0.997290 -0.000000
vn -0.024541 -0.999699 -0.000000
vn -0.073563 -0.997290 0.000000
vn -0.024541 -0.999699 -0.000000
vn 0.000000 -1.000000 0.000000
vn 0.000000 -1.000000 0.000000
vn 0.000000 -1.000000 0.000000
vn 0.000000 -1.000000 0.000000
vn 0.000000 -1.000000 0.000000
vn 0.000000 -1.000000 0.000000
vn 0.000000 -1.000000 0.000000
vn -0.000000 -1.000000 0.000000
vn 0.000000 -1.000000 0.000000
vn -0.000000 -1.000000 0.000000
vn -0.000000 -1.000000 0.000000
vn 0.000000 -1.000000 0.000000
vn 0.000000 -1.000000 0.000000
vn 0.000000 -1.000000 0.000000
vn 0.000000 -1.000000 0.000000
vn 0.000000 -1.000000 0.000000
vn 0.000000 0.000000 1.000000
vn 0.000000 0.000000 1.000000
vn 0.000000 0.000000 1.000000
vn 0.000000 0.000000 1.000000
vn 0.000000 0.000000 1.000000
vn 0.000000 0.000000 1.000000
vn 0.000000 0.000000 1.000000
vn 0.000000 0.000000 1.000000
vn 0.000000 0.000000 1.000000
vn 0.000000 0.000000 1.000000
vn 0.000000 0.000000 1.000000
vn 0.000000 0.000000 1.000000
vn 0.000000 0.000000 1.000000
vn 0.000000 0.000000 1.000000
vn 0.000000 0.000000 1.000000
vn 0.000000 0.000000 1.000000
vn 0.000000 0.000000 1.000000
vn 0.000000 0.000000 1.000000
vn 0.000000 0.000000 1.000000
vn 0.000000 0.000000 1.000000
vn 0.000000 0.000000 1.000000
vn 0.000000 0.000000 1.000000
vn 0.000000 0.000000 1.000000
vn 0.000000 0.000000 1.000000
vn 0.000000 0.000000 1.000000
vn 0.000000 0.000000 1.000000
vn 0.000000 0.000000 1.000000
vn 0.000000 0.000000 1.000000
vn 0.000000 0.000000 1.000000
vn 0.000000 0.000000 1.000000
vn 0.000000 0.000000 1.000000
vn 0.000000 0.000000 1.000000
vn 0.000000 0.000000 1.000000
vn 0.000000 0.000000 1.000000
vn 1.000000 0.000000 0.000000
vn 1.000000 -0.000000 0.000000
vn 0.000000 0.000000 -1.000000
vn 0.000000 0.000000 -1.000000
vn 0.000000 0.000000 -1.000000
vn 0.000000 0.000000 -1.000000
vn 0.000000 0.000000 -1.000000
vn 0.000000 0.000000 -1.000000
vn 0.000000 0.000000 -1.000000
vn 0.000000 0.000000 -1.000000
vn 0.000000 0.000000 -1.000000
vn 0.000000 0.000000 -1.000000
vn 0.000000 0.000000 -1.000000
vn 0.000000 0.000000 -1.000000
vn 0.000000 0.000000 -1.000000
vn 0.000000 0.000000 -1.000000
vn 0.000000 0.000000 -1.000000
vn 0.000000 0.000000 -1.000000
vn 0.000000 0.000000 -1.000000
vn 0.000000 0.000000 -1.000000
vn 0.000000 0.000000 -1.000000
vn 0.000000 0.000000 -1.000000
vn 0.000000 0.000000 -1.000000
vn 0.000000 0.000000 -1.000000
vn 0.000000 0.000000 -1.000000
vn 0.000000 0.000000 -1.000000
vn 0.000000 0.000000 -1.000000
vn 0.000000 0.000000 -1.000000
vn 0.000000 0.000000 -1.000000
vn 0.000000 0.000000 -1.000000
vn 0.000000 0.000000 -1.000000
vn 0.000000 0.000000 -1.000000
vn 0.000000 0.000000 -1.000000
vn 0.000000 0.000000 -1.000000
vn 0.000000 0.000000 -1.000000
vn 0.000000 0.000000 -1.000000
vn 0.000000 -1.000000 0.000000
vn 0.000000 -1.000000 0.000000
vn 0.999699 -0.024541 0.000000
vn 0.999699 -0.024541 0.000000
vn 0.997290 -0.073565 0.000000
vn 0.997290 -0.073565 0.000000
vn 0.992479 -0.122411 0.000000
vn 0.992479 -0.122411 0.000000
vn 0.985278 -0.170962 0.000000
vn 0.985278 -0.170962 0.000000
vn 0.975702 -0.219100 0.000000
vn 0.975702 -0.219100 0.000000
vn 0.963776 -0.266714 0.000000
vn 0.963776 -0.266714 0.000000
vn 0.949528 -0.313681 0.000000
vn 0.932992 -0.359896 0.000000
vn 0.949528 -0.313681 0.000000
vn 0.932992 -0.359896 0.000000
vn 0.914210 -0.405241 0.000000
vn 0.914210 -0.405241 0.000000
vn 0.893224 -0.449611 0.000000
vn 0.893224 -0.449611 0.000000
vn 0.870088 -0.492897 0.000000
vn 0.870088 -0.492897 0.000000
vn 0.844853 -0.534999 0.000000
vn 0.844853 -0.534999 0.000000
vn 0.817585 -0.575808 0.000000
vn 0.817585 -0.575808 0.000000
vn 0.788346 -0.615232 0.000000
vn 0.757210 -0.653172 0.000000
vn 0.788346 -0.615232 0.000000
vn 0.757210 -0.653172 0.000000
vn 0.724246 -0.689541 0.000000
vn 0.724246 -0.689541 0.000000
vn 0.689541 -0.724246 0.000000
vn 0.689541 -0.724246 0.000000
vn 0.653172 -0.757210 0.000000
vn 0.615232 -0.788346 0.000000
vn 0.653172 -0.757210 0.000000
vn 0.615232 -0.788346 0.000000
vn 0.575808 -0.817585 0.000000
vn 0.575808 -0.817585 0.000000
vn 0.534999 -0.844853 0.000000
vn 0.534999 -0.844853 0.000000
vn 0.492897 -0.870088 0.000000
vn 0.449612 -0.893224 0.000000
vn 0.492897 -0.870088 0.000000
vn 0.449612 -0.893224 0.000000
vn 0.405241 -0.914210 0.000000
vn 0.359896 -0.932993 0.000000
vn 0.405241 -0.914210 0.000000
vn 0.359896 -0.932993 0.000000
vn 0.313681 -0.949528 0.000000
vn 0.313681 -0.949528 0.000000
vn 0.266714 -0.963776 0.000000
vn 0.266714 -0.963776 0.000000
vn 0.219100 -0.975702 0.000000
vn 0.170962 -0.985278 0.000000
vn 0.219100 -0.975702 0.000000
vn 0.122411 -0.992479 0.000000
vn 0.170962 -0.985278 0.000000
vn 0.122411 -0.992479 0.000000
vn 0.073565 -0.997290 0.000000
vn 0.024541 -0.999699 0.000000
vn 0.073565 -0.997290 0.000000
vn 0.024541 -0.999699 0.000000
vn -1.000000 0.000000 0.000000
vn -1.000000 0.000000 0.000000
vn -1.000000 0.000000 0.000000
vn -1.000000 0.000000 0.000000
vn -1.000000 0.000000 0.000000
vn -1.000000 0.000000 0.000000
vn -0.707107 -0.000000 -0.707107
vn -0.707107 0.000000 -0.707107
vn -1.000000 0.000000 0.000000
vn -1.000000 0.000000 0.000000
vn 0.000000 0.000000 1.000000
vn 0.000000 0.000000 1.000000
vn 0.707107 0.000000 -0.707107
vn 0.707107 0.000000 -0.707107
vn 1.000000 0.000000 0.000000
vn 1.000000 -0.000000 0.000000
vn 0.000000 0.000000 -1.000000
vn 0.000000 0.000000 -1.000000
vn 0.000000 1.000000 0.000000
vn 0.000000 1.000000 0.000000
vn 0.000000 1.000000 0.000000
vn 0.000000 1.000000 0.000000
vn 0.000000 1.000000 0.000000
vn 0.000000 1.000000 0.000000
vn 1.000000 0.000000 0.000000
vn 1.000000 0.000000 0.000000
vn 1.000000 0.000000 0.000000
vn 1.000000 0.000000 0.000000
vn 1.000000 -0.000000 0.000000
vn 1.000000 -0.000000 0.000000
f 1//1 2//1 3//1
f 3//2 2//2 4//2
f 4//3 2//3 5//3
f 5//4 2//4 6//4
f 6//5 2//5 7//5
f 7//6 2//6 8//6
f 8//7 2//7 9//7
f 9//8 2//8 10//8
f 10//9 2//9 11//9
f 11//10 2//10 12//10
f 12//11 2//11 13//11
f 13//12 2//12 14//12
f 14//13 2//13 15//13
f 15//14 2//14 16//14
f 16//15 2//15 17//15
f 17//16 2//16 18//16
f 18//17 2//17 19//17
f 19//18 2//18 20//18
f 20//19 2//19 21//19
f 21//20 2//20 22//20
f 22//21 2//21 23//21
f 23//22 2//22 24//22
f 24//23 2//23 25//23
f 25//24 2//24 26//24
f 26//25 2//25 27//25
f 27//26 2//26 28//26
f 28//27 2//27 29//27
f 29//28 2//28 30//28
f 30//29 2//29 31//29
f 31//30 2//30 32//30
f 32//31 2//31 33//31
f 33//32 2//32 34//32
f 34//33 2//33 35//33
f 35//34 2//34 36//34
f 3//35 37//35 1//35
f 1//36 37//36 38//36
f 39//37 38//37 37//37
f 39//38 37//38 40//38
f 39//39 40//39 41//39
f 39//40 41//40 42//40
f 39//41 42//41 43//41
f 39//42 43//42 44//42
f 39//43 44//43 45//43
f 39//44 45//44 46//44
f 39//45 46//45 47//45
f 39//46 47//46 48//46
f 39//47 48//47 49//47
f 39//48 49//48 50//48
f 39//49 50//49 51//49
f 39//50 51//50 52//50
f 39//51 52//51 53//51
f 39//52 53//52 54//52
f 39//53 54//53 55//53
f 39//54 55//54 56//54
f 39//55 56//55 57//55
f 39//56 57//56 58//56
f 39//57 58//57 59//57
f 39//58 59//58 60//58
f 39//59 60//59 61//59
f 39//60 61//60 62//60
f 39//61 62//61 63//61
f 39//62 63//62 64//62
f 39//63 64//63 65//63
f 39//64 65//64 66//64
f 39//65 66//65 67//65
f 39//66 67//66 68//66
f 39//67 68//67 69//67
f 39//68 69//68 70//68
f 39//69 70//69 71//69
f 39//70 71//70 72//70
f 40//71 3//71 4//71
f 40//72 37//72 3//72
f 41//73 4//73 5//73
f 41//74 40//74 4//74
f 42//75 5//75 6//75
f 42//76 41//76 5//76
f 43//77 6//77 7//77
f 43//78 42//78 6//78
f 44//79 7//79 8//79
f 44//80 43//80 7//80
f 45//81 8//81 9//81
f 45//82 44//82 8//82
f 46//83 9//83 10//83
f 46//84 10//84 11//84
f 46//85 45//85 9//85
f 47//86 46//86 11//86
f 48//87 47//87 11//87
f 48//88 11//88 12//88
f 48//89 12//89 13//89
f 49//90 48//90 13//90
f 50//91 49//91 13//91
f 50//92 13//92 14//92
f 50//93 14//93 15//93
f 51//94 50//94 15//94
f 52//95 15//95 16//95
f 52//96 51//96 15//96
f 53//97 16//97 17//97
f 53//98 17//98 18//98
f 53//99 52//99 16//99
f 54//100 53//100 18//100
f 55//101 18//101 19//101
f 55//102 54//102 18//102
f 56//103 19//103 20//103
f 56//104 55//104 19//104
f 57//105 20//105 21//105
f 57//106 21//106 22//106
f 57//107 56//107 20//107
f 58//108 57//108 22//108
f 59//109 22//109 23//109
f 59//110 58//110 22//110
f 60//111 23//111 24//111
f 60//112 59//112 23//112
f 61//113 24//113 25//113
f 61//114 25//114 26//114
f 61//115 60//115 24//115
f 62//116 61//116 26//116
f 63//117 26//117 27//117
f 63//118 27//118 28//118
f 63//119 62//119 26//119
f 64//120 63//120 28//120
f 65//121 28//121 29//121
f 65//122 64//122 28//122
f 66//123 29//123 30//123
f 66//124 65//124 29//124
f 67//125 30//125 31//125
f 67//126 31//126 32//126
f 67//127 66//127 30//127
f 68//128 32//128 33//128
f 68//129 67//129 32//129
f 69//130 68//130 33//130
f 70//131 33//131 34//131
f 70//132 34//132 35//132
f 70//133 69//133 33//133
f 71//134 70//134 35//134
f 36//135 72//135 35//135
f 35//136 72//136 71//136
f 73//137 74//137 75//137
f 76//138 73//138 77//138
f 76//139 74//139 73//139
f 78//140 79//140 80//140
f 38//141 81//141 74//141
f 38//142 76//142 79//142
f 38//143 74//143 76//143
f 82//144 81//144 38//144
f 83//145 81//145 82//145
f 39//146 82//146 38//146
f 1//147 38//147 79//147
f 84//148 2//148 1//148
f 84//149 79//149 78//149
f 84//150 1//150 79//150
f 77//151 85//151 86//151
f 77//152 87//152 88//152
f 77//153 89//153 87//153
f 77//154 90//154 89//154
f 77//155 91//155 90//155
f 77//156 92//156 91//156
f 77//157 93//157 92//157
f 77//158 94//158 93//158
f 77//159 95//159 94//159
f 77//160 96//160 95//160
f 77//161 86//161 96//161
f 97//162 77//162 88//162
f 98//163 77//163 97//163
f 99//164 77//164 98//164
f 100//165 77//165 99//165
f 101//166 77//166 100//166
f 102//167 77//167 101//167
f 103//168 77//168 102//168
f 104//169 77//169 103//169
f 105//170 77//170 104//170
f 106//171 77//171 105//171
f 107//172 77//172 106//172
f 108//173 77//173 107//173
f 109//174 77//174 108//174
f 110//175 77//175 109//175
f 111//176 77//176 110//176
f 112//177 77//177 111//177
f 113//178 77//178 112//178
f 114//179 77//179 113//179
f 115//180 77//180 114//180
f 116//181 77//181 115//181
f 117//182 77//182 116//182
f 118//183 77//183 117//183
f 76//184 77//184 118//184
f 118//185 119//185 79//185
f 118//186 79//186 76//186
f 120//187 80//187 121//187
f 122//188 80//188 123//188
f 124//189 80//189 122//189
f 125//190 80//190 124//190
f 126//191 80//191 125//191
f 127//192 80//192 126//192
f 128//193 80//193 127//193
f 129//194 80//194 128//194
f 130//195 80//195 129//195
f 131//196 80//196 130//196
f 121//197 80//197 131//197
f 80//198 132//198 123//198
f 80//199 133//199 132//199
f 80//200 134//200 133//200
f 80//201 135//201 134//201
f 80//202 136//202 135//202
f 80//203 137//203 136//203
f 80//204 138//204 137//204
f 80//205 139//205 138//205
f 80//206 140//206 139//206
f 80//207 141//207 140//207
f 80//208 142//208 141//208
f 80//209 143//209 142//209
f 80//210 144//210 143//210
f 80//211 145//211 144//211
f 80//212 146//212 145//212
f 80//213 147//213 146//213
f 80//214 148//214 147//214
f 80//215 149//215 148//215
f 80//216 150//216 149//216
f 80//217 151//217 150//217
f 80//218 152//218 151//218
f 80//219 119//219 152//219
f 80//220 79//220 119//220
f 121//221 86//221 120//221
f 120//222 86//222 85//222
f 119//223 117//223 152//223
f 118//224 117//224 119//224
f 152//225 116//225 151//225
f 117//226 116//226 152//226
f 151//227 115//227 150//227
f 116//228 115//228 151//228
f 150//229 114//229 149//229
f 115//230 114//230 150//230
f 149//231 113//231 148//231
f 114//232 113//232 149//232
f 148//233 112//233 147//233
f 113//234 112//234 148//234
f 147//235 111//235 146//235
f 146//236 111//236 145//236
f 112//237 111//237 147//237
f 111//238 110//238 145//238
f 110//239 109//239 145//239
f 145//240 109//240 144//240
f 144//241 109//241 143//241
f 109//242 108//242 143//242
f 108//243 107//243 143//243
f 143//244 107//244 142//244
f 142//245 107//245 141//245
f 107//246 106//246 141//246
f 141//247 105//247 140//247
f 106//248 105//248 141//248
f 140//249 104//249 139//249
f 139//250 104//250 138//250
f 105//251 104//251 140//251
f 104//252 103//252 138//252
f 138//253 102//253 137//253
f 103//254 102//254 138//254
f 137//255 101//255 136//255
f 102//256 101//256 137//256
f 136//257 100//257 135//257
f 135//258 100//258 134//258
f 101//259 100//259 136//259
f 100//260 99//260 134//260
f 134//261 98//261 133//261
f 99//262 98//262 134//262
f 133//263 97//263 132//263
f 98//264 97//264 133//264
f 132//265 88//265 123//265
f 123//266 88//266 122//266
f 97//267 88//267 132//267
f 88//268 87//268 122//268
f 122//269 89//269 124//269
f 124//270 89//270 125//270
f 87//271 89//271 122//271
f 89//272 90//272 125//272
f 125//273 91//273 126//273
f 90//274 91//274 125//274
f 126//275 92//275 127//275
f 91//276 92//276 126//276
f 127//277 93//277 128//277
f 128//278 93//278 129//278
f 92//279 93//279 127//279
f 129//280 94//280 130//280
f 93//281 94//281 129//281
f 94//282 95//282 130//282
f 130//283 96//283 131//283
f 131//284 96//284 121//284
f 95//285 96//285 130//285
f 96//286 86//286 121//286
f 77//287 73//287 153//287
f 80//288 77//288 153//288
f 120//289 85//289 77//289
f 120//290 77//290 80//290
f 154//291 80//291 153//291
f 78//292 80//292 154//292
f 153//293 73//293 75//293
f 153//294 75//294 155//294
f 75//295 74//295 155//295
f 155//296 74//296 156//296
f 157//297 156//297 74//297
f 157//298 74//298 81//298
f 82//299 158//299 83//299
f 83//300 158//300 159//300
f 157//301 83//301 159//301
f 81//302 83//302 157//302
f 154//303 84//303 78//303
f 154//304 160//304 84//304
f 156//305 153//305 155//305
f 158//306 160//306 154//306
f 158//307 154//307 153//307
f 158//308 153//308 156//308
f 157//309 159//309 158//309
f 157//310 158//310 156//310
f 2//311 84//311 160//311
f 158//312 2//312 160//312
f 158//313 39//313 2//313
f 72//314 36//314 2//314
f 72//315 2//315 39//315
f 82//316 39//316 158//316
