# Created by FreeCAD <https://www.freecad.org>
v 3.083333 -0.000000 17.962963
v 2.500000 -0.000000 17.444445
v 2.441551 0.537426 17.444445
v 4.192036 0.699527 19.000000
v 4.250000 -0.000000 19.000000
v 3.666667 -0.000000 18.481482
v 2.441551 -0.537426 17.444445
v 4.192036 -0.699527 19.000000
v 3.000222 0.711066 17.962963
v 2.268939 1.049723 17.444445
v 3.567831 0.845592 18.481482
v 4.019723 1.379973 19.000000
v 2.755367 1.383798 17.962963
v 1.990233 1.512936 17.444445
v 3.276653 1.645597 18.481482
v 3.737763 2.022776 19.000000
v 3.353847 2.610404 19.000000
v 2.361970 1.981928 17.962963
v 1.618466 1.905405 17.444445
v 2.808830 2.356888 18.481482
v 2.878447 3.126827 19.000000
v 1.841239 2.473213 17.962963
v 1.171021 2.208780 17.444445
v 2.189581 2.941118 18.481482
v 2.324530 3.557958 19.000000
v 1.221246 2.831166 17.962963
v 0.668821 2.408875 17.444445
v 1.452292 3.366792 18.481482
v 1.707206 3.892037 19.000000
v 1.043313 4.119951 19.000000
v 0.535415 3.036491 17.962963
v 0.135347 2.496334 17.444445
v 0.636710 3.610962 18.481482
v 0.350962 4.235484 19.000000
v -0.179280 3.078117 17.962963
v -0.404455 2.467066 17.444445
v -0.213198 3.660463 18.481482
v -0.350962 4.235484 19.000000
v -1.043313 4.119951 19.000000
v -0.884310 2.953801 17.962963
v -0.925345 2.322442 17.444445
v -1.051612 3.512628 18.481482
v -1.707206 3.892037 19.000000
v -1.541667 2.670245 17.962963
v -1.402968 2.069222 17.444445
v -1.833333 3.175426 18.481482
v -2.324530 3.557958 19.000000
v -2.115912 2.242735 17.962963
v -1.814989 1.719249 17.444445
v -2.516219 2.667037 18.481482
v -2.878447 3.126827 19.000000
v -3.353847 2.610404 19.000000
v -2.576087 1.694319 17.962963
v -2.142143 1.288885 17.444445
v -3.063455 2.014866 18.481482
v -3.737763 2.022776 19.000000
v -2.897386 1.054562 17.962963
v -2.369133 0.798254 17.444445
v -3.445540 1.254074 18.481482
v -4.019723 1.379973 19.000000
v -4.192036 0.699527 19.000000
v -3.062485 0.357953 17.962963
v -2.485345 0.270298 17.444445
v -2.485345 -0.270298 17.444445
v -3.641874 0.425674 18.481482
v -4.250000 0.000000 19.000000
v -3.062485 -0.357953 17.962963
v -2.369133 -0.798254 17.444445
v -3.641874 -0.425674 18.481482
v -4.192036 -0.699527 19.000000
v -2.897386 -1.054562 17.962963
v -2.142143 -1.288885 17.444445
v -3.445540 -1.254074 18.481482
v -4.019723 -1.379973 19.000000
v -3.737763 -2.022776 19.000000
v -2.576087 -1.694319 17.962963
v -1.814989 -1.719249 17.444445
v -3.063455 -2.014866 18.481482
v -3.353847 -2.610404 19.000000
v -2.115912 -2.242735 17.962963
v -1.402968 -2.069222 17.444445
v -2.516219 -2.667037 18.481482
v -2.878447 -3.126827 19.000000
v -2.324530 -3.557958 19.000000
v -1.541667 -2.670245 17.962963
v -0.925345 -2.322442 17.444445
v -1.833333 -3.175426 18.481482
v -1.707206 -3.892037 19.000000
v -0.884310 -2.953801 17.962963
v -0.404455 -2.467066 17.444445
v -1.051612 -3.512628 18.481482
v -1.043313 -4.119951 19.000000
v -0.179280 -3.078117 17.962963
v 0.135347 -2.496334 17.444445
v -0.213198 -3.660463 18.481482
v -0.350962 -4.235484 19.000000
v 0.350962 -4.235484 19.000000
v 0.535415 -3.036491 17.962963
v 0.668821 -2.408875 17.444445
v 0.636710 -3.610962 18.481482
v 1.043313 -4.119951 19.000000
v 1.221246 -2.831166 17.962963
v 1.171021 -2.208780 17.444445
v 1.452292 -3.366792 18.481482
v 1.707206 -3.892037 19.000000
v 2.324530 -3.557958 19.000000
v 1.841239 -2.473213 17.962963
v 1.618466 -1.905405 17.444445
v 2.189581 -2.941118 18.481482
v 2.878447 -3.126827 19.000000
v 2.361970 -1.981928 17.962963
v 1.990233 -1.512936 17.444445
v 2.808830 -2.356888 18.481482
v 3.353847 -2.610404 19.000000
v 2.755367 -1.383798 17.962963
v 2.268939 -1.049723 17.444445
v 3.276653 -1.645597 18.481482
v 3.737763 -2.022776 19.000000
v 4.019723 -1.379973 19.000000
v 3.000222 -0.711066 17.962963
v 3.567831 -0.845592 18.481482
v 2.500000 -0.000000 5.285714
v 2.445369 0.519779 5.285714
v 2.283864 1.016842 5.285714
v 2.022542 1.469463 5.285714
v 1.672827 1.857862 5.285714
v 1.250000 2.165064 5.285714
v 0.772542 2.377641 5.285714
v 0.261321 2.486305 5.285714
v -0.261321 2.486305 5.285714
v -0.772542 2.377641 5.285714
v -1.250000 2.165064 5.285714
v -1.672827 1.857862 5.285714
v -2.022542 1.469463 5.285714
v -2.283864 1.016842 5.285714
v -2.445369 0.519779 5.285714
v -2.500000 -0.000000 5.285714
v -2.445369 -0.519779 5.285714
v -2.283864 -1.016842 5.285714
v -2.022542 -1.469463 5.285714
v -1.672827 -1.857862 5.285714
v -1.250000 -2.165064 5.285714
v -0.772542 -2.377641 5.285714
v -0.261321 -2.486305 5.285714
v 0.261321 -2.486305 5.285714
v 0.772542 -2.377641 5.285714
v 1.250000 -2.165064 5.285714
v 1.672827 -1.857862 5.285714
v 2.022542 -1.469463 5.285714
v 2.283864 -1.016842 5.285714
v 2.445369 -0.519779 5.285714
v 4.192036 0.699527 29.000000
v 4.250000 -0.000000 29.000000
v 4.019723 1.379973 29.000000
v 3.737763 2.022776 29.000000
v 3.353847 2.610404 29.000000
v 2.878447 3.126827 29.000000
v 2.324530 3.557958 29.000000
v 1.707206 3.892037 29.000000
v 1.043313 4.119951 29.000000
v 0.350962 4.235484 29.000000
v -0.350962 4.235484 29.000000
v -1.043313 4.119951 29.000000
v -1.707206 3.892037 29.000000
v -2.324530 3.557958 29.000000
v -2.878447 3.126827 29.000000
v -3.353847 2.610404 29.000000
v -3.737763 2.022776 29.000000
v -4.019723 1.379973 29.000000
v -4.192036 0.699527 29.000000
v -4.250000 0.000000 29.000000
v -4.192036 -0.699527 29.000000
v -4.019723 -1.379973 29.000000
v -3.737763 -2.022776 29.000000
v -3.353847 -2.610404 29.000000
v -2.878447 -3.126827 29.000000
v -2.324530 -3.557958 29.000000
v -1.707206 -3.892037 29.000000
v -1.043313 -4.119951 29.000000
v -0.350962 -4.235484 29.000000
v 0.350962 -4.235484 29.000000
v 1.043313 -4.119951 29.000000
v 1.707206 -3.892037 29.000000
v 2.324530 -3.557958 29.000000
v 2.878447 -3.126827 29.000000
v 3.353847 -2.610404 29.000000
v 3.737763 -2.022776 29.000000
v 4.019723 -1.379973 29.000000
v 4.192036 -0.699527 29.000000
v -2.950000 -0.000000 4.642857
v -3.342108 0.624748 4.000000
v -3.400000 -0.000000 4.000000
v -3.342108 -0.624748 4.000000
v -2.849481 0.763516 4.642857
v -3.170406 1.228222 4.000000
v -2.554775 1.475000 4.642857
v -2.890738 1.789869 4.000000
v -2.512630 2.290565 4.000000
v -2.085965 2.085965 4.642857
v -2.048958 2.713259 4.000000
v -1.475000 2.554775 4.642857
v -1.515510 3.043555 4.000000
v -0.763516 2.849481 4.642857
v -0.930454 3.270207 4.000000
v -0.313712 3.385496 4.000000
v -0.000000 2.950000 4.642857
v 0.313712 3.385496 4.000000
v 0.763516 2.849481 4.642857
v 0.930454 3.270207 4.000000
v 1.515510 3.043555 4.000000
v 1.475000 2.554775 4.642857
v 2.048958 2.713259 4.000000
v 2.085965 2.085965 4.642857
v 2.512630 2.290565 4.000000
v 2.554775 1.475000 4.642857
v 2.890738 1.789869 4.000000
v 3.170406 1.228222 4.000000
v 2.849481 0.763516 4.642857
v 3.342108 0.624748 4.000000
v 2.950000 -0.000000 4.642857
v 3.400000 0.000000 4.000000
v 3.342108 -0.624748 4.000000
v 2.849481 -0.763516 4.642857
v 3.170406 -1.228222 4.000000
v 2.554775 -1.475000 4.642857
v 2.890738 -1.789869 4.000000
v 2.512630 -2.290565 4.000000
v 2.085965 -2.085965 4.642857
v 2.048958 -2.713259 4.000000
v 1.475000 -2.554775 4.642857
v 1.515510 -3.043555 4.000000
v 0.763516 -2.849481 4.642857
v 0.930454 -3.270207 4.000000
v 0.313712 -3.385496 4.000000
v 0.000000 -2.950000 4.642857
v -0.313712 -3.385496 4.000000
v -0.763516 -2.849481 4.642857
v -0.930454 -3.270207 4.000000
v -1.515510 -3.043555 4.000000
v -1.475000 -2.554775 4.642857
v -2.048958 -2.713259 4.000000
v -2.085965 -2.085965 4.642857
v -2.512630 -2.290565 4.000000
v -2.554775 -1.475000 4.642857
v -2.890738 -1.789869 4.000000
v -3.170406 -1.228222 4.000000
v -2.849481 -0.763516 4.642857
v -2.128297 -2.456186 29.000000
v -2.554672 -2.009017 29.000000
v -1.625000 -2.814583 29.000000
v -2.888715 -1.489236 29.000000
v -1.062971 -3.071253 29.000000
v -3.118352 -0.915631 29.000000
v -0.462523 -3.216920 29.000000
v -3.235284 -0.308932 29.000000
v 0.154641 -3.246319 29.000000
v -3.235284 0.308932 29.000000
v 0.766217 -3.158388 29.000000
v -3.118352 0.915631 29.000000
v 1.350099 -2.956304 29.000000
v -2.888715 1.489236 29.000000
v 1.885185 -2.647372 29.000000
v -2.554672 2.009017 29.000000
v 2.352136 -2.242757 29.000000
v -2.128297 2.456186 29.000000
v 2.734074 -1.757083 29.000000
v -1.625000 2.814583 29.000000
v 3.017196 -1.207903 29.000000
v -1.062971 3.071253 29.000000
v 3.191268 -0.615067 29.000000
v -0.462523 3.216920 29.000000
v 3.250000 -0.000000 29.000000
v 0.154641 3.246319 29.000000
v 0.766217 3.158388 29.000000
v 3.191268 0.615067 29.000000
v 3.017196 1.207903 29.000000
v 1.350099 2.956304 29.000000
v 2.734074 1.757083 29.000000
v 1.885185 2.647372 29.000000
v 2.352136 2.242757 29.000000
v -2.975760 -1.842513 4.000000
v -2.586531 -2.357935 4.000000
v -2.109221 -2.793060 4.000000
v -1.560084 -3.133071 4.000000
v -3.263653 -1.264346 4.000000
v -0.957820 -3.366390 4.000000
v -3.440406 -0.643123 4.000000
v -0.322939 -3.485070 4.000000
v -3.500000 0.000000 4.000000
v 0.322939 -3.485070 4.000000
v -3.440406 0.643123 4.000000
v 0.957820 -3.366390 4.000000
v -3.263653 1.264346 4.000000
v 1.560084 -3.133071 4.000000
v -2.975760 1.842513 4.000000
v 2.109221 -2.793060 4.000000
v -2.586531 2.357935 4.000000
v 2.586531 -2.357935 4.000000
v -2.109221 2.793060 4.000000
v 2.975760 -1.842513 4.000000
v -1.560084 3.133071 4.000000
v 3.263653 -1.264346 4.000000
v -0.957820 3.366390 4.000000
v 3.440406 -0.643123 4.000000
v -0.322939 3.485070 4.000000
v 3.500000 -0.000000 4.000000
v 0.322939 3.485070 4.000000
v 3.440406 0.643123 4.000000
v 0.957820 3.366390 4.000000
v 3.263653 1.264346 4.000000
v 1.560084 3.133071 4.000000
v 2.975760 1.842513 4.000000
v 2.109221 2.793060 4.000000
v 2.586531 2.357935 4.000000
v 3.250000 -0.000000 19.000000
v 3.191268 0.615067 19.000000
v 3.017196 1.207903 19.000000
v 2.734074 1.757083 19.000000
v 2.352136 2.242757 19.000000
v 1.885185 2.647372 19.000000
v 1.350099 2.956304 19.000000
v 0.766217 3.158388 19.000000
v 0.154641 3.246319 19.000000
v -0.462523 3.216920 19.000000
v -1.062971 3.071253 19.000000
v -1.625000 2.814583 19.000000
v -2.128297 2.456186 19.000000
v -2.554672 2.009017 19.000000
v -2.888715 1.489236 19.000000
v -3.118352 0.915631 19.000000
v -3.235284 0.308932 19.000000
v -3.235284 -0.308932 19.000000
v -3.118352 -0.915631 19.000000
v -2.888715 -1.489236 19.000000
v -2.554672 -2.009017 19.000000
v -2.128297 -2.456186 19.000000
v -1.625000 -2.814583 19.000000
v -1.062971 -3.071253 19.000000
v -0.462523 -3.216920 19.000000
v 0.154641 -3.246319 19.000000
v 0.766217 -3.158388 19.000000
v 1.350099 -2.956304 19.000000
v 1.885185 -2.647372 19.000000
v 2.352136 -2.242757 19.000000
v 2.734074 -1.757083 19.000000
v 3.017196 -1.207903 19.000000
v 3.191268 -0.615067 19.000000
v 3.500000 -0.000000 2.000000
v 3.440406 0.643123 2.000000
v 3.263653 1.264346 2.000000
v 2.975760 1.842513 2.000000
v 2.586531 2.357935 2.000000
v 2.109221 2.793060 2.000000
v 1.560084 3.133071 2.000000
v 0.957820 3.366390 2.000000
v 0.322939 3.485070 2.000000
v -0.322939 3.485070 2.000000
v -0.957820 3.366390 2.000000
v -1.560084 3.133071 2.000000
v -2.109221 2.793060 2.000000
v -2.586531 2.357935 2.000000
v -2.975760 1.842513 2.000000
v -3.263653 1.264346 2.000000
v -3.440406 0.643123 2.000000
v -3.500000 0.000000 2.000000
v -3.440406 -0.643123 2.000000
v -3.263653 -1.264346 2.000000
v -2.975760 -1.842513 2.000000
v -2.586531 -2.357935 2.000000
v -2.109221 -2.793060 2.000000
v -1.560084 -3.133071 2.000000
v -0.957820 -3.366390 2.000000
v -0.322939 -3.485070 2.000000
v 0.322939 -3.485070 2.000000
v 0.957820 -3.366390 2.000000
v 1.560084 -3.133071 2.000000
v 2.109221 -2.793060 2.000000
v 2.586531 -2.357935 2.000000
v 2.975760 -1.842513 2.000000
v 3.263653 -1.264346 2.000000
v 3.440406 -0.643123 2.000000
v -1.814989 -1.719249 19.000000
v -1.402968 -2.069222 19.000000
v -2.142143 -1.288885 19.000000
v -0.925345 -2.322442 19.000000
v -2.369133 -0.798254 19.000000
v -0.404455 -2.467066 19.000000
v -2.485345 -0.270298 19.000000
v 0.135347 -2.496334 19.000000
v -2.485345 0.270298 19.000000
v 0.668821 -2.408875 19.000000
v -2.369133 0.798254 19.000000
v 1.171021 -2.208780 19.000000
v -2.142143 1.288885 19.000000
v 1.618466 -1.905405 19.000000
v -1.814989 1.719249 19.000000
v 1.990233 -1.512936 19.000000
v -1.402968 2.069222 19.000000
v 2.268939 -1.049723 19.000000
v -0.925345 2.322442 19.000000
v 2.441551 -0.537426 19.000000
v -0.404455 2.467066 19.000000
v 2.500000 -0.000000 19.000000
v 0.135347 2.496334 19.000000
v 2.441551 0.537426 19.000000
v 0.668821 2.408875 19.000000
v 2.268939 1.049723 19.000000
v 1.171021 2.208780 19.000000
v 1.990233 1.512936 19.000000
v 1.618466 1.905405 19.000000
v -1.814989 -1.719249 2.000000
v -1.402968 -2.069222 2.000000
v -2.142143 -1.288885 2.000000
v -0.925345 -2.322442 2.000000
v -2.369133 -0.798254 2.000000
v -0.404455 -2.467066 2.000000
v -2.485345 -0.270298 2.000000
v 0.135347 -2.496334 2.000000
v -2.485345 0.270298 2.000000
v 0.668821 -2.408875 2.000000
v -2.369133 0.798254 2.000000
v 1.171021 -2.208780 2.000000
v -2.142143 1.288885 2.000000
v 1.618466 -1.905405 2.000000
v -1.814989 1.719249 2.000000
v 1.990233 -1.512936 2.000000
v -1.402968 2.069222 2.000000
v 2.268939 -1.049723 2.000000
v -0.925345 2.322442 2.000000
v 2.441551 -0.537426 2.000000
v -0.404455 2.467066 2.000000
v 2.500000 -0.000000 2.000000
v 0.135347 2.496334 2.000000
v 0.668821 2.408875 2.000000
v 2.441551 0.537426 2.000000
v 2.268939 1.049723 2.000000
v 1.171021 2.208780 2.000000
v 1.990233 1.512936 2.000000
v 1.618466 1.905405 2.000000
v -1.497022 -1.326245 19.000000
v -1.136129 -1.645968 19.000000
v -1.770912 -0.929446 19.000000
v -0.709210 -1.870032 19.000000
v -1.941884 -0.478631 19.000000
v -0.241073 -1.985418 19.000000
v -2.000000 0.000000 19.000000
v 0.241073 -1.985418 19.000000
v -1.941884 0.478631 19.000000
v 0.709210 -1.870032 19.000000
v -1.770912 0.929446 19.000000
v 1.136129 -1.645968 19.000000
v -1.497022 1.326245 19.000000
v 1.497022 -1.326245 19.000000
v -1.136129 1.645968 19.000000
v 1.770912 -0.929446 19.000000
v -0.709210 1.870032 19.000000
v 1.941884 -0.478631 19.000000
v 2.000000 -0.000000 19.000000
v -0.241073 1.985418 19.000000
v 0.241073 1.985418 19.000000
v 1.941884 0.478631 19.000000
v 0.709210 1.870032 19.000000
v 1.770912 0.929446 19.000000
v 1.136129 1.645968 19.000000
v 1.497022 1.326245 19.000000
v 2.500000 -0.000000 1.000000
v 2.441551 0.537426 1.000000
v 2.268939 1.049723 1.000000
v 1.990233 1.512936 1.000000
v 1.618466 1.905405 1.000000
v 1.171021 2.208780 1.000000
v 0.668821 2.408875 1.000000
v 0.135347 2.496334 1.000000
v -0.404455 2.467066 1.000000
v -0.925345 2.322442 1.000000
v -1.402968 2.069222 1.000000
v -1.814989 1.719249 1.000000
v -2.142143 1.288885 1.000000
v -2.369133 0.798254 1.000000
v -2.485345 0.270298 1.000000
v -2.485345 -0.270298 1.000000
v -2.369133 -0.798254 1.000000
v -2.142143 -1.288885 1.000000
v -1.814989 -1.719249 1.000000
v -1.402968 -2.069222 1.000000
v -0.925345 -2.322442 1.000000
v -0.404455 -2.467066 1.000000
v 0.135347 -2.496334 1.000000
v 0.668821 -2.408875 1.000000
v 1.171021 -2.208780 1.000000
v 1.618466 -1.905405 1.000000
v 1.990233 -1.512936 1.000000
v 2.268939 -1.049723 1.000000
v 2.441551 -0.537426 1.000000
v 1.941884 0.478631 1.000000
v 2.000000 -0.000000 1.000000
v 1.770912 0.929446 1.000000
v 1.497022 1.326245 1.000000
v 1.136129 1.645968 1.000000
v 0.709210 1.870032 1.000000
v 0.241073 1.985418 1.000000
v -0.241073 1.985418 1.000000
v -0.709210 1.870032 1.000000
v -1.136129 1.645968 1.000000
v -1.497022 1.326245 1.000000
v -1.770912 0.929446 1.000000
v -1.941884 0.478631 1.000000
v -2.000000 0.000000 1.000000
v -1.941884 -0.478631 1.000000
v -1.770912 -0.929446 1.000000
v -1.497022 -1.326245 1.000000
v -1.136129 -1.645968 1.000000
v -0.709210 -1.870032 1.000000
v -0.241073 -1.985418 1.000000
v 0.241073 -1.985418 1.000000
v 0.709210 -1.870032 1.000000
v 1.136129 -1.645968 1.000000
v 1.497022 -1.326245 1.000000
v 1.770912 -0.929446 1.000000
v 1.941884 -0.478631 1.000000
vn 0.662636 0.072066 -0.745466
vn 0.663359 0.054967 -0.746279
vn 0.662636 -0.072066 -0.745466
vn 0.663359 -0.054967 -0.746279
vn 0.628661 0.211821 -0.748276
vn 0.665130 0.077742 -0.742669
vn 0.662370 0.077420 -0.745166
vn 0.652793 0.165310 -0.739280
vn 0.662370 0.077420 -0.745166
vn 0.647570 0.075690 -0.758238
vn 0.566168 0.340652 -0.750607
vn 0.631509 0.229851 -0.740517
vn 0.614001 0.269326 -0.741934
vn 0.551420 0.360260 -0.752429
vn 0.626661 0.228086 -0.745166
vn 0.626661 0.228086 -0.745166
vn 0.610106 0.222061 -0.760565
vn 0.563129 0.370376 -0.738720
vn 0.478157 0.452934 -0.752474
vn 0.557169 0.366456 -0.745166
vn 0.493803 0.454578 -0.741294
vn 0.549084 0.361138 -0.753715
vn 0.557169 0.366456 -0.745166
vn 0.457640 0.485070 -0.745166
vn 0.368700 0.543792 -0.753890
vn 0.463609 0.491396 -0.737290
vn 0.413446 0.531195 -0.739522
vn 0.445381 0.472077 -0.760775
vn 0.457640 0.485070 -0.745166
vn 0.242766 0.609298 -0.754865
vn 0.338363 0.586062 -0.736235
vn 0.333439 0.577534 -0.745166
vn 0.316223 0.584329 -0.747370
vn 0.216501 0.630645 -0.745261
vn 0.333439 0.577534 -0.745166
vn 0.326410 0.565359 -0.757513
vn 0.106009 0.646627 -0.755404
vn 0.194298 0.648999 -0.735560
vn 0.110867 0.664390 -0.739118
vn 0.186776 0.623877 -0.758875
vn 0.191263 0.638863 -0.745166
vn 0.191263 0.638863 -0.745166
vn -0.035468 0.654174 -0.755512
vn 0.039409 0.676627 -0.735270
vn 0.038776 0.665751 -0.745166
vn 0.000000 0.669678 -0.742652
vn -0.108670 0.651227 -0.751062
vn 0.037771 0.648507 -0.760271
vn 0.038776 0.665751 -0.745166
vn -0.117676 0.667374 -0.735367
vn -0.175367 0.631614 -0.755189
vn -0.115802 0.656747 -0.745166
vn -0.218133 0.635401 -0.740732
vn -0.115802 0.656748 -0.745166
vn -0.113905 0.645988 -0.754801
vn -0.307453 0.579918 -0.754432
vn -0.268203 0.621766 -0.735849
vn -0.264137 0.612339 -0.745166
vn -0.320206 0.591689 -0.739846
vn -0.264137 0.612339 -0.745166
vn -0.257003 0.595801 -0.760902
vn -0.403801 0.542398 -0.736715
vn -0.425817 0.501311 -0.753238
vn -0.398232 0.534919 -0.745166
vn -0.407284 0.523278 -0.748532
vn -0.491336 0.452307 -0.744316
vn -0.398232 0.534919 -0.745166
vn -0.390401 0.524399 -0.756699
vn -0.516962 0.433783 -0.737959
vn -0.525121 0.399186 -0.751597
vn -0.510859 0.428661 -0.745166
vn -0.563970 0.368460 -0.739037
vn -0.498384 0.418193 -0.759426
vn -0.510859 0.428661 -0.745166
vn -0.601483 0.302076 -0.739573
vn -0.600819 0.277968 -0.749500
vn -0.612465 0.268652 -0.743446
vn -0.595945 0.299295 -0.745166
vn -0.641458 0.162439 -0.749763
vn -0.595945 0.299295 -0.745166
vn -0.580906 0.291742 -0.759891
vn -0.648903 0.153793 -0.745166
vn -0.652814 0.154720 -0.741549
vn -0.668318 0.000000 -0.743876
vn -0.649355 0.142934 -0.746932
vn -0.670036 0.055521 -0.740249
vn -0.648903 0.153793 -0.745166
vn -0.637157 0.151009 -0.755795
vn -0.668318 0.000000 -0.743876
vn -0.649355 -0.142934 -0.746932
vn -0.670036 -0.055521 -0.740249
vn -0.666879 0.000000 -0.745166
vn -0.666879 0.000000 -0.745166
vn -0.648818 0.000000 -0.760943
vn -0.652814 -0.154720 -0.741549
vn -0.600819 -0.277968 -0.749500
vn -0.641458 -0.162439 -0.749763
vn -0.648903 -0.153793 -0.745166
vn -0.612465 -0.268652 -0.743446
vn -0.648903 -0.153793 -0.745166
vn -0.637157 -0.151009 -0.755795
vn -0.601483 -0.302076 -0.739573
vn -0.525121 -0.399186 -0.751597
vn -0.563970 -0.368460 -0.739037
vn -0.580906 -0.291742 -0.759891
vn -0.595945 -0.299295 -0.745166
vn -0.595945 -0.299295 -0.745166
vn -0.516962 -0.433783 -0.737959
vn -0.425817 -0.501311 -0.753238
vn -0.491336 -0.452307 -0.744316
vn -0.407284 -0.523278 -0.748532
vn -0.498384 -0.418193 -0.759426
vn -0.510859 -0.428661 -0.745166
vn -0.510859 -0.428661 -0.745166
vn -0.403801 -0.542398 -0.736715
vn -0.307453 -0.579918 -0.754432
vn -0.320206 -0.591689 -0.739846
vn -0.390401 -0.524399 -0.756699
vn -0.398232 -0.534919 -0.745166
vn -0.398232 -0.534919 -0.745166
vn -0.268203 -0.621766 -0.735849
vn -0.175367 -0.631614 -0.755189
vn -0.257003 -0.595801 -0.760902
vn -0.218133 -0.635401 -0.740732
vn -0.264137 -0.612339 -0.745166
vn -0.264137 -0.612339 -0.745166
vn -0.117676 -0.667374 -0.735367
vn -0.035468 -0.654174 -0.755512
vn -0.115802 -0.656747 -0.745166
vn -0.108670 -0.651227 -0.751062
vn 0.000000 -0.669678 -0.742652
vn -0.113905 -0.645988 -0.754801
vn -0.115802 -0.656748 -0.745166
vn 0.106009 -0.646627 -0.755404
vn 0.039409 -0.676627 -0.735270
vn 0.110867 -0.664390 -0.739118
vn 0.037771 -0.648507 -0.760271
vn 0.038776 -0.665751 -0.745166
vn 0.038776 -0.665751 -0.745166
vn 0.242766 -0.609298 -0.754865
vn 0.194298 -0.648999 -0.735560
vn 0.216501 -0.630645 -0.745261
vn 0.316223 -0.584329 -0.747370
vn 0.186776 -0.623877 -0.758875
vn 0.191263 -0.638863 -0.745166
vn 0.191263 -0.638863 -0.745166
vn 0.368700 -0.543792 -0.753890
vn 0.333439 -0.577534 -0.745166
vn 0.338363 -0.586062 -0.736235
vn 0.413446 -0.531195 -0.739522
vn 0.333439 -0.577534 -0.745166
vn 0.326410 -0.565359 -0.757513
vn 0.463609 -0.491396 -0.737290
vn 0.478157 -0.452934 -0.752474
vn 0.457640 -0.485070 -0.745166
vn 0.493803 -0.454578 -0.741294
vn 0.445381 -0.472077 -0.760775
vn 0.457640 -0.485070 -0.745166
vn 0.566168 -0.340652 -0.750607
vn 0.563129 -0.370376 -0.738720
vn 0.549084 -0.361138 -0.753715
vn 0.551420 -0.360260 -0.752429
vn 0.614001 -0.269326 -0.741934
vn 0.557169 -0.366456 -0.745166
vn 0.557169 -0.366456 -0.745166
vn 0.631509 -0.229851 -0.740517
vn 0.665130 -0.077742 -0.742669
vn 0.628661 -0.211821 -0.748276
vn 0.626661 -0.228086 -0.745166
vn 0.662370 -0.077420 -0.745166
vn 0.647570 -0.075690 -0.758238
vn 0.652793 -0.165310 -0.739280
vn 0.610106 -0.222061 -0.760565
vn 0.662370 -0.077420 -0.745166
vn 0.626661 -0.228086 -0.745166
vn 0.994522 0.104528 -0.000000
vn 0.994138 0.108119 0.000155
vn 0.947653 0.319302 0.000300
vn 0.951056 0.309017 -0.000150
vn 0.856857 0.515554 0.000434
vn 0.866025 0.500000 -0.000289
vn 0.725995 0.687699 0.000557
vn 0.743145 0.669130 -0.000418
vn 0.561187 0.827689 0.000669
vn 0.587785 0.809017 -0.000535
vn 0.370138 0.928976 0.000771
vn 0.406736 0.913545 -0.000643
vn 0.161782 0.986826 0.000862
vn 0.207912 0.978147 -0.000739
vn -0.054139 0.998533 0.000943
vn 0.000000 1.000000 -0.000825
vn -0.207912 0.978147 -0.000900
vn -0.267528 0.963549 0.001012
vn -0.406736 0.913545 -0.000964
vn -0.468408 0.883511 0.001071
vn -0.587785 0.809017 -0.001018
vn -0.647386 0.762162 0.001120
vn -0.743145 0.669130 -0.001061
vn -0.796093 0.605174 0.001157
vn -0.866025 0.500000 -0.001093
vn -0.907575 0.419889 0.001184
vn -0.951056 0.309017 -0.001114
vn -0.976620 0.214970 0.001200
vn -0.994521 0.104528 -0.001125
vn -0.999999 0.000000 0.001205
vn -0.994521 -0.104528 -0.001125
vn -0.976620 -0.214970 0.001200
vn -0.951056 -0.309017 -0.001114
vn -0.907575 -0.419889 0.001184
vn -0.866025 -0.500000 -0.001093
vn -0.796093 -0.605174 0.001157
vn -0.743145 -0.669130 -0.001061
vn -0.647386 -0.762162 0.001120
vn -0.468408 -0.883511 0.001071
vn -0.587785 -0.809017 -0.001018
vn -0.267528 -0.963549 0.001012
vn -0.406736 -0.913545 -0.000964
vn -0.054139 -0.998533 0.000943
vn -0.207912 -0.978147 -0.000900
vn 0.161782 -0.986826 0.000862
vn 0.000000 -1.000000 -0.000825
vn 0.370138 -0.928976 0.000771
vn 0.207912 -0.978147 -0.000739
vn 0.561187 -0.827689 0.000669
vn 0.406736 -0.913545 -0.000643
vn 0.725995 -0.687699 0.000557
vn 0.587785 -0.809017 -0.000535
vn 0.856857 -0.515554 0.000434
vn 0.743145 -0.669130 -0.000418
vn 0.947653 -0.319302 0.000300
vn 0.866025 -0.500000 -0.000289
vn 0.994138 -0.108119 0.000155
vn 0.951056 -0.309017 -0.000150
vn 0.994522 -0.104528 0.000000
vn 0.996584 0.082579 0.000000
vn 0.996584 0.082579 0.000000
vn 0.969400 0.245485 0.000000
vn 0.969400 0.245485 0.000000
vn 0.915773 0.401696 0.000000
vn 0.837167 0.546948 0.000000
vn 0.915773 0.401696 0.000000
vn 0.837167 0.546948 0.000000
vn 0.735724 0.677282 0.000000
vn 0.735724 0.677282 0.000000
vn 0.614213 0.789140 0.000000
vn 0.614213 0.789140 0.000000
vn 0.475947 0.879474 0.000000
vn 0.475947 0.879474 0.000000
vn 0.324700 0.945817 0.000000
vn 0.324700 0.945817 0.000000
vn 0.164594 0.986361 0.000000
vn 0.164594 0.986361 0.000000
vn -0.000000 1.000000 0.000000
vn 0.000000 1.000000 0.000000
vn -0.164594 0.986361 0.000000
vn -0.164594 0.986361 0.000000
vn -0.324700 0.945817 0.000000
vn -0.324700 0.945817 0.000000
vn -0.475947 0.879474 0.000000
vn -0.475947 0.879474 0.000000
vn -0.614213 0.789140 0.000000
vn -0.614213 0.789140 0.000000
vn -0.735724 0.677282 0.000000
vn -0.735724 0.677282 0.000000
vn -0.837167 0.546948 0.000000
vn -0.837167 0.546948 0.000000
vn -0.915773 0.401696 0.000000
vn -0.915773 0.401696 0.000000
vn -0.969400 0.245485 0.000000
vn -0.969400 0.245485 0.000000
vn -0.996584 0.082579 0.000000
vn -0.996584 0.082579 0.000000
vn -0.996584 -0.082579 -0.000000
vn -0.969400 -0.245485 -0.000000
vn -0.996584 -0.082579 0.000000
vn -0.969400 -0.245485 -0.000000
vn -0.915773 -0.401696 -0.000000
vn -0.915773 -0.401696 0.000000
vn -0.837167 -0.546948 -0.000000
vn -0.837167 -0.546948 0.000000
vn -0.735724 -0.677282 -0.000000
vn -0.614213 -0.789140 -0.000000
vn -0.735724 -0.677282 0.000000
vn -0.614213 -0.789140 -0.000000
vn -0.475947 -0.879474 -0.000000
vn -0.475947 -0.879474 0.000000
vn -0.324700 -0.945817 -0.000000
vn -0.324700 -0.945817 0.000000
vn -0.164594 -0.986361 -0.000000
vn 0.000000 -1.000000 0.000000
vn -0.164594 -0.986361 0.000000
vn -0.000000 -1.000000 -0.000000
vn 0.164594 -0.986361 0.000000
vn 0.164594 -0.986361 0.000000
vn 0.324700 -0.945817 0.000000
vn 0.324700 -0.945817 0.000000
vn 0.475947 -0.879474 0.000000
vn 0.475947 -0.879474 0.000000
vn 0.614213 -0.789140 0.000000
vn 0.614213 -0.789140 0.000000
vn 0.735724 -0.677282 0.000000
vn 0.735724 -0.677282 0.000000
vn 0.837167 -0.546948 0.000000
vn 0.837167 -0.546948 0.000000
vn 0.915773 -0.401696 0.000000
vn 0.915773 -0.401696 0.000000
vn 0.969400 -0.245485 0.000000
vn 0.969400 -0.245485 0.000000
vn 0.996584 -0.082579 0.000000
vn 0.996584 -0.082579 0.000000
vn -0.816212 0.085787 0.571348
vn -0.816881 0.075695 0.571817
vn -0.816212 -0.085787 0.571348
vn -0.816881 -0.075695 0.571817
vn -0.796105 0.226511 0.561168
vn -0.773640 0.251371 0.581631
vn -0.822623 0.108300 0.558178
vn -0.800175 0.105345 0.590442
vn -0.743418 0.307933 0.593723
vn -0.738120 0.367540 0.565768
vn -0.650008 0.490863 0.580123
vn -0.702375 0.405516 0.585001
vn -0.770343 0.319086 0.552046
vn -0.643742 0.493961 0.584464
vn -0.556492 0.610442 0.563628
vn -0.661509 0.507594 0.552046
vn -0.604513 0.544306 0.581631
vn -0.435399 0.703193 0.562092
vn -0.489558 0.638004 0.594376
vn -0.482400 0.663966 0.571348
vn -0.333812 0.749754 0.571348
vn -0.505102 0.658262 0.558178
vn -0.295374 0.762448 0.575697
vn -0.151167 0.808674 0.568502
vn -0.169127 0.795677 0.581631
vn -0.317520 0.766562 0.558178
vn -0.309594 0.747427 0.587797
vn 0.000000 0.827911 0.560859
vn 0.000000 0.811033 0.585001
vn -0.108835 0.826680 0.552046
vn -0.105156 0.798741 0.592414
vn 0.151167 0.808674 0.568502
vn 0.295374 0.762448 0.575697
vn 0.169127 0.795677 0.581631
vn 0.105156 0.798741 0.592414
vn 0.108835 0.826680 0.552046
vn 0.309594 0.747427 0.587797
vn 0.435399 0.703193 0.562092
vn 0.317520 0.766562 0.558178
vn 0.333812 0.749754 0.571348
vn 0.482400 0.663966 0.571348
vn 0.556492 0.610442 0.563628
vn 0.489558 0.638004 0.594376
vn 0.604513 0.544306 0.581631
vn 0.505102 0.658262 0.558178
vn 0.650008 0.490863 0.580123
vn 0.738120 0.367540 0.565768
vn 0.702375 0.405516 0.585001
vn 0.643742 0.493961 0.584464
vn 0.661509 0.507594 0.552046
vn 0.743418 0.307933 0.593723
vn 0.796105 0.226511 0.561168
vn 0.773640 0.251371 0.581631
vn 0.770343 0.319086 0.552046
vn 0.816881 0.075695 0.571817
vn 0.816881 -0.075695 0.571817
vn 0.816212 0.085787 0.571348
vn 0.816212 -0.085787 0.571348
vn 0.800175 0.105345 0.590442
vn 0.822623 0.108300 0.558178
vn 0.796105 -0.226511 0.561168
vn 0.773640 -0.251371 0.581631
vn 0.822623 -0.108300 0.558178
vn 0.800175 -0.105345 0.590442
vn 0.738120 -0.367540 0.565768
vn 0.650008 -0.490863 0.580123
vn 0.743418 -0.307933 0.593723
vn 0.702375 -0.405516 0.585001
vn 0.770343 -0.319086 0.552046
vn 0.556492 -0.610442 0.563628
vn 0.604513 -0.544306 0.581631
vn 0.661509 -0.507594 0.552046
vn 0.643742 -0.493961 0.584464
vn 0.489558 -0.638004 0.594376
vn 0.505102 -0.658262 0.558178
vn 0.435399 -0.703193 0.562092
vn 0.482400 -0.663966 0.571348
vn 0.333812 -0.749754 0.571348
vn 0.295374 -0.762448 0.575697
vn 0.151167 -0.808674 0.568502
vn 0.317520 -0.766562 0.558178
vn 0.169127 -0.795677 0.581631
vn 0.309594 -0.747427 0.587797
vn 0.000000 -0.827911 0.560859
vn 0.105156 -0.798741 0.592414
vn 0.000000 -0.811033 0.585001
vn 0.108835 -0.826680 0.552046
vn -0.151167 -0.808674 0.568502
vn -0.295374 -0.762448 0.575697
vn -0.105156 -0.798741 0.592414
vn -0.108835 -0.826680 0.552046
vn -0.169127 -0.795677 0.581631
vn -0.435399 -0.703193 0.562092
vn -0.309594 -0.747427 0.587797
vn -0.317520 -0.766562 0.558178
vn -0.333812 -0.749754 0.571348
vn -0.482400 -0.663966 0.571348
vn -0.489558 -0.638004 0.594376
vn -0.556492 -0.610442 0.563628
vn -0.604513 -0.544306 0.581631
vn -0.505102 -0.658262 0.558178
vn -0.650008 -0.490863 0.580123
vn -0.738120 -0.367540 0.565768
vn -0.702375 -0.405516 0.585001
vn -0.661509 -0.507594 0.552046
vn -0.643742 -0.493961 0.584464
vn -0.822623 -0.108300 0.558178
vn -0.800175 -0.105345 0.590442
vn -0.796105 -0.226511 0.561168
vn -0.773640 -0.251371 0.581631
vn -0.743418 -0.307933 0.593723
vn -0.770343 -0.319086 0.552046
vn 0.000000 0.000000 1.000000
vn 0.000000 0.000000 1.000000
vn 0.000000 0.000000 1.000000
vn 0.000000 0.000000 1.000000
vn 0.000000 0.000000 1.000000
vn 0.000000 0.000000 1.000000
vn 0.000000 0.000000 1.000000
vn 0.000000 0.000000 1.000000
vn 0.000000 0.000000 1.000000
vn 0.000000 0.000000 1.000000
vn 0.000000 0.000000 1.000000
vn 0.000000 0.000000 1.000000
vn 0.000000 0.000000 1.000000
vn 0.000000 0.000000 1.000000
vn 0.000000 0.000000 1.000000
vn 0.000000 0.000000 1.000000
vn 0.000000 0.000000 1.000000
vn 0.000000 0.000000 1.000000
vn 0.000000 0.000000 1.000000
vn 0.000000 0.000000 1.000000
vn 0.000000 0.000000 1.000000
vn 0.000000 0.000000 1.000000
vn 0.000000 0.000000 1.000000
vn 0.000000 0.000000 1.000000
vn 0.000000 0.000000 1.000000
vn 0.000000 0.000000 1.000000
vn 0.000000 0.000000 1.000000
vn 0.000000 0.000000 1.000000
vn 0.000000 0.000000 1.000000
vn 0.000000 0.000000 1.000000
vn 0.000000 0.000000 1.000000
vn 0.000000 0.000000 1.000000
vn 0.000000 0.000000 1.000000
vn 0.000000 0.000000 1.000000
vn 0.000000 0.000000 1.000000
vn 0.000000 0.000000 1.000000
vn 0.000000 0.000000 1.000000
vn 0.000000 0.000000 1.000000
vn 0.000000 0.000000 1.000000
vn 0.000000 0.000000 1.000000
vn 0.000000 0.000000 1.000000
vn 0.000000 0.000000 1.000000
vn 0.000000 0.000000 1.000000
vn 0.000000 0.000000 1.000000
vn 0.000000 0.000000 1.000000
vn 0.000000 0.000000 1.000000
vn 0.000000 0.000000 1.000000
vn 0.000000 0.000000 1.000000
vn 0.000000 0.000000 1.000000
vn 0.000000 0.000000 1.000000
vn 0.000000 0.000000 1.000000
vn 0.000000 0.000000 1.000000
vn 0.000000 0.000000 1.000000
vn 0.000000 0.000000 1.000000
vn 0.000000 0.000000 1.000000
vn 0.000000 0.000000 1.000000
vn 0.000000 0.000000 1.000000
vn 0.000000 0.000000 1.000000
vn 0.000000 0.000000 1.000000
vn 0.000000 0.000000 1.000000
vn 0.000000 0.000000 1.000000
vn 0.000000 0.000000 1.000000
vn 0.000000 0.000000 1.000000
vn 0.000000 0.000000 1.000000
vn 0.000000 0.000000 1.000000
vn 0.000000 0.000000 1.000000
vn 0.000000 0.000000 1.000000
vn 0.000000 0.000000 1.000000
vn 0.000000 0.000000 1.000000
vn 0.000000 0.000000 1.000000
vn 0.000000 0.000000 1.000000
vn 0.000000 0.000000 1.000000
vn 0.000000 0.000000 1.000000
vn 0.000000 0.000000 1.000000
vn 0.000000 0.000000 1.000000
vn 0.000000 0.000000 1.000000
vn 0.000000 0.000000 1.000000
vn 0.000000 0.000000 1.000000
vn 0.000000 0.000000 1.000000
vn 0.000000 0.000000 1.000000
vn 0.000000 0.000000 1.000000
vn 0.000000 0.000000 1.000000
vn 0.000000 0.000000 1.000000
vn 0.000000 0.000000 1.000000
vn 0.000000 0.000000 1.000000
vn 0.000000 0.000000 1.000000
vn 0.000000 0.000000 1.000000
vn 0.000000 0.000000 1.000000
vn 0.000000 0.000000 1.000000
vn 0.000000 0.000000 1.000000
vn 0.000000 0.000000 1.000000
vn 0.000000 0.000000 1.000000
vn 0.000000 0.000000 1.000000
vn 0.000000 0.000000 1.000000
vn 0.000000 0.000000 1.000000
vn 0.000000 0.000000 1.000000
vn 0.000000 0.000000 1.000000
vn 0.000000 0.000000 1.000000
vn 0.000000 0.000000 1.000000
vn 0.000000 0.000000 1.000000
vn 0.000000 0.000000 1.000000
vn 0.000000 0.000000 1.000000
vn 0.000000 0.000000 1.000000
vn 0.000000 0.000000 1.000000
vn 0.000000 0.000000 1.000000
vn 0.000000 0.000000 1.000000
vn 0.000000 0.000000 1.000000
vn 0.000000 0.000000 1.000000
vn 0.000000 0.000000 1.000000
vn 0.000000 0.000000 1.000000
vn 0.000000 0.000000 1.000000
vn 0.000000 0.000000 1.000000
vn 0.000000 0.000000 1.000000
vn 0.000000 0.000000 1.000000
vn 0.000000 0.000000 1.000000
vn 0.000000 0.000000 1.000000
vn 0.000000 0.000000 1.000000
vn 0.000000 0.000000 1.000000
vn 0.000000 0.000000 1.000000
vn 0.000000 0.000000 1.000000
vn 0.000000 0.000000 1.000000
vn 0.000000 0.000000 1.000000
vn 0.000000 0.000000 1.000000
vn 0.000000 0.000000 1.000000
vn 0.000000 0.000000 1.000000
vn 0.000000 0.000000 1.000000
vn 0.000000 0.000000 1.000000
vn 0.000000 0.000000 1.000000
vn 0.000000 0.000000 1.000000
vn 0.000000 0.000000 1.000000
vn 0.000000 0.000000 1.000000
vn 0.000000 0.000000 1.000000
vn 0.000000 0.000000 1.000000
vn 0.000000 0.000000 1.000000
vn 0.000000 0.000000 1.000000
vn 0.000000 0.000000 1.000000
vn 0.000000 0.000000 1.000000
vn 0.000000 0.000000 1.000000
vn 0.000000 0.000000 1.000000
vn -0.995472 -0.095056 -0.000000
vn -0.995472 -0.095056 0.000000
vn -0.959493 -0.281733 0.000000
vn -0.959493 -0.281733 -0.000000
vn -0.888835 -0.458227 0.000000
vn -0.888835 -0.458227 -0.000000
vn -0.786053 -0.618159 0.000000
vn -0.786053 -0.618159 -0.000000
vn -0.654861 -0.755750 0.000000
vn -0.654861 -0.755750 -0.000000
vn -0.500000 -0.866025 0.000000
vn -0.327068 -0.945001 0.000000
vn -0.500000 -0.866025 -0.000000
vn -0.327068 -0.945001 0.000000
vn -0.142315 -0.989821 0.000000
vn -0.142315 -0.989821 -0.000000
vn 0.047582 -0.998867 0.000000
vn 0.047582 -0.998867 0.000000
vn 0.235759 -0.971812 0.000000
vn 0.235759 -0.971812 0.000000
vn 0.415415 -0.909632 0.000000
vn 0.415415 -0.909632 0.000000
vn 0.580057 -0.814576 0.000000
vn 0.580057 -0.814576 0.000000
vn 0.723734 -0.690079 0.000000
vn 0.723734 -0.690079 0.000000
vn 0.841253 -0.540641 0.000000
vn 0.841253 -0.540641 0.000000
vn 0.928368 -0.371662 0.000000
vn 0.928368 -0.371662 0.000000
vn 0.981929 -0.189251 0.000000
vn 0.981929 -0.189251 0.000000
vn 1.000000 0.000000 0.000000
vn 1.000000 0.000000 0.000000
vn 0.981929 0.189251 0.000000
vn 0.981929 0.189251 0.000000
vn 0.928368 0.371662 -0.000000
vn 0.928368 0.371662 0.000000
vn 0.841253 0.540641 0.000000
vn 0.841253 0.540641 0.000000
vn 0.723734 0.690079 0.000000
vn 0.723734 0.690079 0.000000
vn 0.580057 0.814576 -0.000000
vn 0.580057 0.814576 0.000000
vn 0.415415 0.909632 0.000000
vn 0.415415 0.909632 0.000000
vn 0.235759 0.971812 0.000000
vn 0.235759 0.971812 0.000000
vn 0.047582 0.998867 0.000000
vn -0.142315 0.989821 0.000000
vn 0.047582 0.998867 0.000000
vn -0.142315 0.989821 0.000000
vn -0.327068 0.945001 0.000000
vn -0.327068 0.945001 0.000000
vn -0.500000 0.866025 0.000000
vn -0.500000 0.866025 0.000000
vn -0.654861 0.755750 0.000000
vn -0.786053 0.618159 0.000000
vn -0.654861 0.755750 0.000000
vn -0.888835 0.458227 0.000000
vn -0.786053 0.618159 0.000000
vn -0.888835 0.458227 0.000000
vn -0.959493 0.281733 0.000000
vn -0.995472 0.095056 0.000000
vn -0.959493 0.281733 0.000000
vn -0.995472 0.095056 0.000000
vn 0.995734 0.092268 -0.000000
vn 0.995734 0.092268 0.000000
vn 0.961826 0.273663 0.000000
vn 0.961826 0.273663 -0.000000
vn 0.895163 0.445738 0.000000
vn 0.895163 0.445738 -0.000000
vn 0.798017 0.602635 0.000000
vn 0.798017 0.602635 -0.000000
vn 0.673696 0.739009 0.000000
vn 0.673696 0.739009 -0.000000
vn 0.526432 0.850217 0.000000
vn 0.526432 0.850217 -0.000000
vn 0.361242 0.932472 -0.000000
vn 0.361242 0.932472 0.000000
vn 0.183749 0.982973 -0.000000
vn 0.183749 0.982973 0.000000
vn 0.000000 1.000000 0.000000
vn 0.000000 1.000000 -0.000000
vn -0.183749 0.982973 0.000000
vn -0.183749 0.982973 0.000000
vn -0.361242 0.932472 0.000000
vn -0.361242 0.932472 0.000000
vn -0.526432 0.850217 0.000000
vn -0.526432 0.850217 0.000000
vn -0.673696 0.739009 0.000000
vn -0.673696 0.739009 0.000000
vn -0.798017 0.602635 0.000000
vn -0.798017 0.602635 0.000000
vn -0.895163 0.445738 0.000000
vn -0.961826 0.273663 0.000000
vn -0.895163 0.445738 0.000000
vn -0.995734 0.092268 0.000000
vn -0.961826 0.273663 0.000000
vn -0.995734 -0.092268 -0.000000
vn -0.995734 0.092268 0.000000
vn -0.995734 -0.092268 0.000000
vn -0.961826 -0.273663 0.000000
vn -0.895163 -0.445738 -0.000000
vn -0.961826 -0.273663 0.000000
vn -0.798017 -0.602635 -0.000000
vn -0.895163 -0.445738 0.000000
vn -0.798017 -0.602635 0.000000
vn -0.673696 -0.739009 0.000000
vn -0.673696 -0.739009 0.000000
vn -0.526432 -0.850217 0.000000
vn -0.361242 -0.932472 -0.000000
vn -0.526432 -0.850217 0.000000
vn -0.361242 -0.932472 0.000000
vn -0.183749 -0.982973 0.000000
vn -0.183749 -0.982973 0.000000
vn 0.000000 -1.000000 0.000000
vn 0.000000 -1.000000 0.000000
vn 0.183749 -0.982973 0.000000
vn 0.183749 -0.982973 0.000000
vn 0.361242 -0.932472 0.000000
vn 0.361242 -0.932472 0.000000
vn 0.526432 -0.850217 0.000000
vn 0.673696 -0.739009 0.000000
vn 0.526432 -0.850217 0.000000
vn 0.673696 -0.739009 0.000000
vn 0.798017 -0.602635 0.000000
vn 0.798017 -0.602635 0.000000
vn 0.895163 -0.445738 0.000000
vn 0.895163 -0.445738 0.000000
vn 0.961826 -0.273663 0.000000
vn 0.961826 -0.273663 0.000000
vn 0.995734 -0.092268 0.000000
vn 0.995734 -0.092268 0.000000
vn 0.000000 0.000000 1.000000
vn 0.000000 0.000000 1.000000
vn 0.000000 0.000000 1.000000
vn 0.000000 0.000000 1.000000
vn 0.000000 0.000000 1.000000
vn 0.000000 0.000000 1.000000
vn 0.000000 0.000000 1.000000
vn 0.000000 0.000000 1.000000
vn 0.000000 0.000000 1.000000
vn 0.000000 0.000000 1.000000
vn 0.000000 0.000000 1.000000
vn 0.000000 0.000000 1.000000
vn 0.000000 0.000000 1.000000
vn 0.000000 0.000000 1.000000
vn 0.000000 0.000000 1.000000
vn 0.000000 0.000000 1.000000
vn 0.000000 0.000000 1.000000
vn 0.000000 0.000000 1.000000
vn 0.000000 0.000000 1.000000
vn 0.000000 0.000000 1.000000
vn 0.000000 0.000000 1.000000
vn 0.000000 0.000000 1.000000
vn 0.000000 0.000000 1.000000
vn 0.000000 0.000000 1.000000
vn 0.000000 0.000000 1.000000
vn 0.000000 0.000000 1.000000
vn 0.000000 0.000000 1.000000
vn 0.000000 0.000000 1.000000
vn 0.000000 0.000000 1.000000
vn 0.000000 0.000000 1.000000
vn 0.000000 0.000000 1.000000
vn 0.000000 0.000000 1.000000
vn 0.000000 0.000000 1.000000
vn 0.000000 0.000000 1.000000
vn 0.000000 0.000000 1.000000
vn 0.000000 0.000000 1.000000
vn 0.000000 0.000000 1.000000
vn 0.000000 0.000000 1.000000
vn 0.000000 0.000000 1.000000
vn 0.000000 0.000000 1.000000
vn 0.000000 0.000000 1.000000
vn 0.000000 0.000000 1.000000
vn 0.000000 0.000000 1.000000
vn 0.000000 0.000000 1.000000
vn 0.000000 0.000000 1.000000
vn 0.000000 0.000000 1.000000
vn 0.000000 0.000000 1.000000
vn 0.000000 0.000000 1.000000
vn 0.000000 0.000000 1.000000
vn 0.000000 0.000000 1.000000
vn 0.000000 0.000000 1.000000
vn 0.000000 0.000000 1.000000
vn 0.000000 0.000000 1.000000
vn 0.000000 0.000000 1.000000
vn 0.000000 0.000000 1.000000
vn 0.000000 0.000000 1.000000
vn 0.000000 0.000000 1.000000
vn 0.000000 0.000000 1.000000
vn 0.000000 0.000000 1.000000
vn 0.000000 0.000000 1.000000
vn 0.000000 0.000000 1.000000
vn 0.000000 0.000000 1.000000
vn 0.000000 0.000000 -1.000000
vn 0.000000 0.000000 -1.000000
vn 0.000000 -0.000000 -1.000000
vn 0.000000 0.000000 -1.000000
vn 0.000000 0.000000 -1.000000
vn 0.000000 0.000000 -1.000000
vn 0.000000 0.000000 -1.000000
vn 0.000000 -0.000000 -1.000000
vn 0.000000 0.000000 -1.000000
vn 0.000000 0.000000 -1.000000
vn 0.000000 0.000000 -1.000000
vn 0.000000 -0.000000 -1.000000
vn 0.000000 0.000000 -1.000000
vn 0.000000 0.000000 -1.000000
vn 0.000000 0.000000 -1.000000
vn 0.000000 0.000000 -1.000000
vn 0.000000 -0.000000 -1.000000
vn 0.000000 0.000000 -1.000000
vn 0.000000 0.000000 -1.000000
vn 0.000000 0.000000 -1.000000
vn 0.000000 0.000000 -1.000000
vn 0.000000 0.000000 -1.000000
vn 0.000000 -0.000000 -1.000000
vn 0.000000 0.000000 -1.000000
vn 0.000000 -0.000000 -1.000000
vn 0.000000 0.000000 -1.000000
vn 0.000000 0.000000 -1.000000
vn 0.000000 0.000000 -1.000000
vn 0.000000 0.000000 -1.000000
vn 0.000000 0.000000 -1.000000
vn 0.000000 0.000000 -1.000000
vn 0.000000 0.000000 -1.000000
vn 0.000000 0.000000 -1.000000
vn 0.000000 0.000000 -1.000000
vn 0.000000 0.000000 -1.000000
vn 0.000000 0.000000 -1.000000
vn 0.000000 0.000000 -1.000000
vn 0.000000 0.000000 -1.000000
vn 0.000000 0.000000 -1.000000
vn 0.000000 -0.000000 -1.000000
vn 0.000000 0.000000 -1.000000
vn 0.000000 0.000000 -1.000000
vn 0.000000 0.000000 -1.000000
vn 0.000000 -0.000000 -1.000000
vn 0.000000 0.000000 -1.000000
vn 0.000000 0.000000 -1.000000
vn 0.000000 0.000000 -1.000000
vn 0.000000 0.000000 -1.000000
vn 0.000000 0.000000 -1.000000
vn 0.000000 0.000000 -1.000000
vn 0.000000 0.000000 -1.000000
vn 0.000000 0.000000 -1.000000
vn 0.000000 0.000000 -1.000000
vn 0.000000 0.000000 -1.000000
vn 0.000000 0.000000 -1.000000
vn 0.000000 -0.000000 -1.000000
vn 0.000000 0.000000 -1.000000
vn 0.000000 0.000000 -1.000000
vn 0.000000 0.000000 -1.000000
vn 0.000000 -0.000000 -1.000000
vn 0.000000 0.000000 -1.000000
vn 0.000000 0.000000 -1.000000
vn 0.000000 -0.000000 -1.000000
vn 0.000000 0.000000 1.000000
vn 0.000000 0.000000 1.000000
vn 0.000000 0.000000 1.000000
vn 0.000000 0.000000 1.000000
vn 0.000000 0.000000 1.000000
vn 0.000000 0.000000 1.000000
vn 0.000000 0.000000 1.000000
vn 0.000000 0.000000 1.000000
vn 0.000000 0.000000 1.000000
vn 0.000000 0.000000 1.000000
vn 0.000000 0.000000 1.000000
vn 0.000000 0.000000 1.000000
vn 0.000000 0.000000 1.000000
vn 0.000000 0.000000 1.000000
vn 0.000000 0.000000 1.000000
vn 0.000000 0.000000 1.000000
vn 0.000000 0.000000 1.000000
vn 0.000000 0.000000 1.000000
vn 0.000000 0.000000 1.000000
vn 0.000000 0.000000 1.000000
vn 0.000000 0.000000 1.000000
vn 0.000000 0.000000 1.000000
vn 0.000000 0.000000 1.000000
vn 0.000000 0.000000 1.000000
vn 0.000000 0.000000 1.000000
vn 0.000000 0.000000 1.000000
vn 0.000000 0.000000 1.000000
vn 0.000000 0.000000 1.000000
vn 0.000000 0.000000 1.000000
vn 0.000000 0.000000 1.000000
vn 0.000000 0.000000 1.000000
vn 0.000000 0.000000 1.000000
vn 0.000000 0.000000 1.000000
vn 0.000000 0.000000 1.000000
vn 0.000000 0.000000 1.000000
vn 0.000000 0.000000 1.000000
vn 0.000000 0.000000 1.000000
vn 0.000000 0.000000 1.000000
vn 0.000000 0.000000 1.000000
vn 0.000000 0.000000 1.000000
vn 0.000000 0.000000 1.000000
vn 0.000000 0.000000 1.000000
vn 0.000000 0.000000 1.000000
vn 0.000000 0.000000 1.000000
vn 0.000000 0.000000 1.000000
vn 0.000000 0.000000 1.000000
vn 0.000000 0.000000 1.000000
vn 0.000000 0.000000 1.000000
vn 0.000000 0.000000 1.000000
vn 0.000000 0.000000 1.000000
vn 0.000000 0.000000 1.000000
vn 0.000000 0.000000 1.000000
vn 0.000000 0.000000 1.000000
vn 0.000000 0.000000 1.000000
vn 0.000000 0.000000 1.000000
vn 0.994138 0.108119 -0.000000
vn 0.994138 0.108119 0.000000
vn 0.947653 0.319302 0.000000
vn 0.947653 0.319302 -0.000000
vn 0.856857 0.515554 0.000000
vn 0.856857 0.515554 -0.000000
vn 0.725995 0.687699 0.000000
vn 0.725995 0.687699 -0.000000
vn 0.561187 0.827689 0.000000
vn 0.561187 0.827689 -0.000000
vn 0.370138 0.928977 0.000000
vn 0.370138 0.928977 -0.000000
vn 0.161782 0.986827 0.000000
vn 0.161782 0.986827 -0.000000
vn -0.054139 0.998533 0.000000
vn -0.054139 0.998533 0.000000
vn -0.267528 0.963550 0.000000
vn -0.267528 0.963550 0.000000
vn -0.468408 0.883512 0.000000
vn -0.468408 0.883512 0.000000
vn -0.647386 0.762162 0.000000
vn -0.647386 0.762162 0.000000
vn -0.796093 0.605174 0.000000
vn -0.796093 0.605174 0.000000
vn -0.907575 0.419889 0.000000
vn -0.907575 0.419889 0.000000
vn -0.976621 0.214970 0.000000
vn -0.976621 0.214970 0.000000
vn -1.000000 -0.000000 0.000000
vn -1.000000 0.000000 0.000000
vn -0.976621 -0.214970 0.000000
vn -0.907575 -0.419889 -0.000000
vn -0.976621 -0.214970 0.000000
vn -0.907575 -0.419889 0.000000
vn -0.796093 -0.605174 0.000000
vn -0.796093 -0.605174 0.000000
vn -0.647386 -0.762162 0.000000
vn -0.647386 -0.762162 0.000000
vn -0.468408 -0.883512 0.000000
vn -0.468408 -0.883512 0.000000
vn -0.267528 -0.963550 0.000000
vn -0.267528 -0.963550 0.000000
vn -0.054139 -0.998533 0.000000
vn -0.054139 -0.998533 0.000000
vn 0.161782 -0.986827 0.000000
vn 0.161782 -0.986827 0.000000
vn 0.370138 -0.928977 0.000000
vn 0.370138 -0.928977 0.000000
vn 0.561187 -0.827689 0.000000
vn 0.725995 -0.687699 0.000000
vn 0.561187 -0.827689 0.000000
vn 0.725995 -0.687699 0.000000
vn 0.856857 -0.515554 0.000000
vn 0.856857 -0.515554 0.000000
vn 0.947653 -0.319302 0.000000
vn 0.947653 -0.319302 0.000000
vn 0.994138 -0.108119 0.000000
vn 0.994138 -0.108119 0.000000
vn -0.992709 -0.120537 0.000000
vn -0.992709 -0.120537 0.000000
vn -0.935016 -0.354605 0.000000
vn -0.935016 -0.354605 0.000000
vn -0.822984 -0.568065 0.000000
vn -0.822984 -0.568065 0.000000
vn -0.663123 -0.748511 0.000000
vn -0.464723 -0.885456 0.000000
vn -0.663123 -0.748511 0.000000
vn -0.464723 -0.885456 0.000000
vn -0.239316 -0.970942 0.000000
vn -0.239316 -0.970942 0.000000
vn 0.000000 -1.000000 0.000000
vn 0.000000 -1.000000 0.000000
vn 0.239316 -0.970942 0.000000
vn 0.464723 -0.885456 0.000000
vn 0.239316 -0.970942 0.000000
vn 0.464723 -0.885456 0.000000
vn 0.663123 -0.748511 0.000000
vn 0.663123 -0.748511 0.000000
vn 0.822984 -0.568065 0.000000
vn 0.822984 -0.568065 0.000000
vn 0.935016 -0.354605 0.000000
vn 0.935016 -0.354605 0.000000
vn 0.992709 -0.120537 0.000000
vn 0.992709 -0.120537 0.000000
vn 0.992709 0.120537 -0.000000
vn 0.992709 0.120537 0.000000
vn 0.935016 0.354605 -0.000000
vn 0.935016 0.354605 -0.000000
vn 0.822984 0.568065 -0.000000
vn 0.822984 0.568065 0.000000
vn 0.663123 0.748511 -0.000000
vn 0.663123 0.748511 0.000000
vn 0.464723 0.885456 -0.000000
vn 0.464723 0.885456 0.000000
vn 0.239316 0.970942 -0.000000
vn 0.000000 1.000000 0.000000
vn 0.239316 0.970942 0.000000
vn 0.000000 1.000000 -0.000000
vn -0.239316 0.970942 0.000000
vn -0.239316 0.970942 0.000000
vn -0.464723 0.885456 0.000000
vn -0.464723 0.885456 0.000000
vn -0.663123 0.748511 0.000000
vn -0.663123 0.748511 0.000000
vn -0.822984 0.568065 0.000000
vn -0.935016 0.354605 0.000000
vn -0.822984 0.568065 0.000000
vn -0.935016 0.354605 0.000000
vn -0.992709 0.120537 0.000000
vn -0.992709 0.120537 0.000000
vn 0.000000 0.000000 -1.000000
vn 0.000000 0.000000 -1.000000
vn 0.000000 0.000000 -1.000000
vn 0.000000 -0.000000 -1.000000
vn 0.000000 0.000000 -1.000000
vn 0.000000 0.000000 -1.000000
vn 0.000000 0.000000 -1.000000
vn 0.000000 0.000000 -1.000000
vn 0.000000 0.000000 -1.000000
vn 0.000000 0.000000 -1.000000
vn 0.000000 0.000000 -1.000000
vn 0.000000 0.000000 -1.000000
vn 0.000000 0.000000 -1.000000
vn 0.000000 0.000000 -1.000000
vn 0.000000 0.000000 -1.000000
vn 0.000000 -0.000000 -1.000000
vn 0.000000 -0.000000 -1.000000
vn 0.000000 0.000000 -1.000000
vn 0.000000 0.000000 -1.000000
vn 0.000000 -0.000000 -1.000000
vn 0.000000 -0.000000 -1.000000
vn 0.000000 0.000000 -1.000000
vn 0.000000 0.000000 -1.000000
vn 0.000000 0.000000 -1.000000
vn 0.000000 0.000000 -1.000000
vn 0.000000 0.000000 -1.000000
vn 0.000000 0.000000 -1.000000
vn 0.000000 0.000000 -1.000000
vn 0.000000 0.000000 -1.000000
vn 0.000000 0.000000 -1.000000
vn 0.000000 0.000000 -1.000000
vn 0.000000 0.000000 -1.000000
vn 0.000000 0.000000 -1.000000
vn 0.000000 0.000000 -1.000000
vn 0.000000 0.000000 -1.000000
vn 0.000000 0.000000 -1.000000
vn 0.000000 0.000000 -1.000000
vn 0.000000 0.000000 -1.000000
vn 0.000000 0.000000 -1.000000
vn 0.000000 0.000000 -1.000000
vn 0.000000 0.000000 -1.000000
vn 0.000000 0.000000 -1.000000
vn 0.000000 0.000000 -1.000000
vn 0.000000 0.000000 -1.000000
vn 0.000000 0.000000 -1.000000
vn 0.000000 0.000000 -1.000000
vn 0.000000 0.000000 -1.000000
vn 0.000000 0.000000 -1.000000
vn 0.000000 0.000000 -1.000000
vn 0.000000 0.000000 -1.000000
vn 0.000000 0.000000 -1.000000
vn 0.000000 0.000000 -1.000000
vn 0.000000 0.000000 -1.000000
vn 0.000000 -0.000000 -1.000000
vn 0.000000 0.000000 -1.000000
f 1//1 2//1 3//1
f 4//2 5//2 6//2
f 1//3 7//3 2//3
f 5//4 8//4 6//4
f 9//5 3//5 10//5
f 9//6 1//6 3//6
f 11//7 1//7 9//7
f 11//8 12//8 4//8
f 11//9 6//9 1//9
f 11//10 4//10 6//10
f 13//11 10//11 14//11
f 13//12 9//12 10//12
f 15//13 16//13 12//13
f 15//14 17//14 16//14
f 15//15 11//15 9//15
f 15//16 9//16 13//16
f 15//17 12//17 11//17
f 18//18 13//18 14//18
f 18//19 14//19 19//19
f 20//20 13//20 18//20
f 20//21 21//21 17//21
f 20//22 17//22 15//22
f 20//23 15//23 13//23
f 22//24 20//24 18//24
f 22//25 19//25 23//25
f 22//26 18//26 19//26
f 24//27 25//27 21//27
f 24//28 21//28 20//28
f 24//29 20//29 22//29
f 26//30 23//30 27//30
f 26//31 22//31 23//31
f 28//32 22//32 26//32
f 28//33 29//33 25//33
f 28//34 30//34 29//34
f 28//35 24//35 22//35
f 28//36 25//36 24//36
f 31//37 27//37 32//37
f 31//38 26//38 27//38
f 33//39 34//39 30//39
f 33//40 30//40 28//40
f 33//41 28//41 26//41
f 33//42 26//42 31//42
f 35//43 32//43 36//43
f 35//44 31//44 32//44
f 37//45 31//45 35//45
f 37//46 38//46 34//46
f 37//47 39//47 38//47
f 37//48 34//48 33//48
f 37//49 33//49 31//49
f 40//50 35//50 36//50
f 40//51 36//51 41//51
f 42//52 35//52 40//52
f 42//53 43//53 39//53
f 42//54 37//54 35//54
f 42//55 39//55 37//55
f 44//56 41//56 45//56
f 44//57 40//57 41//57
f 46//58 40//58 44//58
f 46//59 47//59 43//59
f 46//60 42//60 40//60
f 46//61 43//61 42//61
f 48//62 44//62 45//62
f 48//63 45//63 49//63
f 48//64 46//64 44//64
f 50//65 51//65 47//65
f 50//66 52//66 51//66
f 50//67 46//67 48//67
f 50//68 47//68 46//68
f 53//69 48//69 49//69
f 53//70 49//70 54//70
f 53//71 50//71 48//71
f 55//72 56//72 52//72
f 55//73 52//73 50//73
f 55//74 50//74 53//74
f 57//75 53//75 54//75
f 57//76 54//76 58//76
f 59//77 60//77 56//77
f 59//78 55//78 53//78
f 59//79 61//79 60//79
f 59//80 53//80 57//80
f 59//81 56//81 55//81
f 62//82 59//82 57//82
f 62//83 57//83 58//83
f 62//84 63//84 64//84
f 62//85 58//85 63//85
f 65//86 66//86 61//86
f 65//87 59//87 62//87
f 65//88 61//88 59//88
f 67//89 62//89 64//89
f 67//90 64//90 68//90
f 69//91 70//91 66//91
f 69//92 62//92 67//92
f 69//93 65//93 62//93
f 69//94 66//94 65//94
f 71//95 67//95 68//95
f 71//96 68//96 72//96
f 73//97 74//97 70//97
f 73//98 69//98 67//98
f 73//99 75//99 74//99
f 73//100 67//100 71//100
f 73//101 70//101 69//101
f 76//102 71//102 72//102
f 76//103 72//103 77//103
f 78//104 79//104 75//104
f 78//105 75//105 73//105
f 78//106 73//106 71//106
f 78//107 71//107 76//107
f 80//108 76//108 77//108
f 80//109 77//109 81//109
f 82//110 83//110 79//110
f 82//111 84//111 83//111
f 82//112 79//112 78//112
f 82//113 78//113 76//113
f 82//114 76//114 80//114
f 85//115 80//115 81//115
f 85//116 81//116 86//116
f 87//117 88//117 84//117
f 87//118 84//118 82//118
f 87//119 82//119 80//119
f 87//120 80//120 85//120
f 89//121 85//121 86//121
f 89//122 86//122 90//122
f 91//123 88//123 87//123
f 91//124 92//124 88//124
f 91//125 87//125 85//125
f 91//126 85//126 89//126
f 93//127 89//127 90//127
f 93//128 90//128 94//128
f 93//129 91//129 89//129
f 95//130 96//130 92//130
f 95//131 97//131 96//131
f 95//132 92//132 91//132
f 95//133 91//133 93//133
f 98//134 94//134 99//134
f 98//135 93//135 94//135
f 100//136 101//136 97//136
f 100//137 97//137 95//137
f 100//138 95//138 93//138
f 100//139 93//139 98//139
f 102//140 99//140 103//140
f 102//141 98//141 99//141
f 104//142 105//142 101//142
f 104//143 106//143 105//143
f 104//144 101//144 100//144
f 104//145 100//145 98//145
f 104//146 98//146 102//146
f 107//147 103//147 108//147
f 107//148 104//148 102//148
f 107//149 102//149 103//149
f 109//150 110//150 106//150
f 109//151 104//151 107//151
f 109//152 106//152 104//152
f 111//153 107//153 108//153
f 111//154 108//154 112//154
f 113//155 107//155 111//155
f 113//156 114//156 110//156
f 113//157 110//157 109//157
f 113//158 109//158 107//158
f 115//159 112//159 116//159
f 115//160 111//160 112//160
f 117//161 114//161 113//161
f 117//162 118//162 114//162
f 117//163 119//163 118//163
f 117//164 113//164 111//164
f 117//165 111//165 115//165
f 120//166 115//166 116//166
f 120//167 7//167 1//167
f 120//168 116//168 7//168
f 120//169 117//169 115//169
f 121//170 1//170 6//170
f 121//171 6//171 8//171
f 121//172 8//172 119//172
f 121//173 119//173 117//173
f 121//174 120//174 1//174
f 121//175 117//175 120//175
f 122//176 123//176 2//176
f 2//177 123//177 3//177
f 3//178 124//178 10//178
f 123//179 124//179 3//179
f 10//180 125//180 14//180
f 124//181 125//181 10//181
f 14//182 126//182 19//182
f 125//183 126//183 14//183
f 19//184 127//184 23//184
f 126//185 127//185 19//185
f 23//186 128//186 27//186
f 127//187 128//187 23//187
f 27//188 129//188 32//188
f 128//189 129//189 27//189
f 32//190 130//190 36//190
f 129//191 130//191 32//191
f 130//192 131//192 36//192
f 36//193 131//193 41//193
f 131//194 132//194 41//194
f 41//195 132//195 45//195
f 132//196 133//196 45//196
f 45//197 133//197 49//197
f 133//198 134//198 49//198
f 49//199 134//199 54//199
f 134//200 135//200 54//200
f 54//201 135//201 58//201
f 135//202 136//202 58//202
f 58//203 136//203 63//203
f 136//204 137//204 63//204
f 63//205 137//205 64//205
f 137//206 138//206 64//206
f 64//207 138//207 68//207
f 138//208 139//208 68//208
f 68//209 139//209 72//209
f 139//210 140//210 72//210
f 72//211 140//211 77//211
f 140//212 141//212 77//212
f 77//213 141//213 81//213
f 81//214 142//214 86//214
f 141//215 142//215 81//215
f 86//216 143//216 90//216
f 142//217 143//217 86//217
f 90//218 144//218 94//218
f 143//219 144//219 90//219
f 94//220 145//220 99//220
f 144//221 145//221 94//221
f 99//222 146//222 103//222
f 145//223 146//223 99//223
f 103//224 147//224 108//224
f 146//225 147//225 103//225
f 108//226 148//226 112//226
f 147//227 148//227 108//227
f 112//228 149//228 116//228
f 148//229 149//229 112//229
f 116//230 150//230 7//230
f 149//231 150//231 116//231
f 7//232 151//232 2//232
f 150//233 151//233 7//233
f 151//234 122//234 2//234
f 152//235 153//235 5//235
f 152//236 5//236 4//236
f 154//237 4//237 12//237
f 154//238 152//238 4//238
f 155//239 12//239 16//239
f 155//240 16//240 17//240
f 155//241 154//241 12//241
f 156//242 155//242 17//242
f 157//243 156//243 17//243
f 157//244 17//244 21//244
f 158//245 157//245 21//245
f 158//246 21//246 25//246
f 159//247 158//247 25//247
f 159//248 25//248 29//248
f 160//249 159//249 29//249
f 160//250 29//250 30//250
f 161//251 160//251 30//251
f 161//252 30//252 34//252
f 162//253 161//253 34//253
f 162//254 34//254 38//254
f 163//255 162//255 38//255
f 163//256 38//256 39//256
f 164//257 163//257 39//257
f 164//258 39//258 43//258
f 164//259 43//259 47//259
f 165//260 164//260 47//260
f 166//261 165//261 47//261
f 166//262 47//262 51//262
f 167//263 166//263 51//263
f 167//264 51//264 52//264
f 168//265 167//265 52//265
f 168//266 52//266 56//266
f 169//267 168//267 56//267
f 169//268 56//268 60//268
f 170//269 169//269 60//269
f 170//270 60//270 61//270
f 171//271 61//271 66//271
f 171//272 170//272 61//272
f 172//273 66//273 70//273
f 172//274 70//274 74//274
f 172//275 171//275 66//275
f 173//276 172//276 74//276
f 174//277 74//277 75//277
f 174//278 173//278 74//278
f 175//279 75//279 79//279
f 175//280 174//280 75//280
f 176//281 79//281 83//281
f 176//282 83//282 84//282
f 176//283 175//283 79//283
f 177//284 176//284 84//284
f 178//285 84//285 88//285
f 178//286 177//286 84//286
f 179//287 88//287 92//287
f 179//288 178//288 88//288
f 180//289 92//289 96//289
f 180//290 96//290 97//290
f 180//291 179//291 92//291
f 181//292 180//292 97//292
f 182//293 181//293 97//293
f 182//294 97//294 101//294
f 183//295 182//295 101//295
f 183//296 101//296 105//296
f 184//297 183//297 105//297
f 184//298 105//298 106//298
f 185//299 184//299 106//299
f 185//300 106//300 110//300
f 186//301 185//301 110//301
f 186//302 110//302 114//302
f 187//303 186//303 114//303
f 187//304 114//304 118//304
f 188//305 187//305 118//305
f 188//306 118//306 119//306
f 189//307 188//307 119//307
f 189//308 119//308 8//308
f 153//309 189//309 8//309
f 153//310 8//310 5//310
f 190//311 137//311 136//311
f 191//312 192//312 190//312
f 190//313 138//313 137//313
f 192//314 193//314 190//314
f 194//315 195//315 191//315
f 194//316 136//316 135//316
f 194//317 190//317 136//317
f 194//318 191//318 190//318
f 196//319 195//319 194//319
f 196//320 197//320 195//320
f 196//321 198//321 197//321
f 196//322 135//322 134//322
f 196//323 194//323 135//323
f 199//324 198//324 196//324
f 199//325 200//325 198//325
f 199//326 196//326 134//326
f 199//327 134//327 133//327
f 201//328 202//328 200//328
f 201//329 200//329 199//329
f 201//330 133//330 132//330
f 201//331 132//331 131//331
f 201//332 199//332 133//332
f 203//333 204//333 202//333
f 203//334 205//334 204//334
f 203//335 131//335 130//335
f 203//336 201//336 131//336
f 203//337 202//337 201//337
f 206//338 207//338 205//338
f 206//339 130//339 129//339
f 206//340 203//340 130//340
f 206//341 205//341 203//341
f 208//342 209//342 207//342
f 208//343 210//343 209//343
f 208//344 129//344 128//344
f 208//345 207//345 206//345
f 208//346 206//346 129//346
f 211//347 210//347 208//347
f 211//348 212//348 210//348
f 211//349 208//349 128//349
f 211//350 128//350 127//350
f 211//351 127//351 126//351
f 213//352 214//352 212//352
f 213//353 212//353 211//353
f 213//354 126//354 125//354
f 213//355 211//355 126//355
f 215//356 216//356 214//356
f 215//357 217//357 216//357
f 215//358 125//358 124//358
f 215//359 214//359 213//359
f 215//360 213//360 125//360
f 218//361 217//361 215//361
f 218//362 219//362 217//362
f 218//363 124//363 123//363
f 218//364 215//364 124//364
f 220//365 221//365 219//365
f 220//366 222//366 221//366
f 220//367 123//367 122//367
f 220//368 122//368 151//368
f 220//369 219//369 218//369
f 220//370 218//370 123//370
f 223//371 224//371 222//371
f 223//372 151//372 150//372
f 223//373 220//373 151//373
f 223//374 222//374 220//374
f 225//375 226//375 224//375
f 225//376 227//376 226//376
f 225//377 224//377 223//377
f 225//378 150//378 149//378
f 225//379 223//379 150//379
f 228//380 229//380 227//380
f 228//381 149//381 148//381
f 228//382 225//382 149//382
f 228//383 227//383 225//383
f 230//384 229//384 228//384
f 230//385 228//385 148//385
f 230//386 231//386 229//386
f 230//387 148//387 147//387
f 230//388 147//388 146//388
f 232//389 233//389 231//389
f 232//390 234//390 233//390
f 232//391 230//391 146//391
f 232//392 146//392 145//392
f 232//393 231//393 230//393
f 235//394 236//394 234//394
f 235//395 234//395 232//395
f 235//396 145//396 144//396
f 235//397 232//397 145//397
f 237//398 238//398 236//398
f 237//399 239//399 238//399
f 237//400 236//400 235//400
f 237//401 235//401 144//401
f 237//402 144//402 143//402
f 240//403 241//403 239//403
f 240//404 239//404 237//404
f 240//405 237//405 143//405
f 240//406 143//406 142//406
f 240//407 142//407 141//407
f 242//408 241//408 240//408
f 242//409 243//409 241//409
f 242//410 141//410 140//410
f 242//411 240//411 141//411
f 244//412 245//412 243//412
f 244//413 246//413 245//413
f 244//414 140//414 139//414
f 244//415 242//415 140//415
f 244//416 243//416 242//416
f 247//417 138//417 190//417
f 247//418 190//418 193//418
f 247//419 193//419 246//419
f 247//420 139//420 138//420
f 247//421 246//421 244//421
f 247//422 244//422 139//422
f 248//423 176//423 177//423
f 249//424 174//424 175//424
f 249//425 175//425 176//425
f 249//426 176//426 248//426
f 250//427 177//427 178//427
f 250//428 248//428 177//428
f 251//429 173//429 174//429
f 251//430 174//430 249//430
f 252//431 178//431 179//431
f 252//432 250//432 178//432
f 253//433 172//433 173//433
f 253//434 173//434 251//434
f 254//435 179//435 180//435
f 254//436 252//436 179//436
f 255//437 172//437 253//437
f 255//438 171//438 172//438
f 256//439 254//439 180//439
f 256//440 180//440 181//440
f 257//441 170//441 171//441
f 257//442 171//442 255//442
f 258//443 256//443 181//443
f 258//444 181//444 182//444
f 259//445 169//445 170//445
f 259//446 170//446 257//446
f 183//447 258//447 182//447
f 260//448 258//448 183//448
f 261//449 168//449 169//449
f 261//450 169//450 259//450
f 184//451 260//451 183//451
f 262//452 260//452 184//452
f 263//453 167//453 168//453
f 263//454 168//454 261//454
f 185//455 262//455 184//455
f 264//456 262//456 185//456
f 166//457 167//457 263//457
f 265//458 166//458 263//458
f 186//459 264//459 185//459
f 266//460 264//460 186//460
f 165//461 265//461 267//461
f 165//462 166//462 265//462
f 187//463 266//463 186//463
f 268//464 266//464 187//464
f 164//465 267//465 269//465
f 164//466 165//466 267//466
f 188//467 268//467 187//467
f 188//468 270//468 268//468
f 163//469 269//469 271//469
f 163//470 164//470 269//470
f 189//471 270//471 188//471
f 189//472 272//472 270//472
f 162//473 271//473 273//473
f 162//474 163//474 271//474
f 153//475 272//475 189//475
f 161//476 273//476 274//476
f 161//477 162//477 273//477
f 152//478 275//478 272//478
f 152//479 272//479 153//479
f 160//480 161//480 274//480
f 154//481 276//481 275//481
f 154//482 275//482 152//482
f 159//483 160//483 274//483
f 159//484 274//484 277//484
f 155//485 278//485 276//485
f 155//486 276//486 154//486
f 158//487 159//487 277//487
f 158//488 277//488 279//488
f 156//489 280//489 278//489
f 156//490 278//490 155//490
f 157//491 158//491 279//491
f 157//492 280//492 156//492
f 157//493 279//493 280//493
f 243//494 281//494 282//494
f 241//495 282//495 283//495
f 241//496 243//496 282//496
f 245//497 281//497 243//497
f 239//498 283//498 284//498
f 239//499 241//499 283//499
f 285//500 281//500 245//500
f 246//501 285//501 245//501
f 238//502 284//502 286//502
f 238//503 239//503 284//503
f 287//504 285//504 246//504
f 193//505 287//505 246//505
f 236//506 286//506 288//506
f 236//507 238//507 286//507
f 192//508 289//508 287//508
f 192//509 287//509 193//509
f 234//510 236//510 288//510
f 234//511 288//511 290//511
f 191//512 291//512 289//512
f 191//513 289//513 192//513
f 233//514 290//514 292//514
f 233//515 234//515 290//515
f 195//516 291//516 191//516
f 195//517 293//517 291//517
f 231//518 292//518 294//518
f 231//519 233//519 292//519
f 197//520 295//520 293//520
f 197//521 293//521 195//521
f 229//522 231//522 294//522
f 229//523 294//523 296//523
f 198//524 297//524 295//524
f 198//525 295//525 197//525
f 298//526 229//526 296//526
f 298//527 227//527 229//527
f 299//528 297//528 198//528
f 299//529 198//529 200//529
f 226//530 227//530 298//530
f 300//531 226//531 298//531
f 301//532 200//532 202//532
f 301//533 299//533 200//533
f 302//534 226//534 300//534
f 302//535 224//535 226//535
f 303//536 202//536 204//536
f 303//537 301//537 202//537
f 222//538 224//538 302//538
f 304//539 222//539 302//539
f 305//540 204//540 205//540
f 305//541 303//541 204//541
f 306//542 221//542 222//542
f 306//543 222//543 304//543
f 207//544 305//544 205//544
f 307//545 305//545 207//545
f 308//546 219//546 221//546
f 308//547 221//547 306//547
f 309//548 207//548 209//548
f 309//549 307//549 207//549
f 310//550 217//550 219//550
f 310//551 219//551 308//551
f 210//552 309//552 209//552
f 311//553 309//553 210//553
f 312//554 216//554 217//554
f 312//555 217//555 310//555
f 313//556 210//556 212//556
f 313//557 311//557 210//557
f 314//558 212//558 214//558
f 314//559 214//559 216//559
f 314//560 216//560 312//560
f 314//561 313//561 212//561
f 272//562 275//562 315//562
f 315//563 275//563 316//563
f 316//564 276//564 317//564
f 275//565 276//565 316//565
f 317//566 278//566 318//566
f 276//567 278//567 317//567
f 318//568 280//568 319//568
f 278//569 280//569 318//569
f 319//570 279//570 320//570
f 280//571 279//571 319//571
f 320//572 277//572 321//572
f 321//573 277//573 322//573
f 279//574 277//574 320//574
f 277//575 274//575 322//575
f 322//576 273//576 323//576
f 274//577 273//577 322//577
f 273//578 271//578 323//578
f 323//579 271//579 324//579
f 271//580 269//580 324//580
f 324//581 269//581 325//581
f 269//582 267//582 325//582
f 325//583 267//583 326//583
f 267//584 265//584 326//584
f 326//585 265//585 327//585
f 327//586 265//586 328//586
f 265//587 263//587 328//587
f 263//588 261//588 328//588
f 328//589 261//589 329//589
f 329//590 261//590 330//590
f 261//591 259//591 330//591
f 259//592 257//592 330//592
f 330//593 257//593 331//593
f 257//594 255//594 331//594
f 331//595 255//595 332//595
f 255//596 253//596 332//596
f 332//597 253//597 333//597
f 333//598 253//598 334//598
f 253//599 251//599 334//599
f 251//600 249//600 334//600
f 334//601 249//601 335//601
f 249//602 248//602 335//602
f 335//603 248//603 336//603
f 336//604 248//604 337//604
f 248//605 250//605 337//605
f 337//606 252//606 338//606
f 250//607 252//607 337//607
f 338//608 254//608 339//608
f 252//609 254//609 338//609
f 339//610 256//610 340//610
f 340//611 256//611 341//611
f 254//612 256//612 339//612
f 256//613 258//613 341//613
f 341//614 260//614 342//614
f 258//615 260//615 341//615
f 342//616 262//616 343//616
f 260//617 262//617 342//617
f 343//618 264//618 344//618
f 344//619 264//619 345//619
f 262//620 264//620 343//620
f 345//621 266//621 346//621
f 264//622 266//622 345//622
f 266//623 268//623 346//623
f 346//624 270//624 347//624
f 347//625 270//625 315//625
f 268//626 270//626 346//626
f 270//627 272//627 315//627
f 348//628 349//628 306//628
f 306//629 349//629 308//629
f 308//630 350//630 310//630
f 349//631 350//631 308//631
f 310//632 351//632 312//632
f 350//633 351//633 310//633
f 312//634 352//634 314//634
f 351//635 352//635 312//635
f 314//636 353//636 313//636
f 352//637 353//637 314//637
f 313//638 354//638 311//638
f 353//639 354//639 313//639
f 354//640 355//640 311//640
f 311//641 355//641 309//641
f 355//642 356//642 309//642
f 309//643 356//643 307//643
f 307//644 357//644 305//644
f 356//645 357//645 307//645
f 305//646 357//646 303//646
f 357//647 358//647 303//647
f 358//648 359//648 303//648
f 303//649 359//649 301//649
f 301//650 360//650 299//650
f 359//651 360//651 301//651
f 299//652 361//652 297//652
f 360//653 361//653 299//653
f 297//654 362//654 295//654
f 361//655 362//655 297//655
f 295//656 363//656 293//656
f 293//657 363//657 291//657
f 362//658 363//658 295//658
f 291//659 364//659 289//659
f 363//660 364//660 291//660
f 289//661 365//661 287//661
f 364//662 365//662 289//662
f 365//663 366//663 287//663
f 287//664 367//664 285//664
f 285//665 367//665 281//665
f 366//666 367//666 287//666
f 281//667 368//667 282//667
f 367//668 368//668 281//668
f 368//669 369//669 282//669
f 282//670 370//670 283//670
f 369//671 370//671 282//671
f 283//672 371//672 284//672
f 284//673 371//673 286//673
f 370//674 371//674 283//674
f 371//675 372//675 286//675
f 286//676 373//676 288//676
f 372//677 373//677 286//677
f 288//678 374//678 290//678
f 373//679 374//679 288//679
f 290//680 375//680 292//680
f 374//681 375//681 290//681
f 292//682 376//682 294//682
f 375//683 376//683 292//683
f 294//684 377//684 296//684
f 296//685 377//685 298//685
f 376//686 377//686 294//686
f 377//687 378//687 298//687
f 298//688 379//688 300//688
f 378//689 379//689 298//689
f 300//690 380//690 302//690
f 379//691 380//691 300//691
f 380//692 381//692 302//692
f 302//693 381//693 304//693
f 304//694 381//694 306//694
f 381//695 348//695 306//695
f 382//696 335//696 336//696
f 383//697 336//697 337//697
f 383//698 382//698 336//698
f 384//699 334//699 335//699
f 384//700 335//700 382//700
f 385//701 337//701 338//701
f 385//702 383//702 337//702
f 386//703 333//703 334//703
f 386//704 334//704 384//704
f 387//705 338//705 339//705
f 387//706 385//706 338//706
f 388//707 332//707 333//707
f 388//708 333//708 386//708
f 389//709 339//709 340//709
f 389//710 340//710 341//710
f 389//711 387//711 339//711
f 390//712 331//712 332//712
f 390//713 332//713 388//713
f 330//714 331//714 390//714
f 391//715 389//715 341//715
f 342//716 391//716 341//716
f 392//717 330//717 390//717
f 329//718 330//718 392//718
f 393//719 391//719 342//719
f 394//720 329//720 392//720
f 343//721 393//721 342//721
f 328//722 329//722 394//722
f 395//723 393//723 343//723
f 396//724 328//724 394//724
f 344//725 395//725 343//725
f 327//726 328//726 396//726
f 397//727 395//727 344//727
f 398//728 327//728 396//728
f 345//729 397//729 344//729
f 326//730 327//730 398//730
f 399//731 397//731 345//731
f 400//732 326//732 398//732
f 346//733 399//733 345//733
f 401//734 399//734 346//734
f 325//735 326//735 400//735
f 402//736 325//736 400//736
f 347//737 401//737 346//737
f 347//738 403//738 401//738
f 324//739 402//739 404//739
f 324//740 325//740 402//740
f 315//741 403//741 347//741
f 323//742 324//742 404//742
f 316//743 405//743 403//743
f 316//744 403//744 315//744
f 322//745 404//745 406//745
f 322//746 323//746 404//746
f 317//747 407//747 405//747
f 317//748 405//748 316//748
f 321//749 406//749 408//749
f 321//750 322//750 406//750
f 318//751 409//751 407//751
f 318//752 407//752 317//752
f 320//753 408//753 410//753
f 320//754 321//754 408//754
f 319//755 410//755 409//755
f 319//756 320//756 410//756
f 319//757 409//757 318//757
f 369//758 411//758 370//758
f 370//759 412//759 371//759
f 411//760 412//760 370//760
f 367//761 413//761 368//761
f 368//762 413//762 369//762
f 369//763 413//763 411//763
f 371//764 414//764 372//764
f 412//765 414//765 371//765
f 366//766 415//766 367//766
f 367//767 415//767 413//767
f 372//768 416//768 373//768
f 414//769 416//769 372//769
f 365//770 417//770 366//770
f 366//771 417//771 415//771
f 373//772 418//772 374//772
f 416//773 418//773 373//773
f 364//774 419//774 365//774
f 365//775 419//775 417//775
f 374//776 420//776 375//776
f 418//777 420//777 374//777
f 420//778 376//778 375//778
f 364//779 421//779 419//779
f 363//780 421//780 364//780
f 420//781 422//781 376//781
f 362//782 423//782 363//782
f 363//783 423//783 421//783
f 422//784 377//784 376//784
f 422//785 424//785 377//785
f 362//786 361//786 423//786
f 361//787 425//787 423//787
f 424//788 378//788 377//788
f 424//789 426//789 378//789
f 361//790 360//790 425//790
f 425//791 360//791 427//791
f 426//792 379//792 378//792
f 426//793 428//793 379//793
f 360//794 359//794 427//794
f 427//795 359//795 429//795
f 428//796 380//796 379//796
f 430//797 380//797 428//797
f 429//798 358//798 431//798
f 359//799 358//799 429//799
f 430//800 381//800 380//800
f 432//801 381//801 430//801
f 431//802 357//802 433//802
f 358//803 357//803 431//803
f 432//804 348//804 381//804
f 433//805 356//805 434//805
f 357//806 356//806 433//806
f 435//807 349//807 432//807
f 432//808 349//808 348//808
f 356//809 355//809 434//809
f 436//810 350//810 435//810
f 435//811 350//811 349//811
f 434//812 354//812 437//812
f 355//813 354//813 434//813
f 438//814 351//814 436//814
f 436//815 351//815 350//815
f 437//816 353//816 439//816
f 354//817 353//817 437//817
f 439//818 352//818 438//818
f 438//819 352//819 351//819
f 353//820 352//820 439//820
f 440//821 384//821 382//821
f 441//822 382//822 383//822
f 441//823 383//823 385//823
f 441//824 440//824 382//824
f 442//825 386//825 384//825
f 442//826 384//826 440//826
f 443//827 385//827 387//827
f 443//828 441//828 385//828
f 444//829 388//829 386//829
f 444//830 386//830 442//830
f 445//831 387//831 389//831
f 445//832 443//832 387//832
f 446//833 390//833 388//833
f 446//834 388//834 444//834
f 447//835 445//835 389//835
f 391//836 447//836 389//836
f 448//837 392//837 390//837
f 448//838 390//838 446//838
f 449//839 447//839 391//839
f 393//840 449//840 391//840
f 450//841 394//841 392//841
f 450//842 392//842 448//842
f 451//843 449//843 393//843
f 395//844 451//844 393//844
f 452//845 394//845 450//845
f 396//846 394//846 452//846
f 453//847 451//847 395//847
f 397//848 453//848 395//848
f 454//849 396//849 452//849
f 398//850 396//850 454//850
f 455//851 453//851 397//851
f 399//852 455//852 397//852
f 400//853 398//853 454//853
f 400//854 454//854 456//854
f 457//855 455//855 399//855
f 401//856 457//856 399//856
f 458//857 457//857 401//857
f 402//858 400//858 456//858
f 402//859 456//859 459//859
f 403//860 458//860 401//860
f 404//861 459//861 460//861
f 404//862 402//862 459//862
f 405//863 461//863 458//863
f 405//864 458//864 403//864
f 406//865 404//865 460//865
f 406//866 460//866 462//866
f 407//867 463//867 461//867
f 407//868 461//868 405//868
f 408//869 462//869 464//869
f 408//870 406//870 462//870
f 409//871 465//871 463//871
f 409//872 463//872 407//872
f 410//873 464//873 465//873
f 410//874 408//874 464//874
f 410//875 465//875 409//875
f 466//876 467//876 432//876
f 432//877 467//877 435//877
f 435//878 468//878 436//878
f 467//879 468//879 435//879
f 436//880 469//880 438//880
f 468//881 469//881 436//881
f 438//882 470//882 439//882
f 469//883 470//883 438//883
f 439//884 471//884 437//884
f 470//885 471//885 439//885
f 437//886 472//886 434//886
f 471//887 472//887 437//887
f 434//888 473//888 433//888
f 472//889 473//889 434//889
f 433//890 474//890 431//890
f 473//891 474//891 433//891
f 431//892 475//892 429//892
f 474//893 475//893 431//893
f 475//894 476//894 429//894
f 429//895 476//895 427//895
f 427//896 476//896 425//896
f 476//897 477//897 425//897
f 477//898 478//898 425//898
f 425//899 478//899 423//899
f 423//900 478//900 421//900
f 478//901 479//901 421//901
f 421//902 480//902 419//902
f 479//903 480//903 421//903
f 419//904 481//904 417//904
f 480//905 481//905 419//905
f 417//906 482//906 415//906
f 415//907 482//907 413//907
f 481//908 482//908 417//908
f 482//909 483//909 413//909
f 413//910 484//910 411//910
f 483//911 484//911 413//911
f 411//912 485//912 412//912
f 484//913 485//913 411//913
f 412//914 486//914 414//914
f 485//915 486//915 412//915
f 414//916 487//916 416//916
f 486//917 487//917 414//917
f 416//918 488//918 418//918
f 487//919 488//919 416//919
f 418//920 489//920 420//920
f 488//921 489//921 418//921
f 420//922 490//922 422//922
f 489//923 490//923 420//923
f 422//924 491//924 424//924
f 424//925 491//925 426//925
f 490//926 491//926 422//926
f 491//927 492//927 426//927
f 426//928 493//928 428//928
f 492//929 493//929 426//929
f 428//930 494//930 430//930
f 493//931 494//931 428//931
f 430//932 466//932 432//932
f 494//933 466//933 430//933
f 495//934 496//934 458//934
f 495//935 458//935 461//935
f 497//936 461//936 463//936
f 497//937 495//937 461//937
f 498//938 463//938 465//938
f 498//939 497//939 463//939
f 499//940 465//940 464//940
f 499//941 464//941 462//941
f 499//942 498//942 465//942
f 500//943 499//943 462//943
f 501//944 462//944 460//944
f 501//945 500//945 462//945
f 502//946 460//946 459//946
f 502//947 501//947 460//947
f 503//948 459//948 456//948
f 503//949 456//949 454//949
f 503//950 502//950 459//950
f 504//951 503//951 454//951
f 505//952 454//952 452//952
f 505//953 504//953 454//953
f 506//954 505//954 452//954
f 506//955 452//955 450//955
f 507//956 506//956 450//956
f 507//957 450//957 448//957
f 508//958 507//958 448//958
f 508//959 448//959 446//959
f 509//960 446//960 444//960
f 509//961 508//961 446//961
f 509//962 444//962 442//962
f 510//963 509//963 442//963
f 511//964 442//964 440//964
f 511//965 510//965 442//965
f 512//966 440//966 441//966
f 512//967 511//967 440//967
f 513//968 441//968 443//968
f 513//969 512//969 441//969
f 514//970 443//970 445//970
f 514//971 445//971 447//971
f 514//972 513//972 443//972
f 515//973 514//973 447//973
f 516//974 447//974 449//974
f 516//975 515//975 447//975
f 517//976 449//976 451//976
f 517//977 516//977 449//977
f 518//978 451//978 453//978
f 518//979 517//979 451//979
f 519//980 453//980 455//980
f 519//981 455//981 457//981
f 519//982 518//982 453//982
f 520//983 519//983 457//983
f 496//984 457//984 458//984
f 496//985 520//985 457//985
f 483//986 511//986 484//986
f 484//987 512//987 485//987
f 485//988 512//988 486//988
f 511//989 512//989 484//989
f 482//990 510//990 483//990
f 483//991 510//991 511//991
f 486//992 513//992 487//992
f 512//993 513//993 486//993
f 481//994 509//994 482//994
f 482//995 509//995 510//995
f 487//996 514//996 488//996
f 513//997 514//997 487//997
f 480//998 508//998 481//998
f 481//999 508//999 509//999
f 514//1000 515//1000 488//1000
f 515//1001 489//1001 488//1001
f 479//1002 507//1002 480//1002
f 480//1003 507//1003 508//1003
f 515//1004 516//1004 489//1004
f 516//1005 490//1005 489//1005
f 478//1006 506//1006 479//1006
f 479//1007 506//1007 507//1007
f 516//1008 517//1008 490//1008
f 517//1009 491//1009 490//1009
f 478//1010 505//1010 506//1010
f 478//1011 477//1011 505//1011
f 517//1012 518//1012 491//1012
f 518//1013 492//1013 491//1013
f 477//1014 504//1014 505//1014
f 477//1015 476//1015 504//1015
f 518//1016 519//1016 492//1016
f 519//1017 493//1017 492//1017
f 476//1018 475//1018 504//1018
f 504//1019 475//1019 503//1019
f 519//1020 520//1020 493//1020
f 520//1021 494//1021 493//1021
f 520//1022 496//1022 494//1022
f 475//1023 474//1023 503//1023
f 503//1024 474//1024 502//1024
f 496//1025 466//1025 494//1025
f 502//1026 473//1026 501//1026
f 474//1027 473//1027 502//1027
f 495//1028 467//1028 496//1028
f 496//1029 467//1029 466//1029
f 473//1030 472//1030 501//1030
f 501//1031 472//1031 500//1031
f 497//1032 468//1032 495//1032
f 495//1033 468//1033 467//1033
f 500//1034 471//1034 499//1034
f 472//1035 471//1035 500//1035
f 498//1036 469//1036 497//1036
f 497//1037 469//1037 468//1037
f 499//1038 470//1038 498//1038
f 471//1039 470//1039 499//1039
f 498//1040 470//1040 469//1040
