# Created by FreeCAD <https://www.freecad.org>
v -18.000000 -12.000000 9.250000
v -17.000000 -12.000000 8.500000
v -17.000000 -11.401711 8.427355
v -19.000000 -11.042737 9.883767
v -19.000000 -12.000000 10.000000
v -17.000000 -12.598289 8.427355
v -19.000000 -12.957263 9.883767
v -18.000000 -10.678106 8.969023
v -19.000000 -10.141108 9.541824
v -19.000000 -9.347509 8.994043
v -17.000000 -10.838192 8.213640
v -17.000000 -10.342194 7.871277
v -18.000000 -9.584780 8.174674
v -19.000000 -8.708064 8.272259
v -17.000000 -9.942540 7.420162
v -18.000000 -8.909066 7.004305
v -19.000000 -8.259935 7.418419
v -19.000000 -8.029164 6.482147
v -17.000000 -9.662459 6.886512
v -17.000000 -9.518228 6.301342
v -18.000000 -8.767804 5.660283
v -19.000000 -8.029164 5.517853
v -19.000000 -8.259935 4.581581
v -17.000000 -9.518228 5.698658
v -17.000000 -9.662459 5.113488
v -18.000000 -9.185417 4.375000
v -19.000000 -8.708064 3.727741
v -19.000000 -9.347509 3.005957
v -17.000000 -9.942540 4.579838
v -17.000000 -10.342194 4.128723
v -18.000000 -10.089698 3.370695
v -19.000000 -10.141108 2.458176
v -17.000000 -10.838192 3.786360
v -18.000000 -11.324287 2.821020
v -19.000000 -11.042737 2.116233
v -19.000000 -12.000000 2.000000
v -17.000000 -11.401711 3.572645
v -17.000000 -12.000000 3.500000
v -18.000000 -12.675713 2.821020
v -17.000000 -12.598289 3.572645
v -17.000000 -13.161808 3.786360
v -19.000000 -12.957263 2.116233
v -19.000000 -13.858892 2.458176
v -18.000000 -13.910302 3.370695
v -17.000000 -13.657806 4.128723
v -19.000000 -14.652491 3.005957
v -18.000000 -14.814583 4.375000
v -17.000000 -14.057460 4.579838
v -17.000000 -14.337541 5.113488
v -19.000000 -15.291936 3.727741
v -19.000000 -15.740065 4.581581
v -18.000000 -15.232196 5.660283
v -17.000000 -14.481772 5.698658
v -17.000000 -14.481772 6.301342
v -19.000000 -15.970836 5.517853
v -19.000000 -15.970836 6.482147
v -18.000000 -15.090934 7.004305
v -17.000000 -14.337541 6.886512
v -17.000000 -14.057460 7.420162
v -19.000000 -15.740065 7.418419
v -19.000000 -15.291936 8.272259
v -18.000000 -14.415220 8.174674
v -17.000000 -13.657806 7.871277
v -19.000000 -14.652491 8.994043
v -18.000000 -13.321894 8.969023
v -17.000000 -13.161808 8.213640
v -19.000000 -13.858892 9.541824
v -8.000000 -12.000000 3.500000
v -8.000000 -11.401711 3.572645
v -8.000000 -10.838192 3.786360
v -8.000000 -10.342194 4.128723
v -8.000000 -9.942540 4.579838
v -8.000000 -9.662459 5.113488
v -8.000000 -9.518228 5.698658
v -8.000000 -9.518228 6.301342
v -8.000000 -9.662459 6.886512
v -8.000000 -9.942540 7.420162
v -8.000000 -10.342194 7.871277
v -8.000000 -10.838192 8.213640
v -8.000000 -11.401711 8.427355
v -8.000000 -12.000000 8.500000
v -8.000000 -12.598289 8.427355
v -8.000000 -13.161808 8.213640
v -8.000000 -13.657806 7.871277
v -8.000000 -14.057460 7.420162
v -8.000000 -14.337541 6.886512
v -8.000000 -14.481772 6.301342
v -8.000000 -14.481772 5.698658
v -8.000000 -14.337541 5.113488
v -8.000000 -14.057460 4.579838
v -8.000000 -13.657806 4.128723
v -8.000000 -13.161808 3.786360
v -8.000000 -12.598289 3.572645
v -19.000000 84.291939 3.727741
v -19.000000 86.000000 -1.000000
v -19.000000 90.000000 3.000000
v -19.000000 83.652489 3.005957
v -19.000000 82.858894 2.458176
v -19.000000 84.740067 4.581581
v -19.000000 81.957260 2.116233
v -19.000000 84.970833 5.517853
v -19.000000 90.000000 9.000000
v -19.000000 81.000000 2.000000
v -19.000000 84.970833 6.482147
v -19.000000 80.042740 2.116233
v -19.000000 84.740067 7.418419
v -19.000000 79.141106 2.458176
v -19.000000 84.291939 8.272259
v -19.000000 86.000000 13.000000
v -19.000000 82.858894 9.541824
v -19.000000 83.652489 8.994043
v -19.000000 81.957260 9.883767
v -19.000000 81.000000 10.000000
v -19.000000 80.042740 9.883767
v -19.000000 79.141106 9.541824
v -19.000000 78.347511 3.005957
v -19.000000 77.708061 3.727741
v -19.000000 77.259933 4.581581
v -19.000000 77.029167 5.517853
v -19.000000 77.029167 6.482147
v -19.000000 77.259933 7.418419
v -19.000000 77.708061 8.272259
v -19.000000 -17.000000 -1.000000
v -19.000000 78.347511 8.994043
v -19.000000 -21.000000 3.000000
v -19.000000 -17.000000 13.000000
v -19.000000 -21.000000 9.000000
v -8.000000 -12.987580 6.681678
v -8.000000 -12.795747 6.898213
v -8.000000 -12.557668 7.062547
v -8.000000 -13.122020 6.425526
v -8.000000 -12.287179 7.165130
v -8.000000 -13.191251 6.144644
v -8.000000 -12.000000 7.200000
v -8.000000 -13.191251 5.855356
v -8.000000 -11.712821 7.165130
v -8.000000 -13.122020 5.574474
v -8.000000 -11.442332 7.062547
v -8.000000 -12.987580 5.318322
v -8.000000 -11.204253 6.898213
v -8.000000 -12.795747 5.101787
v -8.000000 -12.557668 4.937453
v -8.000000 -11.012420 6.681678
v -8.000000 -12.287179 4.834870
v -8.000000 -10.877980 6.425526
v -8.000000 -10.808749 6.144644
v -8.000000 -12.000000 4.800000
v -8.000000 -11.712821 4.834870
v -8.000000 -10.808749 5.855356
v -8.000000 -10.877980 5.574474
v -8.000000 -11.442332 4.937453
v -8.000000 -11.012420 5.318322
v -8.000000 -11.204253 5.101787
v -22.000000 90.000000 3.000000
v -22.000000 90.000000 9.000000
v -22.000000 86.000000 -1.000000
v -22.000000 86.000000 13.000000
v -22.000000 -17.000000 -1.000000
v -22.000000 -17.000000 13.000000
v -22.000000 -21.000000 3.000000
v -22.000000 -21.000000 9.000000
v -18.000000 81.000000 9.250000
v -17.000000 81.000000 8.500000
v -17.000000 81.598289 8.427355
v -17.000000 80.401711 8.427355
v -18.000000 82.321892 8.969023
v -17.000000 82.161804 8.213640
v -17.000000 82.657806 7.871277
v -18.000000 83.415222 8.174674
v -17.000000 83.057457 7.420162
v -18.000000 84.090935 7.004305
v -17.000000 83.337540 6.886512
v -17.000000 83.481773 6.301342
v -18.000000 84.232193 5.660283
v -17.000000 83.481773 5.698658
v -17.000000 83.337540 5.113488
v -18.000000 83.814583 4.375000
v -17.000000 83.057457 4.579838
v -17.000000 82.657806 4.128723
v -18.000000 82.910301 3.370695
v -17.000000 82.161804 3.786360
v -18.000000 81.675713 2.821020
v -17.000000 81.598289 3.572645
v -17.000000 81.000000 3.500000
v -18.000000 80.324287 2.821020
v -17.000000 80.401711 3.572645
v -17.000000 79.838196 3.786360
v -18.000000 79.089699 3.370695
v -17.000000 79.342194 4.128723
v -18.000000 78.185417 4.375000
v -17.000000 78.942543 4.579838
v -17.000000 78.662460 5.113488
v -18.000000 77.767807 5.660283
v -17.000000 78.518227 5.698658
v -17.000000 78.518227 6.301342
v -18.000000 77.909065 7.004305
v -17.000000 78.662460 6.886512
v -17.000000 78.942543 7.420162
v -18.000000 78.584778 8.174674
v -17.000000 79.342194 7.871277
v -18.000000 79.678108 8.969023
v -17.000000 79.838196 8.213640
v -16.000000 -11.712821 4.834870
v -16.000000 -12.000000 4.800000
v -16.000000 -11.442332 4.937453
v -16.000000 -11.204253 5.101787
v -16.000000 -11.012420 5.318322
v -16.000000 -10.877980 5.574474
v -16.000000 -10.808749 5.855356
v -16.000000 -10.808749 6.144644
v -16.000000 -10.877980 6.425526
v -16.000000 -11.012420 6.681678
v -16.000000 -11.204253 6.898213
v -16.000000 -11.442332 7.062547
v -16.000000 -11.712821 7.165130
v -16.000000 -12.000000 7.200000
v -16.000000 -12.287179 7.165130
v -16.000000 -12.557668 7.062547
v -16.000000 -12.795747 6.898213
v -16.000000 -12.987580 6.681678
v -16.000000 -13.122020 6.425526
v -16.000000 -13.191251 6.144644
v -16.000000 -13.191251 5.855356
v -16.000000 -13.122020 5.574474
v -16.000000 -12.987580 5.318322
v -16.000000 -12.795747 5.101787
v -16.000000 -12.557668 4.937453
v -16.000000 -12.287179 4.834870
v -8.000000 81.000000 3.500000
v -8.000000 81.598289 3.572645
v -8.000000 82.161804 3.786360
v -8.000000 82.657806 4.128723
v -8.000000 83.057457 4.579838
v -8.000000 83.337540 5.113488
v -8.000000 83.481773 5.698658
v -8.000000 83.481773 6.301342
v -8.000000 83.337540 6.886512
v -8.000000 83.057457 7.420162
v -8.000000 82.657806 7.871277
v -8.000000 82.161804 8.213640
v -8.000000 81.598289 8.427355
v -8.000000 81.000000 8.500000
v -8.000000 80.401711 8.427355
v -8.000000 79.838196 8.213640
v -8.000000 79.342194 7.871277
v -8.000000 78.942543 7.420162
v -8.000000 78.662460 6.886512
v -8.000000 78.518227 6.301342
v -8.000000 78.518227 5.698658
v -8.000000 78.662460 5.113488
v -8.000000 78.942543 4.579838
v -8.000000 79.342194 4.128723
v -8.000000 79.838196 3.786360
v -8.000000 80.401711 3.572645
v -8.000000 80.012421 6.681678
v -8.000000 80.204254 6.898213
v -8.000000 80.442329 7.062547
v -8.000000 79.877983 6.425526
v -8.000000 80.712822 7.165130
v -8.000000 79.808746 6.144644
v -8.000000 81.000000 7.200000
v -8.000000 79.808746 5.855356
v -8.000000 81.287178 7.165130
v -8.000000 79.877983 5.574474
v -8.000000 81.557671 7.062547
v -8.000000 80.012421 5.318322
v -8.000000 81.795746 6.898213
v -8.000000 80.204254 5.101787
v -8.000000 81.987579 6.681678
v -8.000000 80.442329 4.937453
v -8.000000 82.122017 6.425526
v -8.000000 80.712822 4.834870
v -8.000000 82.191254 6.144644
v -8.000000 82.191254 5.855356
v -8.000000 81.000000 4.800000
v -8.000000 81.287178 4.834870
v -8.000000 81.557671 4.937453
v -8.000000 82.122017 5.574474
v -8.000000 81.987579 5.318322
v -8.000000 81.795746 5.101787
v -16.000000 81.287178 4.834870
v -16.000000 81.000000 4.800000
v -16.000000 81.557671 4.937453
v -16.000000 81.795746 5.101787
v -16.000000 81.987579 5.318322
v -16.000000 82.122017 5.574474
v -16.000000 82.191254 5.855356
v -16.000000 82.191254 6.144644
v -16.000000 82.122017 6.425526
v -16.000000 81.987579 6.681678
v -16.000000 81.795746 6.898213
v -16.000000 81.557671 7.062547
v -16.000000 81.287178 7.165130
v -16.000000 81.000000 7.200000
v -16.000000 80.712822 7.165130
v -16.000000 80.442329 7.062547
v -16.000000 80.204254 6.898213
v -16.000000 80.012421 6.681678
v -16.000000 79.877983 6.425526
v -16.000000 79.808746 6.144644
v -16.000000 79.808746 5.855356
v -16.000000 79.877983 5.574474
v -16.000000 80.012421 5.318322
v -16.000000 80.204254 5.101787
v -16.000000 80.442329 4.937453
v -16.000000 80.712822 4.834870
vn 0.597189 0.096682 0.796252
vn 0.597189 0.096683 0.796252
vn 0.597189 -0.096682 0.796252
vn 0.597189 -0.096683 0.796252
vn 0.587498 0.286955 0.756639
vn 0.613290 0.448690 0.650040
vn 0.606625 0.281907 0.743327
vn 0.580332 0.462621 0.670221
vn 0.562467 0.171906 0.808752
vn 0.633591 0.160855 0.756762
vn 0.584808 0.607171 0.537906
vn 0.625811 0.458458 0.631013
vn 0.568288 0.483647 0.665683
vn 0.609158 0.593605 0.525889
vn 0.608711 0.702514 0.368707
vn 0.589281 0.784451 0.193350
vn 0.628506 0.673599 0.388903
vn 0.585286 0.717952 0.376810
vn 0.604927 0.773142 0.190563
vn 0.566297 0.713779 0.412101
vn 0.594136 0.804365 0.000000
vn 0.600645 0.776283 -0.191337
vn 0.600217 0.799837 0.000000
vn 0.593699 0.781304 -0.192574
vn 0.634311 0.768843 0.080808
vn 0.561916 0.822663 0.086465
vn 0.586155 0.717396 -0.376518
vn 0.618211 0.588338 -0.521223
vn 0.632387 0.736739 -0.239381
vn 0.563382 0.785759 -0.255308
vn 0.607894 0.703068 -0.368999
vn 0.574861 0.612470 -0.542601
vn 0.585257 0.460614 -0.667315
vn 0.570627 0.610278 -0.549497
vn 0.622598 0.581542 -0.523623
vn 0.608737 0.450687 -0.652932
vn 0.604491 0.282483 -0.744845
vn 0.591496 0.097190 -0.800429
vn 0.589736 0.286378 -0.755115
vn 0.602793 0.096176 -0.792080
vn 0.630694 0.315640 -0.708940
vn 0.564661 0.335689 -0.753970
vn 0.602793 -0.096176 -0.792080
vn 0.589736 -0.286378 -0.755115
vn 0.591496 -0.097190 -0.800429
vn 0.604491 -0.282483 -0.744845
vn 0.561733 0.000000 -0.827319
vn 0.634551 0.000000 -0.772881
vn 0.608737 -0.450687 -0.652932
vn 0.585257 -0.460614 -0.667315
vn 0.564661 -0.335689 -0.753970
vn 0.630694 -0.315640 -0.708940
vn 0.574861 -0.612470 -0.542601
vn 0.607894 -0.703068 -0.368999
vn 0.618211 -0.588338 -0.521223
vn 0.586155 -0.717396 -0.376518
vn 0.570626 -0.610278 -0.549497
vn 0.622598 -0.581542 -0.523623
vn 0.593699 -0.781304 -0.192574
vn 0.600217 -0.799837 0.000000
vn 0.600645 -0.776283 -0.191337
vn 0.594136 -0.804365 0.000000
vn 0.632387 -0.736739 -0.239381
vn 0.563383 -0.785759 -0.255308
vn 0.561916 -0.822663 0.086465
vn 0.634311 -0.768843 0.080808
vn 0.604927 -0.773142 0.190563
vn 0.585286 -0.717952 0.376810
vn 0.589281 -0.784451 0.193350
vn 0.608711 -0.702514 0.368707
vn 0.566297 -0.713779 0.412101
vn 0.609158 -0.593605 0.525889
vn 0.628506 -0.673599 0.388903
vn 0.584808 -0.607171 0.537906
vn 0.580332 -0.462621 0.670221
vn 0.606625 -0.281907 0.743327
vn 0.568288 -0.483647 0.665683
vn 0.625811 -0.458458 0.631013
vn 0.562467 -0.171906 0.808752
vn 0.613290 -0.448690 0.650040
vn 0.587498 -0.286955 0.756639
vn 0.633591 -0.160855 0.756762
vn 0.000000 0.120537 -0.992709
vn 0.000000 0.354605 -0.935016
vn 0.000000 0.120537 -0.992709
vn 0.000000 0.568065 -0.822984
vn 0.000000 0.354605 -0.935016
vn 0.000000 0.568065 -0.822984
vn 0.000000 0.748510 -0.663123
vn 0.000000 0.885456 -0.464723
vn 0.000000 0.748510 -0.663123
vn 0.000000 0.885456 -0.464723
vn 0.000000 0.970942 -0.239316
vn 0.000000 0.970942 -0.239316
vn 0.000000 1.000000 -0.000000
vn 0.000000 0.970942 0.239316
vn 0.000000 1.000000 0.000000
vn 0.000000 0.970942 0.239316
vn 0.000000 0.885456 0.464723
vn 0.000000 0.748510 0.663123
vn -0.000000 0.885456 0.464723
vn 0.000000 0.748510 0.663123
vn -0.000000 0.568065 0.822984
vn 0.000000 0.568065 0.822984
vn 0.000000 0.354605 0.935016
vn 0.000000 0.354605 0.935016
vn 0.000000 0.120536 0.992709
vn 0.000000 0.120536 0.992709
vn 0.000000 -0.120536 0.992709
vn 0.000000 -0.120536 0.992709
vn 0.000000 -0.354605 0.935016
vn 0.000000 -0.354605 0.935016
vn 0.000000 -0.568065 0.822984
vn 0.000000 -0.568065 0.822984
vn 0.000000 -0.748510 0.663123
vn 0.000000 -0.748510 0.663123
vn 0.000000 -0.885456 0.464723
vn 0.000000 -0.970942 0.239316
vn 0.000000 -0.885456 0.464723
vn 0.000000 -0.970942 0.239316
vn 0.000000 -1.000000 -0.000000
vn -0.000000 -0.970942 -0.239316
vn 0.000000 -1.000000 0.000000
vn 0.000000 -0.970942 -0.239316
vn 0.000000 -0.885456 -0.464723
vn 0.000000 -0.885456 -0.464723
vn 0.000000 -0.748510 -0.663123
vn -0.000000 -0.568065 -0.822984
vn 0.000000 -0.748510 -0.663123
vn 0.000000 -0.568065 -0.822984
vn 0.000000 -0.354605 -0.935016
vn -0.000000 -0.120537 -0.992709
vn 0.000000 -0.354605 -0.935016
vn 0.000000 -0.120537 -0.992709
vn 1.000000 0.000000 0.000000
vn 1.000000 0.000000 0.000000
vn 1.000000 -0.000000 0.000000
vn 1.000000 0.000000 0.000000
vn 1.000000 -0.000000 0.000000
vn 1.000000 -0.000000 0.000000
vn 1.000000 0.000000 0.000000
vn 1.000000 -0.000000 0.000000
vn 1.000000 -0.000000 0.000000
vn 1.000000 0.000000 0.000000
vn 1.000000 -0.000000 0.000000
vn 1.000000 0.000000 0.000000
vn 1.000000 -0.000000 0.000000
vn 1.000000 0.000000 0.000000
vn 1.000000 0.000000 0.000000
vn 1.000000 0.000000 0.000000
vn 1.000000 -0.000000 0.000000
vn 1.000000 -0.000000 0.000000
vn 1.000000 0.000000 0.000000
vn 1.000000 0.000000 0.000000
vn 1.000000 0.000000 0.000000
vn 1.000000 -0.000000 0.000000
vn 1.000000 0.000000 0.000000
vn 1.000000 0.000000 0.000000
vn 1.000000 0.000000 0.000000
vn 1.000000 -0.000000 0.000000
vn 1.000000 -0.000000 0.000000
vn 1.000000 0.000000 0.000000
vn 1.000000 0.000000 0.000000
vn 1.000000 -0.000000 0.000000
vn 1.000000 0.000000 0.000000
vn 1.000000 -0.000000 0.000000
vn 1.000000 0.000000 0.000000
vn 1.000000 0.000000 0.000000
vn 1.000000 0.000000 0.000000
vn 1.000000 0.000000 0.000000
vn 1.000000 0.000000 0.000000
vn 1.000000 -0.000000 0.000000
vn 1.000000 0.000000 0.000000
vn 1.000000 -0.000000 0.000000
vn 1.000000 0.000000 0.000000
vn 1.000000 0.000000 0.000000
vn 1.000000 0.000000 0.000000
vn 1.000000 -0.000000 0.000000
vn 1.000000 0.000000 0.000000
vn 1.000000 0.000000 0.000000
vn 1.000000 -0.000000 0.000000
vn 1.000000 0.000000 0.000000
vn 1.000000 0.000000 0.000000
vn 1.000000 0.000000 0.000000
vn 1.000000 0.000000 0.000000
vn 1.000000 0.000000 0.000000
vn 1.000000 0.000000 0.000000
vn 1.000000 0.000000 0.000000
vn 1.000000 0.000000 0.000000
vn 1.000000 0.000000 0.000000
vn 1.000000 0.000000 0.000000
vn 1.000000 -0.000000 0.000000
vn 1.000000 0.000000 0.000000
vn 1.000000 0.000000 0.000000
vn 1.000000 0.000000 0.000000
vn 1.000000 0.000000 0.000000
vn 1.000000 0.000000 0.000000
vn 1.000000 0.000000 -0.000000
vn 1.000000 0.000000 0.000000
vn 1.000000 0.000000 0.000000
vn 1.000000 0.000000 0.000000
vn 1.000000 0.000000 -0.000000
vn 1.000000 0.000000 0.000000
vn 1.000000 0.000000 0.000000
vn 1.000000 0.000000 0.000000
vn 1.000000 0.000000 -0.000000
vn 1.000000 0.000000 -0.000000
vn 1.000000 0.000000 0.000000
vn 1.000000 0.000000 0.000000
vn 1.000000 0.000000 -0.000000
vn 1.000000 0.000000 -0.000000
vn 1.000000 0.000000 0.000000
vn 1.000000 0.000000 0.000000
vn 1.000000 0.000000 0.000000
vn 1.000000 0.000000 0.000000
vn 1.000000 0.000000 -0.000000
vn 1.000000 0.000000 0.000000
vn 1.000000 0.000000 0.000000
vn 1.000000 0.000000 0.000000
vn 1.000000 0.000000 -0.000000
vn 1.000000 0.000000 -0.000000
vn 1.000000 0.000000 0.000000
vn 1.000000 0.000000 0.000000
vn 1.000000 0.000000 0.000000
vn 1.000000 0.000000 0.000000
vn 1.000000 0.000000 -0.000000
vn 1.000000 0.000000 0.000000
vn 1.000000 0.000000 0.000000
vn 1.000000 0.000000 0.000000
vn 1.000000 0.000000 0.000000
vn 1.000000 0.000000 -0.000000
vn 1.000000 0.000000 0.000000
vn 1.000000 0.000000 0.000000
vn 1.000000 0.000000 0.000000
vn 1.000000 0.000000 -0.000000
vn 1.000000 0.000000 -0.000000
vn 1.000000 0.000000 0.000000
vn 1.000000 0.000000 0.000000
vn 1.000000 0.000000 0.000000
vn 1.000000 0.000000 -0.000000
vn 1.000000 0.000000 0.000000
vn 1.000000 0.000000 0.000000
vn 1.000000 0.000000 -0.000000
vn 1.000000 0.000000 0.000000
vn 1.000000 0.000000 0.000000
vn 1.000000 0.000000 0.000000
vn 1.000000 0.000000 -0.000000
vn 1.000000 0.000000 0.000000
vn 0.000000 1.000000 0.000000
vn 0.000000 1.000000 0.000000
vn 0.000000 0.707107 -0.707107
vn 0.000000 0.707107 -0.707107
vn 0.000000 0.707107 0.707107
vn 0.000000 0.707107 0.707107
vn 0.000000 0.000000 -1.000000
vn 0.000000 0.000000 -1.000000
vn 0.000000 0.000000 1.000000
vn 0.000000 0.000000 1.000000
vn 0.000000 -0.707107 -0.707107
vn 0.000000 -0.707107 -0.707107
vn 0.000000 -0.707107 0.707107
vn 0.000000 -0.707107 0.707107
vn 0.000000 -1.000000 0.000000
vn 0.000000 -1.000000 0.000000
vn 0.597189 0.096682 0.796252
vn 0.597189 0.096683 0.796252
vn 0.597189 -0.096682 0.796252
vn 0.597189 -0.096683 0.796252
vn 0.587499 0.286954 0.756639
vn 0.613291 0.448691 0.650038
vn 0.606625 0.281908 0.743326
vn 0.580333 0.462618 0.670222
vn 0.562467 0.171906 0.808752
vn 0.633591 0.160855 0.756762
vn 0.584807 0.607169 0.537909
vn 0.625810 0.458457 0.631014
vn 0.568288 0.483646 0.665684
vn 0.609159 0.593607 0.525886
vn 0.608711 0.702514 0.368707
vn 0.589281 0.784452 0.193347
vn 0.628506 0.673599 0.388902
vn 0.585286 0.717950 0.376812
vn 0.604928 0.773141 0.190565
vn 0.566299 0.713778 0.412100
vn 0.594136 0.804365 0.000000
vn 0.600646 0.776284 -0.191333
vn 0.600215 0.799839 0.000000
vn 0.593697 0.781305 -0.192577
vn 0.634310 0.768844 0.080806
vn 0.561915 0.822664 0.086463
vn 0.586157 0.717395 -0.376516
vn 0.618213 0.588336 -0.521224
vn 0.632388 0.736738 -0.239379
vn 0.563382 0.785760 -0.255307
vn 0.607895 0.703066 -0.369000
vn 0.574862 0.612471 -0.542598
vn 0.585257 0.460615 -0.667314
vn 0.570626 0.610278 -0.549497
vn 0.622598 0.581542 -0.523623
vn 0.608738 0.450684 -0.652934
vn 0.604490 0.282482 -0.744846
vn 0.591496 0.097190 -0.800429
vn 0.589736 0.286380 -0.755115
vn 0.602793 0.096176 -0.792080
vn 0.630695 0.315640 -0.708940
vn 0.564661 0.335689 -0.753970
vn 0.602793 -0.096176 -0.792080
vn 0.589736 -0.286380 -0.755115
vn 0.591496 -0.097190 -0.800429
vn 0.604490 -0.282482 -0.744846
vn 0.561733 0.000000 -0.827319
vn 0.634551 0.000000 -0.772881
vn 0.608738 -0.450684 -0.652934
vn 0.585257 -0.460615 -0.667314
vn 0.564661 -0.335689 -0.753970
vn 0.630695 -0.315640 -0.708940
vn 0.574862 -0.612471 -0.542598
vn 0.607895 -0.703066 -0.369000
vn 0.618213 -0.588336 -0.521224
vn 0.586157 -0.717395 -0.376516
vn 0.570626 -0.610278 -0.549497
vn 0.622598 -0.581542 -0.523623
vn 0.593697 -0.781305 -0.192577
vn 0.600215 -0.799839 0.000000
vn 0.600646 -0.776284 -0.191333
vn 0.594136 -0.804365 0.000000
vn 0.632388 -0.736738 -0.239379
vn 0.563382 -0.785760 -0.255307
vn 0.561915 -0.822664 0.086463
vn 0.634310 -0.768844 0.080806
vn 0.604928 -0.773141 0.190565
vn 0.585286 -0.717950 0.376812
vn 0.589281 -0.784452 0.193347
vn 0.608711 -0.702514 0.368707
vn 0.609159 -0.593607 0.525886
vn 0.628506 -0.673599 0.388902
vn 0.566299 -0.713778 0.412100
vn 0.584807 -0.607169 0.537909
vn 0.562467 -0.171906 0.808752
vn 0.625810 -0.458457 0.631014
vn 0.580333 -0.462618 0.670222
vn 0.606625 -0.281908 0.743326
vn 0.613291 -0.448691 0.650038
vn 0.587499 -0.286954 0.756639
vn 0.633591 -0.160855 0.756762
vn 0.568288 -0.483646 0.665684
vn 0.000000 -0.120536 0.992709
vn 0.000000 -0.120536 0.992709
vn 0.000000 -0.354605 0.935016
vn 0.000000 -0.354605 0.935016
vn 0.000000 -0.568065 0.822984
vn 0.000000 -0.568065 0.822984
vn 0.000000 -0.748510 0.663123
vn 0.000000 -0.748510 0.663123
vn 0.000000 -0.885455 0.464724
vn 0.000000 -0.885455 0.464724
vn 0.000000 -0.970942 0.239315
vn 0.000000 -0.970942 0.239315
vn 0.000000 -1.000000 0.000000
vn 0.000000 -1.000000 0.000000
vn 0.000000 -0.970942 -0.239315
vn 0.000000 -0.970942 -0.239315
vn 0.000000 -0.885455 -0.464724
vn 0.000000 -0.885455 -0.464724
vn 0.000000 -0.748510 -0.663123
vn 0.000000 -0.748510 -0.663123
vn 0.000000 -0.568065 -0.822984
vn 0.000000 -0.568065 -0.822984
vn 0.000000 -0.354605 -0.935016
vn 0.000000 -0.354605 -0.935016
vn 0.000000 -0.120536 -0.992709
vn 0.000000 -0.120536 -0.992709
vn 0.000000 0.120536 -0.992709
vn 0.000000 0.120536 -0.992709
vn 0.000000 0.354605 -0.935016
vn 0.000000 0.354605 -0.935016
vn 0.000000 0.568065 -0.822984
vn 0.000000 0.568065 -0.822984
vn 0.000000 0.748510 -0.663123
vn 0.000000 0.748510 -0.663123
vn 0.000000 0.885455 -0.464724
vn 0.000000 0.885455 -0.464724
vn 0.000000 0.970942 -0.239315
vn -0.000000 1.000000 0.000000
vn 0.000000 0.970942 -0.239315
vn -0.000000 0.970942 0.239315
vn 0.000000 1.000000 0.000000
vn -0.000000 0.970942 0.239315
vn -0.000000 0.885455 0.464724
vn 0.000000 0.885455 0.464724
vn -0.000000 0.748510 0.663123
vn 0.000000 0.748510 0.663123
vn -0.000000 0.568065 0.822984
vn 0.000000 0.568065 0.822984
vn -0.000000 0.354605 0.935016
vn 0.000000 0.354605 0.935016
vn -0.000000 0.120536 0.992709
vn 0.000000 0.120536 0.992709
vn -1.000000 0.000000 0.000000
vn -1.000000 0.000000 0.000000
vn -1.000000 0.000000 0.000000
vn -1.000000 0.000000 0.000000
vn -1.000000 0.000000 0.000000
vn -1.000000 0.000000 0.000000
vn 0.000000 0.120537 -0.992709
vn 0.000000 0.354607 -0.935015
vn 0.000000 0.120537 -0.992709
vn 0.000000 0.568062 -0.822986
vn 0.000000 0.354607 -0.935015
vn 0.000000 0.568062 -0.822986
vn 0.000000 0.748513 -0.663120
vn 0.000000 0.885455 -0.464726
vn 0.000000 0.748513 -0.663120
vn 0.000000 0.885455 -0.464726
vn 0.000000 0.970941 -0.239319
vn 0.000000 0.970941 -0.239319
vn 0.000000 1.000000 -0.000000
vn 0.000000 0.970941 0.239319
vn 0.000000 1.000000 0.000000
vn 0.000000 0.970941 0.239319
vn 0.000000 0.885455 0.464726
vn 0.000000 0.748513 0.663120
vn -0.000000 0.885455 0.464726
vn 0.000000 0.748513 0.663120
vn -0.000000 0.568062 0.822986
vn 0.000000 0.568062 0.822986
vn 0.000000 0.354607 0.935015
vn 0.000000 0.354607 0.935015
vn 0.000000 0.120536 0.992709
vn 0.000000 0.120536 0.992709
vn 0.000000 -0.120536 0.992709
vn 0.000000 -0.120536 0.992709
vn 0.000000 -0.354607 0.935015
vn 0.000000 -0.354607 0.935015
vn 0.000000 -0.568062 0.822986
vn 0.000000 -0.568062 0.822986
vn 0.000000 -0.748513 0.663120
vn 0.000000 -0.748513 0.663120
vn 0.000000 -0.885455 0.464726
vn 0.000000 -0.970941 0.239319
vn 0.000000 -0.885455 0.464726
vn 0.000000 -0.970941 0.239319
vn 0.000000 -1.000000 -0.000000
vn -0.000000 -0.970941 -0.239319
vn 0.000000 -1.000000 0.000000
vn 0.000000 -0.970941 -0.239319
vn 0.000000 -0.885455 -0.464726
vn 0.000000 -0.885455 -0.464726
vn 0.000000 -0.748513 -0.663120
vn -0.000000 -0.568062 -0.822986
vn 0.000000 -0.748513 -0.663120
vn 0.000000 -0.568062 -0.822986
vn 0.000000 -0.354607 -0.935015
vn -0.000000 -0.120537 -0.992709
vn 0.000000 -0.354607 -0.935015
vn 0.000000 -0.120537 -0.992709
vn 1.000000 0.000000 0.000000
vn 1.000000 0.000000 0.000000
vn 1.000000 0.000000 0.000000
vn 1.000000 0.000000 0.000000
vn 1.000000 0.000000 0.000000
vn 1.000000 0.000000 0.000000
vn 1.000000 0.000000 0.000000
vn 1.000000 0.000000 0.000000
vn 1.000000 0.000000 0.000000
vn 1.000000 0.000000 0.000000
vn 1.000000 0.000000 0.000000
vn 1.000000 0.000000 0.000000
vn 1.000000 0.000000 0.000000
vn 1.000000 0.000000 0.000000
vn 1.000000 0.000000 0.000000
vn 1.000000 0.000000 0.000000
vn 1.000000 0.000000 0.000000
vn 1.000000 0.000000 0.000000
vn 1.000000 0.000000 0.000000
vn 1.000000 0.000000 0.000000
vn 1.000000 0.000000 0.000000
vn 1.000000 0.000000 -0.000000
vn 1.000000 0.000000 0.000000
vn 1.000000 0.000000 0.000000
vn 1.000000 0.000000 0.000000
vn 1.000000 0.000000 -0.000000
vn 1.000000 0.000000 0.000000
vn 1.000000 0.000000 0.000000
vn 1.000000 0.000000 0.000000
vn 1.000000 0.000000 -0.000000
vn 1.000000 0.000000 0.000000
vn 1.000000 0.000000 0.000000
vn 1.000000 0.000000 0.000000
vn 1.000000 0.000000 -0.000000
vn 1.000000 0.000000 -0.000000
vn 1.000000 0.000000 0.000000
vn 1.000000 0.000000 0.000000
vn 1.000000 0.000000 -0.000000
vn 1.000000 0.000000 -0.000000
vn 1.000000 0.000000 0.000000
vn 1.000000 0.000000 0.000000
vn 1.000000 0.000000 0.000000
vn 1.000000 0.000000 0.000000
vn 1.000000 0.000000 -0.000000
vn 1.000000 0.000000 0.000000
vn 1.000000 0.000000 0.000000
vn 1.000000 0.000000 0.000000
vn 1.000000 0.000000 -0.000000
vn 1.000000 0.000000 0.000000
vn 1.000000 0.000000 -0.000000
vn 1.000000 0.000000 -0.000000
vn 1.000000 0.000000 0.000000
vn 1.000000 0.000000 0.000000
vn 1.000000 0.000000 -0.000000
vn 1.000000 0.000000 0.000000
vn 1.000000 0.000000 0.000000
vn 1.000000 0.000000 -0.000000
vn 1.000000 0.000000 0.000000
vn 1.000000 0.000000 0.000000
vn 1.000000 0.000000 0.000000
vn 1.000000 0.000000 0.000000
vn 1.000000 0.000000 0.000000
vn 1.000000 0.000000 -0.000000
vn 1.000000 0.000000 -0.000000
vn 1.000000 0.000000 0.000000
vn 1.000000 0.000000 0.000000
vn 1.000000 0.000000 0.000000
vn 1.000000 0.000000 0.000000
vn 1.000000 0.000000 -0.000000
vn 1.000000 0.000000 0.000000
vn 1.000000 0.000000 0.000000
vn 1.000000 0.000000 -0.000000
vn 1.000000 0.000000 0.000000
vn 1.000000 0.000000 0.000000
vn 1.000000 0.000000 -0.000000
vn 1.000000 0.000000 0.000000
vn 0.000000 -0.120536 0.992709
vn 0.000000 -0.120536 0.992709
vn 0.000000 -0.354601 0.935018
vn 0.000000 -0.354601 0.935018
vn 0.000000 -0.568071 0.822979
vn 0.000000 -0.568071 0.822979
vn 0.000000 -0.748510 0.663123
vn 0.000000 -0.748510 0.663123
vn 0.000000 -0.885458 0.464719
vn 0.000000 -0.885458 0.464719
vn 0.000000 -0.970937 0.239334
vn 0.000000 -0.970937 0.239334
vn 0.000000 -1.000000 0.000000
vn 0.000000 -1.000000 0.000000
vn 0.000000 -0.970937 -0.239334
vn 0.000000 -0.970937 -0.239334
vn 0.000000 -0.885458 -0.464719
vn 0.000000 -0.885458 -0.464719
vn 0.000000 -0.748510 -0.663123
vn 0.000000 -0.748510 -0.663123
vn 0.000000 -0.568071 -0.822979
vn 0.000000 -0.568071 -0.822979
vn 0.000000 -0.354601 -0.935018
vn 0.000000 -0.354601 -0.935018
vn 0.000000 -0.120536 -0.992709
vn 0.000000 -0.120536 -0.992709
vn 0.000000 0.120536 -0.992709
vn 0.000000 0.120536 -0.992709
vn 0.000000 0.354601 -0.935018
vn 0.000000 0.354601 -0.935018
vn 0.000000 0.568071 -0.822979
vn 0.000000 0.568071 -0.822979
vn 0.000000 0.748510 -0.663123
vn 0.000000 0.748510 -0.663123
vn 0.000000 0.885458 -0.464719
vn 0.000000 0.885458 -0.464719
vn 0.000000 0.970937 -0.239334
vn -0.000000 1.000000 0.000000
vn 0.000000 0.970937 -0.239334
vn -0.000000 0.970937 0.239334
vn 0.000000 1.000000 0.000000
vn -0.000000 0.970937 0.239334
vn -0.000000 0.885458 0.464719
vn 0.000000 0.885458 0.464719
vn -0.000000 0.748510 0.663123
vn 0.000000 0.748510 0.663123
vn -0.000000 0.568071 0.822979
vn 0.000000 0.568071 0.822979
vn -0.000000 0.354601 0.935018
vn 0.000000 0.354601 0.935018
vn -0.000000 0.120536 0.992709
vn 0.000000 0.120536 0.992709
vn 1.000000 0.000000 0.000000
vn 1.000000 0.000000 0.000000
vn 1.000000 0.000000 0.000000
vn 1.000000 0.000000 0.000000
vn 1.000000 0.000000 0.000000
vn 1.000000 0.000000 0.000000
vn 1.000000 0.000000 0.000000
vn 1.000000 0.000000 0.000000
vn 1.000000 0.000000 0.000000
vn 1.000000 0.000000 0.000000
vn 1.000000 0.000000 0.000000
vn 1.000000 0.000000 0.000000
vn 1.000000 0.000000 -0.000000
vn 1.000000 0.000000 0.000000
vn 1.000000 0.000000 0.000000
vn 1.000000 0.000000 -0.000000
vn 1.000000 0.000000 0.000000
vn 1.000000 0.000000 0.000000
vn 1.000000 0.000000 -0.000000
vn 1.000000 0.000000 0.000000
vn 1.000000 0.000000 0.000000
vn 1.000000 0.000000 0.000000
vn 1.000000 0.000000 0.000000
vn 1.000000 0.000000 -0.000000
f 1//1 2//1 3//1
f 4//2 5//2 1//2
f 1//3 6//3 2//3
f 5//4 7//4 1//4
f 8//5 9//5 4//5
f 8//6 10//6 9//6
f 8//7 3//7 11//7
f 8//8 11//8 12//8
f 8//9 1//9 3//9
f 8//10 4//10 1//10
f 13//11 14//11 10//11
f 13//12 10//12 8//12
f 13//13 8//13 12//13
f 13//14 12//14 15//14
f 16//15 17//15 14//15
f 16//16 18//16 17//16
f 16//17 14//17 13//17
f 16//18 15//18 19//18
f 16//19 19//19 20//19
f 16//20 13//20 15//20
f 21//21 22//21 18//21
f 21//22 23//22 22//22
f 21//23 20//23 24//23
f 21//24 24//24 25//24
f 21//25 18//25 16//25
f 21//26 16//26 20//26
f 26//27 27//27 23//27
f 26//28 28//28 27//28
f 26//29 23//29 21//29
f 26//30 21//30 25//30
f 26//31 25//31 29//31
f 26//32 29//32 30//32
f 31//33 32//33 28//33
f 31//34 26//34 30//34
f 31//35 28//35 26//35
f 31//36 30//36 33//36
f 34//37 35//37 32//37
f 34//38 36//38 35//38
f 34//39 33//39 37//39
f 34//40 37//40 38//40
f 34//41 32//41 31//41
f 34//42 31//42 33//42
f 39//43 38//43 40//43
f 39//44 40//44 41//44
f 39//45 42//45 36//45
f 39//46 43//46 42//46
f 39//47 34//47 38//47
f 39//48 36//48 34//48
f 44//49 41//49 45//49
f 44//50 46//50 43//50
f 44//51 39//51 41//51
f 44//52 43//52 39//52
f 47//53 45//53 48//53
f 47//54 48//54 49//54
f 47//55 50//55 46//55
f 47//56 51//56 50//56
f 47//57 44//57 45//57
f 47//58 46//58 44//58
f 52//59 49//59 53//59
f 52//60 53//60 54//60
f 52//61 55//61 51//61
f 52//62 56//62 55//62
f 52//63 51//63 47//63
f 52//64 47//64 49//64
f 57//65 52//65 54//65
f 57//66 56//66 52//66
f 57//67 54//67 58//67
f 57//68 58//68 59//68
f 57//69 60//69 56//69
f 57//70 61//70 60//70
f 62//71 57//71 59//71
f 62//72 59//72 63//72
f 62//73 61//73 57//73
f 62//74 64//74 61//74
f 65//75 63//75 66//75
f 65//76 66//76 6//76
f 65//77 62//77 63//77
f 65//78 64//78 62//78
f 65//79 6//79 1//79
f 65//80 67//80 64//80
f 65//81 7//81 67//81
f 65//82 1//82 7//82
f 68//83 38//83 69//83
f 69//84 37//84 70//84
f 38//85 37//85 69//85
f 70//86 33//86 71//86
f 37//87 33//87 70//87
f 33//88 30//88 71//88
f 71//89 29//89 72//89
f 72//90 29//90 73//90
f 30//91 29//91 71//91
f 29//92 25//92 73//92
f 73//93 24//93 74//93
f 25//94 24//94 73//94
f 74//95 20//95 75//95
f 75//96 20//96 76//96
f 24//97 20//97 74//97
f 20//98 19//98 76//98
f 76//99 15//99 77//99
f 77//100 15//100 78//100
f 19//101 15//101 76//101
f 15//102 12//102 78//102
f 12//103 11//103 78//103
f 78//104 11//104 79//104
f 79//105 11//105 80//105
f 11//106 3//106 80//106
f 80//107 3//107 81//107
f 3//108 2//108 81//108
f 2//109 6//109 81//109
f 81//110 6//110 82//110
f 82//111 6//111 83//111
f 6//112 66//112 83//112
f 83//113 66//113 84//113
f 66//114 63//114 84//114
f 63//115 59//115 84//115
f 84//116 59//116 85//116
f 85//117 59//117 86//117
f 86//118 58//118 87//118
f 59//119 58//119 86//119
f 58//120 54//120 87//120
f 87//121 53//121 88//121
f 88//122 53//122 89//122
f 54//123 53//123 87//123
f 53//124 49//124 89//124
f 89//125 48//125 90//125
f 49//126 48//126 89//126
f 90//127 45//127 91//127
f 91//128 45//128 92//128
f 48//129 45//129 90//129
f 45//130 41//130 92//130
f 92//131 40//131 93//131
f 93//132 40//132 68//132
f 41//133 40//133 92//133
f 40//134 38//134 68//134
f 94//135 95//135 96//135
f 94//136 97//136 95//136
f 98//137 95//137 97//137
f 99//138 94//138 96//138
f 100//139 95//139 98//139
f 101//140 96//140 102//140
f 101//141 99//141 96//141
f 103//142 95//142 100//142
f 104//143 101//143 102//143
f 105//144 95//144 103//144
f 106//145 104//145 102//145
f 107//146 95//146 105//146
f 108//147 106//147 102//147
f 109//148 110//148 111//148
f 109//149 111//149 108//149
f 109//150 108//150 102//150
f 112//151 110//151 109//151
f 113//152 112//152 109//152
f 114//153 113//153 109//153
f 115//154 114//154 109//154
f 27//155 28//155 116//155
f 27//156 116//156 117//156
f 27//157 117//157 118//157
f 32//158 116//158 28//158
f 32//159 107//159 116//159
f 23//160 27//160 118//160
f 22//161 118//161 119//161
f 22//162 23//162 118//162
f 18//163 22//163 119//163
f 18//164 119//164 120//164
f 17//165 18//165 120//165
f 17//166 120//166 121//166
f 17//167 121//167 122//167
f 123//168 32//168 35//168
f 123//169 35//169 36//169
f 123//170 36//170 42//170
f 43//171 123//171 42//171
f 14//172 17//172 122//172
f 46//173 123//173 43//173
f 10//174 122//174 124//174
f 10//175 124//175 115//175
f 10//176 14//176 122//176
f 50//177 123//177 46//177
f 9//178 10//178 115//178
f 125//179 50//179 51//179
f 125//180 51//180 55//180
f 125//181 123//181 50//181
f 126//182 5//182 4//182
f 126//183 4//183 9//183
f 126//184 61//184 64//184
f 126//185 64//185 67//185
f 126//186 67//186 7//186
f 126//187 7//187 5//187
f 127//188 55//188 56//188
f 127//189 56//189 60//189
f 127//190 60//190 61//190
f 127//191 125//191 55//191
f 127//192 61//192 126//192
f 109//193 126//193 9//193
f 109//194 9//194 115//194
f 123//195 95//195 107//195
f 123//196 107//196 32//196
f 128//197 84//197 85//197
f 128//198 129//198 84//198
f 130//199 83//199 84//199
f 130//200 84//200 129//200
f 131//201 85//201 86//201
f 131//202 128//202 85//202
f 132//203 82//203 83//203
f 132//204 83//204 130//204
f 133//205 86//205 87//205
f 133//206 131//206 86//206
f 134//207 81//207 82//207
f 134//208 82//208 132//208
f 135//209 87//209 88//209
f 135//210 133//210 87//210
f 136//211 80//211 81//211
f 136//212 81//212 134//212
f 137//213 88//213 89//213
f 137//214 135//214 88//214
f 138//215 79//215 80//215
f 138//216 80//216 136//216
f 139//217 89//217 90//217
f 139//218 137//218 89//218
f 140//219 78//219 79//219
f 140//220 79//220 138//220
f 91//221 139//221 90//221
f 91//222 141//222 139//222
f 142//223 141//223 91//223
f 77//224 78//224 140//224
f 77//225 140//225 143//225
f 92//226 142//226 91//226
f 92//227 144//227 142//227
f 76//228 77//228 143//228
f 76//229 145//229 146//229
f 76//230 143//230 145//230
f 93//231 144//231 92//231
f 93//232 147//232 144//232
f 75//233 76//233 146//233
f 68//234 148//234 147//234
f 68//235 147//235 93//235
f 74//236 75//236 146//236
f 74//237 146//237 149//237
f 69//238 148//238 68//238
f 73//239 149//239 150//239
f 73//240 74//240 149//240
f 70//241 151//241 148//241
f 70//242 148//242 69//242
f 72//243 73//243 150//243
f 72//244 152//244 153//244
f 72//245 150//245 152//245
f 71//246 153//246 151//246
f 71//247 72//247 153//247
f 71//248 151//248 70//248
f 102//249 96//249 154//249
f 102//250 154//250 155//250
f 156//251 154//251 96//251
f 95//252 156//252 96//252
f 155//253 157//253 109//253
f 102//254 155//254 109//254
f 156//255 95//255 158//255
f 158//256 95//256 123//256
f 109//257 157//257 159//257
f 109//258 159//258 126//258
f 158//259 123//259 160//259
f 160//260 123//260 125//260
f 126//261 159//261 161//261
f 126//262 161//262 127//262
f 125//263 127//263 160//263
f 160//264 127//264 161//264
f 162//265 163//265 164//265
f 112//266 113//266 162//266
f 162//267 165//267 163//267
f 113//268 114//268 162//268
f 166//269 110//269 112//269
f 166//270 111//270 110//270
f 166//271 164//271 167//271
f 166//272 167//272 168//272
f 166//273 162//273 164//273
f 166//274 112//274 162//274
f 169//275 108//275 111//275
f 169//276 111//276 166//276
f 169//277 166//277 168//277
f 169//278 168//278 170//278
f 171//279 106//279 108//279
f 171//280 104//280 106//280
f 171//281 108//281 169//281
f 171//282 170//282 172//282
f 171//283 172//283 173//283
f 171//284 169//284 170//284
f 174//285 101//285 104//285
f 174//286 99//286 101//286
f 174//287 173//287 175//287
f 174//288 175//288 176//288
f 174//289 104//289 171//289
f 174//290 171//290 173//290
f 177//291 94//291 99//291
f 177//292 97//292 94//292
f 177//293 99//293 174//293
f 177//294 174//294 176//294
f 177//295 176//295 178//295
f 177//296 178//296 179//296
f 180//297 98//297 97//297
f 180//298 177//298 179//298
f 180//299 97//299 177//299
f 180//300 179//300 181//300
f 182//301 100//301 98//301
f 182//302 103//302 100//302
f 182//303 181//303 183//303
f 182//304 183//304 184//304
f 182//305 98//305 180//305
f 182//306 180//306 181//306
f 185//307 184//307 186//307
f 185//308 186//308 187//308
f 185//309 105//309 103//309
f 185//310 107//310 105//310
f 185//311 182//311 184//311
f 185//312 103//312 182//312
f 188//313 187//313 189//313
f 188//314 116//314 107//314
f 188//315 185//315 187//315
f 188//316 107//316 185//316
f 190//317 189//317 191//317
f 190//318 191//318 192//318
f 190//319 117//319 116//319
f 190//320 118//320 117//320
f 190//321 188//321 189//321
f 190//322 116//322 188//322
f 193//323 192//323 194//323
f 193//324 194//324 195//324
f 193//325 119//325 118//325
f 193//326 120//326 119//326
f 193//327 118//327 190//327
f 193//328 190//328 192//328
f 196//329 193//329 195//329
f 196//330 120//330 193//330
f 196//331 195//331 197//331
f 196//332 197//332 198//332
f 196//333 121//333 120//333
f 196//334 122//334 121//334
f 199//335 198//335 200//335
f 199//336 122//336 196//336
f 199//337 196//337 198//337
f 199//338 124//338 122//338
f 201//339 165//339 162//339
f 201//340 124//340 199//340
f 201//341 200//341 202//341
f 201//342 202//342 165//342
f 201//343 115//343 124//343
f 201//344 114//344 115//344
f 201//345 162//345 114//345
f 201//346 199//346 200//346
f 203//347 204//347 147//347
f 203//348 147//348 148//348
f 205//349 148//349 151//349
f 205//350 203//350 148//350
f 206//351 151//351 153//351
f 206//352 205//352 151//352
f 207//353 153//353 152//353
f 207//354 206//354 153//354
f 208//355 152//355 150//355
f 208//356 207//356 152//356
f 209//357 150//357 149//357
f 209//358 208//358 150//358
f 210//359 149//359 146//359
f 210//360 209//360 149//360
f 211//361 146//361 145//361
f 211//362 210//362 146//362
f 212//363 145//363 143//363
f 212//364 211//364 145//364
f 213//365 143//365 140//365
f 213//366 212//366 143//366
f 214//367 140//367 138//367
f 214//368 213//368 140//368
f 215//369 214//369 138//369
f 215//370 138//370 136//370
f 216//371 215//371 136//371
f 216//372 136//372 134//372
f 217//373 134//373 132//373
f 217//374 216//374 134//374
f 218//375 132//375 130//375
f 218//376 217//376 132//376
f 219//377 130//377 129//377
f 219//378 218//378 130//378
f 220//379 129//379 128//379
f 220//380 219//380 129//380
f 221//381 128//381 131//381
f 221//382 220//382 128//382
f 222//383 131//383 133//383
f 222//384 133//384 135//384
f 222//385 221//385 131//385
f 223//386 135//386 137//386
f 223//387 222//387 135//387
f 224//388 223//388 137//388
f 225//389 137//389 139//389
f 225//390 224//390 137//390
f 226//391 139//391 141//391
f 226//392 225//392 139//392
f 227//393 141//393 142//393
f 227//394 226//394 141//394
f 228//395 142//395 144//395
f 228//396 227//396 142//396
f 204//397 144//397 147//397
f 204//398 228//398 144//398
f 156//399 155//399 154//399
f 156//400 157//400 155//400
f 158//401 159//401 156//401
f 156//402 159//402 157//402
f 160//403 161//403 158//403
f 158//404 161//404 159//404
f 229//405 184//405 230//405
f 230//406 183//406 231//406
f 184//407 183//407 230//407
f 231//408 181//408 232//408
f 183//409 181//409 231//409
f 181//410 179//410 232//410
f 232//411 178//411 233//411
f 233//412 178//412 234//412
f 179//413 178//413 232//413
f 178//414 176//414 234//414
f 234//415 175//415 235//415
f 176//416 175//416 234//416
f 235//417 173//417 236//417
f 236//418 173//418 237//418
f 175//419 173//419 235//419
f 173//420 172//420 237//420
f 237//421 170//421 238//421
f 238//422 170//422 239//422
f 172//423 170//423 237//423
f 170//424 168//424 239//424
f 168//425 167//425 239//425
f 239//426 167//426 240//426
f 240//427 167//427 241//427
f 167//428 164//428 241//428
f 241//429 164//429 242//429
f 164//430 163//430 242//430
f 163//431 165//431 242//431
f 242//432 165//432 243//432
f 243//433 165//433 244//433
f 165//434 202//434 244//434
f 244//435 202//435 245//435
f 202//436 200//436 245//436
f 200//437 198//437 245//437
f 245//438 198//438 246//438
f 246//439 198//439 247//439
f 247//440 197//440 248//440
f 198//441 197//441 247//441
f 197//442 195//442 248//442
f 248//443 194//443 249//443
f 249//444 194//444 250//444
f 195//445 194//445 248//445
f 194//446 192//446 250//446
f 250//447 191//447 251//447
f 192//448 191//448 250//448
f 251//449 189//449 252//449
f 252//450 189//450 253//450
f 191//451 189//451 251//451
f 189//452 187//452 253//452
f 253//453 186//453 254//453
f 254//454 186//454 229//454
f 187//455 186//455 253//455
f 186//456 184//456 229//456
f 225//457 223//457 224//457
f 211//458 212//458 213//458
f 211//459 213//459 214//459
f 204//460 227//460 228//460
f 208//461 209//461 210//461
f 208//462 210//462 211//462
f 206//463 204//463 203//463
f 206//464 203//464 205//464
f 206//465 207//465 208//465
f 206//466 214//466 215//466
f 206//467 215//467 216//467
f 206//468 216//468 217//468
f 206//469 217//469 218//469
f 206//470 218//470 219//470
f 206//471 219//471 220//471
f 206//472 220//472 221//472
f 206//473 221//473 222//473
f 206//474 222//474 223//474
f 206//475 225//475 226//475
f 206//476 226//476 227//476
f 206//477 223//477 225//477
f 206//478 211//478 214//478
f 206//479 227//479 204//479
f 206//480 208//480 211//480
f 255//481 245//481 246//481
f 255//482 256//482 245//482
f 257//483 244//483 245//483
f 257//484 245//484 256//484
f 258//485 246//485 247//485
f 258//486 255//486 246//486
f 259//487 243//487 244//487
f 259//488 244//488 257//488
f 260//489 247//489 248//489
f 260//490 258//490 247//490
f 261//491 242//491 243//491
f 261//492 243//492 259//492
f 262//493 248//493 249//493
f 262//494 260//494 248//494
f 263//495 241//495 242//495
f 263//496 242//496 261//496
f 264//497 249//497 250//497
f 264//498 262//498 249//498
f 265//499 240//499 241//499
f 265//500 241//500 263//500
f 266//501 250//501 251//501
f 266//502 264//502 250//502
f 267//503 239//503 240//503
f 267//504 240//504 265//504
f 252//505 268//505 266//505
f 252//506 266//506 251//506
f 269//507 239//507 267//507
f 238//508 239//508 269//508
f 253//509 270//509 268//509
f 253//510 268//510 252//510
f 237//511 238//511 269//511
f 237//512 269//512 271//512
f 254//513 270//513 253//513
f 254//514 272//514 270//514
f 236//515 237//515 271//515
f 236//516 273//516 274//516
f 236//517 271//517 273//517
f 229//518 272//518 254//518
f 229//519 275//519 272//519
f 235//520 236//520 274//520
f 230//521 276//521 275//521
f 230//522 277//522 276//522
f 230//523 275//523 229//523
f 234//524 274//524 278//524
f 234//525 235//525 274//525
f 231//526 277//526 230//526
f 233//527 278//527 279//527
f 233//528 234//528 278//528
f 232//529 280//529 277//529
f 232//530 279//530 280//530
f 232//531 233//531 279//531
f 232//532 277//532 231//532
f 281//533 282//533 275//533
f 281//534 275//534 276//534
f 283//535 276//535 277//535
f 283//536 281//536 276//536
f 284//537 277//537 280//537
f 284//538 283//538 277//538
f 285//539 280//539 279//539
f 285//540 284//540 280//540
f 286//541 279//541 278//541
f 286//542 285//542 279//542
f 287//543 278//543 274//543
f 287//544 286//544 278//544
f 288//545 274//545 273//545
f 288//546 287//546 274//546
f 289//547 273//547 271//547
f 289//548 288//548 273//548
f 290//549 271//549 269//549
f 290//550 289//550 271//550
f 291//551 269//551 267//551
f 291//552 290//552 269//552
f 292//553 267//553 265//553
f 292//554 291//554 267//554
f 293//555 292//555 265//555
f 293//556 265//556 263//556
f 294//557 293//557 263//557
f 294//558 263//558 261//558
f 295//559 261//559 259//559
f 295//560 294//560 261//560
f 296//561 259//561 257//561
f 296//562 295//562 259//562
f 297//563 257//563 256//563
f 297//564 296//564 257//564
f 298//565 256//565 255//565
f 298//566 297//566 256//566
f 299//567 255//567 258//567
f 299//568 298//568 255//568
f 300//569 258//569 260//569
f 300//570 260//570 262//570
f 300//571 299//571 258//571
f 301//572 262//572 264//572
f 301//573 300//573 262//573
f 302//574 301//574 264//574
f 303//575 264//575 266//575
f 303//576 302//576 264//576
f 304//577 266//577 268//577
f 304//578 303//578 266//578
f 305//579 268//579 270//579
f 305//580 304//580 268//580
f 306//581 270//581 272//581
f 306//582 305//582 270//582
f 282//583 272//583 275//583
f 282//584 306//584 272//584
f 292//585 293//585 294//585
f 292//586 294//586 295//586
f 292//587 295//587 296//587
f 291//588 292//588 296//588
f 289//589 290//589 291//589
f 289//590 296//590 297//590
f 289//591 297//591 298//591
f 289//592 291//592 296//592
f 288//593 298//593 299//593
f 288//594 289//594 298//594
f 287//595 299//595 300//595
f 287//596 300//596 301//596
f 287//597 288//597 299//597
f 286//598 301//598 302//598
f 286//599 302//599 303//599
f 286//600 287//600 301//600
f 283//601 282//601 281//601
f 283//602 306//602 282//602
f 285//603 286//603 303//603
f 284//604 303//604 304//604
f 284//605 304//605 305//605
f 284//606 305//606 306//606
f 284//607 306//607 283//607
f 284//608 285//608 303//608
