# Created by FreeCAD <http://www.freecadweb.org>
v -15.000000 -4.000000 0.000000
v -15.000000 -4.000000 3.000000
v -15.000000 16.000000 0.000000
v -15.000000 16.000000 3.000000
v 15.000000 -4.000000 0.000000
v 15.000000 -4.000000 3.000000
v -0.250000 -1.000000 3.000000
v -13.000000 -1.000000 3.000000
v -13.000000 14.400000 3.000000
v 0.250000 -1.000000 3.000000
v 13.000000 -1.000000 3.000000
v 15.000000 16.000000 3.000000
v 13.000000 14.400000 3.000000
v 15.000000 16.000000 0.000000
v -11.063663 0.753020 0.000000
v -10.746980 0.436337 0.000000
v -10.367767 0.198062 0.000000
v -11.301938 1.132233 0.000000
v -11.449856 1.554958 0.000000
v -9.945042 0.050144 0.000000
v -11.500000 2.000000 0.000000
v -9.500000 0.000000 0.000000
v -11.500000 7.575966 0.000000
v 0.000000 0.000000 0.000000
v -11.455317 8.242929 0.000000
v -11.322064 8.897969 0.000000
v -11.102627 9.529382 0.000000
v -10.800923 10.125879 0.000000
v -10.422349 10.676802 0.000000
v -9.973668 11.172302 0.000000
v -9.462902 11.603523 0.000000
v -8.899178 11.962759 0.000000
v -8.292573 12.243587 0.000000
v -7.653928 12.440989 0.000000
v -6.994659 12.551437 0.000000
v -4.666812 12.755434 0.000000
v 10.367767 0.198062 0.000000
v 9.945042 0.050144 0.000000
v 9.500000 0.000000 0.000000
v 10.746980 0.436337 0.000000
v 11.063663 0.753020 0.000000
v 11.301938 1.132233 0.000000
v 11.449856 1.554958 0.000000
v 11.500000 2.000000 0.000000
v 11.500000 7.575966 0.000000
v 4.666812 12.755434 0.000000
v 6.994659 12.551437 0.000000
v 11.455317 8.242929 0.000000
v 11.322064 8.897969 0.000000
v 11.102627 9.529382 0.000000
v 10.800923 10.125879 0.000000
v 10.422349 10.676802 0.000000
v 9.973668 11.172302 0.000000
v 9.462902 11.603523 0.000000
v 8.899178 11.962759 0.000000
v 8.292573 12.243587 0.000000
v 7.653928 12.440989 0.000000
v 0.000000 13.000000 0.000000
v -2.334835 12.904982 0.000000
v 2.334835 12.904982 0.000000
v -13.000000 -1.000000 2.000000
v -13.000000 14.400000 2.000000
v -0.250000 -1.000000 2.000000
v 0.250000 0.000000 3.000000
v -0.250000 0.000000 3.000000
v 13.000000 -1.000000 2.000000
v 0.250000 -1.000000 2.000000
v 13.000000 14.400000 2.000000
v -11.449856 1.554958 2.000000
v -11.500000 2.000000 2.000000
v -11.301938 1.132233 2.000000
v -11.063663 0.753020 2.000000
v -10.746980 0.436337 2.000000
v -10.367767 0.198062 2.000000
v -9.945042 0.050144 2.000000
v -9.500000 0.000000 2.000000
v 0.000000 0.000000 2.000000
v -0.250000 0.000000 2.000000
v 0.250000 0.000000 2.000000
v 9.500000 0.000000 2.000000
v 11.449856 1.554958 2.000000
v 11.500000 2.000000 2.000000
v 11.301938 1.132233 2.000000
v 11.063663 0.753020 2.000000
v 10.746980 0.436337 2.000000
v 10.367767 0.198062 2.000000
v 9.945042 0.050144 2.000000
v 11.500000 7.575966 2.000000
v 11.455317 8.242929 2.000000
v 11.322064 8.897969 2.000000
v 11.102627 9.529382 2.000000
v 10.800923 10.125879 2.000000
v 10.422349 10.676802 2.000000
v 9.973668 11.172302 2.000000
v 9.462902 11.603523 2.000000
v 8.899178 11.962759 2.000000
v 8.292573 12.243587 2.000000
v 7.653928 12.440989 2.000000
v 6.994659 12.551437 2.000000
v 0.000000 13.000000 2.000000
v 2.334835 12.904982 2.000000
v 4.666812 12.755434 2.000000
v -2.334835 12.904982 2.000000
v -4.666812 12.755434 2.000000
v -6.994659 12.551437 2.000000
v -11.455317 8.242929 2.000000
v -11.500000 7.575966 2.000000
v -11.322064 8.897969 2.000000
v -11.102627 9.529382 2.000000
v -10.800923 10.125879 2.000000
v -10.422349 10.676802 2.000000
v -9.973668 11.172302 2.000000
v -9.462902 11.603523 2.000000
v -8.899178 11.962759 2.000000
v -8.292573 12.243587 2.000000
v -7.653928 12.440989 2.000000
vn -1.000000 0.000000 0.000000
vn -1.000000 0.000000 0.000000
vn 0.000000 -1.000000 0.000000
vn 0.000000 -1.000000 0.000000
vn 0.000000 0.000000 1.000000
vn 0.000000 0.000000 1.000000
vn 0.000000 0.000000 1.000000
vn 0.000000 0.000000 1.000000
vn 0.000000 0.000000 1.000000
vn 0.000000 0.000000 1.000000
vn 0.000000 0.000000 1.000000
vn 0.000000 0.000000 1.000000
vn 0.000000 0.000000 1.000000
vn 0.000000 0.000000 1.000000
vn 0.000000 1.000000 0.000000
vn 0.000000 1.000000 0.000000
vn 0.000000 0.000000 -1.000000
vn 0.000000 -0.000000 -1.000000
vn 0.000000 0.000000 -1.000000
vn 0.000000 0.000000 -1.000000
vn 0.000000 -0.000000 -1.000000
vn 0.000000 0.000000 -1.000000
vn 0.000000 -0.000000 -1.000000
vn 0.000000 0.000000 -1.000000
vn 0.000000 -0.000000 -1.000000
vn 0.000000 0.000000 -1.000000
vn 0.000000 0.000000 -1.000000
vn 0.000000 0.000000 -1.000000
vn 0.000000 0.000000 -1.000000
vn 0.000000 0.000000 -1.000000
vn 0.000000 0.000000 -1.000000
vn 0.000000 0.000000 -1.000000
vn 0.000000 0.000000 -1.000000
vn 0.000000 0.000000 -1.000000
vn 0.000000 0.000000 -1.000000
vn 0.000000 0.000000 -1.000000
vn 0.000000 0.000000 -1.000000
vn 0.000000 0.000000 -1.000000
vn 0.000000 -0.000000 -1.000000
vn 0.000000 -0.000000 -1.000000
vn -0.000000 -0.000000 -1.000000
vn 0.000000 -0.000000 -1.000000
vn 0.000000 0.000000 -1.000000
vn 0.000000 0.000000 -1.000000
vn 0.000000 0.000000 -1.000000
vn 0.000000 0.000000 -1.000000
vn 0.000000 0.000000 -1.000000
vn 0.000000 0.000000 -1.000000
vn 0.000000 0.000000 -1.000000
vn 0.000000 0.000000 -1.000000
vn 0.000000 0.000000 -1.000000
vn 0.000000 0.000000 -1.000000
vn 0.000000 0.000000 -1.000000
vn 0.000000 0.000000 -1.000000
vn 0.000000 0.000000 -1.000000
vn 0.000000 0.000000 -1.000000
vn 0.000000 0.000000 -1.000000
vn 0.000000 0.000000 -1.000000
vn 0.000000 0.000000 -1.000000
vn 0.000000 0.000000 -1.000000
vn 0.000000 0.000000 -1.000000
vn 0.000000 0.000000 -1.000000
vn 0.000000 0.000000 -1.000000
vn 0.000000 0.000000 -1.000000
vn 0.000000 0.000000 -1.000000
vn 0.000000 0.000000 -1.000000
vn 1.000000 0.000000 0.000000
vn 1.000000 -0.000000 0.000000
vn 1.000000 0.000000 0.000000
vn 1.000000 -0.000000 0.000000
vn 0.000000 1.000000 0.000000
vn 0.000000 1.000000 0.000000
vn 0.000000 0.000000 1.000000
vn 0.000000 0.000000 1.000000
vn 0.000000 1.000000 0.000000
vn 0.000000 1.000000 0.000000
vn -1.000000 0.000000 0.000000
vn -1.000000 0.000000 0.000000
vn 0.000000 -1.000000 0.000000
vn 0.000000 -1.000000 0.000000
vn 0.993712 0.111965 0.000000
vn 0.993712 0.111965 0.000000
vn 0.943884 0.330278 0.000000
vn 0.943884 0.330278 0.000000
vn 0.846723 0.532033 0.000000
vn 0.846723 0.532033 0.000000
vn 0.707107 0.707106 0.000000
vn 0.707107 0.707106 0.000000
vn 0.532032 0.846724 0.000000
vn 0.532032 0.846724 0.000000
vn 0.330279 0.943883 0.000000
vn 0.330279 0.943883 0.000000
vn 0.111965 0.993712 0.000000
vn 0.111965 0.993712 0.000000
vn 0.000000 1.000000 0.000000
vn 0.000000 1.000000 0.000000
vn 0.000000 1.000000 0.000000
vn 0.000000 1.000000 0.000000
vn 0.000000 1.000000 -0.000000
vn 0.000000 1.000000 0.000000
vn -0.993712 0.111965 0.000000
vn -0.993712 0.111965 0.000000
vn -0.943884 0.330278 0.000000
vn -0.943884 0.330278 0.000000
vn -0.846723 0.532033 0.000000
vn -0.846723 0.532033 0.000000
vn -0.707107 0.707106 0.000000
vn -0.707107 0.707106 0.000000
vn -0.532032 0.846724 0.000000
vn -0.532032 0.846724 0.000000
vn -0.330279 0.943883 0.000000
vn -0.330279 0.943883 0.000000
vn -0.111965 0.993712 0.000000
vn -0.111965 0.993712 0.000000
vn -1.000000 0.000000 0.000000
vn -1.000000 0.000000 0.000000
vn -0.997763 -0.066846 0.000000
vn -0.997763 -0.066846 -0.000000
vn -0.979930 -0.199343 0.000000
vn -0.979930 -0.199343 -0.000000
vn -0.944582 -0.328275 0.000000
vn -0.944582 -0.328275 -0.000000
vn -0.892350 -0.451343 0.000000
vn -0.892350 -0.451343 -0.000000
vn -0.824171 -0.566341 0.000000
vn -0.741260 -0.671218 0.000000
vn -0.824171 -0.566341 -0.000000
vn -0.741260 -0.671218 0.000000
vn -0.645100 -0.764098 0.000000
vn -0.537410 -0.843321 0.000000
vn -0.645100 -0.764098 -0.000000
vn -0.537410 -0.843321 0.000000
vn -0.420115 -0.907471 0.000000
vn -0.420115 -0.907471 -0.000000
vn -0.295310 -0.955402 0.000000
vn -0.295310 -0.955402 -0.000000
vn -0.165228 -0.986255 0.000000
vn -0.165228 -0.986255 -0.000000
vn -0.040662 -0.999173 0.000000
vn -0.040662 -0.999173 0.000000
vn -0.063998 -0.997950 0.000000
vn -0.063998 -0.997950 0.000000
vn -0.087299 -0.996182 0.000000
vn -0.087299 -0.996182 0.000000
vn 0.040662 -0.999173 0.000000
vn 0.040662 -0.999173 0.000000
vn 0.063998 -0.997950 0.000000
vn 0.063998 -0.997950 0.000000
vn 0.087299 -0.996182 0.000000
vn 0.087299 -0.996182 0.000000
vn 0.997763 -0.066846 0.000000
vn 0.997763 -0.066846 0.000000
vn 0.979930 -0.199343 0.000000
vn 0.979930 -0.199343 0.000000
vn 0.944582 -0.328275 0.000000
vn 0.944582 -0.328275 0.000000
vn 0.892350 -0.451343 0.000000
vn 0.892350 -0.451343 0.000000
vn 0.824171 -0.566341 0.000000
vn 0.741260 -0.671218 0.000000
vn 0.824171 -0.566341 0.000000
vn 0.741260 -0.671218 0.000000
vn 0.645100 -0.764098 0.000000
vn 0.537410 -0.843321 0.000000
vn 0.645100 -0.764098 0.000000
vn 0.537410 -0.843321 0.000000
vn 0.420115 -0.907471 0.000000
vn 0.420115 -0.907471 0.000000
vn 0.295310 -0.955402 0.000000
vn 0.295310 -0.955402 0.000000
vn 0.165228 -0.986255 0.000000
vn 0.165228 -0.986255 0.000000
vn 1.000000 0.000000 0.000000
vn 1.000000 -0.000000 0.000000
vn 0.000000 0.000000 1.000000
vn 0.000000 0.000000 1.000000
vn 0.000000 0.000000 1.000000
vn 0.000000 0.000000 1.000000
vn 0.000000 0.000000 1.000000
vn 0.000000 0.000000 1.000000
vn 0.000000 0.000000 1.000000
vn 0.000000 0.000000 1.000000
vn 0.000000 0.000000 1.000000
vn 0.000000 0.000000 1.000000
vn 0.000000 0.000000 1.000000
vn 0.000000 0.000000 1.000000
vn 0.000000 0.000000 1.000000
vn 0.000000 0.000000 1.000000
vn 0.000000 0.000000 1.000000
vn 0.000000 0.000000 1.000000
vn 0.000000 0.000000 1.000000
vn 0.000000 0.000000 1.000000
vn 0.000000 0.000000 1.000000
vn 0.000000 0.000000 1.000000
vn 0.000000 0.000000 1.000000
vn 0.000000 0.000000 1.000000
vn 0.000000 0.000000 1.000000
vn 0.000000 0.000000 1.000000
vn 0.000000 0.000000 1.000000
vn 0.000000 0.000000 1.000000
vn 0.000000 0.000000 1.000000
vn 0.000000 0.000000 1.000000
vn 0.000000 0.000000 1.000000
vn 0.000000 0.000000 1.000000
vn 0.000000 0.000000 1.000000
vn 0.000000 0.000000 1.000000
vn 0.000000 0.000000 1.000000
vn 0.000000 0.000000 1.000000
vn 0.000000 0.000000 1.000000
vn 0.000000 0.000000 1.000000
vn 0.000000 0.000000 1.000000
vn 0.000000 0.000000 1.000000
vn 0.000000 0.000000 1.000000
vn 0.000000 0.000000 1.000000
vn 0.000000 0.000000 1.000000
vn 0.000000 0.000000 1.000000
vn 0.000000 0.000000 1.000000
vn 0.000000 0.000000 1.000000
vn 0.000000 0.000000 1.000000
vn 0.000000 0.000000 1.000000
vn 0.000000 0.000000 1.000000
vn 0.000000 0.000000 1.000000
vn 0.000000 0.000000 1.000000
vn 0.000000 0.000000 1.000000
vn 0.000000 0.000000 1.000000
vn -1.000000 0.000000 0.000000
vn -1.000000 0.000000 0.000000
vn 0.000000 1.000000 0.000000
vn 0.000000 1.000000 0.000000
vn 0.000000 1.000000 0.000000
vn 1.000000 0.000000 0.000000
vn 1.000000 -0.000000 0.000000
f 1//1 2//1 3//1
f 3//2 2//2 4//2
f 1//3 5//3 2//3
f 5//4 6//4 2//4
f 7//5 8//5 2//5
f 4//6 2//6 8//6
f 9//7 4//7 8//7
f 6//8 10//8 7//8
f 6//9 7//9 2//9
f 11//10 10//10 6//10
f 12//11 13//11 11//11
f 12//12 11//12 6//12
f 12//13 4//13 9//13
f 12//14 9//14 13//14
f 14//15 3//15 4//15
f 12//16 14//16 4//16
f 1//17 15//17 16//17
f 16//18 17//18 1//18
f 1//19 18//19 15//19
f 1//20 19//20 18//20
f 17//21 20//21 1//21
f 1//22 21//22 19//22
f 20//23 22//23 1//23
f 1//24 23//24 21//24
f 22//25 24//25 1//25
f 23//26 3//26 25//26
f 25//27 3//27 26//27
f 26//28 3//28 27//28
f 27//29 3//29 28//29
f 28//30 3//30 29//30
f 1//31 3//31 23//31
f 3//32 30//32 29//32
f 3//33 31//33 30//33
f 3//34 32//34 31//34
f 3//35 33//35 32//35
f 3//36 34//36 33//36
f 3//37 35//37 34//37
f 3//38 36//38 35//38
f 37//39 5//39 38//39
f 38//40 5//40 39//40
f 39//41 5//41 24//41
f 24//42 5//42 1//42
f 37//43 40//43 5//43
f 40//44 41//44 5//44
f 41//45 42//45 5//45
f 42//46 43//46 5//46
f 43//47 44//47 5//47
f 44//48 45//48 5//48
f 46//49 14//49 47//49
f 48//50 14//50 45//50
f 49//51 14//51 48//51
f 50//52 14//52 49//52
f 51//53 14//53 50//53
f 52//54 14//54 51//54
f 53//55 14//55 52//55
f 54//56 14//56 53//56
f 55//57 14//57 54//57
f 56//58 14//58 55//58
f 57//59 14//59 56//59
f 47//60 14//60 57//60
f 45//61 14//61 5//61
f 3//62 14//62 58//62
f 3//63 58//63 59//63
f 3//64 59//64 36//64
f 58//65 14//65 60//65
f 60//66 14//66 46//66
f 6//67 5//67 14//67
f 6//68 14//68 12//68
f 8//69 61//69 62//69
f 8//70 62//70 9//70
f 7//71 63//71 61//71
f 7//72 61//72 8//72
f 64//73 65//73 7//73
f 64//74 7//74 10//74
f 11//75 66//75 67//75
f 11//76 67//76 10//76
f 66//77 11//77 68//77
f 68//78 11//78 13//78
f 68//79 13//79 62//79
f 62//80 13//80 9//80
f 21//81 69//81 19//81
f 70//82 69//82 21//82
f 19//83 71//83 18//83
f 69//84 71//84 19//84
f 18//85 72//85 15//85
f 71//86 72//86 18//86
f 15//87 73//87 16//87
f 72//88 73//88 15//88
f 16//89 74//89 17//89
f 73//90 74//90 16//90
f 17//91 75//91 20//91
f 74//92 75//92 17//92
f 20//93 76//93 22//93
f 75//94 76//94 20//94
f 77//95 24//95 78//95
f 78//96 22//96 76//96
f 24//97 22//97 78//97
f 24//98 77//98 79//98
f 39//99 79//99 80//99
f 39//100 24//100 79//100
f 81//101 44//101 43//101
f 81//102 82//102 44//102
f 83//103 43//103 42//103
f 83//104 81//104 43//104
f 84//105 42//105 41//105
f 84//106 83//106 42//106
f 85//107 41//107 40//107
f 85//108 84//108 41//108
f 86//109 40//109 37//109
f 86//110 85//110 40//110
f 87//111 37//111 38//111
f 87//112 86//112 37//112
f 80//113 38//113 39//113
f 80//114 87//114 38//114
f 45//115 44//115 82//115
f 45//116 82//116 88//116
f 45//117 89//117 48//117
f 88//118 89//118 45//118
f 48//119 90//119 49//119
f 89//120 90//120 48//120
f 49//121 91//121 50//121
f 90//122 91//122 49//122
f 50//123 92//123 51//123
f 91//124 92//124 50//124
f 51//125 93//125 52//125
f 52//126 93//126 53//126
f 92//127 93//127 51//127
f 93//128 94//128 53//128
f 53//129 95//129 54//129
f 54//130 95//130 55//130
f 94//131 95//131 53//131
f 95//132 96//132 55//132
f 55//133 97//133 56//133
f 96//134 97//134 55//134
f 56//135 98//135 57//135
f 97//136 98//136 56//136
f 57//137 99//137 47//137
f 98//138 99//138 57//138
f 58//139 60//139 100//139
f 100//140 60//140 101//140
f 101//141 46//141 102//141
f 60//142 46//142 101//142
f 102//143 47//143 99//143
f 46//144 47//144 102//144
f 59//145 58//145 100//145
f 59//146 100//146 103//146
f 36//147 103//147 104//147
f 36//148 59//148 103//148
f 35//149 104//149 105//149
f 35//150 36//150 104//150
f 106//151 23//151 25//151
f 106//152 107//152 23//152
f 108//153 25//153 26//153
f 108//154 106//154 25//154
f 109//155 26//155 27//155
f 109//156 108//156 26//156
f 110//157 27//157 28//157
f 110//158 109//158 27//158
f 111//159 28//159 29//159
f 111//160 29//160 30//160
f 111//161 110//161 28//161
f 112//162 111//162 30//162
f 113//163 30//163 31//163
f 113//164 31//164 32//164
f 113//165 112//165 30//165
f 114//166 113//166 32//166
f 115//167 32//167 33//167
f 115//168 114//168 32//168
f 116//169 33//169 34//169
f 116//170 115//170 33//170
f 105//171 34//171 35//171
f 105//172 116//172 34//172
f 21//173 23//173 70//173
f 70//174 23//174 107//174
f 72//175 61//175 73//175
f 74//176 73//176 61//176
f 71//177 61//177 72//177
f 75//178 74//178 61//178
f 69//179 61//179 71//179
f 70//180 61//180 69//180
f 76//181 75//181 61//181
f 107//182 61//182 70//182
f 63//183 76//183 61//183
f 78//184 76//184 63//184
f 62//185 107//185 106//185
f 62//186 106//186 108//186
f 62//187 108//187 109//187
f 62//188 109//188 110//188
f 62//189 110//189 111//189
f 62//190 111//190 112//190
f 62//191 61//191 107//191
f 113//192 62//192 112//192
f 114//193 62//193 113//193
f 115//194 62//194 114//194
f 116//195 62//195 115//195
f 105//196 62//196 116//196
f 104//197 62//197 105//197
f 80//198 79//198 67//198
f 66//199 80//199 67//199
f 66//200 84//200 85//200
f 66//201 85//201 86//201
f 66//202 86//202 87//202
f 66//203 87//203 80//203
f 83//204 84//204 66//204
f 81//205 83//205 66//205
f 82//206 81//206 66//206
f 88//207 82//207 66//207
f 68//208 88//208 66//208
f 68//209 102//209 99//209
f 68//210 89//210 88//210
f 68//211 90//211 89//211
f 68//212 91//212 90//212
f 68//213 92//213 91//213
f 68//214 93//214 92//214
f 68//215 94//215 93//215
f 68//216 95//216 94//216
f 68//217 96//217 95//217
f 68//218 97//218 96//218
f 68//219 98//219 97//219
f 68//220 99//220 98//220
f 68//221 62//221 100//221
f 100//222 62//222 103//222
f 103//223 62//223 104//223
f 68//224 100//224 101//224
f 68//225 101//225 102//225
f 63//226 7//226 78//226
f 78//227 7//227 65//227
f 65//228 77//228 78//228
f 64//229 79//229 77//229
f 64//230 77//230 65//230
f 10//231 67//231 79//231
f 10//232 79//232 64//232
