# FreeCAD v1.1 build0 Arch module
# https://www.freecad.org
mtllib standoff_6h_6od_2id.mtl
o Tube002
usemtl color_cccce6
v 2.644731 0.543506 6.0
v 2.7 -0.0 6.0
v 2.7 -0.0 0.0
v 2.644731 0.543506 0.0
v 2.481186 1.064761 6.0
v 2.481186 1.064761 0.0
v 2.216061 1.542424 0.0
v 2.216061 1.542424 6.0
v 1.860211 1.956941 6.0
v 1.860211 1.956941 0.0
v 1.428203 2.291339 6.0
v 1.428203 2.291339 0.0
v 0.937724 2.531931 0.0
v 0.937724 2.531931 6.0
v 0.408855 2.668864 6.0
v 0.408855 2.668864 0.0
v -0.136753 2.696535 6.0
v -0.136753 2.696535 0.0
v -0.676762 2.613808 6.0
v -0.676762 2.613808 0.0
v -1.189064 2.424072 6.0
v -1.189064 2.424072 0.0
v -1.652686 2.135094 6.0
v -1.652686 2.135094 0.0
v -2.048647 1.758706 0.0
v -2.048647 1.758706 6.0
v -2.360736 1.310315 6.0
v -2.360736 1.310315 0.0
v -2.576176 0.80828 6.0
v -2.576176 0.80828 0.0
v -2.686147 0.273154 0.0
v -2.686147 0.273154 6.0
v -2.686147 -0.273154 6.0
v -2.686147 -0.273154 0.0
v -2.576176 -0.80828 0.0
v -2.576176 -0.80828 6.0
v -2.360736 -1.310315 0.0
v -2.360736 -1.310315 6.0
v -2.048647 -1.758706 6.0
v -2.048647 -1.758706 0.0
v -1.652686 -2.135094 6.0
v -1.652686 -2.135094 0.0
v -1.189064 -2.424072 6.0
v -1.189064 -2.424072 0.0
v -0.676762 -2.613808 6.0
v -0.676762 -2.613808 0.0
v -0.136753 -2.696535 6.0
v -0.136753 -2.696535 0.0
v 0.408855 -2.668864 0.0
v 0.408855 -2.668864 6.0
v 0.937724 -2.531931 6.0
v 0.937724 -2.531931 0.0
v 1.428203 -2.291339 6.0
v 1.428203 -2.291339 0.0
v 1.860211 -1.956941 6.0
v 1.860211 -1.956941 0.0
v 2.216061 -1.542424 6.0
v 2.216061 -1.542424 0.0
v 2.481186 -1.064761 6.0
v 2.481186 -1.064761 0.0
v 2.644731 -0.543506 6.0
v 2.644731 -0.543506 0.0
v -0.748511 -0.663123 6.0
v -0.568065 -0.822984 6.0
v -0.885456 -0.464723 6.0
v -0.354605 -0.935016 6.0
v -0.970942 -0.239316 6.0
v -0.120537 -0.992709 6.0
v -1.0 0.0 6.0
v 0.120537 -0.992709 6.0
v -0.970942 0.239316 6.0
v 0.354605 -0.935016 6.0
v -0.885456 0.464723 6.0
v 0.568065 -0.822984 6.0
v -0.748511 0.663123 6.0
v 0.748511 -0.663123 6.0
v -0.568065 0.822984 6.0
v 0.885456 -0.464723 6.0
v -0.354605 0.935016 6.0
v 0.970942 -0.239316 6.0
v -0.120537 0.992709 6.0
v 1.0 -0.0 6.0
v 0.120537 0.992709 6.0
v 0.354605 0.935016 6.0
v 0.970942 0.239316 6.0
v 0.885456 0.464723 6.0
v 0.568065 0.822984 6.0
v 0.748511 0.663123 6.0
v -0.748511 -0.663123 0.0
v -0.568065 -0.822984 0.0
v -0.885456 -0.464723 0.0
v -0.354605 -0.935016 0.0
v -0.970942 -0.239316 0.0
v -0.120537 -0.992709 0.0
v -1.0 0.0 0.0
v 0.120537 -0.992709 0.0
v -0.970942 0.239316 0.0
v 0.354605 -0.935016 0.0
v -0.885456 0.464723 0.0
v 0.568065 -0.822984 0.0
v -0.748511 0.663123 0.0
v 0.748511 -0.663123 0.0
v -0.568065 0.822984 0.0
v 0.885456 -0.464723 0.0
v -0.354605 0.935016 0.0
v 0.970942 -0.239316 0.0
v -0.120537 0.992709 0.0
v 1.0 -0.0 0.0
v 0.120537 0.992709 0.0
v 0.354605 0.935016 0.0
v 0.970942 0.239316 0.0
v 0.885456 0.464723 0.0
v 0.568065 0.822984 0.0
v 0.748511 0.663123 0.0
vn 0.994869 0.101168 0.0
vn 0.994869 0.101168 0.0
vn 0.954139 0.299363 0.0
vn 0.874347 0.485302 0.0
vn 0.954139 0.299363 0.0
vn 0.874347 0.485302 0.0
vn 0.758758 0.651373 0.0
vn 0.758758 0.651373 0.0
vn 0.612106 0.790776 0.0
vn 0.440394 0.897805 0.0
vn 0.612106 0.790776 0.0
vn 0.440394 0.897805 0.0
vn 0.250653 0.968077 0.0
vn 0.250653 0.968077 0.0
vn 0.050649 0.998716 0.0
vn 0.050649 0.998716 0.0
vn -0.151428 0.988468 0.0
vn -0.151428 0.988468 0.0
vn -0.347305 0.937752 0.0
vn -0.347305 0.937752 0.0
vn -0.528964 0.848644 0.0
vn -0.528964 0.848644 0.0
vn -0.688967 0.724793 0.0
vn -0.688967 0.724793 0.0
vn -0.820763 0.571268 0.0
vn -0.820763 0.571268 0.0
vn -0.918958 0.394356 0.0
vn -0.918958 0.394356 0.0
vn -0.97953 0.201299 0.0
vn -0.97953 0.201299 0.0
vn -1.0 0.0 0.0
vn -1.0 0.0 0.0
vn -0.97953 -0.201299 -0.0
vn -0.97953 -0.201299 -0.0
vn -0.918958 -0.394356 -0.0
vn -0.918958 -0.394356 -0.0
vn -0.820763 -0.571268 0.0
vn -0.820763 -0.571268 -0.0
vn -0.688967 -0.724793 0.0
vn -0.688967 -0.724793 -0.0
vn -0.528964 -0.848644 -0.0
vn -0.528964 -0.848644 0.0
vn -0.347305 -0.937752 0.0
vn -0.347305 -0.937752 -0.0
vn -0.151428 -0.988468 -0.0
vn 0.050649 -0.998716 0.0
vn -0.151428 -0.988468 0.0
vn 0.050649 -0.998716 0.0
vn 0.250653 -0.968077 0.0
vn 0.250653 -0.968077 0.0
vn 0.440394 -0.897805 0.0
vn 0.440394 -0.897805 0.0
vn 0.612106 -0.790776 0.0
vn 0.612106 -0.790776 0.0
vn 0.758758 -0.651373 0.0
vn 0.758758 -0.651373 0.0
vn 0.874347 -0.485302 0.0
vn 0.874347 -0.485302 0.0
vn 0.954139 -0.299363 0.0
vn 0.994869 -0.101168 0.0
vn 0.954139 -0.299363 0.0
vn 0.994869 -0.101168 0.0
vn 0.0 0.0 1.0
vn 0.0 0.0 1.0
vn 0.0 0.0 1.0
vn 0.0 0.0 1.0
vn 0.0 0.0 1.0
vn 0.0 0.0 1.0
vn 0.0 0.0 1.0
vn 0.0 0.0 1.0
vn 0.0 0.0 1.0
vn 0.0 0.0 1.0
vn 0.0 0.0 1.0
vn 0.0 0.0 1.0
vn 0.0 0.0 1.0
vn 0.0 0.0 1.0
vn 0.0 0.0 1.0
vn 0.0 0.0 1.0
vn 0.0 0.0 1.0
vn 0.0 0.0 1.0
vn 0.0 0.0 1.0
vn 0.0 0.0 1.0
vn 0.0 0.0 1.0
vn 0.0 0.0 1.0
vn 0.0 0.0 1.0
vn 0.0 0.0 1.0
vn 0.0 0.0 1.0
vn 0.0 0.0 1.0
vn 0.0 0.0 1.0
vn 0.0 0.0 1.0
vn 0.0 0.0 1.0
vn 0.0 0.0 1.0
vn 0.0 0.0 1.0
vn 0.0 0.0 1.0
vn 0.0 0.0 1.0
vn 0.0 0.0 1.0
vn 0.0 0.0 1.0
vn 0.0 0.0 1.0
vn 0.0 0.0 1.0
vn 0.0 0.0 1.0
vn 0.0 0.0 1.0
vn 0.0 0.0 1.0
vn 0.0 0.0 1.0
vn 0.0 0.0 1.0
vn 0.0 0.0 1.0
vn 0.0 0.0 1.0
vn 0.0 0.0 1.0
vn 0.0 0.0 1.0
vn 0.0 0.0 1.0
vn 0.0 0.0 1.0
vn 0.0 0.0 1.0
vn 0.0 0.0 1.0
vn 0.0 0.0 1.0
vn 0.0 0.0 1.0
vn 0.0 0.0 1.0
vn 0.0 0.0 1.0
vn 0.0 0.0 1.0
vn 0.0 0.0 1.0
vn 0.0 0.0 1.0
vn 0.0 0.0 -1.0
vn 0.0 0.0 -1.0
vn 0.0 0.0 -1.0
vn 0.0 -0.0 -1.0
vn 0.0 0.0 -1.0
vn 0.0 0.0 -1.0
vn 0.0 0.0 -1.0
vn 0.0 -0.0 -1.0
vn 0.0 0.0 -1.0
vn 0.0 0.0 -1.0
vn 0.0 0.0 -1.0
vn 0.0 -0.0 -1.0
vn 0.0 0.0 -1.0
vn 0.0 0.0 -1.0
vn 0.0 0.0 -1.0
vn 0.0 -0.0 -1.0
vn 0.0 -0.0 -1.0
vn 0.0 0.0 -1.0
vn 0.0 0.0 -1.0
vn 0.0 0.0 -1.0
vn 0.0 0.0 -1.0
vn 0.0 -0.0 -1.0
vn 0.0 0.0 -1.0
vn 0.0 0.0 -1.0
vn 0.0 0.0 -1.0
vn 0.0 0.0 -1.0
vn 0.0 -0.0 -1.0
vn 0.0 0.0 -1.0
vn 0.0 0.0 -1.0
vn 0.0 0.0 -1.0
vn 0.0 0.0 -1.0
vn 0.0 -0.0 -1.0
vn 0.0 0.0 -1.0
vn 0.0 0.0 -1.0
vn 0.0 0.0 -1.0
vn 0.0 -0.0 -1.0
vn 0.0 0.0 -1.0
vn 0.0 0.0 -1.0
vn 0.0 0.0 -1.0
vn 0.0 -0.0 -1.0
vn 0.0 0.0 -1.0
vn 0.0 0.0 -1.0
vn 0.0 0.0 -1.0
vn 0.0 0.0 -1.0
vn 0.0 0.0 -1.0
vn 0.0 0.0 -1.0
vn 0.0 0.0 -1.0
vn 0.0 -0.0 -1.0
vn 0.0 0.0 -1.0
vn 0.0 0.0 -1.0
vn 0.0 0.0 -1.0
vn 0.0 -0.0 -1.0
vn 0.0 0.0 -1.0
vn 0.0 0.0 -1.0
vn 0.0 0.0 -1.0
vn 0.0 0.0 -1.0
vn 0.0 -0.0 -1.0
vn -0.992709 -0.120537 -0.0
vn -0.992709 -0.120537 0.0
vn -0.935016 -0.354605 0.0
vn -0.935016 -0.354605 -0.0
vn -0.822984 -0.568065 0.0
vn -0.663123 -0.748511 0.0
vn -0.822984 -0.568065 -0.0
vn -0.663123 -0.748511 0.0
vn -0.464723 -0.885456 0.0
vn -0.464723 -0.885456 -0.0
vn -0.239316 -0.970942 0.0
vn -0.239316 -0.970942 -0.0
vn 0.0 -1.0 0.0
vn -0.0 -1.0 -0.0
vn 0.239316 -0.970942 0.0
vn 0.239316 -0.970942 0.0
vn 0.464723 -0.885456 0.0
vn 0.464723 -0.885456 0.0
vn 0.663123 -0.748511 0.0
vn 0.663123 -0.748511 0.0
vn 0.822984 -0.568065 0.0
vn 0.822984 -0.568065 0.0
vn 0.935016 -0.354605 0.0
vn 0.935016 -0.354605 0.0
vn 0.992709 -0.120537 0.0
vn 0.992709 -0.120537 0.0
vn 0.992709 0.120537 0.0
vn 0.992709 0.120537 0.0
vn 0.935016 0.354605 0.0
vn 0.935016 0.354605 0.0
vn 0.822984 0.568065 -0.0
vn 0.822984 0.568065 0.0
vn 0.663123 0.748511 -0.0
vn 0.663123 0.748511 0.0
vn 0.464723 0.885456 0.0
vn 0.464723 0.885456 0.0
vn 0.239316 0.970942 0.0
vn 0.239316 0.970942 0.0
vn -0.0 1.0 0.0
vn 0.0 1.0 0.0
vn -0.239316 0.970942 0.0
vn -0.239316 0.970942 0.0
vn -0.464723 0.885456 0.0
vn -0.464723 0.885456 0.0
vn -0.663123 0.748511 0.0
vn -0.663123 0.748511 0.0
vn -0.822984 0.568065 0.0
vn -0.822984 0.568065 0.0
vn -0.935016 0.354605 0.0
vn -0.935016 0.354605 0.0
vn -0.992709 0.120537 0.0
vn -0.992709 0.120537 0.0
f 1//1 2//1 3//1 
f 1//2 3//2 4//2 
f 5//3 4//3 6//3 
f 5//4 6//4 7//4 
f 5//5 1//5 4//5 
f 8//6 5//6 7//6 
f 9//7 7//7 10//7 
f 9//8 8//8 7//8 
f 11//9 10//9 12//9 
f 11//10 12//10 13//10 
f 11//11 9//11 10//11 
f 14//12 11//12 13//12 
f 15//13 13//13 16//13 
f 15//14 14//14 13//14 
f 17//15 16//15 18//15 
f 17//16 15//16 16//16 
f 19//17 17//17 18//17 
f 19//18 18//18 20//18 
f 21//19 19//19 20//19 
f 21//20 20//20 22//20 
f 23//21 21//21 22//21 
f 23//22 22//22 24//22 
f 23//23 24//23 25//23 
f 26//24 23//24 25//24 
f 27//25 26//25 25//25 
f 27//26 25//26 28//26 
f 29//27 27//27 28//27 
f 29//28 28//28 30//28 
f 29//29 30//29 31//29 
f 32//30 29//30 31//30 
f 33//31 32//31 31//31 
f 33//32 31//32 34//32 
f 33//33 34//33 35//33 
f 36//34 33//34 35//34 
f 36//35 35//35 37//35 
f 38//36 36//36 37//36 
f 39//37 38//37 37//37 
f 39//38 37//38 40//38 
f 41//39 39//39 40//39 
f 41//40 40//40 42//40 
f 43//41 42//41 44//41 
f 43//42 41//42 42//42 
f 45//43 43//43 44//43 
f 45//44 44//44 46//44 
f 47//45 46//45 48//45 
f 47//46 48//46 49//46 
f 47//47 45//47 46//47 
f 50//48 47//48 49//48 
f 51//49 49//49 52//49 
f 51//50 50//50 49//50 
f 53//51 52//51 54//51 
f 53//52 51//52 52//52 
f 55//53 54//53 56//53 
f 55//54 53//54 54//54 
f 57//55 56//55 58//55 
f 57//56 55//56 56//56 
f 59//57 58//57 60//57 
f 59//58 57//58 58//58 
f 61//59 60//59 62//59 
f 61//60 62//60 3//60 
f 61//61 59//61 60//61 
f 2//62 61//62 3//62 
f 63//63 38//63 39//63 
f 63//64 39//64 41//64 
f 64//65 41//65 43//65 
f 64//66 63//66 41//66 
f 65//67 36//67 38//67 
f 65//68 38//68 63//68 
f 66//69 43//69 45//69 
f 66//70 64//70 43//70 
f 67//71 33//71 36//71 
f 67//72 36//72 65//72 
f 68//73 45//73 47//73 
f 68//74 66//74 45//74 
f 69//75 32//75 33//75 
f 69//76 33//76 67//76 
f 70//77 47//77 50//77 
f 70//78 68//78 47//78 
f 71//79 29//79 32//79 
f 71//80 32//80 69//80 
f 72//81 70//81 50//81 
f 72//82 50//82 51//82 
f 72//83 51//83 53//83 
f 73//84 27//84 29//84 
f 73//85 29//85 71//85 
f 74//86 72//86 53//86 
f 55//87 74//87 53//87 
f 75//88 27//88 73//88 
f 75//89 26//89 27//89 
f 76//90 74//90 55//90 
f 23//91 26//91 75//91 
f 23//92 75//92 77//92 
f 57//93 76//93 55//93 
f 57//94 78//94 76//94 
f 21//95 77//95 79//95 
f 21//96 23//96 77//96 
f 59//97 78//97 57//97 
f 59//98 80//98 78//98 
f 19//99 79//99 81//99 
f 19//100 21//100 79//100 
f 61//101 80//101 59//101 
f 61//102 82//102 80//102 
f 17//103 81//103 83//103 
f 17//104 19//104 81//104 
f 2//105 82//105 61//105 
f 15//106 83//106 84//106 
f 15//107 17//107 83//107 
f 1//108 85//108 82//108 
f 1//109 82//109 2//109 
f 14//110 15//110 84//110 
f 5//111 86//111 85//111 
f 5//112 85//112 1//112 
f 11//113 84//113 87//113 
f 11//114 14//114 84//114 
f 8//115 88//115 86//115 
f 8//116 86//116 5//116 
f 9//117 87//117 88//117 
f 9//118 88//118 8//118 
f 9//119 11//119 87//119 
f 37//120 89//120 40//120 
f 40//121 89//121 42//121 
f 42//122 90//122 44//122 
f 89//123 90//123 42//123 
f 35//124 91//124 37//124 
f 37//125 91//125 89//125 
f 44//126 92//126 46//126 
f 90//127 92//127 44//127 
f 34//128 93//128 35//128 
f 35//129 93//129 91//129 
f 46//130 94//130 48//130 
f 92//131 94//131 46//131 
f 31//132 95//132 34//132 
f 34//133 95//133 93//133 
f 48//134 96//134 49//134 
f 94//135 96//135 48//135 
f 30//136 97//136 31//136 
f 31//137 97//137 95//137 
f 96//138 98//138 49//138 
f 49//139 98//139 52//139 
f 52//140 98//140 54//140 
f 28//141 99//141 30//141 
f 30//142 99//142 97//142 
f 98//143 100//143 54//143 
f 100//144 56//144 54//144 
f 28//145 101//145 99//145 
f 25//146 101//146 28//146 
f 100//147 102//147 56//147 
f 25//148 24//148 101//148 
f 101//149 24//149 103//149 
f 102//150 58//150 56//150 
f 104//151 58//151 102//151 
f 103//152 22//152 105//152 
f 24//153 22//153 103//153 
f 104//154 60//154 58//154 
f 106//155 60//155 104//155 
f 105//156 20//156 107//156 
f 22//157 20//157 105//157 
f 106//158 62//158 60//158 
f 108//159 62//159 106//159 
f 107//160 18//160 109//160 
f 20//161 18//161 107//161 
f 108//162 3//162 62//162 
f 109//163 16//163 110//163 
f 18//164 16//164 109//164 
f 111//165 4//165 108//165 
f 108//166 4//166 3//166 
f 16//167 13//167 110//167 
f 112//168 6//168 111//168 
f 111//169 6//169 4//169 
f 110//170 12//170 113//170 
f 13//171 12//171 110//171 
f 114//172 7//172 112//172 
f 112//173 7//173 6//173 
f 113//174 10//174 114//174 
f 114//175 10//175 7//175 
f 12//176 10//176 113//176 
f 82//177 85//177 108//177 
f 108//178 85//178 111//178 
f 111//179 86//179 112//179 
f 85//180 86//180 111//180 
f 112//181 88//181 114//181 
f 114//182 88//182 113//182 
f 86//183 88//183 112//183 
f 88//184 87//184 113//184 
f 113//185 84//185 110//185 
f 87//186 84//186 113//186 
f 110//187 83//187 109//187 
f 84//188 83//188 110//188 
f 109//189 81//189 107//189 
f 83//190 81//190 109//190 
f 107//191 79//191 105//191 
f 81//192 79//192 107//192 
f 105//193 77//193 103//193 
f 79//194 77//194 105//194 
f 103//195 75//195 101//195 
f 77//196 75//196 103//196 
f 75//197 73//197 101//197 
f 101//198 73//198 99//198 
f 99//199 73//199 97//199 
f 73//200 71//200 97//200 
f 71//201 69//201 97//201 
f 97//202 69//202 95//202 
f 69//203 67//203 95//203 
f 95//204 67//204 93//204 
f 67//205 65//205 93//205 
f 93//206 65//206 91//206 
f 91//207 65//207 89//207 
f 65//208 63//208 89//208 
f 89//209 63//209 90//209 
f 63//210 64//210 90//210 
f 64//211 66//211 90//211 
f 90//212 66//212 92//212 
f 66//213 68//213 92//213 
f 92//214 68//214 94//214 
f 68//215 70//215 94//215 
f 94//216 70//216 96//216 
f 70//217 72//217 96//217 
f 96//218 72//218 98//218 
f 72//219 74//219 98//219 
f 98//220 74//220 100//220 
f 74//221 76//221 100//221 
f 100//222 76//222 102//222 
f 102//223 76//223 104//223 
f 76//224 78//224 104//224 
f 104//225 80//225 106//225 
f 78//226 80//226 104//226 
f 106//227 82//227 108//227 
f 80//228 82//228 106//228 
