# Created by FreeCAD <https://www.freecad.org>
v 2.746199 0.546253 6.000000
v 2.800000 -0.000000 6.000000
v 2.800000 -0.000000 0.000000
v 2.746199 0.546253 0.000000
v 2.586863 1.071514 6.000000
v 2.586863 1.071514 0.000000
v 2.328115 1.555597 6.000000
v 2.328115 1.555597 0.000000
v 1.979899 1.979899 6.000000
v 1.979899 1.979899 0.000000
v 1.555597 2.328115 6.000000
v 1.555597 2.328115 0.000000
v 1.071514 2.586863 6.000000
v 1.071514 2.586863 0.000000
v 0.546253 2.746199 6.000000
v 0.546253 2.746199 0.000000
v 0.000000 2.800000 6.000000
v 0.000000 2.800000 0.000000
v -0.546253 2.746199 6.000000
v -0.546253 2.746199 0.000000
v -1.071514 2.586863 0.000000
v -1.071514 2.586863 6.000000
v -1.555597 2.328115 6.000000
v -1.555597 2.328115 0.000000
v -1.979899 1.979899 0.000000
v -1.979899 1.979899 6.000000
v -2.328115 1.555597 6.000000
v -2.328115 1.555597 0.000000
v -2.586863 1.071514 0.000000
v -2.586863 1.071514 6.000000
v -2.746199 0.546253 0.000000
v -2.746199 0.546253 6.000000
v -2.800000 -0.000000 6.000000
v -2.800000 -0.000000 0.000000
v -2.746199 -0.546253 0.000000
v -2.746199 -0.546253 6.000000
v -2.586863 -1.071514 6.000000
v -2.586863 -1.071514 0.000000
v -2.328115 -1.555597 6.000000
v -2.328115 -1.555597 0.000000
v -1.979899 -1.979899 6.000000
v -1.979899 -1.979899 0.000000
v -1.555597 -2.328115 6.000000
v -1.555597 -2.328115 0.000000
v -1.071514 -2.586863 6.000000
v -1.071514 -2.586863 0.000000
v -0.546253 -2.746199 6.000000
v -0.546253 -2.746199 0.000000
v 0.000000 -2.800000 0.000000
v 0.000000 -2.800000 6.000000
v 0.546253 -2.746199 6.000000
v 0.546253 -2.746199 0.000000
v 1.071514 -2.586863 0.000000
v 1.071514 -2.586863 6.000000
v 1.555597 -2.328115 6.000000
v 1.555597 -2.328115 0.000000
v 1.979899 -1.979899 6.000000
v 1.979899 -1.979899 0.000000
v 2.328115 -1.555597 6.000000
v 2.328115 -1.555597 0.000000
v 2.586863 -1.071514 0.000000
v 2.586863 -1.071514 6.000000
v 2.746199 -0.546253 6.000000
v 2.746199 -0.546253 0.000000
v -0.935638 -0.828903 6.000000
v -0.710081 -1.028730 6.000000
v -1.106820 -0.580904 6.000000
v -0.443256 -1.168770 6.000000
v -1.213677 -0.299145 6.000000
v -0.150671 -1.240886 6.000000
v -1.250000 0.000000 6.000000
v 0.150671 -1.240886 6.000000
v -1.213677 0.299145 6.000000
v 0.443256 -1.168770 6.000000
v -1.106820 0.580904 6.000000
v 0.710081 -1.028730 6.000000
v -0.935638 0.828903 6.000000
v 0.935638 -0.828903 6.000000
v -0.710081 1.028730 6.000000
v 1.106820 -0.580904 6.000000
v -0.443256 1.168770 6.000000
v 1.213677 -0.299145 6.000000
v -0.150671 1.240886 6.000000
v 1.250000 0.000000 6.000000
v 0.150671 1.240886 6.000000
v 0.443256 1.168770 6.000000
v 1.213677 0.299145 6.000000
v 1.106820 0.580904 6.000000
v 0.710081 1.028730 6.000000
v 0.935638 0.828903 6.000000
v -0.935638 -0.828903 0.000000
v -0.710081 -1.028730 0.000000
v -1.106820 -0.580904 0.000000
v -0.443256 -1.168770 0.000000
v -1.213677 -0.299145 0.000000
v -0.150671 -1.240886 0.000000
v -1.250000 0.000000 0.000000
v 0.150671 -1.240886 0.000000
v -1.213677 0.299145 0.000000
v 0.443256 -1.168770 0.000000
v -1.106820 0.580904 0.000000
v 0.710081 -1.028730 0.000000
v -0.935638 0.828903 0.000000
v 0.935638 -0.828903 0.000000
v -0.710081 1.028730 0.000000
v 1.106820 -0.580904 0.000000
v -0.443256 1.168770 0.000000
v 1.213677 -0.299145 0.000000
v -0.150671 1.240886 0.000000
v 1.250000 0.000000 0.000000
v 0.150671 1.240886 0.000000
v 0.443256 1.168770 0.000000
v 1.213677 0.299145 0.000000
v 1.106820 0.580904 0.000000
v 0.710081 1.028730 0.000000
v 0.935638 0.828903 0.000000
vn 0.995185 0.098017 0.000000
vn 0.995185 0.098017 0.000000
vn 0.956940 0.290285 0.000000
vn 0.956940 0.290285 0.000000
vn 0.881921 0.471397 0.000000
vn 0.881921 0.471397 0.000000
vn 0.773010 0.634394 0.000000
vn 0.773010 0.634394 0.000000
vn 0.634394 0.773010 0.000000
vn 0.634394 0.773010 0.000000
vn 0.471397 0.881921 0.000000
vn 0.471397 0.881921 0.000000
vn 0.290285 0.956940 0.000000
vn 0.290285 0.956940 0.000000
vn 0.098017 0.995185 0.000000
vn 0.098017 0.995185 0.000000
vn -0.098017 0.995185 0.000000
vn -0.098017 0.995185 0.000000
vn -0.290285 0.956940 0.000000
vn -0.290285 0.956940 0.000000
vn -0.471397 0.881921 0.000000
vn -0.471397 0.881921 0.000000
vn -0.634394 0.773010 0.000000
vn -0.634394 0.773010 0.000000
vn -0.773010 0.634394 0.000000
vn -0.773010 0.634394 0.000000
vn -0.881921 0.471397 0.000000
vn -0.881921 0.471397 0.000000
vn -0.956940 0.290285 0.000000
vn -0.956940 0.290285 0.000000
vn -0.995185 0.098017 0.000000
vn -0.995185 0.098017 0.000000
vn -0.995185 -0.098017 -0.000000
vn -0.995185 -0.098017 -0.000000
vn -0.956940 -0.290285 0.000000
vn -0.956940 -0.290285 -0.000000
vn -0.881921 -0.471397 0.000000
vn -0.881921 -0.471397 -0.000000
vn -0.773010 -0.634394 0.000000
vn -0.773010 -0.634394 -0.000000
vn -0.634394 -0.773010 0.000000
vn -0.634394 -0.773010 -0.000000
vn -0.471397 -0.881921 0.000000
vn -0.471397 -0.881921 -0.000000
vn -0.290285 -0.956940 -0.000000
vn -0.098017 -0.995185 -0.000000
vn -0.290285 -0.956940 0.000000
vn -0.098017 -0.995185 -0.000000
vn 0.098017 -0.995185 0.000000
vn 0.290285 -0.956940 0.000000
vn 0.098017 -0.995185 0.000000
vn 0.290285 -0.956940 0.000000
vn 0.471397 -0.881921 0.000000
vn 0.471397 -0.881921 0.000000
vn 0.634394 -0.773010 0.000000
vn 0.634394 -0.773010 0.000000
vn 0.773010 -0.634394 0.000000
vn 0.881921 -0.471397 0.000000
vn 0.773010 -0.634394 0.000000
vn 0.881921 -0.471397 0.000000
vn 0.956940 -0.290285 0.000000
vn 0.956940 -0.290285 0.000000
vn 0.995185 -0.098017 0.000000
vn 0.995185 -0.098017 0.000000
vn 0.000000 0.000000 1.000000
vn 0.000000 0.000000 1.000000
vn 0.000000 0.000000 1.000000
vn 0.000000 0.000000 1.000000
vn 0.000000 0.000000 1.000000
vn 0.000000 0.000000 1.000000
vn 0.000000 0.000000 1.000000
vn 0.000000 0.000000 1.000000
vn 0.000000 0.000000 1.000000
vn 0.000000 0.000000 1.000000
vn 0.000000 0.000000 1.000000
vn 0.000000 0.000000 1.000000
vn 0.000000 0.000000 1.000000
vn 0.000000 0.000000 1.000000
vn 0.000000 0.000000 1.000000
vn 0.000000 0.000000 1.000000
vn 0.000000 0.000000 1.000000
vn 0.000000 0.000000 1.000000
vn 0.000000 0.000000 1.000000
vn 0.000000 0.000000 1.000000
vn 0.000000 0.000000 1.000000
vn 0.000000 0.000000 1.000000
vn 0.000000 0.000000 1.000000
vn 0.000000 0.000000 1.000000
vn 0.000000 0.000000 1.000000
vn 0.000000 0.000000 1.000000
vn 0.000000 0.000000 1.000000
vn 0.000000 0.000000 1.000000
vn 0.000000 0.000000 1.000000
vn 0.000000 0.000000 1.000000
vn 0.000000 0.000000 1.000000
vn 0.000000 0.000000 1.000000
vn 0.000000 0.000000 1.000000
vn 0.000000 0.000000 1.000000
vn 0.000000 0.000000 1.000000
vn 0.000000 0.000000 1.000000
vn 0.000000 0.000000 1.000000
vn 0.000000 0.000000 1.000000
vn 0.000000 0.000000 1.000000
vn 0.000000 0.000000 1.000000
vn 0.000000 0.000000 1.000000
vn 0.000000 0.000000 1.000000
vn 0.000000 0.000000 1.000000
vn 0.000000 0.000000 1.000000
vn 0.000000 0.000000 1.000000
vn 0.000000 0.000000 1.000000
vn 0.000000 0.000000 1.000000
vn 0.000000 0.000000 1.000000
vn 0.000000 0.000000 1.000000
vn 0.000000 0.000000 1.000000
vn 0.000000 0.000000 1.000000
vn 0.000000 0.000000 1.000000
vn 0.000000 0.000000 1.000000
vn 0.000000 0.000000 1.000000
vn 0.000000 0.000000 1.000000
vn 0.000000 0.000000 1.000000
vn 0.000000 0.000000 1.000000
vn 0.000000 0.000000 1.000000
vn 0.000000 0.000000 -1.000000
vn 0.000000 0.000000 -1.000000
vn 0.000000 0.000000 -1.000000
vn 0.000000 -0.000000 -1.000000
vn 0.000000 0.000000 -1.000000
vn 0.000000 0.000000 -1.000000
vn 0.000000 0.000000 -1.000000
vn 0.000000 -0.000000 -1.000000
vn 0.000000 0.000000 -1.000000
vn 0.000000 0.000000 -1.000000
vn 0.000000 0.000000 -1.000000
vn 0.000000 -0.000000 -1.000000
vn 0.000000 -0.000000 -1.000000
vn 0.000000 0.000000 -1.000000
vn 0.000000 0.000000 -1.000000
vn 0.000000 0.000000 -1.000000
vn 0.000000 0.000000 -1.000000
vn 0.000000 -0.000000 -1.000000
vn 0.000000 0.000000 -1.000000
vn 0.000000 0.000000 -1.000000
vn 0.000000 0.000000 -1.000000
vn 0.000000 -0.000000 -1.000000
vn 0.000000 0.000000 -1.000000
vn 0.000000 0.000000 -1.000000
vn 0.000000 0.000000 -1.000000
vn 0.000000 0.000000 -1.000000
vn 0.000000 0.000000 -1.000000
vn 0.000000 0.000000 -1.000000
vn 0.000000 0.000000 -1.000000
vn 0.000000 0.000000 -1.000000
vn 0.000000 0.000000 -1.000000
vn 0.000000 0.000000 -1.000000
vn 0.000000 -0.000000 -1.000000
vn 0.000000 0.000000 -1.000000
vn 0.000000 0.000000 -1.000000
vn 0.000000 0.000000 -1.000000
vn 0.000000 -0.000000 -1.000000
vn 0.000000 0.000000 -1.000000
vn 0.000000 0.000000 -1.000000
vn 0.000000 0.000000 -1.000000
vn 0.000000 -0.000000 -1.000000
vn 0.000000 0.000000 -1.000000
vn 0.000000 0.000000 -1.000000
vn 0.000000 0.000000 -1.000000
vn 0.000000 0.000000 -1.000000
vn 0.000000 0.000000 -1.000000
vn 0.000000 0.000000 -1.000000
vn 0.000000 0.000000 -1.000000
vn 0.000000 0.000000 -1.000000
vn 0.000000 0.000000 -1.000000
vn 0.000000 0.000000 -1.000000
vn 0.000000 -0.000000 -1.000000
vn 0.000000 0.000000 -1.000000
vn 0.000000 0.000000 -1.000000
vn 0.000000 -0.000000 -1.000000
vn 0.000000 -0.000000 -1.000000
vn 0.000000 0.000000 -1.000000
vn 0.000000 0.000000 -1.000000
vn -0.992709 -0.120537 -0.000000
vn -0.992709 -0.120537 0.000000
vn -0.935016 -0.354605 0.000000
vn -0.935016 -0.354605 -0.000000
vn -0.822984 -0.568065 0.000000
vn -0.663123 -0.748511 0.000000
vn -0.822984 -0.568065 -0.000000
vn -0.464723 -0.885456 0.000000
vn -0.663123 -0.748511 0.000000
vn -0.464723 -0.885456 0.000000
vn -0.239316 -0.970942 0.000000
vn -0.239316 -0.970942 -0.000000
vn 0.000000 -1.000000 0.000000
vn 0.239316 -0.970942 0.000000
vn -0.000000 -1.000000 -0.000000
vn 0.239316 -0.970942 0.000000
vn 0.464723 -0.885456 0.000000
vn 0.464723 -0.885456 0.000000
vn 0.663123 -0.748511 0.000000
vn 0.663123 -0.748511 0.000000
vn 0.822984 -0.568065 0.000000
vn 0.822984 -0.568065 0.000000
vn 0.935016 -0.354605 0.000000
vn 0.935016 -0.354605 0.000000
vn 0.992709 -0.120537 0.000000
vn 0.992709 -0.120537 0.000000
vn 0.992709 0.120537 -0.000000
vn 0.992709 0.120537 0.000000
vn 0.935016 0.354605 0.000000
vn 0.935016 0.354605 0.000000
vn 0.822984 0.568065 0.000000
vn 0.822984 0.568065 0.000000
vn 0.663123 0.748511 -0.000000
vn 0.663123 0.748511 0.000000
vn 0.464723 0.885456 0.000000
vn 0.464723 0.885456 0.000000
vn 0.239316 0.970942 -0.000000
vn 0.239316 0.970942 0.000000
vn -0.000000 1.000000 0.000000
vn 0.000000 1.000000 0.000000
vn -0.239316 0.970942 0.000000
vn -0.239316 0.970942 0.000000
vn -0.464723 0.885456 0.000000
vn -0.464723 0.885456 0.000000
vn -0.663123 0.748511 0.000000
vn -0.663123 0.748511 0.000000
vn -0.822984 0.568065 0.000000
vn -0.822984 0.568065 0.000000
vn -0.935016 0.354605 0.000000
vn -0.935016 0.354605 0.000000
vn -0.992709 0.120537 0.000000
vn -0.992709 0.120537 0.000000
f 1//1 2//1 3//1
f 1//2 3//2 4//2
f 5//3 4//3 6//3
f 5//4 1//4 4//4
f 7//5 6//5 8//5
f 7//6 5//6 6//6
f 9//7 8//7 10//7
f 9//8 7//8 8//8
f 11//9 10//9 12//9
f 11//10 9//10 10//10
f 13//11 12//11 14//11
f 13//12 11//12 12//12
f 15//13 14//13 16//13
f 15//14 13//14 14//14
f 17//15 15//15 16//15
f 17//16 16//16 18//16
f 19//17 17//17 18//17
f 19//18 18//18 20//18
f 19//19 20//19 21//19
f 22//20 19//20 21//20
f 23//21 22//21 21//21
f 23//22 21//22 24//22
f 23//23 24//23 25//23
f 26//24 23//24 25//24
f 27//25 26//25 25//25
f 27//26 25//26 28//26
f 27//27 28//27 29//27
f 30//28 27//28 29//28
f 30//29 29//29 31//29
f 32//30 30//30 31//30
f 33//31 32//31 31//31
f 33//32 31//32 34//32
f 33//33 34//33 35//33
f 36//34 33//34 35//34
f 37//35 36//35 35//35
f 37//36 35//36 38//36
f 39//37 37//37 38//37
f 39//38 38//38 40//38
f 41//39 39//39 40//39
f 41//40 40//40 42//40
f 43//41 41//41 42//41
f 43//42 42//42 44//42
f 45//43 43//43 44//43
f 45//44 44//44 46//44
f 47//45 46//45 48//45
f 47//46 48//46 49//46
f 47//47 45//47 46//47
f 50//48 47//48 49//48
f 51//49 49//49 52//49
f 51//50 52//50 53//50
f 51//51 50//51 49//51
f 54//52 51//52 53//52
f 55//53 53//53 56//53
f 55//54 54//54 53//54
f 57//55 56//55 58//55
f 57//56 55//56 56//56
f 59//57 58//57 60//57
f 59//58 60//58 61//58
f 59//59 57//59 58//59
f 62//60 59//60 61//60
f 63//61 61//61 64//61
f 63//62 62//62 61//62
f 2//63 64//63 3//63
f 2//64 63//64 64//64
f 65//65 39//65 41//65
f 66//66 41//66 43//66
f 66//67 43//67 45//67
f 66//68 65//68 41//68
f 67//69 37//69 39//69
f 67//70 39//70 65//70
f 68//71 45//71 47//71
f 68//72 66//72 45//72
f 69//73 36//73 37//73
f 69//74 37//74 67//74
f 70//75 47//75 50//75
f 70//76 68//76 47//76
f 71//77 32//77 33//77
f 71//78 33//78 36//78
f 71//79 36//79 69//79
f 72//80 50//80 51//80
f 72//81 70//81 50//81
f 73//82 30//82 32//82
f 73//83 32//83 71//83
f 74//84 51//84 54//84
f 74//85 72//85 51//85
f 75//86 27//86 30//86
f 75//87 30//87 73//87
f 76//88 54//88 55//88
f 76//89 74//89 54//89
f 77//90 27//90 75//90
f 26//91 27//91 77//91
f 57//92 76//92 55//92
f 78//93 76//93 57//93
f 79//94 26//94 77//94
f 23//95 26//95 79//95
f 59//96 78//96 57//96
f 59//97 80//97 78//97
f 22//98 23//98 79//98
f 22//99 79//99 81//99
f 62//100 80//100 59//100
f 62//101 82//101 80//101
f 19//102 81//102 83//102
f 19//103 22//103 81//103
f 63//104 82//104 62//104
f 63//105 84//105 82//105
f 2//106 84//106 63//106
f 17//107 83//107 85//107
f 17//108 19//108 83//108
f 15//109 85//109 86//109
f 15//110 17//110 85//110
f 1//111 87//111 84//111
f 1//112 84//112 2//112
f 5//113 87//113 1//113
f 5//114 88//114 87//114
f 13//115 86//115 89//115
f 13//116 15//116 86//116
f 7//117 90//117 88//117
f 7//118 88//118 5//118
f 11//119 13//119 89//119
f 9//120 11//120 89//120
f 9//121 89//121 90//121
f 9//122 90//122 7//122
f 40//123 91//123 42//123
f 42//124 92//124 44//124
f 44//125 92//125 46//125
f 91//126 92//126 42//126
f 38//127 93//127 40//127
f 40//128 93//128 91//128
f 46//129 94//129 48//129
f 92//130 94//130 46//130
f 35//131 95//131 38//131
f 38//132 95//132 93//132
f 48//133 96//133 49//133
f 94//134 96//134 48//134
f 31//135 97//135 34//135
f 34//136 97//136 35//136
f 35//137 97//137 95//137
f 49//138 98//138 52//138
f 96//139 98//139 49//139
f 29//140 99//140 31//140
f 31//141 99//141 97//141
f 52//142 100//142 53//142
f 98//143 100//143 52//143
f 28//144 101//144 29//144
f 29//145 101//145 99//145
f 53//146 102//146 56//146
f 100//147 102//147 53//147
f 28//148 103//148 101//148
f 28//149 25//149 103//149
f 102//150 58//150 56//150
f 102//151 104//151 58//151
f 25//152 105//152 103//152
f 25//153 24//153 105//153
f 104//154 60//154 58//154
f 106//155 60//155 104//155
f 24//156 21//156 105//156
f 105//157 21//157 107//157
f 106//158 61//158 60//158
f 108//159 61//159 106//159
f 107//160 20//160 109//160
f 21//161 20//161 107//161
f 108//162 64//162 61//162
f 110//163 64//163 108//163
f 110//164 3//164 64//164
f 109//165 18//165 111//165
f 20//166 18//166 109//166
f 111//167 16//167 112//167
f 18//168 16//168 111//168
f 113//169 4//169 110//169
f 110//170 4//170 3//170
f 113//171 6//171 4//171
f 114//172 6//172 113//172
f 112//173 14//173 115//173
f 16//174 14//174 112//174
f 116//175 8//175 114//175
f 114//176 8//176 6//176
f 14//177 12//177 115//177
f 12//178 10//178 115//178
f 115//179 10//179 116//179
f 116//180 10//180 8//180
f 84//181 87//181 110//181
f 110//182 87//182 113//182
f 113//183 88//183 114//183
f 87//184 88//184 113//184
f 114//185 90//185 116//185
f 116//186 90//186 115//186
f 88//187 90//187 114//187
f 115//188 89//188 112//188
f 90//189 89//189 115//189
f 89//190 86//190 112//190
f 112//191 85//191 111//191
f 86//192 85//192 112//192
f 111//193 83//193 109//193
f 109//194 83//194 107//194
f 85//195 83//195 111//195
f 83//196 81//196 107//196
f 107//197 79//197 105//197
f 81//198 79//198 107//198
f 105//199 77//199 103//199
f 79//200 77//200 105//200
f 77//201 75//201 103//201
f 103//202 75//202 101//202
f 101//203 75//203 99//203
f 75//204 73//204 99//204
f 73//205 71//205 99//205
f 99//206 71//206 97//206
f 97//207 71//207 95//207
f 71//208 69//208 95//208
f 69//209 67//209 95//209
f 95//210 67//210 93//210
f 67//211 65//211 93//211
f 93//212 65//212 91//212
f 91//213 65//213 92//213
f 65//214 66//214 92//214
f 66//215 68//215 92//215
f 92//216 68//216 94//216
f 94//217 68//217 96//217
f 68//218 70//218 96//218
f 70//219 72//219 96//219
f 96//220 72//220 98//220
f 72//221 74//221 98//221
f 98//222 74//222 100//222
f 74//223 76//223 100//223
f 100//224 76//224 102//224
f 76//225 78//225 102//225
f 102//226 78//226 104//226
f 78//227 80//227 104//227
f 104//228 80//228 106//228
f 106//229 82//229 108//229
f 80//230 82//230 106//230
f 108//231 84//231 110//231
f 82//232 84//232 108//232
