# Created by FreeCAD <https://www.freecad.org>
v 2.800000 -0.000000 0.000000
v 2.777921 0.350933 0.000000
v 2.800000 -0.000000 6.000000
v 2.777921 0.350933 6.000000
v 2.712033 0.696332 0.000000
v 2.712033 0.696332 6.000000
v 2.603374 1.030749 6.000000
v 2.603374 1.030749 0.000000
v 2.453659 1.348910 0.000000
v 2.453659 1.348910 6.000000
v 2.265248 1.645799 6.000000
v 2.265248 1.645799 0.000000
v 2.041112 1.916732 6.000000
v 2.041112 1.916732 0.000000
v 1.784787 2.157437 0.000000
v 1.784787 2.157437 6.000000
v 1.500315 2.364118 0.000000
v 1.500315 2.364118 6.000000
v 1.192182 2.533516 0.000000
v 1.192182 2.533516 6.000000
v 0.865248 2.662958 0.000000
v 0.865248 2.662958 6.000000
v 0.524668 2.750404 0.000000
v 0.524668 2.750404 6.000000
v 0.175813 2.794475 6.000000
v 0.175813 2.794475 0.000000
v -0.175813 2.794475 0.000000
v -0.175813 2.794475 6.000000
v -0.524668 2.750404 0.000000
v -0.524668 2.750404 6.000000
v -0.865248 2.662958 6.000000
v -0.865248 2.662958 0.000000
v -1.192182 2.533516 0.000000
v -1.192182 2.533516 6.000000
v -1.500315 2.364118 0.000000
v -1.500315 2.364118 6.000000
v -1.784787 2.157437 0.000000
v -1.784787 2.157437 6.000000
v -2.041112 1.916732 0.000000
v -2.041112 1.916732 6.000000
v -2.265248 1.645799 0.000000
v -2.265248 1.645799 6.000000
v -2.453659 1.348910 0.000000
v -2.453659 1.348910 6.000000
v -2.603374 1.030749 0.000000
v -2.603374 1.030749 6.000000
v -2.712033 0.696332 0.000000
v -2.712033 0.696332 6.000000
v -2.777921 0.350933 0.000000
v -2.777921 0.350933 6.000000
v -2.800000 -0.000000 6.000000
v -2.800000 -0.000000 0.000000
v -2.777921 -0.350933 6.000000
v -2.777921 -0.350933 0.000000
v -2.712033 -0.696332 0.000000
v -2.712033 -0.696332 6.000000
v -2.603374 -1.030749 6.000000
v -2.603374 -1.030749 0.000000
v -2.453659 -1.348910 0.000000
v -2.453659 -1.348910 6.000000
v -2.265248 -1.645799 0.000000
v -2.265248 -1.645799 6.000000
v -2.041112 -1.916732 0.000000
v -2.041112 -1.916732 6.000000
v -1.784787 -2.157437 6.000000
v -1.784787 -2.157437 0.000000
v -1.500315 -2.364118 0.000000
v -1.500315 -2.364118 6.000000
v -1.192182 -2.533516 0.000000
v -1.192182 -2.533516 6.000000
v -0.865248 -2.662958 6.000000
v -0.865248 -2.662958 0.000000
v -0.524668 -2.750404 0.000000
v -0.524668 -2.750404 6.000000
v -0.175813 -2.794475 0.000000
v -0.175813 -2.794475 6.000000
v 0.175813 -2.794475 6.000000
v 0.175813 -2.794475 0.000000
v 0.524668 -2.750404 6.000000
v 0.524668 -2.750404 0.000000
v 0.865248 -2.662958 0.000000
v 0.865248 -2.662958 6.000000
v 1.192182 -2.533516 0.000000
v 1.192182 -2.533516 6.000000
v 1.500315 -2.364118 6.000000
v 1.500315 -2.364118 0.000000
v 1.784787 -2.157437 0.000000
v 1.784787 -2.157437 6.000000
v 2.041112 -1.916732 0.000000
v 2.041112 -1.916732 6.000000
v 2.265248 -1.645799 6.000000
v 2.265248 -1.645799 0.000000
v 2.453659 -1.348910 0.000000
v 2.453659 -1.348910 6.000000
v 2.603374 -1.030749 0.000000
v 2.603374 -1.030749 6.000000
v 2.712033 -0.696332 6.000000
v 2.712033 -0.696332 0.000000
v 2.777921 -0.350933 0.000000
v 2.777921 -0.350933 6.000000
v -0.834634 -0.716510 0.000000
v -0.673317 -0.869853 0.000000
v -0.961781 -0.533832 0.000000
v -0.484434 -0.987585 0.000000
v -1.049553 -0.329299 0.000000
v -0.275718 -1.064885 0.000000
v -1.094356 -0.111285 0.000000
v -0.055714 -1.098588 0.000000
v -1.094356 0.111285 0.000000
v 0.166571 -1.087315 0.000000
v -1.049553 0.329299 0.000000
v 0.382036 -1.031527 0.000000
v -0.961781 0.533832 0.000000
v 0.581860 -0.933509 0.000000
v -0.834634 0.716510 0.000000
v 0.757864 -0.797272 0.000000
v -0.673317 0.869853 0.000000
v 0.902840 -0.628395 0.000000
v -0.484434 0.987585 0.000000
v 1.010854 -0.433791 0.000000
v -0.275718 1.064885 0.000000
v 1.077483 -0.221428 0.000000
v -0.055714 1.098588 0.000000
v 1.100000 0.000000 0.000000
v 0.166571 1.087315 0.000000
v 1.077483 0.221428 0.000000
v 1.010854 0.433791 0.000000
v 0.382036 1.031527 0.000000
v 0.581860 0.933509 0.000000
v 0.902840 0.628395 0.000000
v 0.757864 0.797272 0.000000
v -0.834634 -0.716510 6.000000
v -0.673317 -0.869853 6.000000
v -0.961781 -0.533832 6.000000
v -0.484434 -0.987585 6.000000
v -1.049553 -0.329299 6.000000
v -0.275718 -1.064885 6.000000
v -1.094356 -0.111285 6.000000
v -0.055714 -1.098588 6.000000
v -1.094356 0.111285 6.000000
v 0.166571 -1.087315 6.000000
v -1.049553 0.329299 6.000000
v 0.382036 -1.031527 6.000000
v -0.961781 0.533832 6.000000
v 0.581860 -0.933509 6.000000
v -0.834634 0.716510 6.000000
v 0.757864 -0.797272 6.000000
v -0.673317 0.869853 6.000000
v 0.902840 -0.628395 6.000000
v -0.484434 0.987585 6.000000
v 1.010854 -0.433791 6.000000
v -0.275718 1.064885 6.000000
v 1.077483 -0.221428 6.000000
v -0.055714 1.098588 6.000000
v 1.100000 0.000000 6.000000
v 0.166571 1.087315 6.000000
v 1.077483 0.221428 6.000000
v 1.010854 0.433791 6.000000
v 0.382036 1.031527 6.000000
v 0.581860 0.933509 6.000000
v 0.902840 0.628395 6.000000
v 0.757864 0.797272 6.000000
vn 0.998027 0.062790 -0.000000
vn 0.998027 0.062790 0.000000
vn 0.982287 0.187382 0.000000
vn 0.951057 0.309017 0.000000
vn 0.982287 0.187382 -0.000000
vn 0.951057 0.309017 0.000000
vn 0.904827 0.425779 0.000000
vn 0.844328 0.535827 0.000000
vn 0.904827 0.425779 -0.000000
vn 0.770513 0.637424 0.000000
vn 0.844328 0.535827 0.000000
vn 0.770513 0.637424 0.000000
vn 0.684547 0.728969 0.000000
vn 0.684547 0.728969 -0.000000
vn 0.587785 0.809017 0.000000
vn 0.587785 0.809017 -0.000000
vn 0.481754 0.876307 0.000000
vn 0.481754 0.876307 -0.000000
vn 0.368124 0.929777 0.000000
vn 0.368124 0.929777 -0.000000
vn 0.248690 0.968583 0.000000
vn 0.125333 0.992115 0.000000
vn 0.248690 0.968583 -0.000000
vn 0.125333 0.992115 0.000000
vn 0.000000 1.000000 0.000000
vn 0.000000 1.000000 -0.000000
vn -0.125333 0.992115 0.000000
vn -0.248690 0.968583 0.000000
vn -0.125333 0.992115 0.000000
vn -0.248690 0.968583 0.000000
vn -0.368124 0.929777 0.000000
vn -0.368124 0.929777 0.000000
vn -0.481754 0.876307 0.000000
vn -0.481754 0.876307 0.000000
vn -0.587785 0.809017 0.000000
vn -0.587785 0.809017 0.000000
vn -0.684547 0.728969 0.000000
vn -0.684547 0.728969 0.000000
vn -0.770513 0.637424 0.000000
vn -0.770513 0.637424 0.000000
vn -0.844328 0.535827 0.000000
vn -0.844328 0.535827 0.000000
vn -0.904827 0.425779 0.000000
vn -0.904827 0.425779 0.000000
vn -0.951057 0.309017 0.000000
vn -0.951057 0.309017 0.000000
vn -0.982287 0.187382 0.000000
vn -0.998027 0.062790 0.000000
vn -0.982287 0.187382 0.000000
vn -0.998027 0.062790 0.000000
vn -0.998027 -0.062790 -0.000000
vn -0.998027 -0.062790 0.000000
vn -0.982287 -0.187382 0.000000
vn -0.982287 -0.187382 0.000000
vn -0.951057 -0.309017 -0.000000
vn -0.951057 -0.309017 0.000000
vn -0.904827 -0.425779 0.000000
vn -0.904827 -0.425779 0.000000
vn -0.844328 -0.535827 0.000000
vn -0.844328 -0.535827 0.000000
vn -0.770513 -0.637424 0.000000
vn -0.770513 -0.637424 0.000000
vn -0.684547 -0.728969 -0.000000
vn -0.684547 -0.728969 0.000000
vn -0.587785 -0.809017 0.000000
vn -0.587785 -0.809017 0.000000
vn -0.481754 -0.876307 0.000000
vn -0.368124 -0.929777 -0.000000
vn -0.481754 -0.876307 0.000000
vn -0.368124 -0.929777 0.000000
vn -0.248690 -0.968583 0.000000
vn -0.248690 -0.968583 0.000000
vn -0.125333 -0.992115 0.000000
vn 0.000000 -1.000000 0.000000
vn -0.125333 -0.992115 0.000000
vn 0.125333 -0.992115 0.000000
vn 0.000000 -1.000000 0.000000
vn 0.125333 -0.992115 0.000000
vn 0.248690 -0.968583 0.000000
vn 0.248690 -0.968583 0.000000
vn 0.368124 -0.929777 0.000000
vn 0.481754 -0.876307 0.000000
vn 0.368124 -0.929777 0.000000
vn 0.481754 -0.876307 0.000000
vn 0.587785 -0.809017 0.000000
vn 0.587785 -0.809017 0.000000
vn 0.684547 -0.728969 0.000000
vn 0.770513 -0.637424 0.000000
vn 0.684547 -0.728969 0.000000
vn 0.770513 -0.637424 0.000000
vn 0.844328 -0.535827 0.000000
vn 0.844328 -0.535827 0.000000
vn 0.904827 -0.425779 0.000000
vn 0.951057 -0.309017 0.000000
vn 0.904827 -0.425779 0.000000
vn 0.951057 -0.309017 0.000000
vn 0.982287 -0.187382 0.000000
vn 0.982287 -0.187382 0.000000
vn 0.998027 -0.062790 0.000000
vn 0.998027 -0.062790 0.000000
vn 0.000000 0.000000 -1.000000
vn 0.000000 0.000000 -1.000000
vn 0.000000 0.000000 -1.000000
vn 0.000000 -0.000000 -1.000000
vn 0.000000 0.000000 -1.000000
vn 0.000000 0.000000 -1.000000
vn 0.000000 0.000000 -1.000000
vn 0.000000 0.000000 -1.000000
vn 0.000000 0.000000 -1.000000
vn 0.000000 -0.000000 -1.000000
vn 0.000000 0.000000 -1.000000
vn 0.000000 0.000000 -1.000000
vn 0.000000 -0.000000 -1.000000
vn 0.000000 0.000000 -1.000000
vn 0.000000 0.000000 -1.000000
vn 0.000000 0.000000 -1.000000
vn 0.000000 0.000000 -1.000000
vn 0.000000 -0.000000 -1.000000
vn 0.000000 0.000000 -1.000000
vn 0.000000 0.000000 -1.000000
vn 0.000000 0.000000 -1.000000
vn 0.000000 -0.000000 -1.000000
vn 0.000000 -0.000000 -1.000000
vn 0.000000 0.000000 -1.000000
vn 0.000000 0.000000 -1.000000
vn 0.000000 0.000000 -1.000000
vn 0.000000 -0.000000 -1.000000
vn 0.000000 0.000000 -1.000000
vn 0.000000 0.000000 -1.000000
vn 0.000000 0.000000 -1.000000
vn 0.000000 -0.000000 -1.000000
vn 0.000000 -0.000000 -1.000000
vn 0.000000 0.000000 -1.000000
vn 0.000000 0.000000 -1.000000
vn 0.000000 0.000000 -1.000000
vn 0.000000 0.000000 -1.000000
vn 0.000000 -0.000000 -1.000000
vn 0.000000 0.000000 -1.000000
vn 0.000000 0.000000 -1.000000
vn 0.000000 0.000000 -1.000000
vn 0.000000 0.000000 -1.000000
vn 0.000000 0.000000 -1.000000
vn 0.000000 0.000000 -1.000000
vn 0.000000 0.000000 -1.000000
vn 0.000000 0.000000 -1.000000
vn 0.000000 0.000000 -1.000000
vn 0.000000 0.000000 -1.000000
vn 0.000000 -0.000000 -1.000000
vn 0.000000 0.000000 -1.000000
vn 0.000000 0.000000 -1.000000
vn 0.000000 0.000000 -1.000000
vn 0.000000 0.000000 -1.000000
vn 0.000000 -0.000000 -1.000000
vn 0.000000 0.000000 -1.000000
vn 0.000000 0.000000 -1.000000
vn 0.000000 0.000000 -1.000000
vn 0.000000 -0.000000 -1.000000
vn 0.000000 0.000000 -1.000000
vn 0.000000 0.000000 -1.000000
vn 0.000000 0.000000 -1.000000
vn 0.000000 0.000000 -1.000000
vn 0.000000 0.000000 -1.000000
vn 0.000000 0.000000 -1.000000
vn 0.000000 0.000000 -1.000000
vn 0.000000 -0.000000 -1.000000
vn 0.000000 0.000000 -1.000000
vn 0.000000 0.000000 -1.000000
vn 0.000000 -0.000000 -1.000000
vn 0.000000 0.000000 -1.000000
vn 0.000000 0.000000 -1.000000
vn 0.000000 -0.000000 -1.000000
vn 0.000000 0.000000 -1.000000
vn 0.000000 0.000000 -1.000000
vn 0.000000 0.000000 -1.000000
vn 0.000000 -0.000000 -1.000000
vn 0.000000 0.000000 -1.000000
vn 0.000000 -0.000000 -1.000000
vn 0.000000 0.000000 -1.000000
vn 0.000000 -0.000000 -1.000000
vn 0.000000 0.000000 -1.000000
vn 0.000000 0.000000 -1.000000
vn 0.000000 0.000000 1.000000
vn 0.000000 0.000000 1.000000
vn 0.000000 0.000000 1.000000
vn 0.000000 0.000000 1.000000
vn 0.000000 0.000000 1.000000
vn 0.000000 0.000000 1.000000
vn 0.000000 0.000000 1.000000
vn 0.000000 0.000000 1.000000
vn 0.000000 0.000000 1.000000
vn 0.000000 0.000000 1.000000
vn 0.000000 0.000000 1.000000
vn 0.000000 0.000000 1.000000
vn 0.000000 0.000000 1.000000
vn 0.000000 0.000000 1.000000
vn 0.000000 0.000000 1.000000
vn 0.000000 0.000000 1.000000
vn 0.000000 0.000000 1.000000
vn 0.000000 0.000000 1.000000
vn 0.000000 0.000000 1.000000
vn 0.000000 0.000000 1.000000
vn 0.000000 0.000000 1.000000
vn 0.000000 0.000000 1.000000
vn 0.000000 0.000000 1.000000
vn 0.000000 0.000000 1.000000
vn 0.000000 0.000000 1.000000
vn 0.000000 0.000000 1.000000
vn 0.000000 0.000000 1.000000
vn 0.000000 0.000000 1.000000
vn 0.000000 0.000000 1.000000
vn 0.000000 0.000000 1.000000
vn 0.000000 0.000000 1.000000
vn 0.000000 0.000000 1.000000
vn 0.000000 0.000000 1.000000
vn 0.000000 0.000000 1.000000
vn 0.000000 0.000000 1.000000
vn 0.000000 0.000000 1.000000
vn 0.000000 0.000000 1.000000
vn 0.000000 0.000000 1.000000
vn 0.000000 0.000000 1.000000
vn 0.000000 0.000000 1.000000
vn 0.000000 0.000000 1.000000
vn 0.000000 0.000000 1.000000
vn 0.000000 0.000000 1.000000
vn 0.000000 0.000000 1.000000
vn 0.000000 0.000000 1.000000
vn 0.000000 0.000000 1.000000
vn 0.000000 0.000000 1.000000
vn 0.000000 0.000000 1.000000
vn 0.000000 0.000000 1.000000
vn 0.000000 0.000000 1.000000
vn 0.000000 0.000000 1.000000
vn 0.000000 0.000000 1.000000
vn 0.000000 0.000000 1.000000
vn 0.000000 0.000000 1.000000
vn 0.000000 0.000000 1.000000
vn 0.000000 0.000000 1.000000
vn 0.000000 0.000000 1.000000
vn 0.000000 0.000000 1.000000
vn 0.000000 0.000000 1.000000
vn 0.000000 0.000000 1.000000
vn 0.000000 0.000000 1.000000
vn 0.000000 0.000000 1.000000
vn 0.000000 0.000000 1.000000
vn 0.000000 0.000000 1.000000
vn 0.000000 0.000000 1.000000
vn 0.000000 0.000000 1.000000
vn 0.000000 0.000000 1.000000
vn 0.000000 0.000000 1.000000
vn 0.000000 0.000000 1.000000
vn 0.000000 0.000000 1.000000
vn 0.000000 0.000000 1.000000
vn 0.000000 0.000000 1.000000
vn 0.000000 0.000000 1.000000
vn 0.000000 0.000000 1.000000
vn 0.000000 0.000000 1.000000
vn 0.000000 0.000000 1.000000
vn 0.000000 0.000000 1.000000
vn 0.000000 0.000000 1.000000
vn 0.000000 0.000000 1.000000
vn 0.000000 0.000000 1.000000
vn 0.000000 0.000000 1.000000
vn -0.994869 -0.101168 0.000000
vn -0.994869 -0.101168 0.000000
vn -0.954139 -0.299363 0.000000
vn -0.954139 -0.299363 0.000000
vn -0.874346 -0.485302 0.000000
vn -0.758758 -0.651372 0.000000
vn -0.874346 -0.485302 0.000000
vn -0.758758 -0.651372 0.000000
vn -0.612106 -0.790776 0.000000
vn -0.612106 -0.790776 0.000000
vn -0.440394 -0.897804 0.000000
vn -0.440394 -0.897804 0.000000
vn -0.250652 -0.968077 0.000000
vn -0.050649 -0.998717 0.000000
vn -0.250652 -0.968077 0.000000
vn -0.050649 -0.998717 0.000000
vn 0.151428 -0.988468 0.000000
vn 0.151428 -0.988468 0.000000
vn 0.347305 -0.937752 0.000000
vn 0.347305 -0.937752 0.000000
vn 0.528964 -0.848644 0.000000
vn 0.528964 -0.848644 0.000000
vn 0.688967 -0.724793 0.000000
vn 0.688967 -0.724793 0.000000
vn 0.820764 -0.571268 0.000000
vn 0.918958 -0.394356 0.000000
vn 0.820764 -0.571268 0.000000
vn 0.918958 -0.394356 0.000000
vn 0.979530 -0.201299 0.000000
vn 0.979530 -0.201299 0.000000
vn 1.000000 0.000000 0.000000
vn 1.000000 0.000000 0.000000
vn 0.979530 0.201299 -0.000000
vn 0.979530 0.201299 0.000000
vn 0.918958 0.394356 -0.000000
vn 0.918958 0.394356 0.000000
vn 0.820764 0.571268 -0.000000
vn 0.820764 0.571268 0.000000
vn 0.688967 0.724793 -0.000000
vn 0.688967 0.724793 0.000000
vn 0.528964 0.848644 -0.000000
vn 0.347305 0.937752 -0.000000
vn 0.528964 0.848644 0.000000
vn 0.347305 0.937752 -0.000000
vn 0.151428 0.988468 -0.000000
vn 0.151428 0.988468 0.000000
vn -0.050649 0.998717 0.000000
vn -0.250652 0.968077 0.000000
vn -0.050649 0.998717 0.000000
vn -0.250652 0.968077 0.000000
vn -0.440394 0.897804 0.000000
vn -0.612106 0.790776 0.000000
vn -0.440394 0.897804 0.000000
vn -0.612106 0.790776 0.000000
vn -0.758758 0.651372 0.000000
vn -0.758758 0.651372 0.000000
vn -0.874346 0.485302 0.000000
vn -0.874346 0.485302 0.000000
vn -0.954139 0.299363 0.000000
vn -0.994869 0.101168 0.000000
vn -0.954139 0.299363 0.000000
vn -0.994869 0.101168 0.000000
f 1//1 2//1 3//1
f 3//2 2//2 4//2
f 4//3 5//3 6//3
f 6//4 5//4 7//4
f 2//5 5//5 4//5
f 5//6 8//6 7//6
f 7//7 9//7 10//7
f 10//8 9//8 11//8
f 8//9 9//9 7//9
f 11//10 12//10 13//10
f 9//11 12//11 11//11
f 12//12 14//12 13//12
f 13//13 15//13 16//13
f 14//14 15//14 13//14
f 16//15 17//15 18//15
f 15//16 17//16 16//16
f 18//17 19//17 20//17
f 17//18 19//18 18//18
f 20//19 21//19 22//19
f 19//20 21//20 20//20
f 22//21 23//21 24//21
f 24//22 23//22 25//22
f 21//23 23//23 22//23
f 23//24 26//24 25//24
f 25//25 27//25 28//25
f 26//26 27//26 25//26
f 28//27 29//27 30//27
f 30//28 29//28 31//28
f 27//29 29//29 28//29
f 29//30 32//30 31//30
f 31//31 33//31 34//31
f 32//32 33//32 31//32
f 34//33 35//33 36//33
f 33//34 35//34 34//34
f 36//35 37//35 38//35
f 35//36 37//36 36//36
f 38//37 39//37 40//37
f 37//38 39//38 38//38
f 40//39 41//39 42//39
f 39//40 41//40 40//40
f 42//41 43//41 44//41
f 41//42 43//42 42//42
f 44//43 45//43 46//43
f 43//44 45//44 44//44
f 46//45 47//45 48//45
f 45//46 47//46 46//46
f 48//47 49//47 50//47
f 50//48 49//48 51//48
f 47//49 49//49 48//49
f 49//50 52//50 51//50
f 51//51 52//51 53//51
f 52//52 54//52 53//52
f 54//53 55//53 53//53
f 53//54 55//54 56//54
f 56//55 55//55 57//55
f 55//56 58//56 57//56
f 58//57 59//57 57//57
f 57//58 59//58 60//58
f 59//59 61//59 60//59
f 60//60 61//60 62//60
f 61//61 63//61 62//61
f 62//62 63//62 64//62
f 64//63 63//63 65//63
f 63//64 66//64 65//64
f 65//65 67//65 68//65
f 66//66 67//66 65//66
f 68//67 69//67 70//67
f 70//68 69//68 71//68
f 67//69 69//69 68//69
f 69//70 72//70 71//70
f 71//71 73//71 74//71
f 72//72 73//72 71//72
f 74//73 75//73 76//73
f 76//74 75//74 77//74
f 73//75 75//75 74//75
f 77//76 78//76 79//76
f 75//77 78//77 77//77
f 78//78 80//78 79//78
f 79//79 81//79 82//79
f 80//80 81//80 79//80
f 82//81 83//81 84//81
f 84//82 83//82 85//82
f 81//83 83//83 82//83
f 83//84 86//84 85//84
f 85//85 87//85 88//85
f 86//86 87//86 85//86
f 88//87 89//87 90//87
f 90//88 89//88 91//88
f 87//89 89//89 88//89
f 89//90 92//90 91//90
f 91//91 93//91 94//91
f 92//92 93//92 91//92
f 94//93 95//93 96//93
f 96//94 95//94 97//94
f 93//95 95//95 94//95
f 95//96 98//96 97//96
f 98//97 99//97 97//97
f 97//98 99//98 100//98
f 99//99 1//99 100//99
f 100//100 1//100 3//100
f 61//101 101//101 63//101
f 63//102 102//102 66//102
f 66//103 102//103 67//103
f 101//104 102//104 63//104
f 58//105 103//105 59//105
f 59//106 103//106 61//106
f 61//107 103//107 101//107
f 67//108 104//108 69//108
f 69//109 104//109 72//109
f 102//110 104//110 67//110
f 58//111 105//111 103//111
f 55//112 105//112 58//112
f 104//113 106//113 72//113
f 72//114 106//114 73//114
f 52//115 107//115 54//115
f 54//116 107//116 55//116
f 55//117 107//117 105//117
f 106//118 108//118 73//118
f 73//119 108//119 75//119
f 75//120 108//120 78//120
f 52//121 109//121 107//121
f 47//122 109//122 49//122
f 49//123 109//123 52//123
f 108//124 110//124 78//124
f 78//125 110//125 80//125
f 80//126 110//126 81//126
f 45//127 111//127 47//127
f 47//128 111//128 109//128
f 81//129 112//129 83//129
f 110//130 112//130 81//130
f 41//131 113//131 43//131
f 43//132 113//132 45//132
f 45//133 113//133 111//133
f 112//134 114//134 83//134
f 83//135 114//135 86//135
f 86//136 114//136 87//136
f 39//137 115//137 41//137
f 41//138 115//138 113//138
f 114//139 116//139 87//139
f 116//140 89//140 87//140
f 39//141 117//141 115//141
f 116//142 118//142 89//142
f 39//143 37//143 117//143
f 118//144 92//144 89//144
f 117//145 35//145 119//145
f 37//146 35//146 117//146
f 118//147 93//147 92//147
f 120//148 93//148 118//148
f 35//149 33//149 119//149
f 120//150 95//150 93//150
f 119//151 32//151 121//151
f 33//152 32//152 119//152
f 122//153 98//153 120//153
f 120//154 98//154 95//154
f 32//155 29//155 121//155
f 121//156 29//156 123//156
f 124//157 99//157 122//157
f 122//158 99//158 98//158
f 29//159 27//159 123//159
f 124//160 1//160 99//160
f 123//161 26//161 125//161
f 27//162 26//162 123//162
f 124//163 2//163 1//163
f 126//164 2//164 124//164
f 26//165 23//165 125//165
f 126//166 5//166 2//166
f 127//167 5//167 126//167
f 23//168 21//168 125//168
f 125//169 21//169 128//169
f 127//170 8//170 5//170
f 21//171 19//171 128//171
f 128//172 19//172 129//172
f 127//173 9//173 8//173
f 130//174 9//174 127//174
f 19//175 17//175 129//175
f 130//176 12//176 9//176
f 17//177 15//177 129//177
f 129//178 15//178 131//178
f 15//179 14//179 131//179
f 130//180 14//180 12//180
f 131//181 14//181 130//181
f 132//182 62//182 64//182
f 133//183 64//183 65//183
f 133//184 65//184 68//184
f 133//185 132//185 64//185
f 134//186 57//186 60//186
f 134//187 60//187 62//187
f 134//188 62//188 132//188
f 135//189 68//189 70//189
f 135//190 70//190 71//190
f 135//191 133//191 68//191
f 136//192 57//192 134//192
f 136//193 56//193 57//193
f 137//194 135//194 71//194
f 137//195 71//195 74//195
f 138//196 51//196 53//196
f 138//197 53//197 56//197
f 138//198 56//198 136//198
f 139//199 137//199 74//199
f 139//200 74//200 76//200
f 139//201 76//201 77//201
f 140//202 51//202 138//202
f 140//203 48//203 50//203
f 140//204 50//204 51//204
f 141//205 139//205 77//205
f 141//206 77//206 79//206
f 141//207 79//207 82//207
f 142//208 46//208 48//208
f 142//209 48//209 140//209
f 143//210 82//210 84//210
f 143//211 141//211 82//211
f 144//212 42//212 44//212
f 144//213 44//213 46//213
f 144//214 46//214 142//214
f 145//215 143//215 84//215
f 145//216 84//216 85//216
f 145//217 85//217 88//217
f 146//218 40//218 42//218
f 146//219 42//219 144//219
f 147//220 145//220 88//220
f 90//221 147//221 88//221
f 148//222 40//222 146//222
f 149//223 147//223 90//223
f 38//224 40//224 148//224
f 91//225 149//225 90//225
f 36//226 148//226 150//226
f 36//227 38//227 148//227
f 94//228 149//228 91//228
f 94//229 151//229 149//229
f 34//230 36//230 150//230
f 96//231 151//231 94//231
f 31//232 150//232 152//232
f 31//233 34//233 150//233
f 97//234 153//234 151//234
f 97//235 151//235 96//235
f 30//236 31//236 152//236
f 30//237 152//237 154//237
f 100//238 155//238 153//238
f 100//239 153//239 97//239
f 28//240 30//240 154//240
f 3//241 155//241 100//241
f 25//242 154//242 156//242
f 25//243 28//243 154//243
f 4//244 155//244 3//244
f 4//245 157//245 155//245
f 24//246 25//246 156//246
f 6//247 157//247 4//247
f 6//248 158//248 157//248
f 22//249 24//249 156//249
f 22//250 156//250 159//250
f 7//251 158//251 6//251
f 20//252 22//252 159//252
f 20//253 159//253 160//253
f 10//254 158//254 7//254
f 10//255 161//255 158//255
f 18//256 20//256 160//256
f 11//257 161//257 10//257
f 16//258 18//258 160//258
f 16//259 160//259 162//259
f 13//260 16//260 162//260
f 13//261 161//261 11//261
f 13//262 162//262 161//262
f 126//263 124//263 155//263
f 126//264 155//264 157//264
f 127//265 157//265 158//265
f 127//266 126//266 157//266
f 130//267 158//267 161//267
f 130//268 161//268 162//268
f 130//269 127//269 158//269
f 131//270 130//270 162//270
f 129//271 162//271 160//271
f 129//272 131//272 162//272
f 128//273 160//273 159//273
f 128//274 129//274 160//274
f 125//275 159//275 156//275
f 125//276 156//276 154//276
f 125//277 128//277 159//277
f 123//278 125//278 154//278
f 121//279 154//279 152//279
f 121//280 123//280 154//280
f 119//281 121//281 152//281
f 119//282 152//282 150//282
f 117//283 150//283 148//283
f 117//284 119//284 150//284
f 115//285 148//285 146//285
f 115//286 117//286 148//286
f 113//287 146//287 144//287
f 113//288 144//288 142//288
f 113//289 115//289 146//289
f 111//290 113//290 142//290
f 109//291 142//291 140//291
f 109//292 111//292 142//292
f 107//293 140//293 138//293
f 107//294 109//294 140//294
f 105//295 138//295 136//295
f 105//296 107//296 138//296
f 103//297 136//297 134//297
f 103//298 105//298 136//298
f 101//299 134//299 132//299
f 101//300 103//300 134//300
f 102//301 132//301 133//301
f 102//302 101//302 132//302
f 104//303 133//303 135//303
f 104//304 135//304 137//304
f 104//305 102//305 133//305
f 106//306 104//306 137//306
f 108//307 137//307 139//307
f 108//308 106//308 137//308
f 110//309 139//309 141//309
f 110//310 141//310 143//310
f 110//311 108//311 139//311
f 112//312 110//312 143//312
f 114//313 143//313 145//313
f 114//314 145//314 147//314
f 114//315 112//315 143//315
f 116//316 114//316 147//316
f 118//317 147//317 149//317
f 118//318 116//318 147//318
f 120//319 149//319 151//319
f 120//320 118//320 149//320
f 122//321 151//321 153//321
f 122//322 153//322 155//322
f 122//323 120//323 151//323
f 124//324 122//324 155//324
