# Created by FreeCAD <https://www.freecad.org>
v 4.000000 -0.000000 2.000000
v 3.976552 0.432476 2.000000
v 4.000000 -0.000000 4.000000
v 3.976552 0.432476 4.000000
v 3.906482 0.859882 2.000000
v 3.906482 0.859882 4.000000
v 3.790613 1.277206 2.000000
v 3.790613 1.277206 4.000000
v 3.630302 1.679556 2.000000
v 3.630302 1.679556 4.000000
v 3.427429 2.062215 2.000000
v 3.427429 2.062215 4.000000
v 3.184372 2.420697 2.000000
v 3.184372 2.420697 4.000000
v 2.903982 2.750798 2.000000
v 2.903982 2.750798 4.000000
v 2.589545 3.048648 2.000000
v 2.589545 3.048648 4.000000
v 2.244748 3.310756 2.000000
v 2.244748 3.310756 4.000000
v 1.873634 3.534048 2.000000
v 1.873634 3.534048 4.000000
v 1.480553 3.715907 2.000000
v 1.480553 3.715907 4.000000
v 1.070113 3.854200 2.000000
v 1.070113 3.854200 4.000000
v 0.647128 3.947306 2.000000
v 0.647128 3.947306 4.000000
v 0.216556 3.994134 4.000000
v 0.216556 3.994134 2.000000
v -0.216556 3.994134 4.000000
v -0.216556 3.994134 2.000000
v -0.647128 3.947306 2.000000
v -0.647128 3.947306 4.000000
v -1.070113 3.854200 2.000000
v -1.070113 3.854200 4.000000
v -1.480553 3.715907 2.000000
v -1.480553 3.715907 4.000000
v -1.873634 3.534048 2.000000
v -1.873634 3.534048 4.000000
v -2.244748 3.310756 2.000000
v -2.244748 3.310756 4.000000
v -2.589545 3.048648 2.000000
v -2.589545 3.048648 4.000000
v -2.903982 2.750798 2.000000
v -2.903982 2.750798 4.000000
v -3.184372 2.420697 2.000000
v -3.184372 2.420697 4.000000
v -3.427429 2.062215 2.000000
v -3.427429 2.062215 4.000000
v -3.630302 1.679556 4.000000
v -3.630302 1.679556 2.000000
v -3.790613 1.277206 2.000000
v -3.790613 1.277206 4.000000
v -3.906482 0.859882 4.000000
v -3.906482 0.859882 2.000000
v -3.976552 0.432476 2.000000
v -3.976552 0.432476 4.000000
v -4.000000 -0.000000 2.000000
v -4.000000 -0.000000 4.000000
v -3.976552 -0.432476 2.000000
v -3.976552 -0.432476 4.000000
v -3.906482 -0.859882 2.000000
v -3.906482 -0.859882 4.000000
v -3.790613 -1.277206 2.000000
v -3.790613 -1.277206 4.000000
v -3.630302 -1.679556 2.000000
v -3.630302 -1.679556 4.000000
v -3.427429 -2.062215 2.000000
v -3.427429 -2.062215 4.000000
v -3.184372 -2.420697 2.000000
v -3.184372 -2.420697 4.000000
v -2.903982 -2.750798 2.000000
v -2.903982 -2.750798 4.000000
v -2.589545 -3.048648 2.000000
v -2.589545 -3.048648 4.000000
v -2.244748 -3.310756 4.000000
v -2.244748 -3.310756 2.000000
v -1.873634 -3.534048 2.000000
v -1.873634 -3.534048 4.000000
v -1.480553 -3.715907 2.000000
v -1.480553 -3.715907 4.000000
v -1.070113 -3.854200 2.000000
v -1.070113 -3.854200 4.000000
v -0.647128 -3.947306 2.000000
v -0.647128 -3.947306 4.000000
v -0.216556 -3.994134 2.000000
v -0.216556 -3.994134 4.000000
v 0.216556 -3.994134 2.000000
v 0.216556 -3.994134 4.000000
v 0.647128 -3.947306 2.000000
v 0.647128 -3.947306 4.000000
v 1.070113 -3.854200 4.000000
v 1.070113 -3.854200 2.000000
v 1.480553 -3.715907 2.000000
v 1.480553 -3.715907 4.000000
v 1.873634 -3.534048 2.000000
v 1.873634 -3.534048 4.000000
v 2.244748 -3.310756 2.000000
v 2.244748 -3.310756 4.000000
v 2.589545 -3.048648 2.000000
v 2.589545 -3.048648 4.000000
v 2.903982 -2.750798 2.000000
v 2.903982 -2.750798 4.000000
v 3.184372 -2.420697 2.000000
v 3.184372 -2.420697 4.000000
v 3.427429 -2.062215 2.000000
v 3.427429 -2.062215 4.000000
v 3.630302 -1.679556 2.000000
v 3.630302 -1.679556 4.000000
v 3.790613 -1.277206 2.000000
v 3.790613 -1.277206 4.000000
v 3.906482 -0.859882 2.000000
v 3.906482 -0.859882 4.000000
v 3.976552 -0.432476 2.000000
v 3.976552 -0.432476 4.000000
v -0.754183 -1.309559 2.000000
v -1.511203 -0.001638 2.000000
v 0.757020 -1.307921 2.000000
v -0.757020 1.307921 2.000000
v 1.511203 0.001638 2.000000
v 0.754183 1.309559 2.000000
v -1.649367 -1.530389 4.000000
v -1.402852 -1.759121 4.000000
v -1.859037 -1.267470 4.000000
v -1.125000 -1.948557 4.000000
v -2.027180 -0.976238 4.000000
v -0.822017 -2.094466 4.000000
v -2.150039 -0.663199 4.000000
v -0.500672 -2.193588 4.000000
v -2.224869 -0.335345 4.000000
v -0.168143 -2.243709 4.000000
v -2.250000 -0.000000 4.000000
v 0.168143 -2.243709 4.000000
v -2.224869 0.335345 4.000000
v 0.500672 -2.193588 4.000000
v -2.150039 0.663199 4.000000
v 0.822017 -2.094466 4.000000
v -2.027180 0.976238 4.000000
v 1.125000 -1.948557 4.000000
v -1.859037 1.267470 4.000000
v 1.402852 -1.759121 4.000000
v -1.649367 1.530389 4.000000
v 1.649367 -1.530389 4.000000
v -1.402852 1.759121 4.000000
v 1.859037 -1.267470 4.000000
v -1.125000 1.948557 4.000000
v 2.027180 -0.976238 4.000000
v -0.822017 2.094466 4.000000
v 2.150039 -0.663199 4.000000
v -0.500672 2.193588 4.000000
v 2.224869 -0.335345 4.000000
v -0.168143 2.243709 4.000000
v 2.250000 -0.000000 4.000000
v 0.168143 2.243709 4.000000
v 2.224869 0.335345 4.000000
v 0.500672 2.193588 4.000000
v 2.150039 0.663199 4.000000
v 0.822017 2.094466 4.000000
v 2.027180 0.976238 4.000000
v 1.125000 1.948557 4.000000
v 1.859037 1.267470 4.000000
v 1.402852 1.759121 4.000000
v 1.649367 1.530389 4.000000
v 0.757020 -1.307921 4.000000
v 1.511203 0.001638 4.000000
v 0.754183 1.309559 4.000000
v -0.757020 1.307921 4.000000
v -1.511203 -0.001638 4.000000
v -0.754183 -1.309559 4.000000
v 2.250000 -0.000000 5.500000
v 2.224869 0.335345 5.500000
v 2.150039 0.663199 5.500000
v 2.027180 0.976238 5.500000
v 1.859037 1.267470 5.500000
v 1.649367 1.530389 5.500000
v 1.402852 1.759121 5.500000
v 1.125000 1.948557 5.500000
v 0.822017 2.094466 5.500000
v 0.500672 2.193588 5.500000
v 0.168143 2.243709 5.500000
v -0.168143 2.243709 5.500000
v -0.500672 2.193588 5.500000
v -0.822017 2.094466 5.500000
v -1.125000 1.948557 5.500000
v -1.402852 1.759121 5.500000
v -1.649367 1.530389 5.500000
v -1.859037 1.267470 5.500000
v -2.027180 0.976238 5.500000
v -2.150039 0.663199 5.500000
v -2.224869 0.335345 5.500000
v -2.250000 -0.000000 5.500000
v -2.224869 -0.335345 5.500000
v -2.150039 -0.663199 5.500000
v -2.027180 -0.976238 5.500000
v -1.859037 -1.267470 5.500000
v -1.649367 -1.530389 5.500000
v -1.402852 -1.759121 5.500000
v -1.125000 -1.948557 5.500000
v -0.822017 -2.094466 5.500000
v -0.500672 -2.193588 5.500000
v -0.168143 -2.243709 5.500000
v 0.168143 -2.243709 5.500000
v 0.500672 -2.193588 5.500000
v 0.822017 -2.094466 5.500000
v 1.125000 -1.948557 5.500000
v 1.402852 -1.759121 5.500000
v 1.649367 -1.530389 5.500000
v 1.859037 -1.267470 5.500000
v 2.027180 -0.976238 5.500000
v 2.150039 -0.663199 5.500000
v 2.224869 -0.335345 5.500000
vn 0.998533 0.054139 -0.000000
vn 0.998533 0.054139 0.000000
vn 0.986827 0.161782 0.000000
vn 0.986827 0.161782 -0.000000
vn 0.963550 0.267528 0.000000
vn 0.963550 0.267528 -0.000000
vn 0.928977 0.370138 0.000000
vn 0.928977 0.370138 -0.000000
vn 0.883512 0.468409 0.000000
vn 0.883512 0.468409 -0.000000
vn 0.827689 0.561187 0.000000
vn 0.827689 0.561187 -0.000000
vn 0.762162 0.647386 0.000000
vn 0.762162 0.647386 -0.000000
vn 0.687700 0.725995 0.000000
vn 0.687700 0.725995 -0.000000
vn 0.605174 0.796093 0.000000
vn 0.605174 0.796093 -0.000000
vn 0.515554 0.856857 0.000000
vn 0.515554 0.856857 -0.000000
vn 0.419889 0.907575 0.000000
vn 0.419889 0.907575 -0.000000
vn 0.319301 0.947653 0.000000
vn 0.319301 0.947653 -0.000000
vn 0.214971 0.976620 0.000000
vn 0.108119 0.994138 0.000000
vn 0.214971 0.976620 -0.000000
vn 0.000000 1.000000 0.000000
vn 0.108119 0.994138 0.000000
vn 0.000000 1.000000 0.000000
vn -0.108119 0.994138 0.000000
vn -0.108119 0.994138 0.000000
vn -0.214971 0.976620 0.000000
vn -0.214971 0.976620 0.000000
vn -0.319301 0.947653 0.000000
vn -0.319301 0.947653 0.000000
vn -0.419889 0.907575 0.000000
vn -0.419889 0.907575 0.000000
vn -0.515554 0.856857 0.000000
vn -0.515554 0.856857 0.000000
vn -0.605174 0.796093 0.000000
vn -0.605174 0.796093 0.000000
vn -0.687700 0.725995 0.000000
vn -0.687700 0.725995 0.000000
vn -0.762162 0.647386 0.000000
vn -0.762162 0.647386 0.000000
vn -0.827689 0.561187 0.000000
vn -0.827689 0.561187 0.000000
vn -0.883512 0.468409 0.000000
vn -0.883512 0.468409 0.000000
vn -0.928977 0.370138 0.000000
vn -0.928977 0.370138 0.000000
vn -0.963550 0.267528 0.000000
vn -0.963550 0.267528 0.000000
vn -0.986827 0.161782 0.000000
vn -0.986827 0.161782 0.000000
vn -0.998533 0.054139 0.000000
vn -0.998533 0.054139 0.000000
vn -0.998533 -0.054139 0.000000
vn -0.998533 -0.054139 0.000000
vn -0.986827 -0.161782 0.000000
vn -0.986827 -0.161782 0.000000
vn -0.963550 -0.267528 0.000000
vn -0.963550 -0.267528 0.000000
vn -0.928977 -0.370138 0.000000
vn -0.928977 -0.370138 0.000000
vn -0.883512 -0.468409 0.000000
vn -0.883512 -0.468409 0.000000
vn -0.827689 -0.561187 0.000000
vn -0.827689 -0.561187 0.000000
vn -0.762162 -0.647386 0.000000
vn -0.762162 -0.647386 0.000000
vn -0.687700 -0.725995 0.000000
vn -0.605174 -0.796093 -0.000000
vn -0.687700 -0.725995 0.000000
vn -0.605174 -0.796093 0.000000
vn -0.515554 -0.856857 0.000000
vn -0.515554 -0.856857 0.000000
vn -0.419889 -0.907575 0.000000
vn -0.419889 -0.907575 0.000000
vn -0.319301 -0.947653 0.000000
vn -0.319301 -0.947653 0.000000
vn -0.214971 -0.976620 0.000000
vn -0.214971 -0.976620 0.000000
vn -0.108119 -0.994138 0.000000
vn -0.108119 -0.994138 0.000000
vn 0.000000 -1.000000 0.000000
vn 0.000000 -1.000000 0.000000
vn 0.108119 -0.994138 0.000000
vn 0.108119 -0.994138 0.000000
vn 0.214971 -0.976620 0.000000
vn 0.214971 -0.976620 0.000000
vn 0.319301 -0.947653 0.000000
vn 0.319301 -0.947653 0.000000
vn 0.419889 -0.907575 0.000000
vn 0.419889 -0.907575 0.000000
vn 0.515554 -0.856857 0.000000
vn 0.515554 -0.856857 0.000000
vn 0.605174 -0.796093 0.000000
vn 0.605174 -0.796093 0.000000
vn 0.687700 -0.725995 0.000000
vn 0.687700 -0.725995 0.000000
vn 0.762162 -0.647386 0.000000
vn 0.762162 -0.647386 0.000000
vn 0.827689 -0.561187 0.000000
vn 0.827689 -0.561187 0.000000
vn 0.883512 -0.468409 0.000000
vn 0.883512 -0.468409 0.000000
vn 0.928977 -0.370138 0.000000
vn 0.928977 -0.370138 0.000000
vn 0.963550 -0.267528 0.000000
vn 0.963550 -0.267528 0.000000
vn 0.986827 -0.161782 0.000000
vn 0.986827 -0.161782 0.000000
vn 0.998533 -0.054139 0.000000
vn 0.998533 -0.054139 0.000000
vn 0.000000 0.000000 -1.000000
vn 0.000000 0.000000 -1.000000
vn 0.000000 0.000000 -1.000000
vn 0.000000 0.000000 -1.000000
vn 0.000000 0.000000 -1.000000
vn 0.000000 0.000000 -1.000000
vn 0.000000 0.000000 -1.000000
vn 0.000000 0.000000 -1.000000
vn 0.000000 0.000000 -1.000000
vn 0.000000 0.000000 -1.000000
vn 0.000000 0.000000 -1.000000
vn 0.000000 -0.000000 -1.000000
vn 0.000000 -0.000000 -1.000000
vn 0.000000 -0.000000 -1.000000
vn 0.000000 -0.000000 -1.000000
vn 0.000000 0.000000 -1.000000
vn 0.000000 0.000000 -1.000000
vn 0.000000 0.000000 -1.000000
vn 0.000000 0.000000 -1.000000
vn 0.000000 0.000000 -1.000000
vn 0.000000 0.000000 -1.000000
vn 0.000000 0.000000 -1.000000
vn 0.000000 0.000000 -1.000000
vn 0.000000 0.000000 -1.000000
vn 0.000000 0.000000 -1.000000
vn 0.000000 0.000000 -1.000000
vn 0.000000 0.000000 -1.000000
vn 0.000000 0.000000 -1.000000
vn 0.000000 0.000000 -1.000000
vn 0.000000 0.000000 -1.000000
vn 0.000000 -0.000000 -1.000000
vn 0.000000 -0.000000 -1.000000
vn 0.000000 -0.000000 -1.000000
vn 0.000000 0.000000 -1.000000
vn 0.000000 0.000000 -1.000000
vn 0.000000 0.000000 -1.000000
vn 0.000000 0.000000 -1.000000
vn 0.000000 0.000000 -1.000000
vn 0.000000 0.000000 -1.000000
vn 0.000000 0.000000 -1.000000
vn 0.000000 0.000000 -1.000000
vn 0.000000 0.000000 -1.000000
vn 0.000000 0.000000 -1.000000
vn 0.000000 0.000000 -1.000000
vn 0.000000 0.000000 -1.000000
vn 0.000000 -0.000000 -1.000000
vn 0.000000 0.000000 -1.000000
vn 0.000000 0.000000 -1.000000
vn 0.000000 0.000000 -1.000000
vn 0.000000 0.000000 -1.000000
vn 0.000000 0.000000 -1.000000
vn 0.000000 0.000000 -1.000000
vn 0.000000 0.000000 -1.000000
vn 0.000000 0.000000 -1.000000
vn 0.000000 -0.000000 -1.000000
vn 0.000000 0.000000 -1.000000
vn 0.000000 -0.000000 -1.000000
vn 0.000000 0.000000 -1.000000
vn 0.000000 0.000000 -1.000000
vn 0.000000 -0.000000 -1.000000
vn 0.000000 0.000000 -1.000000
vn 0.000000 -0.000000 -1.000000
vn 0.000000 0.000000 -1.000000
vn 0.000000 -0.000000 -1.000000
vn 0.000000 0.000000 1.000000
vn 0.000000 0.000000 1.000000
vn 0.000000 0.000000 1.000000
vn 0.000000 0.000000 1.000000
vn 0.000000 0.000000 1.000000
vn 0.000000 0.000000 1.000000
vn 0.000000 0.000000 1.000000
vn 0.000000 0.000000 1.000000
vn 0.000000 0.000000 1.000000
vn 0.000000 0.000000 1.000000
vn 0.000000 0.000000 1.000000
vn 0.000000 0.000000 1.000000
vn 0.000000 0.000000 1.000000
vn 0.000000 0.000000 1.000000
vn 0.000000 0.000000 1.000000
vn 0.000000 0.000000 1.000000
vn 0.000000 0.000000 1.000000
vn 0.000000 0.000000 1.000000
vn 0.000000 0.000000 1.000000
vn 0.000000 0.000000 1.000000
vn 0.000000 0.000000 1.000000
vn 0.000000 0.000000 1.000000
vn 0.000000 0.000000 1.000000
vn 0.000000 0.000000 1.000000
vn 0.000000 0.000000 1.000000
vn 0.000000 0.000000 1.000000
vn 0.000000 0.000000 1.000000
vn 0.000000 0.000000 1.000000
vn 0.000000 0.000000 1.000000
vn 0.000000 0.000000 1.000000
vn 0.000000 0.000000 1.000000
vn 0.000000 0.000000 1.000000
vn 0.000000 0.000000 1.000000
vn 0.000000 0.000000 1.000000
vn 0.000000 0.000000 1.000000
vn 0.000000 0.000000 1.000000
vn 0.000000 0.000000 1.000000
vn 0.000000 0.000000 1.000000
vn 0.000000 0.000000 1.000000
vn 0.000000 0.000000 1.000000
vn 0.000000 0.000000 1.000000
vn 0.000000 0.000000 1.000000
vn 0.000000 0.000000 1.000000
vn 0.000000 0.000000 1.000000
vn 0.000000 0.000000 1.000000
vn 0.000000 0.000000 1.000000
vn 0.000000 0.000000 1.000000
vn 0.000000 0.000000 1.000000
vn 0.000000 0.000000 1.000000
vn 0.000000 0.000000 1.000000
vn 0.000000 0.000000 1.000000
vn 0.000000 0.000000 1.000000
vn 0.000000 0.000000 1.000000
vn 0.000000 0.000000 1.000000
vn 0.000000 0.000000 1.000000
vn 0.000000 0.000000 1.000000
vn 0.000000 0.000000 1.000000
vn 0.000000 0.000000 1.000000
vn 0.000000 0.000000 1.000000
vn 0.000000 0.000000 1.000000
vn 0.000000 0.000000 1.000000
vn 0.000000 0.000000 1.000000
vn 0.000000 0.000000 1.000000
vn 0.000000 0.000000 1.000000
vn 0.000000 0.000000 1.000000
vn 0.000000 0.000000 1.000000
vn 0.000000 0.000000 1.000000
vn 0.000000 0.000000 1.000000
vn 0.000000 0.000000 1.000000
vn 0.000000 0.000000 1.000000
vn 0.000000 0.000000 1.000000
vn 0.000000 0.000000 1.000000
vn 0.000000 0.000000 1.000000
vn 0.000000 0.000000 1.000000
vn 0.000000 0.000000 1.000000
vn 0.000000 0.000000 1.000000
vn 0.000000 0.000000 1.000000
vn 0.000000 0.000000 1.000000
vn 0.000000 0.000000 1.000000
vn 0.000000 0.000000 1.000000
vn 0.000000 0.000000 1.000000
vn 0.000000 0.000000 1.000000
vn 0.000000 0.000000 1.000000
vn 0.000000 0.000000 1.000000
vn 0.000000 0.000000 1.000000
vn 0.000000 0.000000 1.000000
vn 0.000000 0.000000 1.000000
vn 0.000000 0.000000 1.000000
vn 0.000000 0.000000 1.000000
vn 0.000000 0.000000 1.000000
vn 0.000000 0.000000 1.000000
vn 0.000000 0.000000 1.000000
vn 0.000000 0.000000 1.000000
vn 0.000000 0.000000 1.000000
vn 0.000000 0.000000 1.000000
vn 0.000000 0.000000 1.000000
vn 0.000000 0.000000 1.000000
vn 0.000000 0.000000 1.000000
vn 0.000000 0.000000 1.000000
vn 0.000000 0.000000 1.000000
vn -0.866567 0.499061 0.000000
vn -0.866567 0.499061 0.000000
vn -0.865483 -0.500938 0.000000
vn -0.865483 -0.500938 0.000000
vn 0.001084 -0.999999 0.000000
vn 0.001084 -0.999999 0.000000
vn 0.866567 -0.499061 0.000000
vn 0.866567 -0.499061 0.000000
vn 0.865483 0.500938 0.000000
vn 0.865483 0.500938 -0.000000
vn -0.001084 0.999999 0.000000
vn -0.001084 0.999999 0.000000
vn 0.997204 0.074730 -0.000000
vn 0.997204 0.074730 0.000000
vn 0.974928 0.222521 0.000000
vn 0.974928 0.222521 -0.000000
vn 0.930874 0.365341 -0.000000
vn 0.930874 0.365341 0.000000
vn 0.866025 0.500000 0.000000
vn 0.866025 0.500000 0.000000
vn 0.781832 0.623490 0.000000
vn 0.781832 0.623490 -0.000000
vn 0.680173 0.733052 -0.000000
vn 0.680173 0.733052 0.000000
vn 0.563320 0.826239 0.000000
vn 0.433884 0.900969 0.000000
vn 0.563320 0.826239 -0.000000
vn 0.433884 0.900969 0.000000
vn 0.294755 0.955573 0.000000
vn 0.294755 0.955573 -0.000000
vn 0.149043 0.988831 0.000000
vn 0.149043 0.988831 -0.000000
vn 0.000000 1.000000 0.000000
vn -0.149043 0.988831 0.000000
vn 0.000000 1.000000 -0.000000
vn -0.149043 0.988831 0.000000
vn -0.294755 0.955573 0.000000
vn -0.294755 0.955573 0.000000
vn -0.433884 0.900969 0.000000
vn -0.563320 0.826239 0.000000
vn -0.433884 0.900969 0.000000
vn -0.563320 0.826239 0.000000
vn -0.680173 0.733052 0.000000
vn -0.680173 0.733052 0.000000
vn -0.781832 0.623490 0.000000
vn -0.781832 0.623490 0.000000
vn -0.866025 0.500000 0.000000
vn -0.866025 0.500000 0.000000
vn -0.930874 0.365341 0.000000
vn -0.930874 0.365341 0.000000
vn -0.974928 0.222521 0.000000
vn -0.974928 0.222521 0.000000
vn -0.997204 0.074730 0.000000
vn -0.997204 0.074730 0.000000
vn -0.997204 -0.074730 0.000000
vn -0.974928 -0.222521 -0.000000
vn -0.997204 -0.074730 0.000000
vn -0.930874 -0.365341 -0.000000
vn -0.974928 -0.222521 0.000000
vn -0.866025 -0.500000 -0.000000
vn -0.930874 -0.365341 0.000000
vn -0.866025 -0.500000 0.000000
vn -0.781832 -0.623490 0.000000
vn -0.781832 -0.623490 0.000000
vn -0.680173 -0.733052 0.000000
vn -0.680173 -0.733052 0.000000
vn -0.563320 -0.826239 0.000000
vn -0.563320 -0.826239 0.000000
vn -0.433884 -0.900969 0.000000
vn -0.433884 -0.900969 0.000000
vn -0.294755 -0.955573 0.000000
vn -0.294755 -0.955573 0.000000
vn -0.149043 -0.988831 0.000000
vn -0.149043 -0.988831 0.000000
vn 0.000000 -1.000000 0.000000
vn 0.000000 -1.000000 0.000000
vn 0.149043 -0.988831 0.000000
vn 0.149043 -0.988831 0.000000
vn 0.294755 -0.955573 0.000000
vn 0.294755 -0.955573 0.000000
vn 0.433884 -0.900969 0.000000
vn 0.433884 -0.900969 0.000000
vn 0.563320 -0.826239 0.000000
vn 0.563320 -0.826239 0.000000
vn 0.680173 -0.733052 0.000000
vn 0.680173 -0.733052 0.000000
vn 0.781832 -0.623490 0.000000
vn 0.781832 -0.623490 0.000000
vn 0.866025 -0.500000 0.000000
vn 0.866025 -0.500000 0.000000
vn 0.930874 -0.365341 0.000000
vn 0.930874 -0.365341 0.000000
vn 0.974928 -0.222521 0.000000
vn 0.997204 -0.074730 0.000000
vn 0.974928 -0.222521 0.000000
vn 0.997204 -0.074730 0.000000
vn 0.000000 0.000000 -1.000000
vn 0.000000 0.000000 -1.000000
vn 0.000000 0.000000 -1.000000
vn 0.000000 0.000000 -1.000000
vn 0.000000 0.000000 1.000000
vn 0.000000 0.000000 1.000000
vn 0.000000 0.000000 1.000000
vn 0.000000 0.000000 1.000000
vn 0.000000 0.000000 1.000000
vn 0.000000 0.000000 1.000000
vn 0.000000 0.000000 1.000000
vn 0.000000 0.000000 1.000000
vn 0.000000 0.000000 1.000000
vn 0.000000 0.000000 1.000000
vn 0.000000 0.000000 1.000000
vn 0.000000 0.000000 1.000000
vn 0.000000 0.000000 1.000000
vn 0.000000 0.000000 1.000000
vn 0.000000 0.000000 1.000000
vn 0.000000 0.000000 1.000000
vn 0.000000 0.000000 1.000000
vn 0.000000 0.000000 1.000000
vn 0.000000 0.000000 1.000000
vn 0.000000 0.000000 1.000000
vn 0.000000 0.000000 1.000000
vn 0.000000 0.000000 1.000000
vn 0.000000 0.000000 1.000000
vn 0.000000 0.000000 1.000000
vn 0.000000 0.000000 1.000000
vn 0.000000 0.000000 1.000000
vn 0.000000 0.000000 1.000000
vn 0.000000 0.000000 1.000000
vn 0.000000 0.000000 1.000000
vn 0.000000 0.000000 1.000000
vn 0.000000 0.000000 1.000000
vn 0.000000 0.000000 1.000000
vn 0.000000 0.000000 1.000000
vn 0.000000 0.000000 1.000000
vn 0.000000 0.000000 1.000000
vn 0.000000 0.000000 1.000000
vn 0.000000 0.000000 1.000000
vn 0.000000 0.000000 1.000000
vn 0.000000 0.000000 1.000000
vn 0.000000 0.000000 1.000000
f 1//1 2//1 3//1
f 3//2 2//2 4//2
f 4//3 5//3 6//3
f 2//4 5//4 4//4
f 6//5 7//5 8//5
f 5//6 7//6 6//6
f 8//7 9//7 10//7
f 7//8 9//8 8//8
f 10//9 11//9 12//9
f 9//10 11//10 10//10
f 12//11 13//11 14//11
f 11//12 13//12 12//12
f 14//13 15//13 16//13
f 13//14 15//14 14//14
f 16//15 17//15 18//15
f 15//16 17//16 16//16
f 18//17 19//17 20//17
f 17//18 19//18 18//18
f 20//19 21//19 22//19
f 19//20 21//20 20//20
f 22//21 23//21 24//21
f 21//22 23//22 22//22
f 24//23 25//23 26//23
f 23//24 25//24 24//24
f 26//25 27//25 28//25
f 28//26 27//26 29//26
f 25//27 27//27 26//27
f 29//28 30//28 31//28
f 27//29 30//29 29//29
f 30//30 32//30 31//30
f 31//31 33//31 34//31
f 32//32 33//32 31//32
f 34//33 35//33 36//33
f 33//34 35//34 34//34
f 36//35 37//35 38//35
f 35//36 37//36 36//36
f 38//37 39//37 40//37
f 37//38 39//38 38//38
f 40//39 41//39 42//39
f 39//40 41//40 40//40
f 41//41 43//41 42//41
f 42//42 43//42 44//42
f 43//43 45//43 44//43
f 44//44 45//44 46//44
f 45//45 47//45 46//45
f 46//46 47//46 48//46
f 47//47 49//47 48//47
f 48//48 49//48 50//48
f 50//49 49//49 51//49
f 49//50 52//50 51//50
f 52//51 53//51 51//51
f 51//52 53//52 54//52
f 54//53 53//53 55//53
f 53//54 56//54 55//54
f 55//55 57//55 58//55
f 56//56 57//56 55//56
f 58//57 59//57 60//57
f 57//58 59//58 58//58
f 60//59 61//59 62//59
f 59//60 61//60 60//60
f 62//61 63//61 64//61
f 61//62 63//62 62//62
f 64//63 65//63 66//63
f 63//64 65//64 64//64
f 66//65 67//65 68//65
f 65//66 67//66 66//66
f 68//67 69//67 70//67
f 67//68 69//68 68//68
f 70//69 71//69 72//69
f 69//70 71//70 70//70
f 72//71 73//71 74//71
f 71//72 73//72 72//72
f 74//73 75//73 76//73
f 76//74 75//74 77//74
f 73//75 75//75 74//75
f 75//76 78//76 77//76
f 77//77 79//77 80//77
f 78//78 79//78 77//78
f 80//79 81//79 82//79
f 79//80 81//80 80//80
f 82//81 83//81 84//81
f 81//82 83//82 82//82
f 84//83 85//83 86//83
f 83//84 85//84 84//84
f 86//85 87//85 88//85
f 85//86 87//86 86//86
f 88//87 89//87 90//87
f 87//88 89//88 88//88
f 89//89 91//89 90//89
f 90//90 91//90 92//90
f 92//91 91//91 93//91
f 91//92 94//92 93//92
f 94//93 95//93 93//93
f 93//94 95//94 96//94
f 95//95 97//95 96//95
f 96//96 97//96 98//96
f 97//97 99//97 98//97
f 98//98 99//98 100//98
f 99//99 101//99 100//99
f 100//100 101//100 102//100
f 101//101 103//101 102//101
f 102//102 103//102 104//102
f 103//103 105//103 104//103
f 104//104 105//104 106//104
f 105//105 107//105 106//105
f 106//106 107//106 108//106
f 107//107 109//107 108//107
f 108//108 109//108 110//108
f 109//109 111//109 110//109
f 110//110 111//110 112//110
f 111//111 113//111 112//111
f 112//112 113//112 114//112
f 113//113 115//113 114//113
f 114//114 115//114 116//114
f 115//115 1//115 116//115
f 116//116 1//116 3//116
f 69//117 117//117 71//117
f 71//118 117//118 73//118
f 73//119 117//119 75//119
f 75//120 117//120 78//120
f 78//121 117//121 79//121
f 79//122 117//122 81//122
f 81//123 117//123 83//123
f 83//124 117//124 85//124
f 85//125 117//125 87//125
f 87//126 117//126 89//126
f 69//127 118//127 117//127
f 52//128 118//128 53//128
f 53//129 118//129 56//129
f 56//130 118//130 57//130
f 57//131 118//131 59//131
f 59//132 118//132 61//132
f 61//133 118//133 63//133
f 63//134 118//134 65//134
f 65//135 118//135 67//135
f 67//136 118//136 69//136
f 52//137 49//137 118//137
f 117//138 119//138 89//138
f 89//139 119//139 91//139
f 91//140 119//140 94//140
f 94//141 119//141 95//141
f 95//142 119//142 97//142
f 97//143 119//143 99//143
f 119//144 101//144 99//144
f 119//145 103//145 101//145
f 49//146 120//146 118//146
f 43//147 120//147 45//147
f 45//148 120//148 47//148
f 47//149 120//149 49//149
f 119//150 105//150 103//150
f 43//151 41//151 120//151
f 119//152 107//152 105//152
f 119//153 121//153 107//153
f 41//154 39//154 120//154
f 121//155 109//155 107//155
f 39//156 37//156 120//156
f 121//157 111//157 109//157
f 37//158 35//158 120//158
f 121//159 113//159 111//159
f 35//160 33//160 120//160
f 121//161 115//161 113//161
f 33//162 32//162 120//162
f 120//163 32//163 122//163
f 121//164 1//164 115//164
f 32//165 30//165 122//165
f 121//166 2//166 1//166
f 30//167 27//167 122//167
f 121//168 5//168 2//168
f 27//169 25//169 122//169
f 121//170 7//170 5//170
f 25//171 23//171 122//171
f 121//172 9//172 7//172
f 23//173 21//173 122//173
f 122//174 11//174 121//174
f 121//175 11//175 9//175
f 21//176 19//176 122//176
f 122//177 13//177 11//177
f 19//178 17//178 122//178
f 122//179 15//179 13//179
f 17//180 15//180 122//180
f 123//181 72//181 74//181
f 123//182 74//182 76//182
f 124//183 123//183 76//183
f 124//184 76//184 77//184
f 125//185 72//185 123//185
f 125//186 70//186 72//186
f 126//187 77//187 80//187
f 126//188 124//188 77//188
f 127//189 70//189 125//189
f 127//190 66//190 68//190
f 127//191 68//191 70//191
f 128//192 80//192 82//192
f 128//193 82//193 84//193
f 128//194 126//194 80//194
f 129//195 66//195 127//195
f 129//196 64//196 66//196
f 130//197 128//197 84//197
f 130//198 84//198 86//198
f 131//199 64//199 129//199
f 131//200 62//200 64//200
f 132//201 130//201 86//201
f 132//202 86//202 88//202
f 132//203 88//203 90//203
f 133//204 58//204 60//204
f 133//205 60//205 62//205
f 133//206 62//206 131//206
f 134//207 132//207 90//207
f 134//208 90//208 92//208
f 135//209 55//209 58//209
f 135//210 58//210 133//210
f 136//211 92//211 93//211
f 136//212 134//212 92//212
f 137//213 54//213 55//213
f 137//214 55//214 135//214
f 138//215 93//215 96//215
f 138//216 96//216 98//216
f 138//217 136//217 93//217
f 139//218 50//218 51//218
f 139//219 51//219 54//219
f 139//220 54//220 137//220
f 140//221 98//221 100//221
f 140//222 138//222 98//222
f 141//223 48//223 50//223
f 141//224 50//224 139//224
f 142//225 140//225 100//225
f 142//226 100//226 102//226
f 143//227 46//227 48//227
f 143//228 48//228 141//228
f 144//229 142//229 102//229
f 104//230 144//230 102//230
f 44//231 46//231 143//231
f 44//232 143//232 145//232
f 106//233 144//233 104//233
f 106//234 146//234 144//234
f 42//235 44//235 145//235
f 42//236 145//236 147//236
f 108//237 146//237 106//237
f 108//238 148//238 146//238
f 40//239 42//239 147//239
f 40//240 147//240 149//240
f 110//241 148//241 108//241
f 38//242 40//242 149//242
f 112//243 148//243 110//243
f 112//244 150//244 148//244
f 36//245 38//245 149//245
f 36//246 149//246 151//246
f 114//247 150//247 112//247
f 114//248 152//248 150//248
f 34//249 36//249 151//249
f 34//250 151//250 153//250
f 116//251 152//251 114//251
f 116//252 154//252 152//252
f 31//253 34//253 153//253
f 3//254 154//254 116//254
f 29//255 153//255 155//255
f 29//256 31//256 153//256
f 4//257 156//257 154//257
f 4//258 154//258 3//258
f 28//259 29//259 155//259
f 28//260 155//260 157//260
f 6//261 156//261 4//261
f 6//262 158//262 156//262
f 26//263 157//263 159//263
f 26//264 28//264 157//264
f 8//265 160//265 158//265
f 8//266 158//266 6//266
f 24//267 26//267 159//267
f 10//268 160//268 8//268
f 22//269 159//269 161//269
f 22//270 24//270 159//270
f 12//271 162//271 160//271
f 12//272 160//272 10//272
f 20//273 22//273 161//273
f 20//274 161//274 163//274
f 14//275 164//275 162//275
f 14//276 162//276 12//276
f 18//277 163//277 164//277
f 18//278 20//278 163//278
f 16//279 18//279 164//279
f 16//280 164//280 14//280
f 121//281 119//281 165//281
f 121//282 165//282 166//282
f 122//283 121//283 166//283
f 122//284 166//284 167//284
f 120//285 122//285 167//285
f 120//286 167//286 168//286
f 118//287 120//287 168//287
f 118//288 168//288 169//288
f 117//289 118//289 169//289
f 117//290 169//290 170//290
f 119//291 117//291 170//291
f 119//292 170//292 165//292
f 154//293 156//293 171//293
f 171//294 156//294 172//294
f 172//295 158//295 173//295
f 156//296 158//296 172//296
f 158//297 160//297 173//297
f 173//298 160//298 174//298
f 174//299 160//299 175//299
f 160//300 162//300 175//300
f 175//301 164//301 176//301
f 162//302 164//302 175//302
f 164//303 163//303 176//303
f 176//304 163//304 177//304
f 177//305 161//305 178//305
f 178//306 161//306 179//306
f 163//307 161//307 177//307
f 161//308 159//308 179//308
f 179//309 157//309 180//309
f 159//310 157//310 179//310
f 180//311 155//311 181//311
f 157//312 155//312 180//312
f 181//313 153//313 182//313
f 182//314 153//314 183//314
f 155//315 153//315 181//315
f 153//316 151//316 183//316
f 183//317 149//317 184//317
f 151//318 149//318 183//318
f 184//319 147//319 185//319
f 185//320 147//320 186//320
f 149//321 147//321 184//321
f 147//322 145//322 186//322
f 186//323 143//323 187//323
f 145//324 143//324 186//324
f 187//325 141//325 188//325
f 143//326 141//326 187//326
f 188//327 139//327 189//327
f 141//328 139//328 188//328
f 189//329 137//329 190//329
f 139//330 137//330 189//330
f 190//331 135//331 191//331
f 137//332 135//332 190//332
f 191//333 133//333 192//333
f 135//334 133//334 191//334
f 192//335 131//335 193//335
f 193//336 131//336 194//336
f 133//337 131//337 192//337
f 194//338 129//338 195//338
f 131//339 129//339 194//339
f 195//340 127//340 196//340
f 129//341 127//341 195//341
f 127//342 125//342 196//342
f 196//343 123//343 197//343
f 125//344 123//344 196//344
f 197//345 124//345 198//345
f 123//346 124//346 197//346
f 198//347 126//347 199//347
f 124//348 126//348 198//348
f 126//349 128//349 199//349
f 199//350 128//350 200//350
f 128//351 130//351 200//351
f 200//352 130//352 201//352
f 130//353 132//353 201//353
f 201//354 132//354 202//354
f 132//355 134//355 202//355
f 202//356 134//356 203//356
f 134//357 136//357 203//357
f 203//358 136//358 204//358
f 136//359 138//359 204//359
f 204//360 138//360 205//360
f 138//361 140//361 205//361
f 205//362 140//362 206//362
f 140//363 142//363 206//363
f 206//364 142//364 207//364
f 207//365 144//365 208//365
f 142//366 144//366 207//366
f 144//367 146//367 208//367
f 208//368 146//368 209//368
f 209//369 146//369 210//369
f 146//370 148//370 210//370
f 210//371 150//371 211//371
f 148//372 150//372 210//372
f 211//373 152//373 212//373
f 212//374 152//374 171//374
f 150//375 152//375 211//375
f 152//376 154//376 171//376
f 169//377 168//377 170//377
f 170//378 167//378 165//378
f 165//379 167//379 166//379
f 168//380 167//380 170//380
f 202//381 199//381 200//381
f 202//382 200//382 201//382
f 190//383 191//383 192//383
f 190//384 192//384 193//384
f 190//385 193//385 194//385
f 190//386 194//386 195//386
f 188//387 189//387 190//387
f 207//388 203//388 204//388
f 207//389 204//389 205//389
f 207//390 205//390 206//390
f 187//391 188//391 190//391
f 208//392 203//392 207//392
f 185//393 186//393 187//393
f 185//394 187//394 190//394
f 211//395 208//395 209//395
f 211//396 209//396 210//396
f 182//397 183//397 184//397
f 181//398 184//398 185//398
f 181//399 195//399 196//399
f 181//400 196//400 197//400
f 181//401 197//401 198//401
f 181//402 190//402 195//402
f 181//403 182//403 184//403
f 181//404 185//404 190//404
f 172//405 211//405 212//405
f 172//406 212//406 171//406
f 180//407 181//407 198//407
f 180//408 198//408 199//408
f 179//409 180//409 199//409
f 179//410 202//410 203//410
f 179//411 199//411 202//411
f 178//412 179//412 203//412
f 177//413 178//413 203//413
f 176//414 172//414 173//414
f 176//415 173//415 174//415
f 176//416 174//416 175//416
f 176//417 177//417 203//417
f 176//418 211//418 172//418
f 176//419 203//419 208//419
f 176//420 208//420 211//420
