# Created by FreeCAD <https://www.freecad.org>
v 2.500000 -0.000000 24.000000
v 2.427355 0.598289 24.000000
v 2.500000 -0.000000 27.000000
v 2.427355 0.598289 27.000000
v 2.213640 1.161808 24.000000
v 2.213640 1.161808 27.000000
v 1.871277 1.657807 24.000000
v 1.871277 1.657807 27.000000
v 1.420162 2.057460 24.000000
v 1.420162 2.057460 27.000000
v 0.886512 2.337541 24.000000
v 0.886512 2.337541 27.000000
v 0.301342 2.481772 24.000000
v 0.301342 2.481772 27.000000
v -0.301342 2.481772 24.000000
v -0.301342 2.481772 27.000000
v -0.886512 2.337541 24.000000
v -0.886512 2.337541 27.000000
v -1.420162 2.057460 27.000000
v -1.420162 2.057460 24.000000
v -1.871277 1.657807 27.000000
v -1.871277 1.657807 24.000000
v -2.213640 1.161808 24.000000
v -2.213640 1.161808 27.000000
v -2.427355 0.598289 24.000000
v -2.427355 0.598289 27.000000
v -2.500000 0.000000 24.000000
v -2.500000 0.000000 27.000000
v -2.427355 -0.598289 27.000000
v -2.427355 -0.598289 24.000000
v -2.213640 -1.161808 24.000000
v -2.213640 -1.161808 27.000000
v -1.871277 -1.657807 27.000000
v -1.871277 -1.657807 24.000000
v -1.420162 -2.057460 24.000000
v -1.420162 -2.057460 27.000000
v -0.886512 -2.337541 24.000000
v -0.886512 -2.337541 27.000000
v -0.301342 -2.481772 27.000000
v -0.301342 -2.481772 24.000000
v 0.301342 -2.481772 24.000000
v 0.301342 -2.481772 27.000000
v 0.886512 -2.337541 27.000000
v 0.886512 -2.337541 24.000000
v 1.420162 -2.057460 24.000000
v 1.420162 -2.057460 27.000000
v 1.871277 -1.657807 24.000000
v 1.871277 -1.657807 27.000000
v 2.213640 -1.161808 24.000000
v 2.213640 -1.161808 27.000000
v 2.427355 -0.598289 24.000000
v 2.427355 -0.598289 27.000000
v 3.125000 -0.000000 23.000000
v 3.750000 -0.000000 22.000000
v 3.641032 0.897434 22.000000
v 3.641032 -0.897434 22.000000
v 2.887124 1.195886 23.000000
v 3.320460 1.742712 22.000000
v 2.209709 2.209709 23.000000
v 2.806915 2.486710 22.000000
v 2.130243 3.086190 22.000000
v 1.195886 2.887124 23.000000
v 1.329768 3.506311 22.000000
v 0.452013 3.722658 22.000000
v 0.000000 3.125000 23.000000
v -0.452013 3.722658 22.000000
v -1.195886 2.887124 23.000000
v -1.329768 3.506311 22.000000
v -2.130243 3.086190 22.000000
v -2.209709 2.209709 23.000000
v -2.806915 2.486710 22.000000
v -3.320460 1.742712 22.000000
v -2.887124 1.195886 23.000000
v -3.641032 0.897434 22.000000
v -3.125000 0.000000 23.000000
v -3.750000 0.000000 22.000000
v -3.641032 -0.897434 22.000000
v -2.887124 -1.195886 23.000000
v -3.320460 -1.742712 22.000000
v -2.209709 -2.209709 23.000000
v -2.806915 -2.486710 22.000000
v -2.130243 -3.086190 22.000000
v -1.195886 -2.887124 23.000000
v -1.329768 -3.506311 22.000000
v -0.452013 -3.722658 22.000000
v -0.000000 -3.125000 23.000000
v 0.452013 -3.722658 22.000000
v 1.195886 -2.887124 23.000000
v 1.329768 -3.506311 22.000000
v 2.130243 -3.086190 22.000000
v 2.209709 -2.209709 23.000000
v 2.806915 -2.486710 22.000000
v 3.320460 -1.742712 22.000000
v 2.887124 -1.195886 23.000000
v -0.994113 -1.440222 27.000000
v -1.309894 -1.160465 27.000000
v -1.549548 -0.813266 27.000000
v -0.620559 -1.636278 27.000000
v -1.699148 -0.418802 27.000000
v -0.210939 -1.737241 27.000000
v -1.750000 0.000000 27.000000
v 0.210939 -1.737241 27.000000
v -1.699148 0.418802 27.000000
v 0.620559 -1.636278 27.000000
v -1.549548 0.813266 27.000000
v 0.994113 -1.440222 27.000000
v -1.309894 1.160465 27.000000
v 1.309894 -1.160465 27.000000
v -0.994113 1.440222 27.000000
v 1.549548 -0.813266 27.000000
v 1.699148 -0.418802 27.000000
v -0.620559 1.636278 27.000000
v 1.750000 -0.000000 27.000000
v -0.210939 1.737241 27.000000
v 0.210939 1.737241 27.000000
v 1.699148 0.418802 27.000000
v 0.620559 1.636278 27.000000
v 1.549548 0.813266 27.000000
v 0.994113 1.440222 27.000000
v 1.309894 1.160465 27.000000
v 3.750000 -0.000000 12.000000
v 3.641032 0.897434 12.000000
v 3.320460 1.742712 12.000000
v 2.806915 2.486710 12.000000
v 2.130243 3.086190 12.000000
v 1.329768 3.506311 12.000000
v 0.452013 3.722658 12.000000
v -0.452013 3.722658 12.000000
v -1.329768 3.506311 12.000000
v -2.130243 3.086190 12.000000
v -2.806915 2.486710 12.000000
v -3.320460 1.742712 12.000000
v -3.641032 0.897434 12.000000
v -3.750000 0.000000 12.000000
v -3.641032 -0.897434 12.000000
v -3.320460 -1.742712 12.000000
v -2.806915 -2.486710 12.000000
v -2.130243 -3.086190 12.000000
v -1.329768 -3.506311 12.000000
v -0.452013 -3.722658 12.000000
v 0.452013 -3.722658 12.000000
v 1.329768 -3.506311 12.000000
v 2.130243 -3.086190 12.000000
v 2.806915 -2.486710 12.000000
v 3.320460 -1.742712 12.000000
v 3.641032 -0.897434 12.000000
v 1.699148 0.418802 22.000000
v 1.750000 -0.000000 22.000000
v 1.549548 0.813266 22.000000
v 1.309894 1.160465 22.000000
v 0.994113 1.440222 22.000000
v 0.620559 1.636278 22.000000
v 0.210939 1.737241 22.000000
v -0.210939 1.737241 22.000000
v -0.620559 1.636278 22.000000
v -0.994113 1.440222 22.000000
v -1.309894 1.160465 22.000000
v -1.549548 0.813266 22.000000
v -1.699148 0.418802 22.000000
v -1.750000 0.000000 22.000000
v -1.699148 -0.418802 22.000000
v -1.549548 -0.813266 22.000000
v -1.309894 -1.160465 22.000000
v -0.994113 -1.440222 22.000000
v -0.620559 -1.636278 22.000000
v -0.210939 -1.737241 22.000000
v 0.210939 -1.737241 22.000000
v 0.620559 -1.636278 22.000000
v 0.994113 -1.440222 22.000000
v 1.309894 -1.160465 22.000000
v 1.549548 -0.813266 22.000000
v 1.699148 -0.418802 22.000000
v 4.000000 -0.000000 11.000000
v 4.250000 -0.000000 10.000000
v 4.126503 1.017092 10.000000
v 4.126503 -1.017092 10.000000
v 3.729889 1.444967 11.000000
v 3.763188 1.975073 10.000000
v 2.956036 2.694782 11.000000
v 3.181171 2.818271 10.000000
v 2.414275 3.497681 10.000000
v 1.782953 3.580653 11.000000
v 1.507071 3.973819 10.000000
v 0.369073 3.982937 11.000000
v 0.512281 4.219013 10.000000
v -0.512281 4.219013 10.000000
v -1.094652 3.847303 11.000000
v -1.507071 3.973819 10.000000
v -2.410538 3.192069 11.000000
v -2.414275 3.497681 10.000000
v -3.181171 2.818271 10.000000
v -3.400869 2.105729 11.000000
v -3.763188 1.975073 10.000000
v -3.931892 0.734998 11.000000
v -4.126503 1.017092 10.000000
v -4.250000 0.000000 10.000000
v -3.931892 -0.734998 11.000000
v -4.126503 -1.017092 10.000000
v -3.763188 -1.975073 10.000000
v -3.400869 -2.105729 11.000000
v -3.181171 -2.818271 10.000000
v -2.410538 -3.192069 11.000000
v -2.414275 -3.497681 10.000000
v -1.507071 -3.973819 10.000000
v -1.094652 -3.847303 11.000000
v -0.512281 -4.219013 10.000000
v 0.369073 -3.982937 11.000000
v 0.512281 -4.219013 10.000000
v 1.507071 -3.973819 10.000000
v 1.782953 -3.580653 11.000000
v 2.414275 -3.497681 10.000000
v 2.956036 -2.694782 11.000000
v 3.181171 -2.818271 10.000000
v 3.763188 -1.975073 10.000000
v 3.729889 -1.444967 11.000000
v -2.058404 -1.823587 22.000000
v -1.562178 -2.263206 22.000000
v -2.435004 -1.277989 22.000000
v -0.975163 -2.571295 22.000000
v -2.750000 0.000000 22.000000
v -2.670090 -0.658118 22.000000
v -0.331476 -2.729949 22.000000
v 0.331476 -2.729949 22.000000
v -2.670090 0.658118 22.000000
v 0.975163 -2.571295 22.000000
v -2.435004 1.277989 22.000000
v 1.562178 -2.263206 22.000000
v -2.058404 1.823587 22.000000
v 2.058404 -1.823587 22.000000
v -1.562178 2.263206 22.000000
v 2.435004 -1.277989 22.000000
v -0.975163 2.571295 22.000000
v 2.670090 -0.658118 22.000000
v -0.331476 2.729949 22.000000
v 2.750000 -0.000000 22.000000
v 0.331476 2.729949 22.000000
v 2.670090 0.658118 22.000000
v 0.975163 2.571295 22.000000
v 2.435004 1.277989 22.000000
v 1.562178 2.263206 22.000000
v 2.058404 1.823587 22.000000
v 4.250000 -0.000000 0.000000
v 4.126503 1.017092 0.000000
v 3.763188 1.975073 0.000000
v 3.181171 2.818271 0.000000
v 2.414275 3.497681 0.000000
v 1.507071 3.973819 0.000000
v 0.512281 4.219013 0.000000
v -0.512281 4.219013 0.000000
v -1.507071 3.973819 0.000000
v -2.414275 3.497681 0.000000
v -3.181171 2.818271 0.000000
v -3.763188 1.975073 0.000000
v -4.126503 1.017092 0.000000
v -4.250000 0.000000 0.000000
v -4.126503 -1.017092 0.000000
v -3.763188 -1.975073 0.000000
v -3.181171 -2.818271 0.000000
v -2.414275 -3.497681 0.000000
v -1.507071 -3.973819 0.000000
v -0.512281 -4.219013 0.000000
v 0.512281 -4.219013 0.000000
v 1.507071 -3.973819 0.000000
v 2.414275 -3.497681 0.000000
v 3.181171 -2.818271 0.000000
v 3.763188 -1.975073 0.000000
v 4.126503 -1.017092 0.000000
v 2.670090 0.658118 10.000000
v 2.750000 -0.000000 10.000000
v 2.435004 1.277989 10.000000
v 2.058404 1.823587 10.000000
v 1.562178 2.263206 10.000000
v 0.975163 2.571295 10.000000
v 0.331476 2.729949 10.000000
v -0.331476 2.729949 10.000000
v -0.975163 2.571295 10.000000
v -1.562178 2.263206 10.000000
v -2.058404 1.823587 10.000000
v -2.435004 1.277989 10.000000
v -2.670090 0.658118 10.000000
v -2.750000 0.000000 10.000000
v -2.670090 -0.658118 10.000000
v -2.435004 -1.277989 10.000000
v -2.058404 -1.823587 10.000000
v -1.562178 -2.263206 10.000000
v -0.975163 -2.571295 10.000000
v -0.331476 -2.729949 10.000000
v 0.331476 -2.729949 10.000000
v 0.975163 -2.571295 10.000000
v 1.562178 -2.263206 10.000000
v 2.058404 -1.823587 10.000000
v 2.435004 -1.277989 10.000000
v 2.670090 -0.658118 10.000000
v -2.432660 -2.155149 0.000000
v -1.846210 -2.674698 0.000000
v -2.877732 -1.510350 0.000000
v -1.152466 -3.038803 0.000000
v -3.155561 -0.777776 0.000000
v -0.391744 -3.226304 0.000000
v -3.250000 0.000000 0.000000
v 0.391744 -3.226304 0.000000
v -3.155561 0.777776 0.000000
v 1.152466 -3.038803 0.000000
v -2.877732 1.510350 0.000000
v 1.846210 -2.674698 0.000000
v -2.432660 2.155149 0.000000
v 2.432660 -2.155149 0.000000
v -1.846210 2.674698 0.000000
v 2.877732 -1.510350 0.000000
v -1.152466 3.038803 0.000000
v -0.391744 3.226304 0.000000
v 3.155561 -0.777776 0.000000
v 3.250000 -0.000000 0.000000
v 0.391744 3.226304 0.000000
v 3.155561 0.777776 0.000000
v 1.152466 3.038803 0.000000
v 1.846210 2.674698 0.000000
v 2.877732 1.510350 0.000000
v 2.432660 2.155149 0.000000
v -2.432660 -2.155149 10.000000
v -1.846210 -2.674698 10.000000
v -3.155561 -0.777776 10.000000
v -2.877732 -1.510350 10.000000
v -1.152466 -3.038803 10.000000
v -0.391744 -3.226304 10.000000
v -3.250000 0.000000 10.000000
v 0.391744 -3.226304 10.000000
v -3.155561 0.777776 10.000000
v 1.152466 -3.038803 10.000000
v -2.877732 1.510350 10.000000
v 1.846210 -2.674698 10.000000
v -2.432660 2.155149 10.000000
v 2.432660 -2.155149 10.000000
v -1.846210 2.674698 10.000000
v 2.877732 -1.510350 10.000000
v -1.152466 3.038803 10.000000
v 3.155561 -0.777776 10.000000
v -0.391744 3.226304 10.000000
v 3.250000 -0.000000 10.000000
v 0.391744 3.226304 10.000000
v 3.155561 0.777776 10.000000
v 1.152466 3.038803 10.000000
v 2.877732 1.510350 10.000000
v 1.846210 2.674698 10.000000
v 2.432660 2.155149 10.000000
vn 0.992709 0.120537 -0.000000
vn 0.992709 0.120537 0.000000
vn 0.935016 0.354605 0.000000
vn 0.935016 0.354605 -0.000000
vn 0.822984 0.568065 0.000000
vn 0.822984 0.568065 -0.000000
vn 0.663123 0.748511 0.000000
vn 0.663123 0.748511 -0.000000
vn 0.464723 0.885456 0.000000
vn 0.464723 0.885456 -0.000000
vn 0.239316 0.970942 0.000000
vn 0.239316 0.970942 -0.000000
vn 0.000000 1.000000 0.000000
vn 0.000000 1.000000 -0.000000
vn -0.239316 0.970942 0.000000
vn -0.464723 0.885456 0.000000
vn -0.239316 0.970942 0.000000
vn -0.663123 0.748511 0.000000
vn -0.464723 0.885456 0.000000
vn -0.663123 0.748511 0.000000
vn -0.822984 0.568065 0.000000
vn -0.822984 0.568065 0.000000
vn -0.935016 0.354605 0.000000
vn -0.935016 0.354605 0.000000
vn -0.992709 0.120537 0.000000
vn -0.992709 0.120537 0.000000
vn -0.992709 -0.120537 -0.000000
vn -0.992709 -0.120537 0.000000
vn -0.935016 -0.354605 0.000000
vn -0.822984 -0.568065 -0.000000
vn -0.935016 -0.354605 0.000000
vn -0.822984 -0.568065 0.000000
vn -0.663123 -0.748511 0.000000
vn -0.663123 -0.748511 0.000000
vn -0.464723 -0.885456 0.000000
vn -0.239316 -0.970942 -0.000000
vn -0.464723 -0.885456 0.000000
vn -0.239316 -0.970942 0.000000
vn 0.000000 -1.000000 0.000000
vn 0.239316 -0.970942 0.000000
vn 0.000000 -1.000000 0.000000
vn 0.239316 -0.970942 0.000000
vn 0.464723 -0.885456 0.000000
vn 0.464723 -0.885456 0.000000
vn 0.663123 -0.748511 0.000000
vn 0.663123 -0.748511 0.000000
vn 0.822984 -0.568065 0.000000
vn 0.822984 -0.568065 0.000000
vn 0.935016 -0.354605 0.000000
vn 0.935016 -0.354605 0.000000
vn 0.992709 -0.120537 0.000000
vn 0.992709 -0.120537 0.000000
vn 0.843538 0.102424 0.527212
vn 0.843539 0.102424 0.527212
vn 0.843538 -0.102424 0.527212
vn 0.843539 -0.102424 0.527212
vn 0.786893 0.298429 0.540129
vn 0.802094 0.304194 0.513918
vn 0.810586 0.161236 0.562986
vn 0.852993 0.169671 0.493574
vn 0.708178 0.488820 0.509450
vn 0.559156 0.631157 0.537573
vn 0.690389 0.476541 0.544308
vn 0.567780 0.640891 0.516609
vn 0.719586 0.480812 0.501014
vn 0.692642 0.462809 0.553223
vn 0.483654 0.723840 0.492072
vn 0.393127 0.749040 0.533283
vn 0.204518 0.829762 0.519295
vn 0.458429 0.686087 0.564913
vn 0.396651 0.755755 0.521059
vn 0.202187 0.820307 0.534993
vn 0.000000 0.841037 0.540978
vn 0.000000 0.858378 0.513017
vn 0.169338 0.851321 0.496565
vn 0.161748 0.813165 0.559107
vn -0.204518 0.829762 0.519295
vn -0.393127 0.749040 0.533283
vn -0.202187 0.820307 0.534993
vn -0.396651 0.755755 0.521059
vn -0.169338 0.851321 0.496565
vn -0.161748 0.813165 0.559107
vn -0.559156 0.631157 0.537573
vn -0.708178 0.488820 0.509450
vn -0.458429 0.686087 0.564913
vn -0.567780 0.640891 0.516609
vn -0.690389 0.476541 0.544308
vn -0.483654 0.723840 0.492072
vn -0.786893 0.298429 0.540129
vn -0.692642 0.462809 0.553223
vn -0.719586 0.480812 0.501015
vn -0.802094 0.304194 0.513918
vn -0.810586 0.161236 0.562986
vn -0.843539 0.102424 0.527212
vn -0.843539 -0.102424 0.527212
vn -0.843538 0.102424 0.527212
vn -0.843538 -0.102424 0.527212
vn -0.852993 0.169671 0.493574
vn -0.786893 -0.298429 0.540129
vn -0.802094 -0.304194 0.513918
vn -0.852993 -0.169671 0.493574
vn -0.810586 -0.161236 0.562986
vn -0.708178 -0.488820 0.509450
vn -0.559156 -0.631157 0.537573
vn -0.690389 -0.476541 0.544308
vn -0.567780 -0.640891 0.516609
vn -0.719586 -0.480812 0.501014
vn -0.692642 -0.462809 0.553223
vn -0.483654 -0.723840 0.492072
vn -0.393127 -0.749040 0.533283
vn -0.204518 -0.829762 0.519295
vn -0.396651 -0.755755 0.521059
vn -0.202187 -0.820307 0.534993
vn -0.458429 -0.686087 0.564913
vn 0.000000 -0.841037 0.540978
vn 0.000000 -0.858378 0.513017
vn -0.169338 -0.851321 0.496565
vn -0.161748 -0.813165 0.559107
vn 0.161748 -0.813165 0.559107
vn 0.204518 -0.829762 0.519295
vn 0.393127 -0.749040 0.533283
vn 0.202187 -0.820307 0.534993
vn 0.396651 -0.755755 0.521059
vn 0.169338 -0.851321 0.496565
vn 0.483654 -0.723840 0.492072
vn 0.559156 -0.631157 0.537573
vn 0.708178 -0.488820 0.509450
vn 0.567780 -0.640891 0.516609
vn 0.690389 -0.476541 0.544308
vn 0.458429 -0.686087 0.564913
vn 0.786893 -0.298429 0.540129
vn 0.692642 -0.462809 0.553223
vn 0.810586 -0.161236 0.562986
vn 0.802094 -0.304194 0.513918
vn 0.852993 -0.169671 0.493574
vn 0.719586 -0.480812 0.501015
vn 0.000000 0.000000 1.000000
vn 0.000000 0.000000 1.000000
vn 0.000000 0.000000 1.000000
vn 0.000000 0.000000 1.000000
vn 0.000000 0.000000 1.000000
vn 0.000000 0.000000 1.000000
vn 0.000000 0.000000 1.000000
vn 0.000000 0.000000 1.000000
vn 0.000000 0.000000 1.000000
vn 0.000000 0.000000 1.000000
vn 0.000000 0.000000 1.000000
vn 0.000000 0.000000 1.000000
vn 0.000000 0.000000 1.000000
vn 0.000000 0.000000 1.000000
vn 0.000000 0.000000 1.000000
vn 0.000000 0.000000 1.000000
vn 0.000000 0.000000 1.000000
vn 0.000000 0.000000 1.000000
vn 0.000000 0.000000 1.000000
vn 0.000000 0.000000 1.000000
vn 0.000000 0.000000 1.000000
vn 0.000000 0.000000 1.000000
vn 0.000000 0.000000 1.000000
vn 0.000000 0.000000 1.000000
vn 0.000000 0.000000 1.000000
vn 0.000000 0.000000 1.000000
vn 0.000000 0.000000 1.000000
vn 0.000000 0.000000 1.000000
vn 0.000000 0.000000 1.000000
vn 0.000000 0.000000 1.000000
vn 0.000000 0.000000 1.000000
vn 0.000000 0.000000 1.000000
vn 0.000000 0.000000 1.000000
vn 0.000000 0.000000 1.000000
vn 0.000000 0.000000 1.000000
vn 0.000000 0.000000 1.000000
vn 0.000000 0.000000 1.000000
vn 0.000000 0.000000 1.000000
vn 0.000000 0.000000 1.000000
vn 0.000000 0.000000 1.000000
vn 0.000000 0.000000 1.000000
vn 0.000000 0.000000 1.000000
vn 0.000000 0.000000 1.000000
vn 0.000000 0.000000 1.000000
vn 0.000000 0.000000 1.000000
vn 0.000000 0.000000 1.000000
vn 0.000000 0.000000 1.000000
vn 0.000000 0.000000 1.000000
vn 0.000000 0.000000 1.000000
vn 0.000000 0.000000 1.000000
vn 0.000000 0.000000 1.000000
vn 0.000000 0.000000 1.000000
vn 0.992709 0.120537 -0.000000
vn 0.992709 0.120537 0.000000
vn 0.935016 0.354605 0.000000
vn 0.935016 0.354605 -0.000000
vn 0.822984 0.568065 0.000000
vn 0.822984 0.568065 -0.000000
vn 0.663123 0.748511 0.000000
vn 0.663123 0.748511 -0.000000
vn 0.464723 0.885456 0.000000
vn 0.464723 0.885456 -0.000000
vn 0.239316 0.970942 0.000000
vn 0.000000 1.000000 0.000000
vn 0.239316 0.970942 -0.000000
vn 0.000000 1.000000 0.000000
vn -0.239316 0.970942 0.000000
vn -0.239316 0.970942 0.000000
vn -0.464723 0.885456 0.000000
vn -0.464723 0.885456 0.000000
vn -0.663123 0.748511 0.000000
vn -0.663123 0.748511 0.000000
vn -0.822984 0.568065 0.000000
vn -0.822984 0.568065 0.000000
vn -0.935016 0.354605 0.000000
vn -0.935016 0.354605 0.000000
vn -0.992709 0.120537 0.000000
vn -0.992709 0.120537 0.000000
vn -0.992709 -0.120537 0.000000
vn -0.992709 -0.120537 0.000000
vn -0.935016 -0.354605 -0.000000
vn -0.822984 -0.568065 -0.000000
vn -0.935016 -0.354605 0.000000
vn -0.663123 -0.748511 -0.000000
vn -0.822984 -0.568065 0.000000
vn -0.663123 -0.748511 0.000000
vn -0.464723 -0.885456 0.000000
vn -0.464723 -0.885456 0.000000
vn -0.239316 -0.970942 0.000000
vn -0.239316 -0.970942 0.000000
vn 0.000000 -1.000000 0.000000
vn 0.000000 -1.000000 0.000000
vn 0.239316 -0.970942 0.000000
vn 0.239316 -0.970942 0.000000
vn 0.464723 -0.885456 0.000000
vn 0.464723 -0.885456 0.000000
vn 0.663123 -0.748511 0.000000
vn 0.663123 -0.748511 0.000000
vn 0.822984 -0.568065 0.000000
vn 0.822984 -0.568065 0.000000
vn 0.935016 -0.354605 0.000000
vn 0.935016 -0.354605 0.000000
vn 0.992709 -0.120537 0.000000
vn 0.992709 -0.120537 0.000000
vn -0.992709 -0.120537 0.000000
vn -0.992709 -0.120537 0.000000
vn -0.935016 -0.354605 0.000000
vn -0.935016 -0.354605 0.000000
vn -0.822984 -0.568065 0.000000
vn -0.663123 -0.748511 0.000000
vn -0.822984 -0.568065 0.000000
vn -0.663123 -0.748511 0.000000
vn -0.464723 -0.885456 0.000000
vn -0.464723 -0.885456 0.000000
vn -0.239316 -0.970942 0.000000
vn -0.239316 -0.970942 0.000000
vn 0.000000 -1.000000 0.000000
vn 0.000000 -1.000000 0.000000
vn 0.239316 -0.970942 0.000000
vn 0.239316 -0.970942 0.000000
vn 0.464723 -0.885456 0.000000
vn 0.464723 -0.885456 0.000000
vn 0.663123 -0.748511 0.000000
vn 0.822984 -0.568065 0.000000
vn 0.663123 -0.748511 0.000000
vn 0.822984 -0.568065 0.000000
vn 0.935016 -0.354605 0.000000
vn 0.935016 -0.354605 0.000000
vn 0.992709 -0.120537 0.000000
vn 0.992709 -0.120537 0.000000
vn 0.992709 0.120537 -0.000000
vn 0.992709 0.120537 0.000000
vn 0.935016 0.354605 -0.000000
vn 0.935016 0.354605 0.000000
vn 0.822984 0.568065 -0.000000
vn 0.822984 0.568065 0.000000
vn 0.663123 0.748511 -0.000000
vn 0.663123 0.748511 0.000000
vn 0.464723 0.885456 -0.000000
vn 0.464723 0.885456 0.000000
vn 0.239316 0.970942 -0.000000
vn 0.239316 0.970942 0.000000
vn 0.000000 1.000000 -0.000000
vn 0.000000 1.000000 0.000000
vn -0.239316 0.970942 0.000000
vn -0.239316 0.970942 0.000000
vn -0.464723 0.885456 0.000000
vn -0.663123 0.748511 0.000000
vn -0.464723 0.885456 0.000000
vn -0.663123 0.748511 0.000000
vn -0.822984 0.568065 0.000000
vn -0.822984 0.568065 0.000000
vn -0.935016 0.354605 0.000000
vn -0.935016 0.354605 0.000000
vn -0.992709 0.120537 0.000000
vn -0.992709 0.120537 0.000000
vn 0.963481 0.116988 0.240870
vn 0.963481 0.116988 0.240870
vn 0.963481 -0.116988 0.240870
vn 0.963481 -0.116988 0.240870
vn 0.901030 0.341715 0.267163
vn 0.913348 0.346387 0.214036
vn 0.938565 0.175448 0.297178
vn 0.966058 0.180587 0.184719
vn 0.800091 0.552263 0.234221
vn 0.642617 0.725365 0.246756
vn 0.797382 0.550393 0.247486
vn 0.644559 0.727557 0.234958
vn 0.835065 0.517050 0.187950
vn 0.812692 0.503197 0.293810
vn 0.592547 0.784660 0.182200
vn 0.447924 0.853448 0.266440
vn 0.574917 0.761313 0.299790
vn 0.453877 0.864790 0.214789
vn 0.233080 0.945641 0.226798
vn 0.000000 0.967757 0.251886
vn 0.268577 0.943951 0.191891
vn 0.231417 0.938897 0.254792
vn 0.000000 0.973247 0.229760
vn 0.261929 0.920586 0.289681
vn -0.230760 0.936231 0.264992
vn -0.233651 0.947958 0.216294
vn -0.087970 0.949351 0.301652
vn -0.090754 0.979398 0.180399
vn -0.453484 0.864042 0.218594
vn -0.640978 0.723515 0.256269
vn -0.448392 0.854339 0.262772
vn -0.646075 0.729268 0.225288
vn -0.437045 0.877705 0.196534
vn -0.427281 0.858097 0.284782
vn -0.794053 0.548095 0.262816
vn -0.803089 0.554332 0.218548
vn -0.704323 0.642075 0.302768
vn -0.727031 0.662776 0.179317
vn -0.914247 0.346728 0.209598
vn -0.958592 0.116394 0.259910
vn -0.913274 0.353804 0.201872
vn -0.899919 0.341294 0.271410
vn -0.968039 0.117541 0.221548
vn -0.895417 0.346886 0.279104
vn -0.958592 -0.116394 0.259910
vn -0.914247 -0.346728 0.209598
vn -0.968039 -0.117541 0.221548
vn -0.899919 -0.341294 0.271410
vn -0.983857 0.000000 0.178956
vn -0.952946 0.000000 0.303139
vn -0.794053 -0.548095 0.262816
vn -0.803089 -0.554332 0.218548
vn -0.913274 -0.353804 0.201872
vn -0.895417 -0.346886 0.279104
vn -0.640978 -0.723515 0.256269
vn -0.453484 -0.864042 0.218594
vn -0.646075 -0.729268 0.225288
vn -0.448392 -0.854339 0.262772
vn -0.704323 -0.642075 0.302768
vn -0.727031 -0.662776 0.179317
vn -0.230760 -0.936231 0.264992
vn -0.233651 -0.947958 0.216294
vn -0.437045 -0.877705 0.196534
vn -0.427281 -0.858097 0.284782
vn -0.087970 -0.949351 0.301652
vn 0.000000 -0.967757 0.251886
vn 0.233080 -0.945641 0.226798
vn 0.000000 -0.973247 0.229760
vn 0.231417 -0.938897 0.254792
vn -0.090754 -0.979398 0.180399
vn 0.261929 -0.920586 0.289681
vn 0.268577 -0.943951 0.191891
vn 0.447924 -0.853448 0.266440
vn 0.453877 -0.864790 0.214789
vn 0.642617 -0.725365 0.246756
vn 0.800091 -0.552263 0.234221
vn 0.574917 -0.761313 0.299790
vn 0.592547 -0.784660 0.182200
vn 0.644559 -0.727557 0.234958
vn 0.797382 -0.550393 0.247486
vn 0.901030 -0.341715 0.267163
vn 0.835065 -0.517050 0.187950
vn 0.812692 -0.503197 0.293810
vn 0.913348 -0.346387 0.214036
vn 0.938565 -0.175448 0.297178
vn 0.966058 -0.180587 0.184719
vn 0.000000 0.000000 -1.000000
vn 0.000000 -0.000000 -1.000000
vn 0.000000 0.000000 -1.000000
vn 0.000000 0.000000 -1.000000
vn 0.000000 0.000000 -1.000000
vn 0.000000 -0.000000 -1.000000
vn 0.000000 0.000000 -1.000000
vn 0.000000 0.000000 -1.000000
vn 0.000000 0.000000 -1.000000
vn 0.000000 0.000000 -1.000000
vn 0.000000 0.000000 -1.000000
vn 0.000000 -0.000000 -1.000000
vn 0.000000 0.000000 -1.000000
vn 0.000000 0.000000 -1.000000
vn 0.000000 -0.000000 -1.000000
vn 0.000000 0.000000 -1.000000
vn 0.000000 0.000000 -1.000000
vn 0.000000 0.000000 -1.000000
vn 0.000000 -0.000000 -1.000000
vn 0.000000 0.000000 -1.000000
vn 0.000000 0.000000 -1.000000
vn 0.000000 0.000000 -1.000000
vn 0.000000 -0.000000 -1.000000
vn 0.000000 0.000000 -1.000000
vn 0.000000 0.000000 -1.000000
vn 0.000000 0.000000 -1.000000
vn 0.000000 0.000000 -1.000000
vn 0.000000 0.000000 -1.000000
vn 0.000000 0.000000 -1.000000
vn 0.000000 -0.000000 -1.000000
vn 0.000000 0.000000 -1.000000
vn 0.000000 0.000000 -1.000000
vn 0.000000 0.000000 -1.000000
vn 0.000000 -0.000000 -1.000000
vn 0.000000 0.000000 -1.000000
vn 0.000000 0.000000 -1.000000
vn 0.000000 0.000000 -1.000000
vn 0.000000 0.000000 -1.000000
vn 0.000000 -0.000000 -1.000000
vn 0.000000 0.000000 -1.000000
vn 0.000000 0.000000 -1.000000
vn 0.000000 0.000000 -1.000000
vn 0.000000 0.000000 -1.000000
vn 0.000000 0.000000 -1.000000
vn 0.000000 -0.000000 -1.000000
vn 0.000000 0.000000 -1.000000
vn 0.000000 0.000000 -1.000000
vn 0.000000 0.000000 -1.000000
vn 0.000000 0.000000 -1.000000
vn 0.000000 0.000000 -1.000000
vn 0.000000 -0.000000 -1.000000
vn 0.000000 0.000000 -1.000000
vn 0.992709 0.120537 0.000000
vn 0.992709 0.120537 0.000000
vn 0.935016 0.354605 0.000000
vn 0.935016 0.354605 0.000000
vn 0.822984 0.568065 0.000000
vn 0.663123 0.748511 0.000000
vn 0.822984 0.568065 0.000000
vn 0.663123 0.748511 0.000000
vn 0.464723 0.885456 0.000000
vn 0.464723 0.885456 0.000000
vn 0.239316 0.970942 0.000000
vn 0.239316 0.970942 0.000000
vn 0.000000 1.000000 0.000000
vn -0.239316 0.970942 0.000000
vn -0.000000 1.000000 0.000000
vn -0.239316 0.970942 0.000000
vn -0.464723 0.885456 0.000000
vn -0.464723 0.885456 0.000000
vn -0.663123 0.748511 0.000000
vn -0.822984 0.568065 0.000000
vn -0.663123 0.748511 0.000000
vn -0.822984 0.568065 0.000000
vn -0.935016 0.354605 0.000000
vn -0.935016 0.354605 0.000000
vn -0.992709 0.120537 0.000000
vn -0.992709 0.120537 0.000000
vn -0.992709 -0.120537 0.000000
vn -0.992709 -0.120537 -0.000000
vn -0.935016 -0.354605 0.000000
vn -0.935016 -0.354605 -0.000000
vn -0.822984 -0.568065 -0.000000
vn -0.822984 -0.568065 -0.000000
vn -0.663123 -0.748511 0.000000
vn -0.663123 -0.748511 -0.000000
vn -0.464723 -0.885456 -0.000000
vn -0.464723 -0.885456 -0.000000
vn -0.239316 -0.970942 0.000000
vn -0.239316 -0.970942 -0.000000
vn -0.000000 -1.000000 0.000000
vn 0.000000 -1.000000 -0.000000
vn 0.239316 -0.970942 0.000000
vn 0.239316 -0.970942 0.000000
vn 0.464723 -0.885456 0.000000
vn 0.464723 -0.885456 0.000000
vn 0.663123 -0.748511 0.000000
vn 0.663123 -0.748511 0.000000
vn 0.822984 -0.568065 0.000000
vn 0.822984 -0.568065 0.000000
vn 0.935016 -0.354605 0.000000
vn 0.935016 -0.354605 0.000000
vn 0.992709 -0.120537 0.000000
vn 0.992709 -0.120537 0.000000
vn -0.992709 -0.120537 0.000000
vn -0.992709 -0.120537 0.000000
vn -0.935016 -0.354605 0.000000
vn -0.935016 -0.354605 0.000000
vn -0.822984 -0.568065 0.000000
vn -0.822984 -0.568065 0.000000
vn -0.663123 -0.748511 0.000000
vn -0.663123 -0.748511 0.000000
vn -0.464723 -0.885456 0.000000
vn -0.239316 -0.970942 0.000000
vn -0.464723 -0.885456 0.000000
vn -0.239316 -0.970942 0.000000
vn 0.000000 -1.000000 0.000000
vn 0.000000 -1.000000 0.000000
vn 0.239316 -0.970942 0.000000
vn 0.239316 -0.970942 0.000000
vn 0.464723 -0.885456 0.000000
vn 0.464723 -0.885456 0.000000
vn 0.663123 -0.748511 0.000000
vn 0.822984 -0.568065 0.000000
vn 0.663123 -0.748511 0.000000
vn 0.822984 -0.568065 0.000000
vn 0.935016 -0.354605 0.000000
vn 0.935016 -0.354605 0.000000
vn 0.992709 -0.120537 0.000000
vn 0.992709 -0.120537 0.000000
vn 0.992709 0.120537 0.000000
vn 0.992709 0.120537 -0.000000
vn 0.935016 0.354605 0.000000
vn 0.935016 0.354605 -0.000000
vn 0.822984 0.568065 -0.000000
vn 0.822984 0.568065 -0.000000
vn 0.663123 0.748511 -0.000000
vn 0.464723 0.885456 -0.000000
vn 0.663123 0.748511 0.000000
vn 0.464723 0.885456 -0.000000
vn 0.239316 0.970942 -0.000000
vn 0.239316 0.970942 0.000000
vn 0.000000 1.000000 -0.000000
vn 0.000000 1.000000 0.000000
vn -0.239316 0.970942 0.000000
vn -0.239316 0.970942 0.000000
vn -0.464723 0.885456 0.000000
vn -0.464723 0.885456 0.000000
vn -0.663123 0.748511 0.000000
vn -0.663123 0.748511 0.000000
vn -0.822984 0.568065 0.000000
vn -0.822984 0.568065 0.000000
vn -0.935016 0.354605 0.000000
vn -0.992709 0.120537 0.000000
vn -0.935016 0.354605 0.000000
vn -0.992709 0.120537 0.000000
vn 0.000000 0.000000 -1.000000
vn 0.000000 0.000000 -1.000000
vn 0.000000 -0.000000 -1.000000
vn 0.000000 0.000000 -1.000000
vn 0.000000 0.000000 -1.000000
vn 0.000000 -0.000000 -1.000000
vn 0.000000 0.000000 -1.000000
vn 0.000000 0.000000 -1.000000
vn 0.000000 0.000000 -1.000000
vn 0.000000 0.000000 -1.000000
vn 0.000000 -0.000000 -1.000000
vn 0.000000 0.000000 -1.000000
vn 0.000000 0.000000 -1.000000
vn 0.000000 -0.000000 -1.000000
vn 0.000000 -0.000000 -1.000000
vn 0.000000 0.000000 -1.000000
vn 0.000000 0.000000 -1.000000
vn 0.000000 0.000000 -1.000000
vn 0.000000 -0.000000 -1.000000
vn 0.000000 0.000000 -1.000000
vn 0.000000 0.000000 -1.000000
vn 0.000000 0.000000 -1.000000
vn 0.000000 -0.000000 -1.000000
vn 0.000000 0.000000 -1.000000
vn 0.000000 0.000000 -1.000000
vn 0.000000 -0.000000 -1.000000
vn 0.000000 0.000000 -1.000000
vn 0.000000 0.000000 -1.000000
vn 0.000000 0.000000 -1.000000
vn 0.000000 0.000000 -1.000000
vn 0.000000 0.000000 -1.000000
vn 0.000000 0.000000 -1.000000
vn 0.000000 0.000000 -1.000000
vn 0.000000 0.000000 -1.000000
vn 0.000000 -0.000000 -1.000000
vn 0.000000 0.000000 -1.000000
vn 0.000000 0.000000 -1.000000
vn 0.000000 0.000000 -1.000000
vn 0.000000 0.000000 -1.000000
vn 0.000000 0.000000 -1.000000
vn 0.000000 0.000000 -1.000000
vn 0.000000 0.000000 -1.000000
vn 0.000000 0.000000 -1.000000
vn 0.000000 0.000000 -1.000000
vn 0.000000 -0.000000 -1.000000
vn 0.000000 0.000000 -1.000000
vn 0.000000 0.000000 -1.000000
vn 0.000000 0.000000 -1.000000
vn 0.000000 0.000000 -1.000000
vn 0.000000 0.000000 -1.000000
vn 0.000000 0.000000 -1.000000
vn 0.000000 0.000000 -1.000000
vn 0.000000 0.000000 -1.000000
vn 0.000000 -0.000000 -1.000000
vn 0.000000 0.000000 -1.000000
vn 0.000000 0.000000 -1.000000
vn 0.000000 0.000000 -1.000000
vn 0.000000 0.000000 -1.000000
vn 0.000000 -0.000000 -1.000000
vn 0.000000 0.000000 -1.000000
vn 0.000000 0.000000 -1.000000
vn 0.000000 -0.000000 -1.000000
vn 0.000000 0.000000 -1.000000
vn 0.000000 0.000000 -1.000000
vn 0.000000 0.000000 -1.000000
vn 0.000000 -0.000000 -1.000000
vn 0.000000 0.000000 -1.000000
vn 0.000000 0.000000 -1.000000
vn 0.000000 0.000000 -1.000000
vn 0.000000 0.000000 -1.000000
vn 0.000000 -0.000000 -1.000000
vn 0.000000 0.000000 -1.000000
vn 0.000000 0.000000 -1.000000
vn 0.000000 0.000000 -1.000000
vn 0.000000 -0.000000 -1.000000
vn 0.000000 0.000000 -1.000000
vn 0.000000 -0.000000 -1.000000
vn 0.000000 0.000000 -1.000000
vn 0.000000 0.000000 -1.000000
vn 0.000000 0.000000 -1.000000
vn 0.000000 0.000000 -1.000000
vn 0.000000 -0.000000 -1.000000
vn 0.000000 0.000000 -1.000000
vn 0.000000 0.000000 -1.000000
vn 0.000000 0.000000 -1.000000
vn 0.000000 0.000000 -1.000000
vn 0.000000 0.000000 -1.000000
vn 0.000000 0.000000 -1.000000
vn 0.000000 -0.000000 -1.000000
vn 0.000000 0.000000 -1.000000
vn 0.000000 0.000000 -1.000000
vn 0.000000 0.000000 -1.000000
vn 0.000000 0.000000 -1.000000
vn 0.000000 0.000000 -1.000000
vn 0.000000 0.000000 -1.000000
vn 0.000000 0.000000 -1.000000
vn 0.000000 0.000000 -1.000000
vn 0.000000 -0.000000 -1.000000
vn 0.000000 0.000000 -1.000000
vn 0.000000 0.000000 -1.000000
vn 0.000000 -0.000000 -1.000000
vn 0.000000 0.000000 -1.000000
vn 0.000000 0.000000 -1.000000
vn 0.000000 0.000000 -1.000000
vn -0.992709 -0.120537 -0.000000
vn -0.992709 -0.120537 0.000000
vn -0.935016 -0.354605 0.000000
vn -0.935016 -0.354605 -0.000000
vn -0.822984 -0.568065 0.000000
vn -0.822984 -0.568065 -0.000000
vn -0.663123 -0.748511 0.000000
vn -0.464723 -0.885456 0.000000
vn -0.663123 -0.748511 -0.000000
vn -0.464723 -0.885456 0.000000
vn -0.239316 -0.970942 0.000000
vn -0.239316 -0.970942 -0.000000
vn 0.000000 -1.000000 0.000000
vn 0.239316 -0.970942 0.000000
vn -0.000000 -1.000000 -0.000000
vn 0.464723 -0.885456 0.000000
vn 0.239316 -0.970942 0.000000
vn 0.663123 -0.748511 0.000000
vn 0.464723 -0.885456 0.000000
vn 0.663123 -0.748511 0.000000
vn 0.822984 -0.568065 0.000000
vn 0.822984 -0.568065 0.000000
vn 0.935016 -0.354605 0.000000
vn 0.935016 -0.354605 0.000000
vn 0.992709 -0.120537 0.000000
vn 0.992709 -0.120537 0.000000
vn 0.992709 0.120537 0.000000
vn 0.992709 0.120537 0.000000
vn 0.935016 0.354605 0.000000
vn 0.935016 0.354605 0.000000
vn 0.822984 0.568065 0.000000
vn 0.822984 0.568065 0.000000
vn 0.663123 0.748511 0.000000
vn 0.663123 0.748511 0.000000
vn 0.464723 0.885456 0.000000
vn 0.464723 0.885456 0.000000
vn 0.239316 0.970942 0.000000
vn 0.239316 0.970942 0.000000
vn 0.000000 1.000000 0.000000
vn -0.000000 1.000000 0.000000
vn -0.239316 0.970942 0.000000
vn -0.239316 0.970942 0.000000
vn -0.464723 0.885456 0.000000
vn -0.464723 0.885456 0.000000
vn -0.663123 0.748511 0.000000
vn -0.663123 0.748511 0.000000
vn -0.822984 0.568065 0.000000
vn -0.822984 0.568065 0.000000
vn -0.935016 0.354605 0.000000
vn -0.935016 0.354605 0.000000
vn -0.992709 0.120537 0.000000
vn -0.992709 0.120537 0.000000
f 1//1 2//1 3//1
f 3//2 2//2 4//2
f 4//3 5//3 6//3
f 2//4 5//4 4//4
f 6//5 7//5 8//5
f 5//6 7//6 6//6
f 8//7 9//7 10//7
f 7//8 9//8 8//8
f 10//9 11//9 12//9
f 9//10 11//10 10//10
f 12//11 13//11 14//11
f 11//12 13//12 12//12
f 14//13 15//13 16//13
f 13//14 15//14 14//14
f 16//15 17//15 18//15
f 18//16 17//16 19//16
f 15//17 17//17 16//17
f 19//18 20//18 21//18
f 17//19 20//19 19//19
f 20//20 22//20 21//20
f 22//21 23//21 21//21
f 21//22 23//22 24//22
f 23//23 25//23 24//23
f 24//24 25//24 26//24
f 25//25 27//25 26//25
f 26//26 27//26 28//26
f 28//27 27//27 29//27
f 27//28 30//28 29//28
f 29//29 31//29 32//29
f 32//30 31//30 33//30
f 30//31 31//31 29//31
f 31//32 34//32 33//32
f 33//33 35//33 36//33
f 34//34 35//34 33//34
f 36//35 37//35 38//35
f 38//36 37//36 39//36
f 35//37 37//37 36//37
f 37//38 40//38 39//38
f 39//39 41//39 42//39
f 42//40 41//40 43//40
f 40//41 41//41 39//41
f 41//42 44//42 43//42
f 43//43 45//43 46//43
f 44//44 45//44 43//44
f 46//45 47//45 48//45
f 45//46 47//46 46//46
f 48//47 49//47 50//47
f 47//48 49//48 48//48
f 50//49 51//49 52//49
f 49//50 51//50 50//50
f 52//51 1//51 3//51
f 51//52 1//52 52//52
f 53//53 54//53 55//53
f 2//54 1//54 53//54
f 53//55 56//55 54//55
f 1//56 51//56 53//56
f 57//57 5//57 2//57
f 57//58 55//58 58//58
f 57//59 53//59 55//59
f 57//60 2//60 53//60
f 59//61 7//61 5//61
f 59//62 9//62 7//62
f 59//63 58//63 60//63
f 59//64 60//64 61//64
f 59//65 5//65 57//65
f 59//66 57//66 58//66
f 62//67 9//67 59//67
f 62//68 11//68 9//68
f 62//69 13//69 11//69
f 62//70 59//70 61//70
f 62//71 61//71 63//71
f 62//72 63//72 64//72
f 65//73 15//73 13//73
f 65//74 64//74 66//74
f 65//75 13//75 62//75
f 65//76 62//76 64//76
f 67//77 17//77 15//77
f 67//78 20//78 17//78
f 67//79 66//79 68//79
f 67//80 68//80 69//80
f 67//81 15//81 65//81
f 67//82 65//82 66//82
f 70//83 22//83 20//83
f 70//84 23//84 22//84
f 70//85 67//85 69//85
f 70//86 69//86 71//86
f 70//87 71//87 72//87
f 70//88 20//88 67//88
f 73//89 25//89 23//89
f 73//90 70//90 72//90
f 73//91 23//91 70//91
f 73//92 72//92 74//92
f 75//93 73//93 74//93
f 75//94 27//94 25//94
f 75//95 30//95 27//95
f 75//96 74//96 76//96
f 75//97 76//97 77//97
f 75//98 25//98 73//98
f 78//99 31//99 30//99
f 78//100 77//100 79//100
f 78//101 30//101 75//101
f 78//102 75//102 77//102
f 80//103 34//103 31//103
f 80//104 35//104 34//104
f 80//105 79//105 81//105
f 80//106 81//106 82//106
f 80//107 31//107 78//107
f 80//108 78//108 79//108
f 83//109 35//109 80//109
f 83//110 37//110 35//110
f 83//111 40//111 37//111
f 83//112 82//112 84//112
f 83//113 84//113 85//113
f 83//114 80//114 82//114
f 86//115 41//115 40//115
f 86//116 85//116 87//116
f 86//117 40//117 83//117
f 86//118 83//118 85//118
f 88//119 86//119 87//119
f 88//120 44//120 41//120
f 88//121 45//121 44//121
f 88//122 87//122 89//122
f 88//123 89//123 90//123
f 88//124 41//124 86//124
f 91//125 45//125 88//125
f 91//126 47//126 45//126
f 91//127 49//127 47//127
f 91//128 90//128 92//128
f 91//129 92//129 93//129
f 91//130 88//130 90//130
f 94//131 51//131 49//131
f 94//132 91//132 93//132
f 94//133 56//133 53//133
f 94//134 93//134 56//134
f 94//135 53//135 51//135
f 94//136 49//136 91//136
f 95//137 33//137 36//137
f 95//138 96//138 33//138
f 97//139 32//139 33//139
f 97//140 33//140 96//140
f 98//141 36//141 38//141
f 98//142 95//142 36//142
f 99//143 29//143 32//143
f 99//144 32//144 97//144
f 100//145 38//145 39//145
f 100//146 98//146 38//146
f 101//147 28//147 29//147
f 101//148 29//148 99//148
f 102//149 39//149 42//149
f 102//150 100//150 39//150
f 103//151 26//151 28//151
f 103//152 28//152 101//152
f 104//153 42//153 43//153
f 104//154 102//154 42//154
f 105//155 24//155 26//155
f 105//156 26//156 103//156
f 106//157 43//157 46//157
f 106//158 104//158 43//158
f 107//159 21//159 24//159
f 107//160 24//160 105//160
f 48//161 106//161 46//161
f 48//162 108//162 106//162
f 19//163 107//163 109//163
f 19//164 21//164 107//164
f 50//165 108//165 48//165
f 50//166 110//166 108//166
f 111//167 110//167 50//167
f 18//168 19//168 109//168
f 18//169 109//169 112//169
f 52//170 111//170 50//170
f 52//171 113//171 111//171
f 16//172 18//172 112//172
f 16//173 112//173 114//173
f 3//174 113//174 52//174
f 14//175 114//175 115//175
f 14//176 16//176 114//176
f 4//177 116//177 113//177
f 4//178 113//178 3//178
f 12//179 115//179 117//179
f 12//180 14//180 115//180
f 6//181 116//181 4//181
f 6//182 118//182 116//182
f 10//183 117//183 119//183
f 10//184 12//184 117//184
f 8//185 120//185 118//185
f 8//186 119//186 120//186
f 8//187 118//187 6//187
f 8//188 10//188 119//188
f 121//189 122//189 54//189
f 54//190 122//190 55//190
f 55//191 123//191 58//191
f 122//192 123//192 55//192
f 58//193 124//193 60//193
f 123//194 124//194 58//194
f 60//195 125//195 61//195
f 124//196 125//196 60//196
f 61//197 126//197 63//197
f 125//198 126//198 61//198
f 63//199 127//199 64//199
f 64//200 127//200 66//200
f 126//201 127//201 63//201
f 127//202 128//202 66//202
f 66//203 129//203 68//203
f 128//204 129//204 66//204
f 68//205 130//205 69//205
f 129//206 130//206 68//206
f 69//207 131//207 71//207
f 130//208 131//208 69//208
f 131//209 132//209 71//209
f 71//210 132//210 72//210
f 132//211 133//211 72//211
f 72//212 133//212 74//212
f 74//213 133//213 76//213
f 133//214 134//214 76//214
f 134//215 135//215 76//215
f 76//216 135//216 77//216
f 77//217 135//217 79//217
f 79//218 136//218 81//218
f 135//219 136//219 79//219
f 81//220 137//220 82//220
f 136//221 137//221 81//221
f 137//222 138//222 82//222
f 82//223 139//223 84//223
f 138//224 139//224 82//224
f 84//225 140//225 85//225
f 139//226 140//226 84//226
f 85//227 141//227 87//227
f 140//228 141//228 85//228
f 87//229 142//229 89//229
f 141//230 142//230 87//230
f 89//231 143//231 90//231
f 142//232 143//232 89//232
f 90//233 144//233 92//233
f 143//234 144//234 90//234
f 92//235 145//235 93//235
f 144//236 145//236 92//236
f 93//237 146//237 56//237
f 145//238 146//238 93//238
f 56//239 121//239 54//239
f 146//240 121//240 56//240
f 147//241 148//241 113//241
f 147//242 113//242 116//242
f 149//243 116//243 118//243
f 149//244 147//244 116//244
f 150//245 118//245 120//245
f 150//246 120//246 119//246
f 150//247 149//247 118//247
f 151//248 150//248 119//248
f 152//249 119//249 117//249
f 152//250 151//250 119//250
f 153//251 117//251 115//251
f 153//252 152//252 117//252
f 154//253 115//253 114//253
f 154//254 153//254 115//254
f 155//255 114//255 112//255
f 155//256 154//256 114//256
f 156//257 112//257 109//257
f 156//258 155//258 112//258
f 157//259 109//259 107//259
f 157//260 107//260 105//260
f 157//261 156//261 109//261
f 158//262 157//262 105//262
f 159//263 158//263 105//263
f 159//264 105//264 103//264
f 159//265 103//265 101//265
f 160//266 159//266 101//266
f 161//267 101//267 99//267
f 161//268 160//268 101//268
f 162//269 99//269 97//269
f 162//270 161//270 99//270
f 163//271 97//271 96//271
f 163//272 162//272 97//272
f 164//273 96//273 95//273
f 164//274 163//274 96//274
f 165//275 95//275 98//275
f 165//276 164//276 95//276
f 166//277 98//277 100//277
f 166//278 165//278 98//278
f 167//279 100//279 102//279
f 167//280 166//280 100//280
f 168//281 102//281 104//281
f 168//282 167//282 102//282
f 169//283 104//283 106//283
f 169//284 106//284 108//284
f 169//285 168//285 104//285
f 170//286 169//286 108//286
f 171//287 108//287 110//287
f 171//288 170//288 108//288
f 172//289 110//289 111//289
f 172//290 171//290 110//290
f 148//291 111//291 113//291
f 148//292 172//292 111//292
f 173//293 174//293 175//293
f 122//294 121//294 173//294
f 173//295 176//295 174//295
f 121//296 146//296 173//296
f 177//297 123//297 122//297
f 177//298 175//298 178//298
f 177//299 173//299 175//299
f 177//300 122//300 173//300
f 179//301 124//301 123//301
f 179//302 125//302 124//302
f 179//303 178//303 180//303
f 179//304 180//304 181//304
f 179//305 123//305 177//305
f 179//306 177//306 178//306
f 182//307 125//307 179//307
f 182//308 126//308 125//308
f 182//309 179//309 181//309
f 182//310 181//310 183//310
f 184//311 127//311 126//311
f 184//312 128//312 127//312
f 184//313 126//313 182//313
f 184//314 183//314 185//314
f 184//315 185//315 186//315
f 184//316 182//316 183//316
f 187//317 129//317 128//317
f 187//318 186//318 188//318
f 187//319 184//319 186//319
f 187//320 128//320 184//320
f 189//321 130//321 129//321
f 189//322 131//322 130//322
f 189//323 188//323 190//323
f 189//324 190//324 191//324
f 189//325 129//325 187//325
f 189//326 187//326 188//326
f 192//327 132//327 131//327
f 192//328 191//328 193//328
f 192//329 189//329 191//329
f 192//330 131//330 189//330
f 194//331 133//331 132//331
f 194//332 134//332 133//332
f 194//333 132//333 192//333
f 194//334 193//334 195//334
f 194//335 195//335 196//335
f 194//336 192//336 193//336
f 197//337 135//337 134//337
f 197//338 136//338 135//338
f 197//339 196//339 198//339
f 197//340 198//340 199//340
f 197//341 134//341 194//341
f 197//342 194//342 196//342
f 200//343 137//343 136//343
f 200//344 199//344 201//344
f 200//345 136//345 197//345
f 200//346 197//346 199//346
f 202//347 138//347 137//347
f 202//348 139//348 138//348
f 202//349 201//349 203//349
f 202//350 203//350 204//350
f 202//351 200//351 201//351
f 202//352 137//352 200//352
f 205//353 140//353 139//353
f 205//354 204//354 206//354
f 205//355 139//355 202//355
f 205//356 202//356 204//356
f 207//357 205//357 206//357
f 207//358 141//358 140//358
f 207//359 142//359 141//359
f 207//360 206//360 208//360
f 207//361 208//361 209//361
f 207//362 140//362 205//362
f 210//363 207//363 209//363
f 210//364 142//364 207//364
f 210//365 143//365 142//365
f 210//366 209//366 211//366
f 212//367 144//367 143//367
f 212//368 145//368 144//368
f 212//369 210//369 211//369
f 212//370 143//370 210//370
f 212//371 211//371 213//371
f 212//372 213//372 214//372
f 215//373 146//373 145//373
f 215//374 145//374 212//374
f 215//375 212//375 214//375
f 215//376 214//376 176//376
f 215//377 176//377 173//377
f 215//378 173//378 146//378
f 216//379 164//379 217//379
f 163//380 164//380 216//380
f 218//381 162//381 216//381
f 216//382 162//382 163//382
f 217//383 165//383 219//383
f 164//384 165//384 217//384
f 220//385 161//385 221//385
f 221//386 161//386 218//386
f 218//387 161//387 162//387
f 219//388 166//388 222//388
f 222//389 166//389 223//389
f 165//390 166//390 219//390
f 220//391 160//391 161//391
f 166//392 167//392 223//392
f 224//393 159//393 220//393
f 220//394 159//394 160//394
f 223//395 168//395 225//395
f 167//396 168//396 223//396
f 226//397 158//397 224//397
f 224//398 158//398 159//398
f 225//399 169//399 227//399
f 168//400 169//400 225//400
f 228//401 157//401 226//401
f 226//402 157//402 158//402
f 169//403 170//403 227//403
f 170//404 229//404 227//404
f 228//405 156//405 157//405
f 228//406 230//406 156//406
f 170//407 231//407 229//407
f 171//408 231//408 170//408
f 230//409 232//409 156//409
f 156//410 232//410 155//410
f 171//411 233//411 231//411
f 172//412 233//412 171//412
f 232//413 234//413 155//413
f 154//414 234//414 153//414
f 155//415 234//415 154//415
f 172//416 235//416 233//416
f 148//417 235//417 172//417
f 234//418 236//418 153//418
f 147//419 237//419 148//419
f 148//420 237//420 235//420
f 152//421 238//421 151//421
f 153//422 238//422 152//422
f 236//423 238//423 153//423
f 149//424 239//424 147//424
f 147//425 239//425 237//425
f 238//426 240//426 151//426
f 150//427 241//427 149//427
f 151//428 241//428 150//428
f 240//429 241//429 151//429
f 149//430 241//430 239//430
f 175//431 174//431 242//431
f 175//432 242//432 243//432
f 178//433 243//433 244//433
f 178//434 175//434 243//434
f 180//435 244//435 245//435
f 180//436 245//436 246//436
f 180//437 178//437 244//437
f 181//438 180//438 246//438
f 183//439 246//439 247//439
f 183//440 181//440 246//440
f 185//441 247//441 248//441
f 185//442 183//442 247//442
f 186//443 248//443 249//443
f 186//444 249//444 250//444
f 186//445 185//445 248//445
f 188//446 186//446 250//446
f 190//447 250//447 251//447
f 190//448 188//448 250//448
f 191//449 251//449 252//449
f 191//450 252//450 253//450
f 191//451 190//451 251//451
f 193//452 191//452 253//452
f 195//453 193//453 253//453
f 195//454 253//454 254//454
f 196//455 195//455 254//455
f 196//456 254//456 255//456
f 198//457 196//457 255//457
f 198//458 255//458 256//458
f 199//459 198//459 256//459
f 199//460 256//460 257//460
f 199//461 257//461 258//461
f 201//462 199//462 258//462
f 203//463 201//463 258//463
f 203//464 258//464 259//464
f 203//465 259//465 260//465
f 204//466 203//466 260//466
f 206//467 204//467 260//467
f 206//468 260//468 261//468
f 208//469 206//469 261//469
f 208//470 261//470 262//470
f 209//471 208//471 262//471
f 209//472 262//472 263//472
f 209//473 263//473 264//473
f 211//474 209//474 264//474
f 213//475 211//475 264//475
f 213//476 264//476 265//476
f 214//477 213//477 265//477
f 214//478 265//478 266//478
f 176//479 266//479 267//479
f 176//480 214//480 266//480
f 174//481 267//481 242//481
f 174//482 176//482 267//482
f 268//483 269//483 235//483
f 268//484 235//484 237//484
f 270//485 237//485 239//485
f 270//486 268//486 237//486
f 271//487 239//487 241//487
f 271//488 270//488 239//488
f 272//489 241//489 240//489
f 272//490 271//490 241//490
f 273//491 240//491 238//491
f 273//492 238//492 236//492
f 273//493 272//493 240//493
f 274//494 273//494 236//494
f 275//495 236//495 234//495
f 275//496 274//496 236//496
f 276//497 234//497 232//497
f 276//498 275//498 234//498
f 277//499 232//499 230//499
f 277//500 276//500 232//500
f 278//501 230//501 228//501
f 278//502 228//502 226//502
f 278//503 277//503 230//503
f 279//504 278//504 226//504
f 280//505 279//505 226//505
f 280//506 226//506 224//506
f 280//507 224//507 220//507
f 281//508 280//508 220//508
f 282//509 281//509 220//509
f 282//510 220//510 221//510
f 283//511 282//511 221//511
f 283//512 221//512 218//512
f 283//513 218//513 216//513
f 284//514 283//514 216//514
f 285//515 216//515 217//515
f 285//516 217//516 219//516
f 285//517 284//517 216//517
f 286//518 285//518 219//518
f 287//519 219//519 222//519
f 287//520 286//520 219//520
f 288//521 222//521 223//521
f 288//522 287//522 222//522
f 289//523 223//523 225//523
f 289//524 288//524 223//524
f 290//525 225//525 227//525
f 290//526 289//526 225//526
f 291//527 227//527 229//527
f 291//528 290//528 227//528
f 292//529 229//529 231//529
f 292//530 291//530 229//530
f 293//531 231//531 233//531
f 293//532 233//532 235//532
f 293//533 292//533 231//533
f 269//534 293//534 235//534
f 257//535 294//535 258//535
f 258//536 295//536 259//536
f 294//537 295//537 258//537
f 257//538 296//538 294//538
f 259//539 297//539 260//539
f 295//540 297//540 259//540
f 255//541 298//541 256//541
f 256//542 298//542 257//542
f 257//543 298//543 296//543
f 260//544 299//544 261//544
f 297//545 299//545 260//545
f 255//546 300//546 298//546
f 261//547 301//547 262//547
f 299//548 301//548 261//548
f 254//549 302//549 255//549
f 255//550 302//550 300//550
f 262//551 303//551 263//551
f 301//552 303//552 262//552
f 253//553 304//553 254//553
f 254//554 304//554 302//554
f 263//555 305//555 264//555
f 303//556 305//556 263//556
f 252//557 306//557 253//557
f 253//558 306//558 304//558
f 305//559 307//559 264//559
f 307//560 265//560 264//560
f 252//561 308//561 306//561
f 252//562 251//562 308//562
f 307//563 309//563 265//563
f 309//564 266//564 265//564
f 251//565 250//565 308//565
f 308//566 250//566 310//566
f 250//567 311//567 310//567
f 309//568 267//568 266//568
f 312//569 267//569 309//569
f 312//570 313//570 267//570
f 250//571 249//571 311//571
f 313//572 242//572 267//572
f 311//573 248//573 314//573
f 249//574 248//574 311//574
f 315//575 243//575 313//575
f 313//576 243//576 242//576
f 316//577 247//577 317//577
f 314//578 247//578 316//578
f 248//579 247//579 314//579
f 318//580 244//580 315//580
f 319//581 244//581 318//581
f 315//582 244//582 243//582
f 317//583 246//583 319//583
f 247//584 246//584 317//584
f 246//585 245//585 319//585
f 319//586 245//586 244//586
f 320//587 285//587 321//587
f 284//588 285//588 320//588
f 322//589 283//589 323//589
f 323//590 283//590 320//590
f 320//591 283//591 284//591
f 321//592 286//592 324//592
f 285//593 286//593 321//593
f 322//594 282//594 283//594
f 324//595 287//595 325//595
f 286//596 287//596 324//596
f 326//597 281//597 322//597
f 322//598 281//598 282//598
f 325//599 288//599 327//599
f 287//600 288//600 325//600
f 326//601 328//601 281//601
f 328//602 280//602 281//602
f 288//603 329//603 327//603
f 288//604 289//604 329//604
f 330//605 279//605 328//605
f 328//606 279//606 280//606
f 329//607 290//607 331//607
f 289//608 290//608 329//608
f 332//609 278//609 330//609
f 330//610 278//610 279//610
f 291//611 333//611 290//611
f 290//612 333//612 331//612
f 332//613 277//613 278//613
f 332//614 334//614 277//614
f 291//615 335//615 333//615
f 292//616 335//616 291//616
f 334//617 336//617 277//617
f 277//618 336//618 276//618
f 292//619 293//619 335//619
f 293//620 337//620 335//620
f 276//621 338//621 275//621
f 336//622 338//622 276//622
f 269//623 339//623 293//623
f 293//624 339//624 337//624
f 338//625 340//625 275//625
f 275//626 340//626 274//626
f 268//627 341//627 269//627
f 270//628 341//628 268//628
f 269//629 341//629 339//629
f 273//630 342//630 272//630
f 274//631 342//631 273//631
f 340//632 342//632 274//632
f 270//633 343//633 341//633
f 342//634 344//634 272//634
f 344//635 345//635 272//635
f 271//636 345//636 270//636
f 272//637 345//637 271//637
f 270//638 345//638 343//638
f 339//639 341//639 313//639
f 313//640 341//640 315//640
f 315//641 343//641 318//641
f 341//642 343//642 315//642
f 318//643 345//643 319//643
f 343//644 345//644 318//644
f 319//645 344//645 317//645
f 317//646 344//646 316//646
f 345//647 344//647 319//647
f 344//648 342//648 316//648
f 316//649 340//649 314//649
f 342//650 340//650 316//650
f 314//651 338//651 311//651
f 311//652 338//652 310//652
f 340//653 338//653 314//653
f 310//654 336//654 308//654
f 338//655 336//655 310//655
f 308//656 334//656 306//656
f 336//657 334//657 308//657
f 334//658 332//658 306//658
f 332//659 330//659 306//659
f 306//660 330//660 304//660
f 304//661 330//661 302//661
f 330//662 328//662 302//662
f 328//663 326//663 302//663
f 302//664 326//664 300//664
f 326//665 322//665 300//665
f 300//666 322//666 298//666
f 322//667 323//667 298//667
f 298//668 323//668 296//668
f 323//669 320//669 296//669
f 296//670 320//670 294//670
f 320//671 321//671 294//671
f 294//672 321//672 295//672
f 321//673 324//673 295//673
f 295//674 324//674 297//674
f 324//675 325//675 297//675
f 297//676 325//676 299//676
f 299//677 325//677 301//677
f 325//678 327//678 301//678
f 327//679 329//679 301//679
f 301//680 329//680 303//680
f 303//681 329//681 305//681
f 329//682 331//682 305//682
f 331//683 333//683 305//683
f 305//684 333//684 307//684
f 333//685 335//685 307//685
f 307//686 335//686 309//686
f 309//687 337//687 312//687
f 335//688 337//688 309//688
f 312//689 339//689 313//689
f 337//690 339//690 312//690
